<?xml version="1.0" encoding="UTF-8" standalone="no"?>
<!-- Created with Inkscape (http://www.inkscape.org/) -->

<svg
   width="50.394402mm"
   height="42.294312mm"
   viewBox="0 0 50.394402 42.294312"
   version="1.1"
   id="svg1"
   inkscape:version="1.4.2 (ebf0e940d0, 2025-05-08)"
   sodipodi:docname="dibujo.svg"
   inkscape:export-filename="pendulo01.pdf"
   inkscape:export-xdpi="96"
   inkscape:export-ydpi="96"
   xmlns:inkscape="http://www.inkscape.org/namespaces/inkscape"
   xmlns:sodipodi="http://sodipodi.sourceforge.net/DTD/sodipodi-0.dtd"
   xmlns="http://www.w3.org/2000/svg"
   xmlns:svg="http://www.w3.org/2000/svg">
  <sodipodi:namedview
     id="namedview1"
     pagecolor="#ffffff"
     bordercolor="#000000"
     borderopacity="0.25"
     inkscape:showpageshadow="2"
     inkscape:pageopacity="0.0"
     inkscape:pagecheckerboard="0"
     inkscape:deskcolor="#d1d1d1"
     inkscape:document-units="mm"
     inkscape:zoom="0.71268238"
     inkscape:cx="207.66614"
     inkscape:cy="165.57165"
     inkscape:window-width="1920"
     inkscape:window-height="1011"
     inkscape:window-x="0"
     inkscape:window-y="0"
     inkscape:window-maximized="1"
     inkscape:current-layer="g2979" />
  <defs
     id="defs1" />
  <g
     inkscape:label="Capa 1"
     inkscape:groupmode="layer"
     id="layer1"
     transform="translate(-49.807689,-104.51219)">
    <g
       id="g2979"
       inkscape:groupmode="layer"
       inkscape:label="19"
       transform="matrix(0.26458333,0,0,0.26458333,-5158.0587,3.4446077)">
      <path
         id="path3005"
         d="m -44.13977,-79.85603 h 141.854 V 39.03708 h -141.854 z"
         style="fill:#fffdd9;fill-opacity:1;fill-rule:nonzero;stroke:#e6e6e6;stroke-width:0.99628;stroke-linecap:butt;stroke-linejoin:miter;stroke-miterlimit:10;stroke-dasharray:none;stroke-opacity:1"
         transform="matrix(1.3333333,0,0,-1.3333333,19742.792,434.70133)" />
      <path
         id="path3006"
         d="m 26.50821,-22.96057 c 1.59819,10e-6 4.16447,0.44015 6.59474,1.29143"
         style="fill:none;stroke:#008c00;stroke-width:0.3985;stroke-linecap:butt;stroke-linejoin:miter;stroke-miterlimit:10;stroke-dasharray:none;stroke-opacity:1"
         transform="matrix(1.3333333,0,0,-1.3333333,19742.792,434.70133)" />
      <path
         id="path3007"
         d="m 35.00128,-20.90776 c -0.25709,-0.03995 -1.41389,-0.09728 -2.18881,0.06793 0.19382,-0.55281 0.38748,-1.10571 0.58096,-1.65864 0.52152,0.64127 1.40598,1.42547 1.60785,1.59071 z"
         style="fill:#008c00;fill-opacity:1;fill-rule:nonzero;stroke:#008c00;stroke-width:0.3985;stroke-linecap:butt;stroke-linejoin:miter;stroke-miterlimit:10;stroke-dasharray:none;stroke-opacity:1"
         transform="matrix(1.3333333,0,0,-1.3333333,19742.792,434.70133)" />
      <text
         id="text3007"
         xml:space="preserve"
         transform="matrix(1.3333333,0,0,1.3333333,19779.18,458.732)"><tspan
           id="tspan3007"
           style="font-variant:normal;font-weight:normal;font-size:7.97011px;font-family:'Latin Modern Math';writing-mode:lr-tb;fill:#008000;fill-opacity:1;fill-rule:nonzero;stroke:none"
           x="0"
           y="0">𝜃</tspan></text>
      <path
         id="path3008"
         d="M 25.51183,0 V -58.67757"
         style="fill:none;stroke:#d9d9d9;stroke-width:0.09962;stroke-linecap:butt;stroke-linejoin:miter;stroke-miterlimit:10;stroke-dasharray:none;stroke-opacity:1"
         transform="matrix(1.3333333,0,0,-1.3333333,19742.792,434.70133)" />
      <path
         id="path3009"
         d="M -25.51183,0 H 73.1872"
         style="fill:none;stroke:#808080;stroke-width:0.79701;stroke-linecap:butt;stroke-linejoin:miter;stroke-miterlimit:10;stroke-dasharray:none;stroke-opacity:1"
         transform="matrix(1.3333333,0,0,-1.3333333,19742.792,434.70133)" />
      <path
         id="path3010"
         d="M -2.55046,3.11095 C -2.0845,1.24435 -1.04614,0.36295 0,0 -1.04614,-0.36295 -2.0845,-1.24435 -2.55046,-3.11095"
         style="fill:none;stroke:#808080;stroke-width:0.79701;stroke-linecap:round;stroke-linejoin:round;stroke-miterlimit:10;stroke-dasharray:none;stroke-opacity:1"
         transform="matrix(1.3333333,0,0,-1.3333333,19840.906,434.70133)" />
      <text
         id="text3010"
         xml:space="preserve"
         transform="matrix(1.3333333,0,0,1.3333333,19846.396,437.27867)"><tspan
           id="tspan3010"
           style="font-variant:normal;font-weight:normal;font-size:8.96638px;font-family:'Latin Modern Math';writing-mode:lr-tb;fill:#000000;fill-opacity:1;fill-rule:nonzero;stroke:none"
           x="0"
           y="0">𝑥</tspan></text>
      <path
         id="path3011"
         d="M 0,-63.7796 V 14.51022"
         style="fill:none;stroke:#808080;stroke-width:0.79701;stroke-linecap:butt;stroke-linejoin:miter;stroke-miterlimit:10;stroke-dasharray:none;stroke-opacity:1"
         transform="matrix(1.3333333,0,0,-1.3333333,19742.792,434.70133)" />
      <path
         id="path3012"
         d="M -2.55046,3.11095 C -2.0845,1.24435 -1.04614,0.36295 0,0 -1.04614,-0.36295 -2.0845,-1.24435 -2.55046,-3.11095"
         style="fill:none;stroke:#808080;stroke-width:0.79701;stroke-linecap:round;stroke-linejoin:round;stroke-miterlimit:10;stroke-dasharray:none;stroke-opacity:1"
         transform="matrix(0,-1.3333333,-1.3333333,0,19742.792,414.82304)" />
      <text
         id="text3012"
         xml:space="preserve"
         transform="matrix(1.3333333,0,0,1.3333333,19739.864,406.88267)"><tspan
           id="tspan3012"
           style="font-variant:normal;font-weight:normal;font-size:8.96638px;font-family:'Latin Modern Math';writing-mode:lr-tb;fill:#000000;fill-opacity:1;fill-rule:nonzero;stroke:none"
           x="0"
           y="0">𝑦</tspan></text>
      <path
         id="path3013"
         d="M 1.99255,3.58656 H 17.74088"
         style="fill:none;stroke:#008c00;stroke-width:0.3985;stroke-linecap:butt;stroke-linejoin:miter;stroke-miterlimit:10;stroke-dasharray:none;stroke-opacity:1"
         transform="matrix(1.3333333,0,0,-1.3333333,19742.792,434.70133)" />
      <path
         id="path3014"
         d="M 2.04512,0 C 1.79396,0.06847 0.68999,0.4565 0,0.87877 V -0.87877 C 0.68999,-0.4565 1.79396,-0.06847 2.04512,0 Z"
         style="fill:#008c00;fill-opacity:1;fill-rule:nonzero;stroke:#008c00;stroke-width:0.3985;stroke-linecap:butt;stroke-linejoin:miter;stroke-miterlimit:10;stroke-dasharray:none;stroke-opacity:1"
         transform="matrix(1.3333333,0,0,-1.3333333,19766.447,429.91925)" />
      <text
         id="text3014"
         xml:space="preserve"
         transform="matrix(1.3333333,0,0,1.3333333,19752.979,425.096)"><tspan
           id="tspan3014"
           style="font-variant:normal;font-weight:normal;font-size:8.96638px;font-family:'Latin Modern Math';writing-mode:lr-tb;fill:#008000;fill-opacity:1;fill-rule:nonzero;stroke:none"
           x="0"
           y="0">𝑥</tspan></text>
      <path
         id="path3015"
         d="M 25.51172,0 54.85008,-50.81581"
         style="fill:none;stroke:#000000;stroke-width:0.99628;stroke-linecap:butt;stroke-linejoin:miter;stroke-miterlimit:10;stroke-dasharray:none;stroke-opacity:1"
         transform="matrix(1.3333333,0,0,-1.3333333,19742.792,434.70133)" />
      <text
         id="text3015"
         xml:space="preserve"
         transform="matrix(1.3333333,0,0,1.3333333,19802.787,472.66133)"><tspan
           id="tspan3015"
           style="font-variant:normal;font-weight:normal;font-size:8.96638px;font-family:'Latin Modern Math';writing-mode:lr-tb;fill:#000000;fill-opacity:1;fill-rule:nonzero;stroke:none"
           x="0"
           y="0">𝐿</tspan></text>
      <path
         id="path3016"
         d="m 27.48444,0 c 0,1.08945 -0.88315,1.9726 -1.97261,1.9726 -1.08945,0 -1.97261,-0.88315 -1.97261,-1.9726 0,-1.08945 0.88316,-1.9726 1.97261,-1.9726 1.08946,0 1.97261,0.88315 1.97261,1.9726 z"
         style="fill:#ff0000;fill-opacity:1;fill-rule:nonzero;stroke:#000000;stroke-width:0.3985;stroke-linecap:butt;stroke-linejoin:miter;stroke-miterlimit:10;stroke-dasharray:none;stroke-opacity:1"
         transform="matrix(1.3333333,0,0,-1.3333333,19742.792,434.70133)" />
      <text
         id="text3016"
         xml:space="preserve"
         transform="matrix(1.3333333,0,0,1.3333333,19781.501,427.884)"><tspan
           id="tspan3016"
           style="font-variant:normal;font-weight:normal;font-size:8.96638px;font-family:'Latin Modern Math';writing-mode:lr-tb;fill:#000000;fill-opacity:1;fill-rule:nonzero;stroke:none"
           x="0"
           y="0">𝑀</tspan></text>
      <path
         id="path3017"
         d="m 56.19484,-50.8156 c 0,0.7428 -0.60217,1.34496 -1.34497,1.34496 -0.7428,0 -1.34496,-0.60216 -1.34496,-1.34496 0,-0.7428 0.60216,-1.34497 1.34496,-1.34497 0.7428,0 1.34497,0.60217 1.34497,1.34497 z"
         style="fill:#ff0000;fill-opacity:1;fill-rule:nonzero;stroke:#000000;stroke-width:0.3985;stroke-linecap:butt;stroke-linejoin:miter;stroke-miterlimit:10;stroke-dasharray:none;stroke-opacity:1"
         transform="matrix(1.3333333,0,0,-1.3333333,19742.792,434.70133)" />
      <text
         id="text3017"
         xml:space="preserve"
         transform="matrix(1.3333333,0,0,1.3333333,19817.961,513.76133)"><tspan
           id="tspan3017"
           style="font-variant:normal;font-weight:normal;font-size:8.96638px;font-family:'Latin Modern Math';writing-mode:lr-tb;fill:#000000;fill-opacity:1;fill-rule:nonzero;stroke:none"
           x="0"
           y="0">𝑚</tspan></text>
      <path
         id="path3018"
         d="M 0.7173,0 C 0.7173,0.39613 0.39613,0.7173 0,0.7173 -0.39613,0.7173 -0.7173,0.39613 -0.7173,0 c 0,-0.39613 0.32117,-0.7173 0.7173,-0.7173 0.39613,0 0.7173,0.32117 0.7173,0.7173 z"
         style="fill:#000000;fill-opacity:1;fill-rule:nonzero;stroke:#000000;stroke-width:0.3985;stroke-linecap:butt;stroke-linejoin:miter;stroke-miterlimit:10;stroke-dasharray:none;stroke-opacity:1"
         transform="matrix(1.3333333,0,0,-1.3333333,19742.792,434.70133)" />
    </g>
  </g>
</svg>
