<?xml version="1.0" encoding="utf-8"?>
<svg xmlns="http://www.w3.org/2000/svg" xmlns:xlink="http://www.w3.org/1999/xlink" width="600" height="400" viewBox="0 0 2400 1600">
<defs>
  <clipPath id="clip530">
    <rect x="0" y="0" width="2400" height="1600"/>
  </clipPath>
</defs>
<path clip-path="url(#clip530)" d="M0 1600 L2400 1600 L2400 0 L0 0  Z" fill="#ffffff" fill-rule="evenodd" fill-opacity="1"/>
<defs>
  <clipPath id="clip531">
    <rect x="480" y="0" width="1681" height="1600"/>
  </clipPath>
</defs>
<path clip-path="url(#clip530)" d="M219.866 1423.18 L2142.8 1423.18 L2142.8 123.472 L219.866 123.472  Z" fill="#ffffff" fill-rule="evenodd" fill-opacity="1"/>
<defs>
  <clipPath id="clip532">
    <rect x="219" y="123" width="1924" height="1301"/>
  </clipPath>
</defs>
<polyline clip-path="url(#clip532)" style="stroke:#000000; stroke-linecap:round; stroke-linejoin:round; stroke-width:2; stroke-opacity:0.1; fill:none" points="274.289,1423.18 274.289,123.472 "/>
<polyline clip-path="url(#clip532)" style="stroke:#000000; stroke-linecap:round; stroke-linejoin:round; stroke-width:2; stroke-opacity:0.1; fill:none" points="637.106,1423.18 637.106,123.472 "/>
<polyline clip-path="url(#clip532)" style="stroke:#000000; stroke-linecap:round; stroke-linejoin:round; stroke-width:2; stroke-opacity:0.1; fill:none" points="999.923,1423.18 999.923,123.472 "/>
<polyline clip-path="url(#clip532)" style="stroke:#000000; stroke-linecap:round; stroke-linejoin:round; stroke-width:2; stroke-opacity:0.1; fill:none" points="1362.74,1423.18 1362.74,123.472 "/>
<polyline clip-path="url(#clip532)" style="stroke:#000000; stroke-linecap:round; stroke-linejoin:round; stroke-width:2; stroke-opacity:0.1; fill:none" points="1725.56,1423.18 1725.56,123.472 "/>
<polyline clip-path="url(#clip532)" style="stroke:#000000; stroke-linecap:round; stroke-linejoin:round; stroke-width:2; stroke-opacity:0.1; fill:none" points="2088.37,1423.18 2088.37,123.472 "/>
<polyline clip-path="url(#clip530)" style="stroke:#000000; stroke-linecap:round; stroke-linejoin:round; stroke-width:4; stroke-opacity:1; fill:none" points="219.866,1423.18 2142.8,1423.18 "/>
<polyline clip-path="url(#clip530)" style="stroke:#000000; stroke-linecap:round; stroke-linejoin:round; stroke-width:4; stroke-opacity:1; fill:none" points="274.289,1423.18 274.289,1404.28 "/>
<polyline clip-path="url(#clip530)" style="stroke:#000000; stroke-linecap:round; stroke-linejoin:round; stroke-width:4; stroke-opacity:1; fill:none" points="637.106,1423.18 637.106,1404.28 "/>
<polyline clip-path="url(#clip530)" style="stroke:#000000; stroke-linecap:round; stroke-linejoin:round; stroke-width:4; stroke-opacity:1; fill:none" points="999.923,1423.18 999.923,1404.28 "/>
<polyline clip-path="url(#clip530)" style="stroke:#000000; stroke-linecap:round; stroke-linejoin:round; stroke-width:4; stroke-opacity:1; fill:none" points="1362.74,1423.18 1362.74,1404.28 "/>
<polyline clip-path="url(#clip530)" style="stroke:#000000; stroke-linecap:round; stroke-linejoin:round; stroke-width:4; stroke-opacity:1; fill:none" points="1725.56,1423.18 1725.56,1404.28 "/>
<polyline clip-path="url(#clip530)" style="stroke:#000000; stroke-linecap:round; stroke-linejoin:round; stroke-width:4; stroke-opacity:1; fill:none" points="2088.37,1423.18 2088.37,1404.28 "/>
<path clip-path="url(#clip530)" d="M274.289 1454.1 Q270.678 1454.1 268.849 1457.66 Q267.043 1461.2 267.043 1468.33 Q267.043 1475.44 268.849 1479.01 Q270.678 1482.55 274.289 1482.55 Q277.923 1482.55 279.729 1479.01 Q281.557 1475.44 281.557 1468.33 Q281.557 1461.2 279.729 1457.66 Q277.923 1454.1 274.289 1454.1 M274.289 1450.39 Q280.099 1450.39 283.154 1455 Q286.233 1459.58 286.233 1468.33 Q286.233 1477.06 283.154 1481.67 Q280.099 1486.25 274.289 1486.25 Q268.479 1486.25 265.4 1481.67 Q262.344 1477.06 262.344 1468.33 Q262.344 1459.58 265.4 1455 Q268.479 1450.39 274.289 1450.39 Z" fill="#000000" fill-rule="nonzero" fill-opacity="1" /><path clip-path="url(#clip530)" d="M627.488 1481.64 L635.127 1481.64 L635.127 1455.28 L626.816 1456.95 L626.816 1452.69 L635.08 1451.02 L639.756 1451.02 L639.756 1481.64 L647.395 1481.64 L647.395 1485.58 L627.488 1485.58 L627.488 1481.64 Z" fill="#000000" fill-rule="nonzero" fill-opacity="1" /><path clip-path="url(#clip530)" d="M994.575 1481.64 L1010.89 1481.64 L1010.89 1485.58 L988.95 1485.58 L988.95 1481.64 Q991.613 1478.89 996.196 1474.26 Q1000.8 1469.61 1001.98 1468.27 Q1004.23 1465.74 1005.11 1464.01 Q1006.01 1462.25 1006.01 1460.56 Q1006.01 1457.8 1004.07 1456.07 Q1002.14 1454.33 999.043 1454.33 Q996.844 1454.33 994.39 1455.09 Q991.96 1455.86 989.182 1457.41 L989.182 1452.69 Q992.006 1451.55 994.46 1450.97 Q996.913 1450.39 998.95 1450.39 Q1004.32 1450.39 1007.52 1453.08 Q1010.71 1455.77 1010.71 1460.26 Q1010.71 1462.39 1009.9 1464.31 Q1009.11 1466.2 1007.01 1468.8 Q1006.43 1469.47 1003.33 1472.69 Q1000.22 1475.88 994.575 1481.64 Z" fill="#000000" fill-rule="nonzero" fill-opacity="1" /><path clip-path="url(#clip530)" d="M1366.99 1466.95 Q1370.34 1467.66 1372.22 1469.93 Q1374.12 1472.2 1374.12 1475.53 Q1374.12 1480.65 1370.6 1483.45 Q1367.08 1486.25 1360.6 1486.25 Q1358.42 1486.25 1356.11 1485.81 Q1353.82 1485.39 1351.36 1484.54 L1351.36 1480.02 Q1353.31 1481.16 1355.62 1481.74 Q1357.94 1482.32 1360.46 1482.32 Q1364.86 1482.32 1367.15 1480.58 Q1369.46 1478.84 1369.46 1475.53 Q1369.46 1472.48 1367.31 1470.77 Q1365.18 1469.03 1361.36 1469.03 L1357.33 1469.03 L1357.33 1465.19 L1361.55 1465.19 Q1365 1465.19 1366.83 1463.82 Q1368.65 1462.43 1368.65 1459.84 Q1368.65 1457.18 1366.76 1455.77 Q1364.88 1454.33 1361.36 1454.33 Q1359.44 1454.33 1357.24 1454.75 Q1355.04 1455.16 1352.4 1456.04 L1352.4 1451.88 Q1355.07 1451.14 1357.38 1450.77 Q1359.72 1450.39 1361.78 1450.39 Q1367.1 1450.39 1370.2 1452.83 Q1373.31 1455.23 1373.31 1459.35 Q1373.31 1462.22 1371.66 1464.21 Q1370.02 1466.18 1366.99 1466.95 Z" fill="#000000" fill-rule="nonzero" fill-opacity="1" /><path clip-path="url(#clip530)" d="M1728.57 1455.09 L1716.76 1473.54 L1728.57 1473.54 L1728.57 1455.09 M1727.34 1451.02 L1733.22 1451.02 L1733.22 1473.54 L1738.15 1473.54 L1738.15 1477.43 L1733.22 1477.43 L1733.22 1485.58 L1728.57 1485.58 L1728.57 1477.43 L1712.96 1477.43 L1712.96 1472.92 L1727.34 1451.02 Z" fill="#000000" fill-rule="nonzero" fill-opacity="1" /><path clip-path="url(#clip530)" d="M2078.65 1451.02 L2097.01 1451.02 L2097.01 1454.96 L2082.93 1454.96 L2082.93 1463.43 Q2083.95 1463.08 2084.97 1462.92 Q2085.99 1462.73 2087.01 1462.73 Q2092.79 1462.73 2096.17 1465.9 Q2099.55 1469.08 2099.55 1474.49 Q2099.55 1480.07 2096.08 1483.17 Q2092.61 1486.25 2086.29 1486.25 Q2084.11 1486.25 2081.85 1485.88 Q2079.6 1485.51 2077.19 1484.77 L2077.19 1480.07 Q2079.28 1481.2 2081.5 1481.76 Q2083.72 1482.32 2086.2 1482.32 Q2090.2 1482.32 2092.54 1480.21 Q2094.88 1478.1 2094.88 1474.49 Q2094.88 1470.88 2092.54 1468.77 Q2090.2 1466.67 2086.2 1466.67 Q2084.32 1466.67 2082.45 1467.08 Q2080.6 1467.5 2078.65 1468.38 L2078.65 1451.02 Z" fill="#000000" fill-rule="nonzero" fill-opacity="1" /><path clip-path="url(#clip530)" d="M1028.16 1522.27 L1028.16 1532.4 L1040.22 1532.4 L1040.22 1536.95 L1028.16 1536.95 L1028.16 1556.3 Q1028.16 1560.66 1029.33 1561.9 Q1030.54 1563.14 1034.2 1563.14 L1040.22 1563.14 L1040.22 1568.04 L1034.2 1568.04 Q1027.42 1568.04 1024.85 1565.53 Q1022.27 1562.98 1022.27 1556.3 L1022.27 1536.95 L1017.97 1536.95 L1017.97 1532.4 L1022.27 1532.4 L1022.27 1522.27 L1028.16 1522.27 Z" fill="#000000" fill-rule="nonzero" fill-opacity="1" /><path clip-path="url(#clip530)" d="M1047.92 1532.4 L1053.78 1532.4 L1053.78 1568.04 L1047.92 1568.04 L1047.92 1532.4 M1047.92 1518.52 L1053.78 1518.52 L1053.78 1525.93 L1047.92 1525.93 L1047.92 1518.52 Z" fill="#000000" fill-rule="nonzero" fill-opacity="1" /><path clip-path="url(#clip530)" d="M1096.52 1548.76 L1096.52 1551.62 L1069.6 1551.62 Q1069.98 1557.67 1073.23 1560.85 Q1076.5 1564 1082.33 1564 Q1085.7 1564 1088.85 1563.17 Q1092.04 1562.35 1095.16 1560.69 L1095.16 1566.23 Q1092 1567.57 1088.69 1568.27 Q1085.38 1568.97 1081.98 1568.97 Q1073.45 1568.97 1068.45 1564 Q1063.49 1559.04 1063.49 1550.57 Q1063.49 1541.82 1068.2 1536.69 Q1072.94 1531.54 1080.96 1531.54 Q1088.15 1531.54 1092.32 1536.18 Q1096.52 1540.8 1096.52 1548.76 M1090.67 1547.04 Q1090.6 1542.23 1087.96 1539.37 Q1085.35 1536.5 1081.02 1536.5 Q1076.12 1536.5 1073.16 1539.27 Q1070.23 1542.04 1069.79 1547.07 L1090.67 1547.04 Z" fill="#000000" fill-rule="nonzero" fill-opacity="1" /><path clip-path="url(#clip530)" d="M1133.89 1539.24 Q1136.09 1535.29 1139.14 1533.41 Q1142.2 1531.54 1146.34 1531.54 Q1151.91 1531.54 1154.93 1535.45 Q1157.95 1539.33 1157.95 1546.53 L1157.95 1568.04 L1152.06 1568.04 L1152.06 1546.72 Q1152.06 1541.59 1150.25 1539.11 Q1148.44 1536.63 1144.71 1536.63 Q1140.16 1536.63 1137.52 1539.65 Q1134.88 1542.68 1134.88 1547.9 L1134.88 1568.04 L1128.99 1568.04 L1128.99 1546.72 Q1128.99 1541.56 1127.17 1539.11 Q1125.36 1536.63 1121.57 1536.63 Q1117.09 1536.63 1114.44 1539.68 Q1111.8 1542.71 1111.8 1547.9 L1111.8 1568.04 L1105.91 1568.04 L1105.91 1532.4 L1111.8 1532.4 L1111.8 1537.93 Q1113.81 1534.66 1116.61 1533.1 Q1119.41 1531.54 1123.26 1531.54 Q1127.14 1531.54 1129.85 1533.51 Q1132.59 1535.48 1133.89 1539.24 Z" fill="#000000" fill-rule="nonzero" fill-opacity="1" /><path clip-path="url(#clip530)" d="M1175.3 1562.7 L1175.3 1581.6 L1169.41 1581.6 L1169.41 1532.4 L1175.3 1532.4 L1175.3 1537.81 Q1177.15 1534.62 1179.95 1533.1 Q1182.78 1531.54 1186.69 1531.54 Q1193.19 1531.54 1197.23 1536.69 Q1201.3 1541.85 1201.3 1550.25 Q1201.3 1558.65 1197.23 1563.81 Q1193.19 1568.97 1186.69 1568.97 Q1182.78 1568.97 1179.95 1567.44 Q1177.15 1565.88 1175.3 1562.7 M1195.22 1550.25 Q1195.22 1543.79 1192.55 1540.13 Q1189.91 1536.44 1185.26 1536.44 Q1180.61 1536.44 1177.94 1540.13 Q1175.3 1543.79 1175.3 1550.25 Q1175.3 1556.71 1177.94 1560.4 Q1180.61 1564.07 1185.26 1564.07 Q1189.91 1564.07 1192.55 1560.4 Q1195.22 1556.71 1195.22 1550.25 Z" fill="#000000" fill-rule="nonzero" fill-opacity="1" /><path clip-path="url(#clip530)" d="M1224.82 1536.5 Q1220.11 1536.5 1217.38 1540.19 Q1214.64 1543.85 1214.64 1550.25 Q1214.64 1556.65 1217.35 1560.34 Q1220.08 1564 1224.82 1564 Q1229.5 1564 1232.24 1560.31 Q1234.98 1556.62 1234.98 1550.25 Q1234.98 1543.92 1232.24 1540.23 Q1229.5 1536.5 1224.82 1536.5 M1224.82 1531.54 Q1232.46 1531.54 1236.82 1536.5 Q1241.18 1541.47 1241.18 1550.25 Q1241.18 1559 1236.82 1564 Q1232.46 1568.97 1224.82 1568.97 Q1217.15 1568.97 1212.79 1564 Q1208.46 1559 1208.46 1550.25 Q1208.46 1541.47 1212.79 1536.5 Q1217.15 1531.54 1224.82 1531.54 Z" fill="#000000" fill-rule="nonzero" fill-opacity="1" /><path clip-path="url(#clip530)" d="M1285.68 1518.58 Q1281.42 1525.9 1279.35 1533.06 Q1277.28 1540.23 1277.28 1547.58 Q1277.28 1554.93 1279.35 1562.16 Q1281.45 1569.35 1285.68 1576.64 L1280.59 1576.64 Q1275.81 1569.16 1273.43 1561.93 Q1271.07 1554.71 1271.07 1547.58 Q1271.07 1540.48 1273.43 1533.29 Q1275.78 1526.09 1280.59 1518.58 L1285.68 1518.58 Z" fill="#000000" fill-rule="nonzero" fill-opacity="1" /><path clip-path="url(#clip530)" d="M1319.77 1533.45 L1319.77 1538.98 Q1317.29 1537.71 1314.61 1537.07 Q1311.94 1536.44 1309.07 1536.44 Q1304.71 1536.44 1302.52 1537.77 Q1300.35 1539.11 1300.35 1541.79 Q1300.35 1543.82 1301.91 1545 Q1303.47 1546.15 1308.18 1547.2 L1310.19 1547.64 Q1316.43 1548.98 1319.04 1551.43 Q1321.68 1553.85 1321.68 1558.21 Q1321.68 1563.17 1317.73 1566.07 Q1313.82 1568.97 1306.94 1568.97 Q1304.08 1568.97 1300.96 1568.39 Q1297.87 1567.85 1294.43 1566.74 L1294.43 1560.69 Q1297.68 1562.38 1300.83 1563.24 Q1303.98 1564.07 1307.07 1564.07 Q1311.21 1564.07 1313.44 1562.66 Q1315.66 1561.23 1315.66 1558.65 Q1315.66 1556.27 1314.04 1554.99 Q1312.45 1553.72 1307.01 1552.54 L1304.97 1552.07 Q1299.53 1550.92 1297.11 1548.56 Q1294.69 1546.18 1294.69 1542.04 Q1294.69 1537.01 1298.25 1534.27 Q1301.82 1531.54 1308.37 1531.54 Q1311.62 1531.54 1314.49 1532.01 Q1317.35 1532.49 1319.77 1533.45 Z" fill="#000000" fill-rule="nonzero" fill-opacity="1" /><path clip-path="url(#clip530)" d="M1330.08 1518.58 L1335.17 1518.58 Q1339.95 1526.09 1342.3 1533.29 Q1344.69 1540.48 1344.69 1547.58 Q1344.69 1554.71 1342.3 1561.93 Q1339.95 1569.16 1335.17 1576.64 L1330.08 1576.64 Q1334.31 1569.35 1336.38 1562.16 Q1338.48 1554.93 1338.48 1547.58 Q1338.48 1540.23 1336.38 1533.06 Q1334.31 1525.9 1330.08 1518.58 Z" fill="#000000" fill-rule="nonzero" fill-opacity="1" /><polyline clip-path="url(#clip530)" style="stroke:#000000; stroke-linecap:round; stroke-linejoin:round; stroke-width:4; stroke-opacity:1; fill:none" points="219.866,1423.18 219.866,123.472 "/>
<polyline clip-path="url(#clip530)" style="stroke:#000000; stroke-linecap:round; stroke-linejoin:round; stroke-width:4; stroke-opacity:1; fill:none" points="219.866,1386.4 238.764,1386.4 "/>
<polyline clip-path="url(#clip530)" style="stroke:#000000; stroke-linecap:round; stroke-linejoin:round; stroke-width:4; stroke-opacity:1; fill:none" points="219.866,1202.47 238.764,1202.47 "/>
<polyline clip-path="url(#clip530)" style="stroke:#000000; stroke-linecap:round; stroke-linejoin:round; stroke-width:4; stroke-opacity:1; fill:none" points="219.866,1018.55 238.764,1018.55 "/>
<polyline clip-path="url(#clip530)" style="stroke:#000000; stroke-linecap:round; stroke-linejoin:round; stroke-width:4; stroke-opacity:1; fill:none" points="219.866,834.633 238.764,834.633 "/>
<polyline clip-path="url(#clip530)" style="stroke:#000000; stroke-linecap:round; stroke-linejoin:round; stroke-width:4; stroke-opacity:1; fill:none" points="219.866,650.712 238.764,650.712 "/>
<polyline clip-path="url(#clip530)" style="stroke:#000000; stroke-linecap:round; stroke-linejoin:round; stroke-width:4; stroke-opacity:1; fill:none" points="219.866,466.791 238.764,466.791 "/>
<polyline clip-path="url(#clip530)" style="stroke:#000000; stroke-linecap:round; stroke-linejoin:round; stroke-width:4; stroke-opacity:1; fill:none" points="219.866,282.87 238.764,282.87 "/>
<path clip-path="url(#clip530)" d="M126.691 1372.19 Q123.08 1372.19 121.251 1375.76 Q119.445 1379.3 119.445 1386.43 Q119.445 1393.54 121.251 1397.1 Q123.08 1400.64 126.691 1400.64 Q130.325 1400.64 132.13 1397.1 Q133.959 1393.54 133.959 1386.43 Q133.959 1379.3 132.13 1375.76 Q130.325 1372.19 126.691 1372.19 M126.691 1368.49 Q132.501 1368.49 135.556 1373.1 Q138.635 1377.68 138.635 1386.43 Q138.635 1395.16 135.556 1399.76 Q132.501 1404.35 126.691 1404.35 Q120.88 1404.35 117.802 1399.76 Q114.746 1395.16 114.746 1386.43 Q114.746 1377.68 117.802 1373.1 Q120.88 1368.49 126.691 1368.49 Z" fill="#000000" fill-rule="nonzero" fill-opacity="1" /><path clip-path="url(#clip530)" d="M146.853 1397.8 L151.737 1397.8 L151.737 1403.68 L146.853 1403.68 L146.853 1397.8 Z" fill="#000000" fill-rule="nonzero" fill-opacity="1" /><path clip-path="url(#clip530)" d="M171.922 1372.19 Q168.311 1372.19 166.482 1375.76 Q164.677 1379.3 164.677 1386.43 Q164.677 1393.54 166.482 1397.1 Q168.311 1400.64 171.922 1400.64 Q175.556 1400.64 177.362 1397.1 Q179.19 1393.54 179.19 1386.43 Q179.19 1379.3 177.362 1375.76 Q175.556 1372.19 171.922 1372.19 M171.922 1368.49 Q177.732 1368.49 180.788 1373.1 Q183.866 1377.68 183.866 1386.43 Q183.866 1395.16 180.788 1399.76 Q177.732 1404.35 171.922 1404.35 Q166.112 1404.35 163.033 1399.76 Q159.978 1395.16 159.978 1386.43 Q159.978 1377.68 163.033 1373.1 Q166.112 1368.49 171.922 1368.49 Z" fill="#000000" fill-rule="nonzero" fill-opacity="1" /><path clip-path="url(#clip530)" d="M127.917 1188.27 Q124.306 1188.27 122.478 1191.84 Q120.672 1195.38 120.672 1202.51 Q120.672 1209.62 122.478 1213.18 Q124.306 1216.72 127.917 1216.72 Q131.552 1216.72 133.357 1213.18 Q135.186 1209.62 135.186 1202.51 Q135.186 1195.38 133.357 1191.84 Q131.552 1188.27 127.917 1188.27 M127.917 1184.57 Q133.728 1184.57 136.783 1189.18 Q139.862 1193.76 139.862 1202.51 Q139.862 1211.24 136.783 1215.84 Q133.728 1220.43 127.917 1220.43 Q122.107 1220.43 119.029 1215.84 Q115.973 1211.24 115.973 1202.51 Q115.973 1193.76 119.029 1189.18 Q122.107 1184.57 127.917 1184.57 Z" fill="#000000" fill-rule="nonzero" fill-opacity="1" /><path clip-path="url(#clip530)" d="M148.079 1213.88 L152.964 1213.88 L152.964 1219.75 L148.079 1219.75 L148.079 1213.88 Z" fill="#000000" fill-rule="nonzero" fill-opacity="1" /><path clip-path="url(#clip530)" d="M163.959 1215.82 L171.598 1215.82 L171.598 1189.45 L163.288 1191.12 L163.288 1186.86 L171.552 1185.19 L176.227 1185.19 L176.227 1215.82 L183.866 1215.82 L183.866 1219.75 L163.959 1219.75 L163.959 1215.82 Z" fill="#000000" fill-rule="nonzero" fill-opacity="1" /><path clip-path="url(#clip530)" d="M128.288 1004.35 Q124.677 1004.35 122.848 1007.92 Q121.043 1011.46 121.043 1018.59 Q121.043 1025.7 122.848 1029.26 Q124.677 1032.8 128.288 1032.8 Q131.922 1032.8 133.728 1029.26 Q135.556 1025.7 135.556 1018.59 Q135.556 1011.46 133.728 1007.92 Q131.922 1004.35 128.288 1004.35 M128.288 1000.65 Q134.098 1000.65 137.154 1005.26 Q140.232 1009.84 140.232 1018.59 Q140.232 1027.32 137.154 1031.92 Q134.098 1036.51 128.288 1036.51 Q122.478 1036.51 119.399 1031.92 Q116.343 1027.32 116.343 1018.59 Q116.343 1009.84 119.399 1005.26 Q122.478 1000.65 128.288 1000.65 Z" fill="#000000" fill-rule="nonzero" fill-opacity="1" /><path clip-path="url(#clip530)" d="M148.45 1029.95 L153.334 1029.95 L153.334 1035.83 L148.45 1035.83 L148.45 1029.95 Z" fill="#000000" fill-rule="nonzero" fill-opacity="1" /><path clip-path="url(#clip530)" d="M167.547 1031.9 L183.866 1031.9 L183.866 1035.83 L161.922 1035.83 L161.922 1031.9 Q164.584 1029.14 169.167 1024.51 Q173.774 1019.86 174.954 1018.52 Q177.2 1016 178.079 1014.26 Q178.982 1012.5 178.982 1010.81 Q178.982 1008.06 177.038 1006.32 Q175.116 1004.58 172.014 1004.58 Q169.815 1004.58 167.362 1005.35 Q164.931 1006.11 162.153 1007.66 L162.153 1002.94 Q164.977 1001.81 167.431 1001.23 Q169.885 1000.65 171.922 1000.65 Q177.292 1000.65 180.487 1003.33 Q183.681 1006.02 183.681 1010.51 Q183.681 1012.64 182.871 1014.56 Q182.084 1016.46 179.977 1019.05 Q179.399 1019.72 176.297 1022.94 Q173.195 1026.13 167.547 1031.9 Z" fill="#000000" fill-rule="nonzero" fill-opacity="1" /><path clip-path="url(#clip530)" d="M127.339 820.432 Q123.728 820.432 121.899 823.996 Q120.093 827.538 120.093 834.668 Q120.093 841.774 121.899 845.339 Q123.728 848.881 127.339 848.881 Q130.973 848.881 132.779 845.339 Q134.607 841.774 134.607 834.668 Q134.607 827.538 132.779 823.996 Q130.973 820.432 127.339 820.432 M127.339 816.728 Q133.149 816.728 136.204 821.334 Q139.283 825.918 139.283 834.668 Q139.283 843.394 136.204 848.001 Q133.149 852.584 127.339 852.584 Q121.529 852.584 118.45 848.001 Q115.394 843.394 115.394 834.668 Q115.394 825.918 118.45 821.334 Q121.529 816.728 127.339 816.728 Z" fill="#000000" fill-rule="nonzero" fill-opacity="1" /><path clip-path="url(#clip530)" d="M147.501 846.033 L152.385 846.033 L152.385 851.913 L147.501 851.913 L147.501 846.033 Z" fill="#000000" fill-rule="nonzero" fill-opacity="1" /><path clip-path="url(#clip530)" d="M176.737 833.279 Q180.093 833.996 181.968 836.265 Q183.866 838.533 183.866 841.867 Q183.866 846.982 180.348 849.783 Q176.829 852.584 170.348 852.584 Q168.172 852.584 165.857 852.144 Q163.565 851.728 161.112 850.871 L161.112 846.357 Q163.056 847.492 165.371 848.07 Q167.686 848.649 170.209 848.649 Q174.607 848.649 176.899 846.913 Q179.214 845.177 179.214 841.867 Q179.214 838.811 177.061 837.098 Q174.931 835.362 171.112 835.362 L167.084 835.362 L167.084 831.52 L171.297 831.52 Q174.746 831.52 176.575 830.154 Q178.403 828.765 178.403 826.172 Q178.403 823.51 176.505 822.098 Q174.63 820.663 171.112 820.663 Q169.19 820.663 166.991 821.08 Q164.792 821.496 162.153 822.376 L162.153 818.209 Q164.815 817.469 167.13 817.098 Q169.468 816.728 171.528 816.728 Q176.852 816.728 179.954 819.158 Q183.056 821.566 183.056 825.686 Q183.056 828.557 181.413 830.547 Q179.769 832.515 176.737 833.279 Z" fill="#000000" fill-rule="nonzero" fill-opacity="1" /><path clip-path="url(#clip530)" d="M126.205 636.511 Q122.593 636.511 120.765 640.076 Q118.959 643.617 118.959 650.747 Q118.959 657.853 120.765 661.418 Q122.593 664.96 126.205 664.96 Q129.839 664.96 131.644 661.418 Q133.473 657.853 133.473 650.747 Q133.473 643.617 131.644 640.076 Q129.839 636.511 126.205 636.511 M126.205 632.807 Q132.015 632.807 135.07 637.414 Q138.149 641.997 138.149 650.747 Q138.149 659.474 135.07 664.08 Q132.015 668.663 126.205 668.663 Q120.394 668.663 117.316 664.08 Q114.26 659.474 114.26 650.747 Q114.26 641.997 117.316 637.414 Q120.394 632.807 126.205 632.807 Z" fill="#000000" fill-rule="nonzero" fill-opacity="1" /><path clip-path="url(#clip530)" d="M146.366 662.112 L151.251 662.112 L151.251 667.992 L146.366 667.992 L146.366 662.112 Z" fill="#000000" fill-rule="nonzero" fill-opacity="1" /><path clip-path="url(#clip530)" d="M174.283 637.506 L162.477 655.955 L174.283 655.955 L174.283 637.506 M173.056 633.432 L178.936 633.432 L178.936 655.955 L183.866 655.955 L183.866 659.844 L178.936 659.844 L178.936 667.992 L174.283 667.992 L174.283 659.844 L158.681 659.844 L158.681 655.33 L173.056 633.432 Z" fill="#000000" fill-rule="nonzero" fill-opacity="1" /><path clip-path="url(#clip530)" d="M127.686 452.59 Q124.075 452.59 122.246 456.155 Q120.441 459.696 120.441 466.826 Q120.441 473.932 122.246 477.497 Q124.075 481.039 127.686 481.039 Q131.32 481.039 133.126 477.497 Q134.954 473.932 134.954 466.826 Q134.954 459.696 133.126 456.155 Q131.32 452.59 127.686 452.59 M127.686 448.886 Q133.496 448.886 136.552 453.493 Q139.63 458.076 139.63 466.826 Q139.63 475.553 136.552 480.159 Q133.496 484.742 127.686 484.742 Q121.876 484.742 118.797 480.159 Q115.742 475.553 115.742 466.826 Q115.742 458.076 118.797 453.493 Q121.876 448.886 127.686 448.886 Z" fill="#000000" fill-rule="nonzero" fill-opacity="1" /><path clip-path="url(#clip530)" d="M147.848 478.192 L152.732 478.192 L152.732 484.071 L147.848 484.071 L147.848 478.192 Z" fill="#000000" fill-rule="nonzero" fill-opacity="1" /><path clip-path="url(#clip530)" d="M162.964 449.511 L181.32 449.511 L181.32 453.446 L167.246 453.446 L167.246 461.918 Q168.264 461.571 169.283 461.409 Q170.302 461.224 171.32 461.224 Q177.107 461.224 180.487 464.395 Q183.866 467.567 183.866 472.983 Q183.866 478.562 180.394 481.664 Q176.922 484.742 170.602 484.742 Q168.427 484.742 166.158 484.372 Q163.913 484.002 161.505 483.261 L161.505 478.562 Q163.589 479.696 165.811 480.252 Q168.033 480.807 170.51 480.807 Q174.514 480.807 176.852 478.701 Q179.19 476.594 179.19 472.983 Q179.19 469.372 176.852 467.266 Q174.514 465.159 170.51 465.159 Q168.635 465.159 166.76 465.576 Q164.908 465.993 162.964 466.872 L162.964 449.511 Z" fill="#000000" fill-rule="nonzero" fill-opacity="1" /><path clip-path="url(#clip530)" d="M126.529 268.669 Q122.918 268.669 121.089 272.234 Q119.283 275.775 119.283 282.905 Q119.283 290.011 121.089 293.576 Q122.918 297.118 126.529 297.118 Q130.163 297.118 131.968 293.576 Q133.797 290.011 133.797 282.905 Q133.797 275.775 131.968 272.234 Q130.163 268.669 126.529 268.669 M126.529 264.965 Q132.339 264.965 135.394 269.572 Q138.473 274.155 138.473 282.905 Q138.473 291.632 135.394 296.238 Q132.339 300.822 126.529 300.822 Q120.718 300.822 117.64 296.238 Q114.584 291.632 114.584 282.905 Q114.584 274.155 117.64 269.572 Q120.718 264.965 126.529 264.965 Z" fill="#000000" fill-rule="nonzero" fill-opacity="1" /><path clip-path="url(#clip530)" d="M146.691 294.271 L151.575 294.271 L151.575 300.15 L146.691 300.15 L146.691 294.271 Z" fill="#000000" fill-rule="nonzero" fill-opacity="1" /><path clip-path="url(#clip530)" d="M172.339 281.007 Q169.19 281.007 167.339 283.16 Q165.51 285.312 165.51 289.062 Q165.51 292.789 167.339 294.965 Q169.19 297.118 172.339 297.118 Q175.487 297.118 177.315 294.965 Q179.167 292.789 179.167 289.062 Q179.167 285.312 177.315 283.16 Q175.487 281.007 172.339 281.007 M181.621 266.354 L181.621 270.613 Q179.862 269.78 178.056 269.34 Q176.274 268.9 174.514 268.9 Q169.885 268.9 167.431 272.025 Q165.001 275.15 164.653 281.47 Q166.019 279.456 168.079 278.391 Q170.139 277.303 172.616 277.303 Q177.825 277.303 180.834 280.474 Q183.866 283.623 183.866 289.062 Q183.866 294.386 180.718 297.604 Q177.57 300.822 172.339 300.822 Q166.343 300.822 163.172 296.238 Q160.001 291.632 160.001 282.905 Q160.001 274.711 163.89 269.849 Q167.778 264.965 174.329 264.965 Q176.089 264.965 177.871 265.312 Q179.676 265.66 181.621 266.354 Z" fill="#000000" fill-rule="nonzero" fill-opacity="1" /><path clip-path="url(#clip530)" d="M21.7677 1003.19 L39.6235 1003.19 L39.6235 995.107 Q39.6235 990.619 37.3 988.169 Q34.9765 985.718 30.6797 985.718 Q26.4147 985.718 24.0912 988.169 Q21.7677 990.619 21.7677 995.107 L21.7677 1003.19 M16.4842 1009.62 L16.4842 995.107 Q16.4842 987.118 20.1126 983.044 Q23.7092 978.938 30.6797 978.938 Q37.7138 978.938 41.3104 983.044 Q44.907 987.118 44.907 995.107 L44.907 1003.19 L64.0042 1003.19 L64.0042 1009.62 L16.4842 1009.62 Z" fill="#0000ff" fill-rule="nonzero" fill-opacity="1" /><path clip-path="url(#clip530)" d="M32.4621 959.077 Q32.4621 963.788 36.1542 966.525 Q39.8145 969.262 46.212 969.262 Q52.6095 969.262 56.3017 966.557 Q59.9619 963.82 59.9619 959.077 Q59.9619 954.399 56.2698 951.661 Q52.5777 948.924 46.212 948.924 Q39.8781 948.924 36.186 951.661 Q32.4621 954.399 32.4621 959.077 M27.4968 959.077 Q27.4968 951.438 32.4621 947.078 Q37.4273 942.717 46.212 942.717 Q54.9649 942.717 59.9619 947.078 Q64.9272 951.438 64.9272 959.077 Q64.9272 966.748 59.9619 971.108 Q54.9649 975.437 46.212 975.437 Q37.4273 975.437 32.4621 971.108 Q27.4968 966.748 27.4968 959.077 Z" fill="#0000ff" fill-rule="nonzero" fill-opacity="1" /><path clip-path="url(#clip530)" d="M29.4065 910.284 L34.9447 910.284 Q33.6716 912.767 33.035 915.44 Q32.3984 918.114 32.3984 920.979 Q32.3984 925.339 33.7352 927.535 Q35.072 929.7 37.7456 929.7 Q39.7826 929.7 40.9603 928.14 Q42.1061 926.58 43.1565 921.87 L43.6021 919.865 Q44.9389 913.626 47.3897 911.016 Q49.8086 908.374 54.1691 908.374 Q59.1344 908.374 62.0308 912.321 Q64.9272 916.236 64.9272 923.111 Q64.9272 925.976 64.3543 929.095 Q63.8132 932.182 62.6992 935.62 L56.6518 935.62 Q58.3387 932.373 59.198 929.222 Q60.0256 926.071 60.0256 922.984 Q60.0256 918.846 58.6251 916.618 Q57.1929 914.39 54.6147 914.39 Q52.2276 914.39 50.9545 916.013 Q49.6813 917.605 48.5037 923.047 L48.0262 925.084 Q46.8804 930.527 44.5251 932.946 Q42.138 935.365 38.0002 935.365 Q32.9713 935.365 30.2341 931.8 Q27.4968 928.235 27.4968 921.679 Q27.4968 918.432 27.9743 915.568 Q28.4517 912.703 29.4065 910.284 Z" fill="#0000ff" fill-rule="nonzero" fill-opacity="1" /><path clip-path="url(#clip530)" d="M28.3562 899.049 L28.3562 893.192 L64.0042 893.192 L64.0042 899.049 L28.3562 899.049 M14.479 899.049 L14.479 893.192 L21.895 893.192 L21.895 899.049 L14.479 899.049 Z" fill="#0000ff" fill-rule="nonzero" fill-opacity="1" /><path clip-path="url(#clip530)" d="M29.7248 855.284 L35.1993 855.284 Q33.8307 857.767 33.1623 860.282 Q32.4621 862.764 32.4621 865.31 Q32.4621 871.008 36.0905 874.159 Q39.6872 877.31 46.212 877.31 Q52.7369 877.31 56.3653 874.159 Q59.9619 871.008 59.9619 865.31 Q59.9619 862.764 59.2935 860.282 Q58.5933 857.767 57.2247 855.284 L62.6355 855.284 Q63.7814 857.735 64.3543 860.377 Q64.9272 862.987 64.9272 865.947 Q64.9272 874 59.8664 878.742 Q54.8057 883.485 46.212 883.485 Q37.491 883.485 32.4939 878.71 Q27.4968 873.904 27.4968 865.565 Q27.4968 862.86 28.0697 860.282 Q28.6108 857.703 29.7248 855.284 Z" fill="#0000ff" fill-rule="nonzero" fill-opacity="1" /><path clip-path="url(#clip530)" d="M28.3562 845.099 L28.3562 839.243 L64.0042 839.243 L64.0042 845.099 L28.3562 845.099 M14.479 845.099 L14.479 839.243 L21.895 839.243 L21.895 845.099 L14.479 845.099 Z" fill="#0000ff" fill-rule="nonzero" fill-opacity="1" /><path clip-path="url(#clip530)" d="M32.4621 813.175 Q32.4621 817.886 36.1542 820.623 Q39.8145 823.36 46.212 823.36 Q52.6095 823.36 56.3017 820.655 Q59.9619 817.918 59.9619 813.175 Q59.9619 808.497 56.2698 805.759 Q52.5777 803.022 46.212 803.022 Q39.8781 803.022 36.186 805.759 Q32.4621 808.497 32.4621 813.175 M27.4968 813.175 Q27.4968 805.536 32.4621 801.176 Q37.4273 796.815 46.212 796.815 Q54.9649 796.815 59.9619 801.176 Q64.9272 805.536 64.9272 813.175 Q64.9272 820.846 59.9619 825.206 Q54.9649 829.535 46.212 829.535 Q37.4273 829.535 32.4621 825.206 Q27.4968 820.846 27.4968 813.175 M11.869 808.751 L11.869 802.417 L23.8365 812.793 L23.8365 817.663 L11.869 808.751 Z" fill="#0000ff" fill-rule="nonzero" fill-opacity="1" /><path clip-path="url(#clip530)" d="M42.4881 757.475 L64.0042 757.475 L64.0042 763.332 L42.679 763.332 Q37.6183 763.332 35.1038 765.305 Q32.5894 767.279 32.5894 771.225 Q32.5894 775.968 35.6131 778.705 Q38.6368 781.442 43.8567 781.442 L64.0042 781.442 L64.0042 787.331 L28.3562 787.331 L28.3562 781.442 L33.8944 781.442 Q30.6797 779.342 29.0883 776.509 Q27.4968 773.644 27.4968 769.92 Q27.4968 763.777 31.3163 760.626 Q35.1038 757.475 42.4881 757.475 Z" fill="#0000ff" fill-rule="nonzero" fill-opacity="1" /><path clip-path="url(#clip530)" d="M28.3562 695.442 L45.7028 708.332 L64.0042 694.773 L64.0042 701.68 L49.9996 712.056 L64.0042 722.432 L64.0042 729.339 L45.3526 715.494 L28.3562 728.161 L28.3562 721.255 L41.0558 711.801 L28.3562 702.348 L28.3562 695.442 Z" fill="#0000ff" fill-rule="nonzero" fill-opacity="1" /><path clip-path="url(#clip530)" d="M60.503 687.675 L60.503 681.182 L41.0558 681.182 L42.3608 688.28 L38.6686 688.28 L37.4273 680.96 L37.4273 676.599 L60.503 676.599 L60.503 670.074 L64.0042 670.074 L64.0042 687.675 L60.503 687.675 Z" fill="#0000ff" fill-rule="nonzero" fill-opacity="1" /><path clip-path="url(#clip530)" d="M14.5426 625.578 Q21.8632 629.843 29.0246 631.912 Q36.186 633.981 43.5384 633.981 Q50.8908 633.981 58.1159 631.912 Q65.3091 629.811 72.5979 625.578 L72.5979 630.67 Q65.1182 635.445 57.8931 637.832 Q50.668 640.187 43.5384 640.187 Q36.4406 640.187 29.2474 637.832 Q22.0542 635.477 14.5426 630.67 L14.5426 625.578 Z" fill="#0000ff" fill-rule="nonzero" fill-opacity="1" /><path clip-path="url(#clip530)" d="M35.1993 586.461 Q31.2526 584.264 29.3747 581.209 Q27.4968 578.153 27.4968 574.016 Q27.4968 568.446 31.4117 565.422 Q35.2948 562.398 42.4881 562.398 L64.0042 562.398 L64.0042 568.287 L42.679 568.287 Q37.5546 568.287 35.072 570.101 Q32.5894 571.915 32.5894 575.639 Q32.5894 580.19 35.6131 582.832 Q38.6368 585.474 43.8567 585.474 L64.0042 585.474 L64.0042 591.362 L42.679 591.362 Q37.5228 591.362 35.072 593.176 Q32.5894 594.991 32.5894 598.778 Q32.5894 603.266 35.6449 605.908 Q38.6686 608.55 43.8567 608.55 L64.0042 608.55 L64.0042 614.438 L28.3562 614.438 L28.3562 608.55 L33.8944 608.55 Q30.616 606.544 29.0564 603.744 Q27.4968 600.943 27.4968 597.091 Q27.4968 593.208 29.4702 590.503 Q31.4436 587.766 35.1993 586.461 Z" fill="#0000ff" fill-rule="nonzero" fill-opacity="1" /><path clip-path="url(#clip530)" d="M14.5426 551.64 L14.5426 546.548 Q22.0542 541.773 29.2474 539.418 Q36.4406 537.031 43.5384 537.031 Q50.668 537.031 57.8931 539.418 Q65.1182 541.773 72.5979 546.548 L72.5979 551.64 Q65.3091 547.407 58.1159 545.338 Q50.8908 543.238 43.5384 543.238 Q36.186 543.238 29.0246 545.338 Q21.8632 547.407 14.5426 551.64 Z" fill="#0000ff" fill-rule="nonzero" fill-opacity="1" /><path clip-path="url(#clip530)" d="M556.864 63.9476 L556.864 47.7034 L543.496 47.7034 L543.496 40.9789 L564.966 40.9789 L564.966 66.9452 Q560.226 70.3075 554.514 72.0494 Q548.803 73.7508 542.321 73.7508 Q528.143 73.7508 520.122 65.4869 Q512.142 57.1826 512.142 42.3968 Q512.142 27.5705 520.122 19.3066 Q528.143 11.0023 542.321 11.0023 Q548.236 11.0023 553.542 12.4606 Q558.889 13.9189 563.386 16.7545 L563.386 25.464 Q558.849 21.6156 553.745 19.6712 Q548.641 17.7268 543.01 17.7268 Q531.91 17.7268 526.32 23.9246 Q520.77 30.1225 520.77 42.3968 Q520.77 54.6305 526.32 60.8284 Q531.91 67.0263 543.01 67.0263 Q547.344 67.0263 550.747 66.2971 Q554.15 65.5274 556.864 63.9476 Z" fill="#000000" fill-rule="nonzero" fill-opacity="1" /><path clip-path="url(#clip530)" d="M605.88 34.1734 Q604.624 33.4443 603.125 33.1202 Q601.667 32.7556 599.885 32.7556 Q593.565 32.7556 590.162 36.8875 Q586.8 40.9789 586.8 48.6757 L586.8 72.576 L579.306 72.576 L579.306 27.2059 L586.8 27.2059 L586.8 34.2544 Q589.15 30.1225 592.917 28.1376 Q596.684 26.1121 602.072 26.1121 Q602.842 26.1121 603.773 26.2337 Q604.705 26.3147 605.839 26.5172 L605.88 34.1734 Z" fill="#000000" fill-rule="nonzero" fill-opacity="1" /><path clip-path="url(#clip530)" d="M634.317 49.7694 Q625.284 49.7694 621.8 51.8354 Q618.316 53.9013 618.316 58.8839 Q618.316 62.8538 620.909 65.2034 Q623.542 67.5124 628.038 67.5124 Q634.236 67.5124 637.963 63.1374 Q641.73 58.7219 641.73 51.4303 L641.73 49.7694 L634.317 49.7694 M649.184 46.6907 L649.184 72.576 L641.73 72.576 L641.73 65.6895 Q639.178 69.8214 635.371 71.8063 Q631.563 73.7508 626.053 73.7508 Q619.086 73.7508 614.954 69.8619 Q610.863 65.9325 610.863 59.3701 Q610.863 51.7138 615.967 47.825 Q621.111 43.9361 631.279 43.9361 L641.73 43.9361 L641.73 43.2069 Q641.73 38.0623 638.328 35.2672 Q634.965 32.4315 628.849 32.4315 Q624.96 32.4315 621.273 33.3632 Q617.587 34.295 614.184 36.1584 L614.184 29.2718 Q618.276 27.692 622.124 26.9223 Q625.972 26.1121 629.618 26.1121 Q639.462 26.1121 644.323 31.2163 Q649.184 36.3204 649.184 46.6907 M635.573 6.22219 L643.634 6.22219 L630.428 21.4536 L624.231 21.4536 L635.573 6.22219 Z" fill="#000000" fill-rule="nonzero" fill-opacity="1" /><path clip-path="url(#clip530)" d="M687.506 9.54393 L687.506 15.7418 L680.376 15.7418 Q676.366 15.7418 674.786 17.3622 Q673.246 18.9825 673.246 23.1955 L673.246 27.2059 L685.521 27.2059 L685.521 32.9987 L673.246 32.9987 L673.246 72.576 L665.752 72.576 L665.752 32.9987 L658.623 32.9987 L658.623 27.2059 L665.752 27.2059 L665.752 24.0462 Q665.752 16.471 669.277 13.0277 Q672.801 9.54393 680.457 9.54393 L687.506 9.54393 Z" fill="#000000" fill-rule="nonzero" fill-opacity="1" /><path clip-path="url(#clip530)" d="M693.744 27.2059 L701.198 27.2059 L701.198 72.576 L693.744 72.576 L693.744 27.2059 M693.744 9.54393 L701.198 9.54393 L701.198 18.9825 L693.744 18.9825 L693.744 9.54393 Z" fill="#000000" fill-rule="nonzero" fill-opacity="1" /><path clip-path="url(#clip530)" d="M749.444 28.9478 L749.444 35.9153 Q746.284 34.1734 743.084 33.3227 Q739.924 32.4315 736.684 32.4315 Q729.432 32.4315 725.422 37.0496 Q721.412 41.6271 721.412 49.9314 Q721.412 58.2358 725.422 62.8538 Q729.432 67.4314 736.684 67.4314 Q739.924 67.4314 743.084 66.5807 Q746.284 65.6895 749.444 63.9476 L749.444 70.8341 Q746.325 72.2924 742.963 73.0216 Q739.641 73.7508 735.873 73.7508 Q725.625 73.7508 719.589 67.3098 Q713.553 60.8689 713.553 49.9314 Q713.553 38.832 719.629 32.472 Q725.746 26.1121 736.36 26.1121 Q739.803 26.1121 743.084 26.8413 Q746.365 27.5299 749.444 28.9478 Z" fill="#000000" fill-rule="nonzero" fill-opacity="1" /><path clip-path="url(#clip530)" d="M783.026 49.7694 Q773.992 49.7694 770.509 51.8354 Q767.025 53.9013 767.025 58.8839 Q767.025 62.8538 769.617 65.2034 Q772.251 67.5124 776.747 67.5124 Q782.945 67.5124 786.672 63.1374 Q790.439 58.7219 790.439 51.4303 L790.439 49.7694 L783.026 49.7694 M797.893 46.6907 L797.893 72.576 L790.439 72.576 L790.439 65.6895 Q787.887 69.8214 784.079 71.8063 Q780.271 73.7508 774.762 73.7508 Q767.795 73.7508 763.663 69.8619 Q759.571 65.9325 759.571 59.3701 Q759.571 51.7138 764.675 47.825 Q769.82 43.9361 779.988 43.9361 L790.439 43.9361 L790.439 43.2069 Q790.439 38.0623 787.036 35.2672 Q783.674 32.4315 777.557 32.4315 Q773.668 32.4315 769.982 33.3632 Q766.296 34.295 762.893 36.1584 L762.893 29.2718 Q766.984 27.692 770.833 26.9223 Q774.681 26.1121 778.327 26.1121 Q788.171 26.1121 793.032 31.2163 Q797.893 36.3204 797.893 46.6907 Z" fill="#000000" fill-rule="nonzero" fill-opacity="1" /><path clip-path="url(#clip530)" d="M872.267 28.9478 L872.267 35.9153 Q869.108 34.1734 865.907 33.3227 Q862.748 32.4315 859.507 32.4315 Q852.256 32.4315 848.246 37.0496 Q844.235 41.6271 844.235 49.9314 Q844.235 58.2358 848.246 62.8538 Q852.256 67.4314 859.507 67.4314 Q862.748 67.4314 865.907 66.5807 Q869.108 65.6895 872.267 63.9476 L872.267 70.8341 Q869.148 72.2924 865.786 73.0216 Q862.464 73.7508 858.697 73.7508 Q848.448 73.7508 842.412 67.3098 Q836.376 60.8689 836.376 49.9314 Q836.376 38.832 842.453 32.472 Q848.57 26.1121 859.183 26.1121 Q862.626 26.1121 865.907 26.8413 Q869.189 27.5299 872.267 28.9478 Z" fill="#000000" fill-rule="nonzero" fill-opacity="1" /><path clip-path="url(#clip530)" d="M902.811 32.4315 Q896.816 32.4315 893.332 37.1306 Q889.848 41.7891 889.848 49.9314 Q889.848 58.0738 893.292 62.7728 Q896.775 67.4314 902.811 67.4314 Q908.766 67.4314 912.25 62.7323 Q915.734 58.0333 915.734 49.9314 Q915.734 41.8701 912.25 37.1711 Q908.766 32.4315 902.811 32.4315 M902.811 26.1121 Q912.533 26.1121 918.083 32.4315 Q923.633 38.7509 923.633 49.9314 Q923.633 61.0714 918.083 67.4314 Q912.533 73.7508 902.811 73.7508 Q893.049 73.7508 887.499 67.4314 Q881.99 61.0714 881.99 49.9314 Q881.99 38.7509 887.499 32.4315 Q893.049 26.1121 902.811 26.1121 Z" fill="#000000" fill-rule="nonzero" fill-opacity="1" /><path clip-path="url(#clip530)" d="M971.312 35.9153 Q974.107 30.8922 977.996 28.5022 Q981.885 26.1121 987.151 26.1121 Q994.24 26.1121 998.088 31.0947 Q1001.94 36.0368 1001.94 45.1919 L1001.94 72.576 L994.443 72.576 L994.443 45.4349 Q994.443 38.913 992.134 35.7533 Q989.825 32.5936 985.085 32.5936 Q979.292 32.5936 975.93 36.4419 Q972.568 40.2903 972.568 46.9338 L972.568 72.576 L965.074 72.576 L965.074 45.4349 Q965.074 38.8725 962.765 35.7533 Q960.456 32.5936 955.635 32.5936 Q949.923 32.5936 946.561 36.4824 Q943.199 40.3308 943.199 46.9338 L943.199 72.576 L935.705 72.576 L935.705 27.2059 L943.199 27.2059 L943.199 34.2544 Q945.751 30.082 949.316 28.0971 Q952.88 26.1121 957.782 26.1121 Q962.724 26.1121 966.167 28.6237 Q969.651 31.1352 971.312 35.9153 Z" fill="#000000" fill-rule="nonzero" fill-opacity="1" /><path clip-path="url(#clip530)" d="M1049.37 49.9314 Q1049.37 41.7081 1045.97 37.0496 Q1042.61 32.3505 1036.69 32.3505 Q1030.78 32.3505 1027.38 37.0496 Q1024.01 41.7081 1024.01 49.9314 Q1024.01 58.1548 1027.38 62.8538 Q1030.78 67.5124 1036.69 67.5124 Q1042.61 67.5124 1045.97 62.8538 Q1049.37 58.1548 1049.37 49.9314 M1024.01 34.0924 Q1026.36 30.0415 1029.93 28.0971 Q1033.53 26.1121 1038.52 26.1121 Q1046.78 26.1121 1051.92 32.6746 Q1057.11 39.2371 1057.11 49.9314 Q1057.11 60.6258 1051.92 67.1883 Q1046.78 73.7508 1038.52 73.7508 Q1033.53 73.7508 1029.93 71.8063 Q1026.36 69.8214 1024.01 65.7705 L1024.01 72.576 L1016.52 72.576 L1016.52 9.54393 L1024.01 9.54393 L1024.01 34.0924 Z" fill="#000000" fill-rule="nonzero" fill-opacity="1" /><path clip-path="url(#clip530)" d="M1069.47 27.2059 L1076.92 27.2059 L1076.92 72.576 L1069.47 72.576 L1069.47 27.2059 M1069.47 9.54393 L1076.92 9.54393 L1076.92 18.9825 L1069.47 18.9825 L1069.47 9.54393 Z" fill="#000000" fill-rule="nonzero" fill-opacity="1" /><path clip-path="url(#clip530)" d="M1130.23 45.1919 L1130.23 72.576 L1122.78 72.576 L1122.78 45.4349 Q1122.78 38.994 1120.26 35.7938 Q1117.75 32.5936 1112.73 32.5936 Q1106.69 32.5936 1103.21 36.4419 Q1099.73 40.2903 1099.73 46.9338 L1099.73 72.576 L1092.23 72.576 L1092.23 27.2059 L1099.73 27.2059 L1099.73 34.2544 Q1102.4 30.163 1106 28.1376 Q1109.65 26.1121 1114.39 26.1121 Q1122.21 26.1121 1126.22 30.9732 Q1130.23 35.7938 1130.23 45.1919 Z" fill="#000000" fill-rule="nonzero" fill-opacity="1" /><path clip-path="url(#clip530)" d="M1165.71 49.7694 Q1156.68 49.7694 1153.2 51.8354 Q1149.71 53.9013 1149.71 58.8839 Q1149.71 62.8538 1152.31 65.2034 Q1154.94 67.5124 1159.44 67.5124 Q1165.63 67.5124 1169.36 63.1374 Q1173.13 58.7219 1173.13 51.4303 L1173.13 49.7694 L1165.71 49.7694 M1180.58 46.6907 L1180.58 72.576 L1173.13 72.576 L1173.13 65.6895 Q1170.58 69.8214 1166.77 71.8063 Q1162.96 73.7508 1157.45 73.7508 Q1150.48 73.7508 1146.35 69.8619 Q1142.26 65.9325 1142.26 59.3701 Q1142.26 51.7138 1147.36 47.825 Q1152.51 43.9361 1162.68 43.9361 L1173.13 43.9361 L1173.13 43.2069 Q1173.13 38.0623 1169.73 35.2672 Q1166.36 32.4315 1160.25 32.4315 Q1156.36 32.4315 1152.67 33.3632 Q1148.98 34.295 1145.58 36.1584 L1145.58 29.2718 Q1149.67 27.692 1153.52 26.9223 Q1157.37 26.1121 1161.02 26.1121 Q1170.86 26.1121 1175.72 31.2163 Q1180.58 36.3204 1180.58 46.6907 Z" fill="#000000" fill-rule="nonzero" fill-opacity="1" /><path clip-path="url(#clip530)" d="M1225.79 34.0924 L1225.79 9.54393 L1233.24 9.54393 L1233.24 72.576 L1225.79 72.576 L1225.79 65.7705 Q1223.44 69.8214 1219.83 71.8063 Q1216.27 73.7508 1211.25 73.7508 Q1203.02 73.7508 1197.84 67.1883 Q1192.69 60.6258 1192.69 49.9314 Q1192.69 39.2371 1197.84 32.6746 Q1203.02 26.1121 1211.25 26.1121 Q1216.27 26.1121 1219.83 28.0971 Q1223.44 30.0415 1225.79 34.0924 M1200.39 49.9314 Q1200.39 58.1548 1203.75 62.8538 Q1207.16 67.5124 1213.07 67.5124 Q1218.98 67.5124 1222.39 62.8538 Q1225.79 58.1548 1225.79 49.9314 Q1225.79 41.7081 1222.39 37.0496 Q1218.98 32.3505 1213.07 32.3505 Q1207.16 32.3505 1203.75 37.0496 Q1200.39 41.7081 1200.39 49.9314 Z" fill="#000000" fill-rule="nonzero" fill-opacity="1" /><path clip-path="url(#clip530)" d="M1269.22 49.7694 Q1260.18 49.7694 1256.7 51.8354 Q1253.21 53.9013 1253.21 58.8839 Q1253.21 62.8538 1255.81 65.2034 Q1258.44 67.5124 1262.94 67.5124 Q1269.13 67.5124 1272.86 63.1374 Q1276.63 58.7219 1276.63 51.4303 L1276.63 49.7694 L1269.22 49.7694 M1284.08 46.6907 L1284.08 72.576 L1276.63 72.576 L1276.63 65.6895 Q1274.08 69.8214 1270.27 71.8063 Q1266.46 73.7508 1260.95 73.7508 Q1253.98 73.7508 1249.85 69.8619 Q1245.76 65.9325 1245.76 59.3701 Q1245.76 51.7138 1250.86 47.825 Q1256.01 43.9361 1266.18 43.9361 L1276.63 43.9361 L1276.63 43.2069 Q1276.63 38.0623 1273.23 35.2672 Q1269.86 32.4315 1263.75 32.4315 Q1259.86 32.4315 1256.17 33.3632 Q1252.49 34.295 1249.08 36.1584 L1249.08 29.2718 Q1253.17 27.692 1257.02 26.9223 Q1260.87 26.1121 1264.52 26.1121 Q1274.36 26.1121 1279.22 31.2163 Q1284.08 36.3204 1284.08 46.6907 Z" fill="#000000" fill-rule="nonzero" fill-opacity="1" /><path clip-path="url(#clip530)" d="M1363.52 27.2059 L1347.11 49.2833 L1364.37 72.576 L1355.58 72.576 L1342.37 54.752 L1329.17 72.576 L1320.38 72.576 L1338 48.8377 L1321.88 27.2059 L1330.67 27.2059 L1342.7 43.369 L1354.73 27.2059 L1363.52 27.2059 Z" fill="#000000" fill-rule="nonzero" fill-opacity="1" /><path clip-path="url(#clip530)" d="M1373.4 68.12 L1381.67 68.12 L1381.67 43.369 L1372.64 45.0299 L1372.64 40.3308 L1381.95 38.7509 L1387.5 38.7509 L1387.5 68.12 L1395.81 68.12 L1395.81 72.576 L1373.4 72.576 L1373.4 68.12 Z" fill="#000000" fill-rule="nonzero" fill-opacity="1" /><path clip-path="url(#clip530)" d="M1453.41 76.7889 Q1450.25 84.8907 1447.25 87.3618 Q1444.26 89.8329 1439.23 89.8329 L1433.28 89.8329 L1433.28 83.5945 L1437.65 83.5945 Q1440.73 83.5945 1442.43 82.1361 Q1444.13 80.6778 1446.2 75.2496 L1447.54 71.8468 L1429.19 27.2059 L1437.08 27.2059 L1451.26 62.6918 L1465.44 27.2059 L1473.34 27.2059 L1453.41 76.7889 Z" fill="#000000" fill-rule="nonzero" fill-opacity="1" /><path clip-path="url(#clip530)" d="M1504.65 27.2059 L1512.55 27.2059 L1526.73 65.2844 L1540.91 27.2059 L1548.81 27.2059 L1531.8 72.576 L1521.67 72.576 L1504.65 27.2059 Z" fill="#000000" fill-rule="nonzero" fill-opacity="1" /><path clip-path="url(#clip530)" d="M1557.6 68.12 L1565.86 68.12 L1565.86 43.369 L1556.83 45.0299 L1556.83 40.3308 L1566.15 38.7509 L1571.7 38.7509 L1571.7 68.12 L1580 68.12 L1580 72.576 L1557.6 72.576 L1557.6 68.12 Z" fill="#000000" fill-rule="nonzero" fill-opacity="1" /><path clip-path="url(#clip530)" d="M1648.58 34.0924 L1648.58 9.54393 L1656.04 9.54393 L1656.04 72.576 L1648.58 72.576 L1648.58 65.7705 Q1646.23 69.8214 1642.63 71.8063 Q1639.06 73.7508 1634.04 73.7508 Q1625.82 73.7508 1620.63 67.1883 Q1615.49 60.6258 1615.49 49.9314 Q1615.49 39.2371 1620.63 32.6746 Q1625.82 26.1121 1634.04 26.1121 Q1639.06 26.1121 1642.63 28.0971 Q1646.23 30.0415 1648.58 34.0924 M1623.18 49.9314 Q1623.18 58.1548 1626.55 62.8538 Q1629.95 67.5124 1635.86 67.5124 Q1641.78 67.5124 1645.18 62.8538 Q1648.58 58.1548 1648.58 49.9314 Q1648.58 41.7081 1645.18 37.0496 Q1641.78 32.3505 1635.86 32.3505 Q1629.95 32.3505 1626.55 37.0496 Q1623.18 41.7081 1623.18 49.9314 Z" fill="#000000" fill-rule="nonzero" fill-opacity="1" /><path clip-path="url(#clip530)" d="M1710.2 48.0275 L1710.2 51.6733 L1675.93 51.6733 Q1676.41 59.3701 1680.54 63.421 Q1684.72 67.4314 1692.13 67.4314 Q1696.42 67.4314 1700.43 66.3781 Q1704.49 65.3249 1708.46 63.2184 L1708.46 70.267 Q1704.44 71.9684 1700.23 72.8596 Q1696.02 73.7508 1691.68 73.7508 Q1680.83 73.7508 1674.47 67.4314 Q1668.15 61.1119 1668.15 50.3365 Q1668.15 39.1965 1674.14 32.6746 Q1680.18 26.1121 1690.39 26.1121 Q1699.54 26.1121 1704.85 32.0264 Q1710.2 37.9003 1710.2 48.0275 M1702.74 45.84 Q1702.66 39.7232 1699.3 36.0774 Q1695.98 32.4315 1690.47 32.4315 Q1684.23 32.4315 1680.46 35.9558 Q1676.74 39.4801 1676.17 45.8805 L1702.74 45.84 Z" fill="#000000" fill-rule="nonzero" fill-opacity="1" /><path clip-path="url(#clip530)" d="M1784.13 35.9153 Q1786.92 30.8922 1790.81 28.5022 Q1794.7 26.1121 1799.96 26.1121 Q1807.05 26.1121 1810.9 31.0947 Q1814.75 36.0368 1814.75 45.1919 L1814.75 72.576 L1807.26 72.576 L1807.26 45.4349 Q1807.26 38.913 1804.95 35.7533 Q1802.64 32.5936 1797.9 32.5936 Q1792.11 32.5936 1788.74 36.4419 Q1785.38 40.2903 1785.38 46.9338 L1785.38 72.576 L1777.89 72.576 L1777.89 45.4349 Q1777.89 38.8725 1775.58 35.7533 Q1773.27 32.5936 1768.45 32.5936 Q1762.74 32.5936 1759.37 36.4824 Q1756.01 40.3308 1756.01 46.9338 L1756.01 72.576 L1748.52 72.576 L1748.52 27.2059 L1756.01 27.2059 L1756.01 34.2544 Q1758.56 30.082 1762.13 28.0971 Q1765.69 26.1121 1770.6 26.1121 Q1775.54 26.1121 1778.98 28.6237 Q1782.47 31.1352 1784.13 35.9153 Z" fill="#000000" fill-rule="nonzero" fill-opacity="1" /><path clip-path="url(#clip530)" d="M1828.12 68.12 L1836.38 68.12 L1836.38 43.369 L1827.35 45.0299 L1827.35 40.3308 L1836.67 38.7509 L1842.22 38.7509 L1842.22 68.12 L1850.52 68.12 L1850.52 72.576 L1828.12 72.576 L1828.12 68.12 Z" fill="#000000" fill-rule="nonzero" fill-opacity="1" /><polyline clip-path="url(#clip532)" style="stroke:#0000ff; stroke-linecap:round; stroke-linejoin:round; stroke-width:8; stroke-opacity:1; fill:none" points="274.289,1386.4 277.917,1386.4 281.545,1386.39 285.173,1386.39 288.801,1386.38 292.43,1386.35 296.058,1386.3 299.686,1386.22 303.314,1386.09 306.942,1385.91 310.57,1385.66 314.199,1385.32 317.827,1384.87 321.455,1384.29 325.083,1383.57 328.711,1382.67 332.34,1381.57 335.968,1380.25 339.596,1378.68 343.224,1376.81 346.852,1374.64 350.48,1372.11 354.109,1369.2 357.737,1365.87 361.365,1362.07 364.993,1357.79 368.621,1352.96 372.249,1347.56 375.878,1341.55 379.506,1334.87 383.134,1327.5 386.762,1319.39 390.39,1310.49 394.018,1300.78 397.647,1290.2 401.275,1278.73 404.903,1266.32 408.531,1252.95 412.159,1238.59 415.787,1223.21 419.416,1206.78 423.044,1189.3 426.672,1170.76 430.3,1151.14 433.928,1130.46 437.556,1108.72 441.185,1085.95 444.813,1062.18 448.441,1037.45 452.069,1011.8 455.697,985.297 459.325,958.018 462.954,930.04 466.582,901.456 470.21,872.368 473.838,842.882 477.466,813.114 481.094,783.184 484.723,753.214 488.351,723.326 491.979,693.642 495.607,664.279 499.235,635.352 502.863,606.964 506.492,579.216 510.12,552.194 513.748,525.978 517.376,500.635 521.004,476.224 524.632,452.79 528.261,430.371 531.889,408.994 535.517,388.676 539.145,369.426 542.773,351.246 546.401,334.129 550.03,318.064 553.658,303.033 557.286,289.013 560.914,275.977 564.542,263.894 568.171,252.733 571.799,242.455 575.427,233.025 579.055,224.402 582.683,216.546 586.311,209.417 589.94,202.973 593.568,197.172 597.196,191.975 600.824,187.339 604.452,183.226 608.08,179.597 611.709,176.412 615.337,173.636 618.965,171.232 622.593,169.167 626.221,167.407 629.849,165.921 633.478,164.679 637.106,163.653 640.734,162.817 644.362,162.146 647.99,161.616 651.618,161.206 655.247,160.897 658.875,160.67 662.503,160.509 666.131,160.401 669.759,160.332 673.387,160.291 677.016,160.269 680.644,160.26 684.272,160.257 687.9,160.256 691.528,160.256 695.156,160.257 698.785,160.259 702.413,160.265 706.041,160.282 709.669,160.316 713.297,160.375 716.925,160.47 720.554,160.613 724.182,160.817 727.81,161.098 731.438,161.473 735.066,161.962 738.694,162.585 742.323,163.364 745.951,164.324 749.579,165.489 753.207,166.887 756.835,168.546 760.463,170.497 764.092,172.77 767.72,175.398 771.348,178.414 774.976,181.853 778.604,185.75 782.233,190.14 785.861,195.06 789.489,200.547 793.117,206.636 796.745,213.366 800.373,220.77 804.002,228.885 807.63,237.744 811.258,247.381 814.886,257.825 818.514,269.105 822.142,281.248 825.771,294.277 829.399,308.212 833.027,323.069 836.655,338.859 840.283,355.591 843.911,373.267 847.54,391.882 851.168,411.43 854.796,431.893 858.424,453.251 862.052,475.475 865.68,498.529 869.309,522.372 872.937,546.954 876.565,572.218 880.193,598.101 883.821,624.534 887.449,651.442 891.078,678.745 894.706,706.356 898.334,734.188 901.962,762.15 905.59,790.15 909.218,818.093 912.847,845.888 916.475,873.444 920.103,900.673 923.731,927.492 927.359,953.82 930.987,979.584 934.616,1004.72 938.244,1029.15 941.872,1052.84 945.5,1075.73 949.128,1097.78 952.756,1118.96 956.385,1139.24 960.013,1158.6 963.641,1177.03 967.269,1194.51 970.897,1211.05 974.525,1226.66 978.154,1241.33 981.782,1255.08 985.41,1267.92 989.038,1279.89 992.666,1291 996.294,1301.28 999.923,1310.76 1003.55,1319.46 1007.18,1327.43 1010.81,1334.7 1014.44,1341.29 1018.06,1347.26 1021.69,1352.63 1025.32,1357.44 1028.95,1361.73 1032.58,1365.53 1036.2,1368.88 1039.83,1371.81 1043.46,1374.37 1047.09,1376.57 1050.72,1378.46 1054.35,1380.07 1057.97,1381.42 1061.6,1382.54 1065.23,1383.46 1068.86,1384.2 1072.49,1384.8 1076.11,1385.26 1079.74,1385.62 1083.37,1385.88 1087,1386.07 1090.63,1386.2 1094.26,1386.29 1097.88,1386.34 1101.51,1386.37 1105.14,1386.39 1108.77,1386.39 1112.4,1386.4 1116.02,1386.4 1119.65,1386.4 1123.28,1386.39 1126.91,1386.39 1130.54,1386.38 1134.16,1386.35 1137.79,1386.31 1141.42,1386.23 1145.05,1386.11 1148.68,1385.94 1152.31,1385.7 1155.93,1385.37 1159.56,1384.94 1163.19,1384.38 1166.82,1383.68 1170.45,1382.81 1174.07,1381.74 1177.7,1380.45 1181.33,1378.91 1184.96,1377.09 1188.59,1374.96 1192.22,1372.49 1195.84,1369.63 1199.47,1366.36 1203.1,1362.64 1206.73,1358.42 1210.36,1353.68 1213.98,1348.36 1217.61,1342.43 1221.24,1335.85 1224.87,1328.58 1228.5,1320.57 1232.13,1311.79 1235.75,1302.19 1239.38,1291.74 1243.01,1280.39 1246.64,1268.12 1250.27,1254.89 1253.89,1240.67 1257.52,1225.43 1261.15,1209.15 1264.78,1191.82 1268.41,1173.43 1272.04,1153.96 1275.66,1133.43 1279.29,1111.84 1282.92,1089.21 1286.55,1065.58 1290.18,1040.98 1293.8,1015.45 1297.43,989.068 1301.06,961.893 1304.69,934.008 1308.32,905.504 1311.95,876.479 1315.57,847.043 1319.2,817.308 1322.83,787.393 1326.46,757.421 1330.09,727.514 1333.71,697.794 1337.34,668.379 1340.97,639.384 1344.6,610.915 1348.23,583.071 1351.86,555.942 1355.48,529.608 1359.11,504.139 1362.74,479.594 1366.37,456.021 1370,433.458 1373.62,411.933 1377.25,391.465 1380.88,372.065 1384.51,353.735 1388.14,336.469 1391.76,320.258 1395.39,305.082 1399.02,290.922 1402.65,277.749 1406.28,265.535 1409.91,254.246 1413.53,243.847 1417.16,234.3 1420.79,225.566 1424.42,217.605 1428.05,210.376 1431.67,203.838 1435.3,197.95 1438.93,192.67 1442.56,187.958 1446.19,183.774 1449.82,180.079 1453.44,176.834 1457.07,174.002 1460.7,171.548 1464.33,169.438 1467.96,167.637 1471.58,166.114 1475.21,164.84 1478.84,163.785 1482.47,162.924 1486.1,162.231 1489.73,161.682 1493.35,161.257 1496.98,160.935 1500.61,160.697 1504.24,160.529 1507.87,160.414 1511.49,160.339 1515.12,160.295 1518.75,160.272 1522.38,160.261 1526.01,160.257 1529.64,160.256 1533.26,160.256 1536.89,160.256 1540.52,160.258 1544.15,160.264 1547.78,160.279 1551.4,160.31 1555.03,160.365 1558.66,160.454 1562.29,160.589 1565.92,160.784 1569.55,161.053 1573.17,161.414 1576.8,161.886 1580.43,162.489 1584.06,163.244 1587.69,164.177 1591.31,165.312 1594.94,166.676 1598.57,168.297 1602.2,170.204 1605.83,172.43 1609.46,175.006 1613.08,177.966 1616.71,181.343 1620.34,185.173 1623.97,189.492 1627.6,194.336 1631.22,199.741 1634.85,205.743 1638.48,212.381 1642.11,219.688 1645.74,227.701 1649.36,236.454 1652.99,245.979 1656.62,256.308 1660.25,267.469 1663.88,279.49 1667.51,292.393 1671.13,306.199 1674.76,320.926 1678.39,336.585 1682.02,353.184 1685.65,370.727 1689.27,389.211 1692.9,408.629 1696.53,428.964 1700.16,450.198 1703.79,472.302 1707.42,495.243 1711.04,518.978 1714.67,543.459 1718.3,568.631 1721.93,594.431 1725.56,620.792 1729.18,647.638 1732.81,674.889 1736.44,702.463 1740.07,730.27 1743.7,758.219 1747.33,786.219 1750.95,814.175 1754.58,841.997 1758.21,869.592 1761.84,896.872 1765.47,923.753 1769.09,950.155 1772.72,976.002 1776.35,1001.23 1779.98,1025.76 1783.61,1049.56 1787.24,1072.56 1790.86,1094.74 1794.49,1116.04 1798.12,1136.45 1801.75,1155.94 1805.38,1174.5 1809,1192.11 1812.63,1208.79 1816.26,1224.52 1819.89,1239.32 1823.52,1253.2 1827.15,1266.17 1830.77,1278.26 1834.4,1289.49 1838.03,1299.89 1841.66,1309.47 1845.29,1318.29 1848.91,1326.36 1852.54,1333.72 1856.17,1340.41 1859.8,1346.46 1863.43,1351.91 1867.06,1356.8 1870.68,1361.16 1874.31,1365.02 1877.94,1368.43 1881.57,1371.43 1885.2,1374.03 1888.82,1376.28 1892.45,1378.22 1896.08,1379.86 1899.71,1381.24 1903.34,1382.39 1906.96,1383.34 1910.59,1384.11 1914.22,1384.72 1917.85,1385.2 1921.48,1385.57 1925.11,1385.85 1928.73,1386.05 1932.36,1386.19 1935.99,1386.28 1939.62,1386.34 1943.25,1386.37 1946.87,1386.39 1950.5,1386.39 1954.13,1386.4 1957.76,1386.4 1961.39,1386.4 1965.02,1386.4 1968.64,1386.39 1972.27,1386.38 1975.9,1386.36 1979.53,1386.32 1983.16,1386.25 1986.78,1386.13 1990.41,1385.97 1994.04,1385.74 1997.67,1385.42 2001.3,1385.01 2004.93,1384.47 2008.55,1383.79 2012.18,1382.94 2015.81,1381.9 2019.44,1380.65 2023.07,1379.15 2026.69,1377.37 2030.32,1375.28 2033.95,1372.86 2037.58,1370.06 2041.21,1366.85 2044.84,1363.19 2048.46,1359.04 2052.09,1354.38 2055.72,1349.14 2059.35,1343.3 2062.98,1336.82 2066.6,1329.65 2070.23,1321.74 2073.86,1313.07 2077.49,1303.59 2081.12,1293.26 2084.75,1282.04 2088.37,1269.9 "/>
<polyline clip-path="url(#clip530)" style="stroke:#000000; stroke-linecap:round; stroke-linejoin:round; stroke-width:4; stroke-opacity:1; fill:none" points="2142.8,1423.18 2142.8,123.472 "/>
<polyline clip-path="url(#clip530)" style="stroke:#000000; stroke-linecap:round; stroke-linejoin:round; stroke-width:4; stroke-opacity:1; fill:none" points="2142.8,1336 2123.9,1336 "/>
<polyline clip-path="url(#clip530)" style="stroke:#000000; stroke-linecap:round; stroke-linejoin:round; stroke-width:4; stroke-opacity:1; fill:none" points="2142.8,1141.48 2123.9,1141.48 "/>
<polyline clip-path="url(#clip530)" style="stroke:#000000; stroke-linecap:round; stroke-linejoin:round; stroke-width:4; stroke-opacity:1; fill:none" points="2142.8,946.962 2123.9,946.962 "/>
<polyline clip-path="url(#clip530)" style="stroke:#000000; stroke-linecap:round; stroke-linejoin:round; stroke-width:4; stroke-opacity:1; fill:none" points="2142.8,752.443 2123.9,752.443 "/>
<polyline clip-path="url(#clip530)" style="stroke:#000000; stroke-linecap:round; stroke-linejoin:round; stroke-width:4; stroke-opacity:1; fill:none" points="2142.8,557.924 2123.9,557.924 "/>
<polyline clip-path="url(#clip530)" style="stroke:#000000; stroke-linecap:round; stroke-linejoin:round; stroke-width:4; stroke-opacity:1; fill:none" points="2142.8,363.406 2123.9,363.406 "/>
<polyline clip-path="url(#clip530)" style="stroke:#000000; stroke-linecap:round; stroke-linejoin:round; stroke-width:4; stroke-opacity:1; fill:none" points="2142.8,168.887 2123.9,168.887 "/>
<path clip-path="url(#clip530)" d="M2178.8 1336.45 L2208.47 1336.45 L2208.47 1340.39 L2178.8 1340.39 L2178.8 1336.45 Z" fill="#000000" fill-rule="nonzero" fill-opacity="1" /><path clip-path="url(#clip530)" d="M2219.37 1349.34 L2227.01 1349.34 L2227.01 1322.98 L2218.7 1324.64 L2218.7 1320.39 L2226.97 1318.72 L2231.64 1318.72 L2231.64 1349.34 L2239.28 1349.34 L2239.28 1353.28 L2219.37 1353.28 L2219.37 1349.34 Z" fill="#000000" fill-rule="nonzero" fill-opacity="1" /><path clip-path="url(#clip530)" d="M2248.73 1347.4 L2253.61 1347.4 L2253.61 1353.28 L2248.73 1353.28 L2248.73 1347.4 Z" fill="#000000" fill-rule="nonzero" fill-opacity="1" /><path clip-path="url(#clip530)" d="M2263.84 1318.72 L2282.2 1318.72 L2282.2 1322.65 L2268.12 1322.65 L2268.12 1331.13 Q2269.14 1330.78 2270.16 1330.62 Q2271.18 1330.43 2272.2 1330.43 Q2277.99 1330.43 2281.36 1333.6 Q2284.74 1336.77 2284.74 1342.19 Q2284.74 1347.77 2281.27 1350.87 Q2277.8 1353.95 2271.48 1353.95 Q2269.3 1353.95 2267.04 1353.58 Q2264.79 1353.21 2262.38 1352.47 L2262.38 1347.77 Q2264.47 1348.9 2266.69 1349.46 Q2268.91 1350.01 2271.39 1350.01 Q2275.39 1350.01 2277.73 1347.91 Q2280.07 1345.8 2280.07 1342.19 Q2280.07 1338.58 2277.73 1336.47 Q2275.39 1334.37 2271.39 1334.37 Q2269.51 1334.37 2267.64 1334.78 Q2265.79 1335.2 2263.84 1336.08 L2263.84 1318.72 Z" fill="#000000" fill-rule="nonzero" fill-opacity="1" /><path clip-path="url(#clip530)" d="M2178.8 1141.93 L2208.47 1141.93 L2208.47 1145.87 L2178.8 1145.87 L2178.8 1141.93 Z" fill="#000000" fill-rule="nonzero" fill-opacity="1" /><path clip-path="url(#clip530)" d="M2219.37 1154.83 L2227.01 1154.83 L2227.01 1128.46 L2218.7 1130.13 L2218.7 1125.87 L2226.97 1124.2 L2231.64 1124.2 L2231.64 1154.83 L2239.28 1154.83 L2239.28 1158.76 L2219.37 1158.76 L2219.37 1154.83 Z" fill="#000000" fill-rule="nonzero" fill-opacity="1" /><path clip-path="url(#clip530)" d="M2248.73 1152.88 L2253.61 1152.88 L2253.61 1158.76 L2248.73 1158.76 L2248.73 1152.88 Z" fill="#000000" fill-rule="nonzero" fill-opacity="1" /><path clip-path="url(#clip530)" d="M2273.8 1127.28 Q2270.18 1127.28 2268.36 1130.84 Q2266.55 1134.39 2266.55 1141.51 Q2266.55 1148.62 2268.36 1152.19 Q2270.18 1155.73 2273.8 1155.73 Q2277.43 1155.73 2279.24 1152.19 Q2281.06 1148.62 2281.06 1141.51 Q2281.06 1134.39 2279.24 1130.84 Q2277.43 1127.28 2273.8 1127.28 M2273.8 1123.58 Q2279.61 1123.58 2282.66 1128.18 Q2285.74 1132.76 2285.74 1141.51 Q2285.74 1150.24 2282.66 1154.85 Q2279.61 1159.43 2273.8 1159.43 Q2267.99 1159.43 2264.91 1154.85 Q2261.85 1150.24 2261.85 1141.51 Q2261.85 1132.76 2264.91 1128.18 Q2267.99 1123.58 2273.8 1123.58 Z" fill="#000000" fill-rule="nonzero" fill-opacity="1" /><path clip-path="url(#clip530)" d="M2178.8 947.413 L2208.47 947.413 L2208.47 951.348 L2178.8 951.348 L2178.8 947.413 Z" fill="#000000" fill-rule="nonzero" fill-opacity="1" /><path clip-path="url(#clip530)" d="M2228.56 932.76 Q2224.95 932.76 2223.12 936.325 Q2221.32 939.867 2221.32 946.996 Q2221.32 954.103 2223.12 957.668 Q2224.95 961.209 2228.56 961.209 Q2232.2 961.209 2234 957.668 Q2235.83 954.103 2235.83 946.996 Q2235.83 939.867 2234 936.325 Q2232.2 932.76 2228.56 932.76 M2228.56 929.057 Q2234.37 929.057 2237.43 933.663 Q2240.51 938.246 2240.51 946.996 Q2240.51 955.723 2237.43 960.33 Q2234.37 964.913 2228.56 964.913 Q2222.75 964.913 2219.68 960.33 Q2216.62 955.723 2216.62 946.996 Q2216.62 938.246 2219.68 933.663 Q2222.75 929.057 2228.56 929.057 Z" fill="#000000" fill-rule="nonzero" fill-opacity="1" /><path clip-path="url(#clip530)" d="M2248.73 958.362 L2253.61 958.362 L2253.61 964.242 L2248.73 964.242 L2248.73 958.362 Z" fill="#000000" fill-rule="nonzero" fill-opacity="1" /><path clip-path="url(#clip530)" d="M2263.84 929.682 L2282.2 929.682 L2282.2 933.617 L2268.12 933.617 L2268.12 942.089 Q2269.14 941.742 2270.16 941.58 Q2271.18 941.394 2272.2 941.394 Q2277.99 941.394 2281.36 944.566 Q2284.74 947.737 2284.74 953.154 Q2284.74 958.732 2281.27 961.834 Q2277.8 964.913 2271.48 964.913 Q2269.3 964.913 2267.04 964.542 Q2264.79 964.172 2262.38 963.431 L2262.38 958.732 Q2264.47 959.867 2266.69 960.422 Q2268.91 960.978 2271.39 960.978 Q2275.39 960.978 2277.73 958.871 Q2280.07 956.765 2280.07 953.154 Q2280.07 949.543 2277.73 947.436 Q2275.39 945.33 2271.39 945.33 Q2269.51 945.33 2267.64 945.746 Q2265.79 946.163 2263.84 947.043 L2263.84 929.682 Z" fill="#000000" fill-rule="nonzero" fill-opacity="1" /><path clip-path="url(#clip530)" d="M2190.74 738.242 Q2187.13 738.242 2185.3 741.806 Q2183.5 745.348 2183.5 752.478 Q2183.5 759.584 2185.3 763.149 Q2187.13 766.691 2190.74 766.691 Q2194.37 766.691 2196.18 763.149 Q2198.01 759.584 2198.01 752.478 Q2198.01 745.348 2196.18 741.806 Q2194.37 738.242 2190.74 738.242 M2190.74 734.538 Q2196.55 734.538 2199.61 739.144 Q2202.68 743.728 2202.68 752.478 Q2202.68 761.204 2199.61 765.811 Q2196.55 770.394 2190.74 770.394 Q2184.93 770.394 2181.85 765.811 Q2178.8 761.204 2178.8 752.478 Q2178.8 743.728 2181.85 739.144 Q2184.93 734.538 2190.74 734.538 Z" fill="#000000" fill-rule="nonzero" fill-opacity="1" /><path clip-path="url(#clip530)" d="M2210.9 763.843 L2215.79 763.843 L2215.79 769.723 L2210.9 769.723 L2210.9 763.843 Z" fill="#000000" fill-rule="nonzero" fill-opacity="1" /><path clip-path="url(#clip530)" d="M2235.97 738.242 Q2232.36 738.242 2230.53 741.806 Q2228.73 745.348 2228.73 752.478 Q2228.73 759.584 2230.53 763.149 Q2232.36 766.691 2235.97 766.691 Q2239.61 766.691 2241.41 763.149 Q2243.24 759.584 2243.24 752.478 Q2243.24 745.348 2241.41 741.806 Q2239.61 738.242 2235.97 738.242 M2235.97 734.538 Q2241.78 734.538 2244.84 739.144 Q2247.92 743.728 2247.92 752.478 Q2247.92 761.204 2244.84 765.811 Q2241.78 770.394 2235.97 770.394 Q2230.16 770.394 2227.08 765.811 Q2224.03 761.204 2224.03 752.478 Q2224.03 743.728 2227.08 739.144 Q2230.16 734.538 2235.97 734.538 Z" fill="#000000" fill-rule="nonzero" fill-opacity="1" /><path clip-path="url(#clip530)" d="M2190.74 543.723 Q2187.13 543.723 2185.3 547.288 Q2183.5 550.829 2183.5 557.959 Q2183.5 565.065 2185.3 568.63 Q2187.13 572.172 2190.74 572.172 Q2194.37 572.172 2196.18 568.63 Q2198.01 565.065 2198.01 557.959 Q2198.01 550.829 2196.18 547.288 Q2194.37 543.723 2190.74 543.723 M2190.74 540.019 Q2196.55 540.019 2199.61 544.626 Q2202.68 549.209 2202.68 557.959 Q2202.68 566.686 2199.61 571.292 Q2196.55 575.876 2190.74 575.876 Q2184.93 575.876 2181.85 571.292 Q2178.8 566.686 2178.8 557.959 Q2178.8 549.209 2181.85 544.626 Q2184.93 540.019 2190.74 540.019 Z" fill="#000000" fill-rule="nonzero" fill-opacity="1" /><path clip-path="url(#clip530)" d="M2210.9 569.325 L2215.79 569.325 L2215.79 575.204 L2210.9 575.204 L2210.9 569.325 Z" fill="#000000" fill-rule="nonzero" fill-opacity="1" /><path clip-path="url(#clip530)" d="M2226.02 540.644 L2244.37 540.644 L2244.37 544.579 L2230.3 544.579 L2230.3 553.052 Q2231.32 552.704 2232.34 552.542 Q2233.36 552.357 2234.37 552.357 Q2240.16 552.357 2243.54 555.529 Q2246.92 558.7 2246.92 564.116 Q2246.92 569.695 2243.45 572.797 Q2239.98 575.876 2233.66 575.876 Q2231.48 575.876 2229.21 575.505 Q2226.97 575.135 2224.56 574.394 L2224.56 569.695 Q2226.64 570.829 2228.87 571.385 Q2231.09 571.94 2233.56 571.94 Q2237.57 571.94 2239.91 569.834 Q2242.24 567.728 2242.24 564.116 Q2242.24 560.505 2239.91 558.399 Q2237.57 556.292 2233.56 556.292 Q2231.69 556.292 2229.81 556.709 Q2227.96 557.126 2226.02 558.005 L2226.02 540.644 Z" fill="#000000" fill-rule="nonzero" fill-opacity="1" /><path clip-path="url(#clip530)" d="M2179.47 376.751 L2187.11 376.751 L2187.11 350.385 L2178.8 352.052 L2178.8 347.792 L2187.06 346.126 L2191.74 346.126 L2191.74 376.751 L2199.37 376.751 L2199.37 380.686 L2179.47 380.686 L2179.47 376.751 Z" fill="#000000" fill-rule="nonzero" fill-opacity="1" /><path clip-path="url(#clip530)" d="M2208.82 374.806 L2213.7 374.806 L2213.7 380.686 L2208.82 380.686 L2208.82 374.806 Z" fill="#000000" fill-rule="nonzero" fill-opacity="1" /><path clip-path="url(#clip530)" d="M2233.89 349.204 Q2230.28 349.204 2228.45 352.769 Q2226.64 356.311 2226.64 363.44 Q2226.64 370.547 2228.45 374.112 Q2230.28 377.653 2233.89 377.653 Q2237.52 377.653 2239.33 374.112 Q2241.16 370.547 2241.16 363.44 Q2241.16 356.311 2239.33 352.769 Q2237.52 349.204 2233.89 349.204 M2233.89 345.501 Q2239.7 345.501 2242.75 350.107 Q2245.83 354.69 2245.83 363.44 Q2245.83 372.167 2242.75 376.774 Q2239.7 381.357 2233.89 381.357 Q2228.08 381.357 2225 376.774 Q2221.94 372.167 2221.94 363.44 Q2221.94 354.69 2225 350.107 Q2228.08 345.501 2233.89 345.501 Z" fill="#000000" fill-rule="nonzero" fill-opacity="1" /><path clip-path="url(#clip530)" d="M2179.47 182.232 L2187.11 182.232 L2187.11 155.866 L2178.8 157.533 L2178.8 153.274 L2187.06 151.607 L2191.74 151.607 L2191.74 182.232 L2199.37 182.232 L2199.37 186.167 L2179.47 186.167 L2179.47 182.232 Z" fill="#000000" fill-rule="nonzero" fill-opacity="1" /><path clip-path="url(#clip530)" d="M2208.82 180.287 L2213.7 180.287 L2213.7 186.167 L2208.82 186.167 L2208.82 180.287 Z" fill="#000000" fill-rule="nonzero" fill-opacity="1" /><path clip-path="url(#clip530)" d="M2223.93 151.607 L2242.29 151.607 L2242.29 155.542 L2228.22 155.542 L2228.22 164.014 Q2229.24 163.667 2230.25 163.505 Q2231.27 163.32 2232.29 163.32 Q2238.08 163.32 2241.46 166.491 Q2244.84 169.663 2244.84 175.079 Q2244.84 180.658 2241.37 183.76 Q2237.89 186.838 2231.57 186.838 Q2229.4 186.838 2227.13 186.468 Q2224.88 186.098 2222.48 185.357 L2222.48 180.658 Q2224.56 181.792 2226.78 182.348 Q2229 182.903 2231.48 182.903 Q2235.49 182.903 2237.82 180.797 Q2240.16 178.69 2240.16 175.079 Q2240.16 171.468 2237.82 169.362 Q2235.49 167.255 2231.48 167.255 Q2229.61 167.255 2227.73 167.672 Q2225.88 168.088 2223.93 168.968 L2223.93 151.607 Z" fill="#000000" fill-rule="nonzero" fill-opacity="1" /><path clip-path="url(#clip530)" d="M2343.12 1064.43 L2343.12 1058.22 L2373.03 1047.08 L2343.12 1035.94 L2343.12 1029.74 L2378.76 1043.1 L2378.76 1051.06 L2343.12 1064.43 Z" fill="#ff0000" fill-rule="nonzero" fill-opacity="1" /><path clip-path="url(#clip530)" d="M2359.48 991.16 L2362.34 991.16 L2362.34 1018.09 Q2368.39 1017.71 2371.57 1014.46 Q2374.72 1011.18 2374.72 1005.36 Q2374.72 1001.98 2373.89 998.831 Q2373.07 995.648 2371.41 992.529 L2376.95 992.529 Q2378.29 995.68 2378.99 998.99 Q2379.69 1002.3 2379.69 1005.71 Q2379.69 1014.24 2374.72 1019.23 Q2369.76 1024.2 2361.29 1024.2 Q2352.54 1024.2 2347.41 1019.49 Q2342.26 1014.75 2342.26 1006.72 Q2342.26 999.531 2346.9 995.362 Q2351.52 991.16 2359.48 991.16 M2357.76 997.017 Q2352.95 997.081 2350.09 999.722 Q2347.22 1002.33 2347.22 1006.66 Q2347.22 1011.56 2349.99 1014.52 Q2352.76 1017.45 2357.79 1017.9 L2357.76 997.017 Z" fill="#ff0000" fill-rule="nonzero" fill-opacity="1" /><path clip-path="url(#clip530)" d="M2329.24 981.548 L2329.24 975.692 L2378.76 975.692 L2378.76 981.548 L2329.24 981.548 Z" fill="#ff0000" fill-rule="nonzero" fill-opacity="1" /><path clip-path="url(#clip530)" d="M2347.22 949.624 Q2347.22 954.335 2350.91 957.072 Q2354.57 959.809 2360.97 959.809 Q2367.37 959.809 2371.06 957.104 Q2374.72 954.367 2374.72 949.624 Q2374.72 944.945 2371.03 942.208 Q2367.34 939.471 2360.97 939.471 Q2354.64 939.471 2350.95 942.208 Q2347.22 944.945 2347.22 949.624 M2342.26 949.624 Q2342.26 941.985 2347.22 937.625 Q2352.19 933.264 2360.97 933.264 Q2369.72 933.264 2374.72 937.625 Q2379.69 941.985 2379.69 949.624 Q2379.69 957.295 2374.72 961.655 Q2369.72 965.984 2360.97 965.984 Q2352.19 965.984 2347.22 961.655 Q2342.26 957.295 2342.26 949.624 Z" fill="#ff0000" fill-rule="nonzero" fill-opacity="1" /><path clip-path="url(#clip530)" d="M2344.48 897.903 L2349.96 897.903 Q2348.59 900.385 2347.92 902.9 Q2347.22 905.383 2347.22 907.929 Q2347.22 913.626 2350.85 916.777 Q2354.45 919.928 2360.97 919.928 Q2367.5 919.928 2371.12 916.777 Q2374.72 913.626 2374.72 907.929 Q2374.72 905.383 2374.05 902.9 Q2373.35 900.385 2371.98 897.903 L2377.4 897.903 Q2378.54 900.354 2379.11 902.995 Q2379.69 905.605 2379.69 908.565 Q2379.69 916.618 2374.63 921.36 Q2369.57 926.103 2360.97 926.103 Q2352.25 926.103 2347.25 921.329 Q2342.26 916.523 2342.26 908.183 Q2342.26 905.478 2342.83 902.9 Q2343.37 900.322 2344.48 897.903 Z" fill="#ff0000" fill-rule="nonzero" fill-opacity="1" /><path clip-path="url(#clip530)" d="M2343.12 887.718 L2343.12 881.861 L2378.76 881.861 L2378.76 887.718 L2343.12 887.718 M2329.24 887.718 L2329.24 881.861 L2336.65 881.861 L2336.65 887.718 L2329.24 887.718 Z" fill="#ff0000" fill-rule="nonzero" fill-opacity="1" /><path clip-path="url(#clip530)" d="M2348.53 846.15 L2329.24 846.15 L2329.24 840.293 L2378.76 840.293 L2378.76 846.15 L2373.42 846.15 Q2376.6 847.996 2378.16 850.828 Q2379.69 853.629 2379.69 857.576 Q2379.69 864.037 2374.53 868.111 Q2369.37 872.154 2360.97 872.154 Q2352.57 872.154 2347.41 868.111 Q2342.26 864.037 2342.26 857.576 Q2342.26 853.629 2343.82 850.828 Q2345.34 847.996 2348.53 846.15 M2360.97 866.106 Q2367.43 866.106 2371.12 863.464 Q2374.79 860.791 2374.79 856.144 Q2374.79 851.497 2371.12 848.823 Q2367.43 846.15 2360.97 846.15 Q2354.51 846.15 2350.85 848.823 Q2347.16 851.497 2347.16 856.144 Q2347.16 860.791 2350.85 863.464 Q2354.51 866.106 2360.97 866.106 Z" fill="#ff0000" fill-rule="nonzero" fill-opacity="1" /><path clip-path="url(#clip530)" d="M2360.84 812.029 Q2360.84 819.127 2362.47 821.864 Q2364.09 824.602 2368.01 824.602 Q2371.12 824.602 2372.97 822.565 Q2374.79 820.496 2374.79 816.963 Q2374.79 812.093 2371.35 809.165 Q2367.88 806.205 2362.15 806.205 L2360.84 806.205 L2360.84 812.029 M2358.43 800.348 L2378.76 800.348 L2378.76 806.205 L2373.35 806.205 Q2376.6 808.21 2378.16 811.202 Q2379.69 814.194 2379.69 818.523 Q2379.69 823.997 2376.63 827.244 Q2373.54 830.458 2368.39 830.458 Q2362.37 830.458 2359.32 826.448 Q2356.26 822.406 2356.26 814.417 L2356.26 806.205 L2355.69 806.205 Q2351.65 806.205 2349.45 808.878 Q2347.22 811.52 2347.22 816.326 Q2347.22 819.382 2347.95 822.278 Q2348.69 825.175 2350.15 827.848 L2344.74 827.848 Q2343.5 824.634 2342.89 821.61 Q2342.26 818.586 2342.26 815.722 Q2342.26 807.987 2346.27 804.168 Q2350.28 800.348 2358.43 800.348 Z" fill="#ff0000" fill-rule="nonzero" fill-opacity="1" /><path clip-path="url(#clip530)" d="M2348.53 764.828 L2329.24 764.828 L2329.24 758.971 L2378.76 758.971 L2378.76 764.828 L2373.42 764.828 Q2376.6 766.674 2378.16 769.507 Q2379.69 772.307 2379.69 776.254 Q2379.69 782.715 2374.53 786.789 Q2369.37 790.832 2360.97 790.832 Q2352.57 790.832 2347.41 786.789 Q2342.26 782.715 2342.26 776.254 Q2342.26 772.307 2343.82 769.507 Q2345.34 766.674 2348.53 764.828 M2360.97 784.784 Q2367.43 784.784 2371.12 782.142 Q2374.79 779.469 2374.79 774.822 Q2374.79 770.175 2371.12 767.501 Q2367.43 764.828 2360.97 764.828 Q2354.51 764.828 2350.85 767.501 Q2347.16 770.175 2347.16 774.822 Q2347.16 779.469 2350.85 782.142 Q2354.51 784.784 2360.97 784.784 Z" fill="#ff0000" fill-rule="nonzero" fill-opacity="1" /><path clip-path="url(#clip530)" d="M2343.12 730.389 L2343.12 724.183 L2373.03 713.043 L2343.12 701.903 L2343.12 695.696 L2378.76 709.064 L2378.76 717.021 L2343.12 730.389 Z" fill="#ff0000" fill-rule="nonzero" fill-opacity="1" /><path clip-path="url(#clip530)" d="M2375.26 688.789 L2375.26 682.296 L2355.82 682.296 L2357.12 689.394 L2353.43 689.394 L2352.19 682.074 L2352.19 677.713 L2375.26 677.713 L2375.26 671.188 L2378.76 671.188 L2378.76 688.789 L2375.26 688.789 Z" fill="#ff0000" fill-rule="nonzero" fill-opacity="1" /><path clip-path="url(#clip530)" d="M2329.3 626.692 Q2336.62 630.957 2343.78 633.026 Q2350.95 635.095 2358.3 635.095 Q2365.65 635.095 2372.88 633.026 Q2380.07 630.925 2387.36 626.692 L2387.36 631.784 Q2379.88 636.559 2372.65 638.946 Q2365.43 641.301 2358.3 641.301 Q2351.2 641.301 2344.01 638.946 Q2336.81 636.591 2329.3 631.784 L2329.3 626.692 Z" fill="#ff0000" fill-rule="nonzero" fill-opacity="1" /><path clip-path="url(#clip530)" d="M2349.96 587.575 Q2346.01 585.378 2344.13 582.323 Q2342.26 579.267 2342.26 575.13 Q2342.26 569.56 2346.17 566.536 Q2350.05 563.512 2357.25 563.512 L2378.76 563.512 L2378.76 569.401 L2357.44 569.401 Q2352.31 569.401 2349.83 571.215 Q2347.35 573.029 2347.35 576.753 Q2347.35 581.304 2350.37 583.946 Q2353.4 586.588 2358.62 586.588 L2378.76 586.588 L2378.76 592.476 L2357.44 592.476 Q2352.28 592.476 2349.83 594.29 Q2347.35 596.105 2347.35 599.892 Q2347.35 604.38 2350.4 607.022 Q2353.43 609.664 2358.62 609.664 L2378.76 609.664 L2378.76 615.552 L2343.12 615.552 L2343.12 609.664 L2348.65 609.664 Q2345.38 607.658 2343.82 604.858 Q2342.26 602.057 2342.26 598.205 Q2342.26 594.322 2344.23 591.617 Q2346.2 588.88 2349.96 587.575 Z" fill="#ff0000" fill-rule="nonzero" fill-opacity="1" /><path clip-path="url(#clip530)" d="M2331.24 541.423 L2331.24 536.012 L2384.81 552.563 L2384.81 557.974 L2331.24 541.423 Z" fill="#ff0000" fill-rule="nonzero" fill-opacity="1" /><path clip-path="url(#clip530)" d="M2344.17 507.144 L2349.7 507.144 Q2348.43 509.627 2347.79 512.3 Q2347.16 514.974 2347.16 517.838 Q2347.16 522.199 2348.49 524.395 Q2349.83 526.559 2352.51 526.559 Q2354.54 526.559 2355.72 525 Q2356.87 523.44 2357.92 518.73 L2358.36 516.724 Q2359.7 510.486 2362.15 507.876 Q2364.57 505.234 2368.93 505.234 Q2373.89 505.234 2376.79 509.181 Q2379.69 513.096 2379.69 519.971 Q2379.69 522.835 2379.11 525.955 Q2378.57 529.042 2377.46 532.479 L2371.41 532.479 Q2373.1 529.233 2373.96 526.082 Q2374.79 522.931 2374.79 519.844 Q2374.79 515.706 2373.38 513.478 Q2371.95 511.25 2369.37 511.25 Q2366.99 511.25 2365.71 512.873 Q2364.44 514.465 2363.26 519.907 L2362.79 521.944 Q2361.64 527.387 2359.28 529.806 Q2356.9 532.225 2352.76 532.225 Q2347.73 532.225 2344.99 528.66 Q2342.26 525.095 2342.26 518.539 Q2342.26 515.292 2342.73 512.427 Q2343.21 509.563 2344.17 507.144 Z" fill="#ff0000" fill-rule="nonzero" fill-opacity="1" /><path clip-path="url(#clip530)" d="M2329.3 496.832 L2329.3 491.739 Q2336.81 486.965 2344.01 484.609 Q2351.2 482.222 2358.3 482.222 Q2365.43 482.222 2372.65 484.609 Q2379.88 486.965 2387.36 491.739 L2387.36 496.832 Q2380.07 492.598 2372.88 490.529 Q2365.65 488.429 2358.3 488.429 Q2350.95 488.429 2343.78 490.529 Q2336.62 492.598 2329.3 496.832 Z" fill="#ff0000" fill-rule="nonzero" fill-opacity="1" /><polyline clip-path="url(#clip532)" style="stroke:#ff0000; stroke-linecap:round; stroke-linejoin:round; stroke-width:8; stroke-opacity:1; fill:none" points="274.289,752.443 277.917,752.449 281.545,752.493 285.173,752.611 288.801,752.841 292.43,753.221 296.058,753.788 299.686,754.579 303.314,755.632 306.942,756.983 310.57,758.671 314.199,760.731 317.827,763.203 321.455,766.121 325.083,769.524 328.711,773.446 332.34,777.924 335.968,782.993 339.596,788.687 343.224,795.039 346.852,802.081 350.48,809.845 354.109,818.358 357.737,827.649 361.365,837.741 364.993,848.657 368.621,860.414 372.249,873.028 375.878,886.509 379.506,900.864 383.134,916.092 386.762,932.187 390.39,949.136 394.018,966.92 397.647,985.508 401.275,1004.86 404.903,1024.93 408.531,1045.66 412.159,1066.96 415.787,1088.76 419.416,1110.96 423.044,1133.43 426.672,1156.05 430.3,1178.67 433.928,1201.12 437.556,1223.24 441.185,1244.81 444.813,1265.64 448.441,1285.52 452.069,1304.21 455.697,1321.5 459.325,1337.16 462.954,1350.99 466.582,1362.77 470.21,1372.33 473.838,1379.53 477.466,1384.24 481.094,1386.4 484.723,1385.95 488.351,1382.92 491.979,1377.34 495.607,1369.32 499.235,1358.98 502.863,1346.48 506.492,1332 510.12,1315.76 513.748,1297.96 517.376,1278.84 521.004,1258.61 524.632,1237.5 528.261,1215.72 531.889,1193.47 535.517,1170.94 539.145,1148.3 542.773,1125.72 546.401,1103.33 550.03,1081.25 553.658,1059.61 557.286,1038.49 560.914,1017.99 564.542,998.155 568.171,979.058 571.799,960.742 575.427,943.241 579.055,926.582 582.683,910.782 586.311,895.853 589.94,881.798 593.568,868.614 597.196,856.295 600.824,844.827 604.452,834.196 608.08,824.381 611.709,815.359 615.337,807.105 618.965,799.592 622.593,792.789 626.221,786.666 629.849,781.19 633.478,776.327 637.106,772.043 640.734,768.303 644.362,765.07 647.99,762.309 651.618,759.982 655.247,758.053 658.875,756.485 662.503,755.24 666.131,754.281 669.759,753.571 673.387,753.072 677.016,752.748 680.644,752.56 684.272,752.471 687.9,752.445 691.528,752.443 695.156,752.428 698.785,752.363 702.413,752.21 706.041,751.933 709.669,751.494 713.297,750.855 716.925,749.979 720.554,748.83 724.182,747.37 727.81,745.563 731.438,743.372 735.066,740.762 738.694,737.696 742.323,734.142 745.951,730.064 749.579,725.43 753.207,720.208 756.835,714.369 760.463,707.883 764.092,700.725 767.72,692.871 771.348,684.298 774.976,674.989 778.604,664.927 782.233,654.102 785.861,642.506 789.489,630.136 793.117,616.994 796.745,603.087 800.373,588.429 804.002,573.039 807.63,556.943 811.258,540.176 814.886,522.778 818.514,504.798 822.142,486.294 825.771,467.332 829.399,447.987 833.027,428.344 836.655,408.495 840.283,388.542 843.911,368.598 847.54,348.781 851.168,329.218 854.796,310.045 858.424,291.401 862.052,273.431 865.68,256.285 869.309,240.109 872.937,225.054 876.565,211.263 880.193,198.875 883.821,188.019 887.449,178.813 891.078,171.358 894.706,165.74 898.334,162.025 901.962,160.256 905.59,160.455 909.218,162.619 912.847,166.722 916.475,172.717 920.103,180.532 923.731,190.081 927.359,201.256 930.987,213.938 934.616,227.995 938.244,243.288 941.872,259.671 945.5,276.996 949.128,295.113 952.756,313.876 956.385,333.139 960.013,352.763 963.641,372.616 967.269,392.571 970.897,412.512 974.525,432.327 978.154,451.918 981.782,471.192 985.41,490.067 989.038,508.47 992.666,526.337 996.294,543.612 999.923,560.246 1003.55,576.202 1007.18,591.446 1010.81,605.954 1014.44,619.707 1018.06,632.694 1021.69,644.908 1025.32,656.348 1028.95,667.019 1032.58,676.927 1036.2,686.087 1039.83,694.513 1043.46,702.225 1047.09,709.245 1050.72,715.598 1054.35,721.311 1057.97,726.411 1061.6,730.93 1065.23,734.9 1068.86,738.353 1072.49,741.324 1076.11,743.847 1079.74,745.957 1083.37,747.691 1087,749.086 1090.63,750.177 1094.26,751.001 1097.88,751.597 1101.51,752.001 1105.14,752.25 1108.77,752.382 1112.4,752.434 1116.02,752.443 1119.65,752.447 1123.28,752.483 1126.91,752.589 1130.54,752.801 1134.16,753.158 1137.79,753.696 1141.42,754.453 1145.05,755.467 1148.68,756.774 1152.31,758.412 1155.93,760.418 1159.56,762.83 1163.19,765.683 1166.82,769.015 1170.45,772.863 1174.07,777.26 1177.7,782.244 1181.33,787.848 1184.96,794.106 1188.59,801.049 1192.22,808.71 1195.84,817.116 1199.47,826.296 1203.1,836.275 1206.73,847.073 1210.36,858.711 1213.98,871.204 1217.61,884.564 1221.24,898.795 1224.87,913.9 1228.5,929.874 1232.13,946.705 1235.75,964.373 1239.38,982.85 1243.01,1002.1 1246.64,1022.07 1250.27,1042.71 1253.89,1063.94 1257.52,1085.68 1261.15,1107.82 1264.78,1130.26 1268.41,1152.87 1272.04,1175.5 1275.66,1197.99 1279.29,1220.16 1282.92,1241.82 1286.55,1262.77 1290.18,1282.79 1293.8,1301.67 1297.43,1319.17 1301.06,1335.07 1304.69,1349.16 1308.32,1361.24 1311.95,1371.13 1315.57,1378.67 1319.2,1383.73 1322.83,1386.25 1326.46,1386.17 1330.09,1383.5 1333.71,1378.27 1337.34,1370.59 1340.97,1360.56 1344.6,1348.36 1348.23,1334.15 1351.86,1318.14 1355.48,1300.55 1359.11,1281.59 1362.74,1261.51 1366.37,1240.51 1370,1218.81 1373.62,1196.62 1377.25,1174.11 1380.88,1151.48 1384.51,1128.88 1388.14,1106.45 1391.76,1084.33 1395.39,1062.62 1399.02,1041.42 1402.65,1020.83 1406.28,1000.9 1409.91,981.694 1413.53,963.266 1417.16,945.648 1420.79,928.87 1424.42,912.949 1428.05,897.897 1431.67,883.719 1435.3,870.413 1438.93,857.973 1442.56,846.387 1446.19,835.639 1449.82,825.711 1453.44,816.579 1457.07,808.219 1460.7,800.603 1464.33,793.702 1467.96,787.486 1471.58,781.921 1475.21,776.974 1478.84,772.611 1482.47,768.797 1486.1,765.495 1489.73,762.669 1493.35,760.284 1496.98,758.301 1500.61,756.684 1504.24,755.396 1507.87,754.4 1511.49,753.657 1515.12,753.131 1518.75,752.784 1522.38,752.579 1526.01,752.479 1529.64,752.446 1533.26,752.443 1536.89,752.432 1540.52,752.376 1544.15,752.239 1547.78,751.981 1551.4,751.567 1555.03,750.958 1558.66,750.118 1562.29,749.009 1565.92,747.595 1569.55,745.839 1573.17,743.704 1576.8,741.155 1580.43,738.156 1584.06,734.672 1587.69,730.669 1591.31,726.115 1594.94,720.978 1598.57,715.227 1602.2,708.834 1605.83,701.772 1609.46,694.017 1613.08,685.546 1616.71,676.341 1620.34,666.386 1623.97,655.669 1627.6,644.181 1631.22,631.92 1634.85,618.886 1638.48,605.086 1642.11,590.532 1645.74,575.243 1649.36,559.245 1652.99,542.57 1656.62,525.258 1660.25,507.356 1663.88,488.922 1667.51,470.02 1671.13,450.724 1674.76,431.117 1678.39,411.291 1682.02,391.347 1685.65,371.394 1689.27,351.551 1692.9,331.945 1696.53,312.709 1700.16,293.982 1703.79,275.909 1707.42,258.638 1711.04,242.317 1714.67,227.096 1718.3,213.119 1721.93,200.526 1725.56,189.447 1729.18,180.002 1732.81,172.296 1736.44,166.416 1740.07,162.43 1743.7,160.386 1747.33,160.308 1750.95,162.197 1754.58,166.031 1758.21,171.763 1761.84,179.328 1765.47,188.639 1769.09,199.592 1772.72,212.07 1776.35,225.943 1779.98,241.071 1783.61,257.31 1787.24,274.511 1790.86,292.526 1794.49,311.207 1798.12,330.408 1801.75,349.99 1805.38,369.819 1809,389.767 1812.63,409.716 1816.26,429.556 1819.89,449.183 1823.52,468.507 1827.15,487.443 1830.77,505.917 1834.4,523.862 1838.03,541.223 1841.66,557.95 1845.29,574.003 1848.91,589.349 1852.54,603.962 1856.17,617.822 1859.8,630.917 1863.43,643.24 1867.06,654.788 1870.68,665.566 1874.31,675.581 1877.94,684.845 1881.57,693.373 1885.2,701.184 1888.82,708.3 1892.45,714.745 1896.08,720.546 1899.71,725.731 1903.34,730.33 1906.96,734.375 1910.59,737.898 1914.22,740.934 1917.85,743.518 1921.48,745.684 1925.11,747.469 1928.73,748.909 1932.36,750.04 1935.99,750.9 1939.62,751.526 1943.25,751.954 1946.87,752.223 1950.5,752.369 1954.13,752.43 1957.76,752.443 1961.39,752.445 1965.02,752.475 1968.64,752.568 1972.27,752.763 1975.9,753.097 1979.53,753.608 1983.16,754.332 1986.78,755.307 1990.41,756.571 1994.04,758.16 1997.67,760.113 2001.3,762.465 2004.93,765.254 2008.55,768.517 2012.18,772.29 2015.81,776.608 2019.44,781.508 2023.07,787.022 2026.69,793.186 2030.32,800.032 2033.95,807.59 2037.58,815.89 2041.21,824.96 2044.84,834.824 2048.46,845.506 2052.09,857.026 2055.72,869.398 2059.35,882.635 2062.98,896.744 2066.6,911.726 2070.23,927.579 2073.86,944.29 2077.49,961.842 2081.12,980.207 2084.75,999.35 2088.37,1019.22 "/>
</svg>
