<?xml version="1.0" encoding="utf-8"?>
<svg xmlns="http://www.w3.org/2000/svg" xmlns:xlink="http://www.w3.org/1999/xlink" width="600" height="400" viewBox="0 0 2400 1600">
<defs>
  <clipPath id="clip290">
    <rect x="0" y="0" width="2400" height="1600"/>
  </clipPath>
</defs>
<path clip-path="url(#clip290)" d="M0 1600 L2400 1600 L2400 0 L0 0  Z" fill="#ffffff" fill-rule="evenodd" fill-opacity="1"/>
<defs>
  <clipPath id="clip291">
    <rect x="480" y="0" width="1681" height="1600"/>
  </clipPath>
</defs>
<path clip-path="url(#clip290)" d="M257.204 1423.18 L2352.76 1423.18 L2352.76 123.472 L257.204 123.472  Z" fill="#ffffff" fill-rule="evenodd" fill-opacity="1"/>
<defs>
  <clipPath id="clip292">
    <rect x="257" y="123" width="2097" height="1301"/>
  </clipPath>
</defs>
<polyline clip-path="url(#clip292)" style="stroke:#000000; stroke-linecap:round; stroke-linejoin:round; stroke-width:2; stroke-opacity:0.1; fill:none" points="316.512,1423.18 316.512,123.472 "/>
<polyline clip-path="url(#clip292)" style="stroke:#000000; stroke-linecap:round; stroke-linejoin:round; stroke-width:2; stroke-opacity:0.1; fill:none" points="613.052,1423.18 613.052,123.472 "/>
<polyline clip-path="url(#clip292)" style="stroke:#000000; stroke-linecap:round; stroke-linejoin:round; stroke-width:2; stroke-opacity:0.1; fill:none" points="909.593,1423.18 909.593,123.472 "/>
<polyline clip-path="url(#clip292)" style="stroke:#000000; stroke-linecap:round; stroke-linejoin:round; stroke-width:2; stroke-opacity:0.1; fill:none" points="1206.13,1423.18 1206.13,123.472 "/>
<polyline clip-path="url(#clip292)" style="stroke:#000000; stroke-linecap:round; stroke-linejoin:round; stroke-width:2; stroke-opacity:0.1; fill:none" points="1502.67,1423.18 1502.67,123.472 "/>
<polyline clip-path="url(#clip292)" style="stroke:#000000; stroke-linecap:round; stroke-linejoin:round; stroke-width:2; stroke-opacity:0.1; fill:none" points="1799.21,1423.18 1799.21,123.472 "/>
<polyline clip-path="url(#clip292)" style="stroke:#000000; stroke-linecap:round; stroke-linejoin:round; stroke-width:2; stroke-opacity:0.1; fill:none" points="2095.75,1423.18 2095.75,123.472 "/>
<polyline clip-path="url(#clip292)" style="stroke:#000000; stroke-linecap:round; stroke-linejoin:round; stroke-width:2; stroke-opacity:0.1; fill:none" points="257.204,1336 2352.76,1336 "/>
<polyline clip-path="url(#clip292)" style="stroke:#000000; stroke-linecap:round; stroke-linejoin:round; stroke-width:2; stroke-opacity:0.1; fill:none" points="257.204,1141.48 2352.76,1141.48 "/>
<polyline clip-path="url(#clip292)" style="stroke:#000000; stroke-linecap:round; stroke-linejoin:round; stroke-width:2; stroke-opacity:0.1; fill:none" points="257.204,946.962 2352.76,946.962 "/>
<polyline clip-path="url(#clip292)" style="stroke:#000000; stroke-linecap:round; stroke-linejoin:round; stroke-width:2; stroke-opacity:0.1; fill:none" points="257.204,752.443 2352.76,752.443 "/>
<polyline clip-path="url(#clip292)" style="stroke:#000000; stroke-linecap:round; stroke-linejoin:round; stroke-width:2; stroke-opacity:0.1; fill:none" points="257.204,557.924 2352.76,557.924 "/>
<polyline clip-path="url(#clip292)" style="stroke:#000000; stroke-linecap:round; stroke-linejoin:round; stroke-width:2; stroke-opacity:0.1; fill:none" points="257.204,363.406 2352.76,363.406 "/>
<polyline clip-path="url(#clip292)" style="stroke:#000000; stroke-linecap:round; stroke-linejoin:round; stroke-width:2; stroke-opacity:0.1; fill:none" points="257.204,168.887 2352.76,168.887 "/>
<polyline clip-path="url(#clip290)" style="stroke:#000000; stroke-linecap:round; stroke-linejoin:round; stroke-width:4; stroke-opacity:1; fill:none" points="257.204,1423.18 2352.76,1423.18 "/>
<polyline clip-path="url(#clip290)" style="stroke:#000000; stroke-linecap:round; stroke-linejoin:round; stroke-width:4; stroke-opacity:1; fill:none" points="316.512,1423.18 316.512,1404.28 "/>
<polyline clip-path="url(#clip290)" style="stroke:#000000; stroke-linecap:round; stroke-linejoin:round; stroke-width:4; stroke-opacity:1; fill:none" points="613.052,1423.18 613.052,1404.28 "/>
<polyline clip-path="url(#clip290)" style="stroke:#000000; stroke-linecap:round; stroke-linejoin:round; stroke-width:4; stroke-opacity:1; fill:none" points="909.593,1423.18 909.593,1404.28 "/>
<polyline clip-path="url(#clip290)" style="stroke:#000000; stroke-linecap:round; stroke-linejoin:round; stroke-width:4; stroke-opacity:1; fill:none" points="1206.13,1423.18 1206.13,1404.28 "/>
<polyline clip-path="url(#clip290)" style="stroke:#000000; stroke-linecap:round; stroke-linejoin:round; stroke-width:4; stroke-opacity:1; fill:none" points="1502.67,1423.18 1502.67,1404.28 "/>
<polyline clip-path="url(#clip290)" style="stroke:#000000; stroke-linecap:round; stroke-linejoin:round; stroke-width:4; stroke-opacity:1; fill:none" points="1799.21,1423.18 1799.21,1404.28 "/>
<polyline clip-path="url(#clip290)" style="stroke:#000000; stroke-linecap:round; stroke-linejoin:round; stroke-width:4; stroke-opacity:1; fill:none" points="2095.75,1423.18 2095.75,1404.28 "/>
<path clip-path="url(#clip290)" d="M293.896 1454.1 Q290.285 1454.1 288.457 1457.66 Q286.651 1461.2 286.651 1468.33 Q286.651 1475.44 288.457 1479.01 Q290.285 1482.55 293.896 1482.55 Q297.531 1482.55 299.336 1479.01 Q301.165 1475.44 301.165 1468.33 Q301.165 1461.2 299.336 1457.66 Q297.531 1454.1 293.896 1454.1 M293.896 1450.39 Q299.707 1450.39 302.762 1455 Q305.841 1459.58 305.841 1468.33 Q305.841 1477.06 302.762 1481.67 Q299.707 1486.25 293.896 1486.25 Q288.086 1486.25 285.008 1481.67 Q281.952 1477.06 281.952 1468.33 Q281.952 1459.58 285.008 1455 Q288.086 1450.39 293.896 1450.39 Z" fill="#000000" fill-rule="nonzero" fill-opacity="1" /><path clip-path="url(#clip290)" d="M314.058 1479.7 L318.943 1479.7 L318.943 1485.58 L314.058 1485.58 L314.058 1479.7 Z" fill="#000000" fill-rule="nonzero" fill-opacity="1" /><path clip-path="url(#clip290)" d="M339.128 1454.1 Q335.517 1454.1 333.688 1457.66 Q331.882 1461.2 331.882 1468.33 Q331.882 1475.44 333.688 1479.01 Q335.517 1482.55 339.128 1482.55 Q342.762 1482.55 344.568 1479.01 Q346.396 1475.44 346.396 1468.33 Q346.396 1461.2 344.568 1457.66 Q342.762 1454.1 339.128 1454.1 M339.128 1450.39 Q344.938 1450.39 347.993 1455 Q351.072 1459.58 351.072 1468.33 Q351.072 1477.06 347.993 1481.67 Q344.938 1486.25 339.128 1486.25 Q333.318 1486.25 330.239 1481.67 Q327.183 1477.06 327.183 1468.33 Q327.183 1459.58 330.239 1455 Q333.318 1450.39 339.128 1450.39 Z" fill="#000000" fill-rule="nonzero" fill-opacity="1" /><path clip-path="url(#clip290)" d="M591.05 1454.1 Q587.439 1454.1 585.61 1457.66 Q583.805 1461.2 583.805 1468.33 Q583.805 1475.44 585.61 1479.01 Q587.439 1482.55 591.05 1482.55 Q594.685 1482.55 596.49 1479.01 Q598.319 1475.44 598.319 1468.33 Q598.319 1461.2 596.49 1457.66 Q594.685 1454.1 591.05 1454.1 M591.05 1450.39 Q596.86 1450.39 599.916 1455 Q602.995 1459.58 602.995 1468.33 Q602.995 1477.06 599.916 1481.67 Q596.86 1486.25 591.05 1486.25 Q585.24 1486.25 582.161 1481.67 Q579.106 1477.06 579.106 1468.33 Q579.106 1459.58 582.161 1455 Q585.24 1450.39 591.05 1450.39 Z" fill="#000000" fill-rule="nonzero" fill-opacity="1" /><path clip-path="url(#clip290)" d="M611.212 1479.7 L616.096 1479.7 L616.096 1485.58 L611.212 1485.58 L611.212 1479.7 Z" fill="#000000" fill-rule="nonzero" fill-opacity="1" /><path clip-path="url(#clip290)" d="M627.092 1481.64 L634.731 1481.64 L634.731 1455.28 L626.42 1456.95 L626.42 1452.69 L634.684 1451.02 L639.36 1451.02 L639.36 1481.64 L646.999 1481.64 L646.999 1485.58 L627.092 1485.58 L627.092 1481.64 Z" fill="#000000" fill-rule="nonzero" fill-opacity="1" /><path clip-path="url(#clip290)" d="M887.776 1454.1 Q884.165 1454.1 882.336 1457.66 Q880.53 1461.2 880.53 1468.33 Q880.53 1475.44 882.336 1479.01 Q884.165 1482.55 887.776 1482.55 Q891.41 1482.55 893.216 1479.01 Q895.044 1475.44 895.044 1468.33 Q895.044 1461.2 893.216 1457.66 Q891.41 1454.1 887.776 1454.1 M887.776 1450.39 Q893.586 1450.39 896.642 1455 Q899.72 1459.58 899.72 1468.33 Q899.72 1477.06 896.642 1481.67 Q893.586 1486.25 887.776 1486.25 Q881.966 1486.25 878.887 1481.67 Q875.831 1477.06 875.831 1468.33 Q875.831 1459.58 878.887 1455 Q881.966 1450.39 887.776 1450.39 Z" fill="#000000" fill-rule="nonzero" fill-opacity="1" /><path clip-path="url(#clip290)" d="M907.938 1479.7 L912.822 1479.7 L912.822 1485.58 L907.938 1485.58 L907.938 1479.7 Z" fill="#000000" fill-rule="nonzero" fill-opacity="1" /><path clip-path="url(#clip290)" d="M927.035 1481.64 L943.354 1481.64 L943.354 1485.58 L921.41 1485.58 L921.41 1481.64 Q924.072 1478.89 928.655 1474.26 Q933.262 1469.61 934.442 1468.27 Q936.688 1465.74 937.567 1464.01 Q938.47 1462.25 938.47 1460.56 Q938.47 1457.8 936.526 1456.07 Q934.604 1454.33 931.502 1454.33 Q929.303 1454.33 926.85 1455.09 Q924.419 1455.86 921.641 1457.41 L921.641 1452.69 Q924.465 1451.55 926.919 1450.97 Q929.373 1450.39 931.41 1450.39 Q936.78 1450.39 939.975 1453.08 Q943.169 1455.77 943.169 1460.26 Q943.169 1462.39 942.359 1464.31 Q941.572 1466.2 939.465 1468.8 Q938.887 1469.47 935.785 1472.69 Q932.683 1475.88 927.035 1481.64 Z" fill="#000000" fill-rule="nonzero" fill-opacity="1" /><path clip-path="url(#clip290)" d="M1183.84 1454.1 Q1180.23 1454.1 1178.4 1457.66 Q1176.6 1461.2 1176.6 1468.33 Q1176.6 1475.44 1178.4 1479.01 Q1180.23 1482.55 1183.84 1482.55 Q1187.48 1482.55 1189.28 1479.01 Q1191.11 1475.44 1191.11 1468.33 Q1191.11 1461.2 1189.28 1457.66 Q1187.48 1454.1 1183.84 1454.1 M1183.84 1450.39 Q1189.65 1450.39 1192.71 1455 Q1195.79 1459.58 1195.79 1468.33 Q1195.79 1477.06 1192.71 1481.67 Q1189.65 1486.25 1183.84 1486.25 Q1178.03 1486.25 1174.95 1481.67 Q1171.9 1477.06 1171.9 1468.33 Q1171.9 1459.58 1174.95 1455 Q1178.03 1450.39 1183.84 1450.39 Z" fill="#000000" fill-rule="nonzero" fill-opacity="1" /><path clip-path="url(#clip290)" d="M1204 1479.7 L1208.89 1479.7 L1208.89 1485.58 L1204 1485.58 L1204 1479.7 Z" fill="#000000" fill-rule="nonzero" fill-opacity="1" /><path clip-path="url(#clip290)" d="M1233.24 1466.95 Q1236.6 1467.66 1238.47 1469.93 Q1240.37 1472.2 1240.37 1475.53 Q1240.37 1480.65 1236.85 1483.45 Q1233.33 1486.25 1226.85 1486.25 Q1224.67 1486.25 1222.36 1485.81 Q1220.07 1485.39 1217.61 1484.54 L1217.61 1480.02 Q1219.56 1481.16 1221.87 1481.74 Q1224.19 1482.32 1226.71 1482.32 Q1231.11 1482.32 1233.4 1480.58 Q1235.72 1478.84 1235.72 1475.53 Q1235.72 1472.48 1233.56 1470.77 Q1231.43 1469.03 1227.61 1469.03 L1223.59 1469.03 L1223.59 1465.19 L1227.8 1465.19 Q1231.25 1465.19 1233.08 1463.82 Q1234.91 1462.43 1234.91 1459.84 Q1234.91 1457.18 1233.01 1455.77 Q1231.13 1454.33 1227.61 1454.33 Q1225.69 1454.33 1223.49 1454.75 Q1221.3 1455.16 1218.66 1456.04 L1218.66 1451.88 Q1221.32 1451.14 1223.63 1450.77 Q1225.97 1450.39 1228.03 1450.39 Q1233.36 1450.39 1236.46 1452.83 Q1239.56 1455.23 1239.56 1459.35 Q1239.56 1462.22 1237.92 1464.21 Q1236.27 1466.18 1233.24 1466.95 Z" fill="#000000" fill-rule="nonzero" fill-opacity="1" /><path clip-path="url(#clip290)" d="M1479.81 1454.1 Q1476.2 1454.1 1474.38 1457.66 Q1472.57 1461.2 1472.57 1468.33 Q1472.57 1475.44 1474.38 1479.01 Q1476.2 1482.55 1479.81 1482.55 Q1483.45 1482.55 1485.25 1479.01 Q1487.08 1475.44 1487.08 1468.33 Q1487.08 1461.2 1485.25 1457.66 Q1483.45 1454.1 1479.81 1454.1 M1479.81 1450.39 Q1485.63 1450.39 1488.68 1455 Q1491.76 1459.58 1491.76 1468.33 Q1491.76 1477.06 1488.68 1481.67 Q1485.63 1486.25 1479.81 1486.25 Q1474 1486.25 1470.93 1481.67 Q1467.87 1477.06 1467.87 1468.33 Q1467.87 1459.58 1470.93 1455 Q1474 1450.39 1479.81 1450.39 Z" fill="#000000" fill-rule="nonzero" fill-opacity="1" /><path clip-path="url(#clip290)" d="M1499.98 1479.7 L1504.86 1479.7 L1504.86 1485.58 L1499.98 1485.58 L1499.98 1479.7 Z" fill="#000000" fill-rule="nonzero" fill-opacity="1" /><path clip-path="url(#clip290)" d="M1527.89 1455.09 L1516.09 1473.54 L1527.89 1473.54 L1527.89 1455.09 M1526.67 1451.02 L1532.55 1451.02 L1532.55 1473.54 L1537.48 1473.54 L1537.48 1477.43 L1532.55 1477.43 L1532.55 1485.58 L1527.89 1485.58 L1527.89 1477.43 L1512.29 1477.43 L1512.29 1472.92 L1526.67 1451.02 Z" fill="#000000" fill-rule="nonzero" fill-opacity="1" /><path clip-path="url(#clip290)" d="M1777.1 1454.1 Q1773.48 1454.1 1771.66 1457.66 Q1769.85 1461.2 1769.85 1468.33 Q1769.85 1475.44 1771.66 1479.01 Q1773.48 1482.55 1777.1 1482.55 Q1780.73 1482.55 1782.54 1479.01 Q1784.36 1475.44 1784.36 1468.33 Q1784.36 1461.2 1782.54 1457.66 Q1780.73 1454.1 1777.1 1454.1 M1777.1 1450.39 Q1782.91 1450.39 1785.96 1455 Q1789.04 1459.58 1789.04 1468.33 Q1789.04 1477.06 1785.96 1481.67 Q1782.91 1486.25 1777.1 1486.25 Q1771.29 1486.25 1768.21 1481.67 Q1765.15 1477.06 1765.15 1468.33 Q1765.15 1459.58 1768.21 1455 Q1771.29 1450.39 1777.1 1450.39 Z" fill="#000000" fill-rule="nonzero" fill-opacity="1" /><path clip-path="url(#clip290)" d="M1797.26 1479.7 L1802.14 1479.7 L1802.14 1485.58 L1797.26 1485.58 L1797.26 1479.7 Z" fill="#000000" fill-rule="nonzero" fill-opacity="1" /><path clip-path="url(#clip290)" d="M1812.37 1451.02 L1830.73 1451.02 L1830.73 1454.96 L1816.66 1454.96 L1816.66 1463.43 Q1817.67 1463.08 1818.69 1462.92 Q1819.71 1462.73 1820.73 1462.73 Q1826.52 1462.73 1829.9 1465.9 Q1833.28 1469.08 1833.28 1474.49 Q1833.28 1480.07 1829.8 1483.17 Q1826.33 1486.25 1820.01 1486.25 Q1817.84 1486.25 1815.57 1485.88 Q1813.32 1485.51 1810.92 1484.77 L1810.92 1480.07 Q1813 1481.2 1815.22 1481.76 Q1817.44 1482.32 1819.92 1482.32 Q1823.92 1482.32 1826.26 1480.21 Q1828.6 1478.1 1828.6 1474.49 Q1828.6 1470.88 1826.26 1468.77 Q1823.92 1466.67 1819.92 1466.67 Q1818.04 1466.67 1816.17 1467.08 Q1814.32 1467.5 1812.37 1468.38 L1812.37 1451.02 Z" fill="#000000" fill-rule="nonzero" fill-opacity="1" /><path clip-path="url(#clip290)" d="M2073.06 1454.1 Q2069.45 1454.1 2067.62 1457.66 Q2065.81 1461.2 2065.81 1468.33 Q2065.81 1475.44 2067.62 1479.01 Q2069.45 1482.55 2073.06 1482.55 Q2076.69 1482.55 2078.5 1479.01 Q2080.33 1475.44 2080.33 1468.33 Q2080.33 1461.2 2078.5 1457.66 Q2076.69 1454.1 2073.06 1454.1 M2073.06 1450.39 Q2078.87 1450.39 2081.92 1455 Q2085 1459.58 2085 1468.33 Q2085 1477.06 2081.92 1481.67 Q2078.87 1486.25 2073.06 1486.25 Q2067.25 1486.25 2064.17 1481.67 Q2061.11 1477.06 2061.11 1468.33 Q2061.11 1459.58 2064.17 1455 Q2067.25 1450.39 2073.06 1450.39 Z" fill="#000000" fill-rule="nonzero" fill-opacity="1" /><path clip-path="url(#clip290)" d="M2093.22 1479.7 L2098.1 1479.7 L2098.1 1485.58 L2093.22 1485.58 L2093.22 1479.7 Z" fill="#000000" fill-rule="nonzero" fill-opacity="1" /><path clip-path="url(#clip290)" d="M2118.87 1466.44 Q2115.72 1466.44 2113.87 1468.59 Q2112.04 1470.74 2112.04 1474.49 Q2112.04 1478.22 2113.87 1480.39 Q2115.72 1482.55 2118.87 1482.55 Q2122.02 1482.55 2123.84 1480.39 Q2125.7 1478.22 2125.7 1474.49 Q2125.7 1470.74 2123.84 1468.59 Q2122.02 1466.44 2118.87 1466.44 M2128.15 1451.78 L2128.15 1456.04 Q2126.39 1455.21 2124.59 1454.77 Q2122.8 1454.33 2121.04 1454.33 Q2116.41 1454.33 2113.96 1457.45 Q2111.53 1460.58 2111.18 1466.9 Q2112.55 1464.89 2114.61 1463.82 Q2116.67 1462.73 2119.15 1462.73 Q2124.35 1462.73 2127.36 1465.9 Q2130.4 1469.05 2130.4 1474.49 Q2130.4 1479.82 2127.25 1483.03 Q2124.1 1486.25 2118.87 1486.25 Q2112.87 1486.25 2109.7 1481.67 Q2106.53 1477.06 2106.53 1468.33 Q2106.53 1460.14 2110.42 1455.28 Q2114.31 1450.39 2120.86 1450.39 Q2122.62 1450.39 2124.4 1450.74 Q2126.21 1451.09 2128.15 1451.78 Z" fill="#000000" fill-rule="nonzero" fill-opacity="1" /><path clip-path="url(#clip290)" d="M1242.72 1532.4 L1229.83 1549.74 L1243.39 1568.04 L1236.48 1568.04 L1226.11 1554.04 L1215.73 1568.04 L1208.83 1568.04 L1222.67 1549.39 L1210 1532.4 L1216.91 1532.4 L1226.36 1545.1 L1235.82 1532.4 L1242.72 1532.4 Z" fill="#000000" fill-rule="nonzero" fill-opacity="1" /><path clip-path="url(#clip290)" d="M1250.49 1564.54 L1256.98 1564.54 L1256.98 1545.1 L1249.88 1546.4 L1249.88 1542.71 L1257.21 1541.47 L1261.57 1541.47 L1261.57 1564.54 L1268.09 1564.54 L1268.09 1568.04 L1250.49 1568.04 L1250.49 1564.54 Z" fill="#000000" fill-rule="nonzero" fill-opacity="1" /><path clip-path="url(#clip290)" d="M1312.59 1518.58 Q1308.32 1525.9 1306.25 1533.06 Q1304.18 1540.23 1304.18 1547.58 Q1304.18 1554.93 1306.25 1562.16 Q1308.35 1569.35 1312.59 1576.64 L1307.49 1576.64 Q1302.72 1569.16 1300.33 1561.93 Q1297.98 1554.71 1297.98 1547.58 Q1297.98 1540.48 1300.33 1533.29 Q1302.69 1526.09 1307.49 1518.58 L1312.59 1518.58 Z" fill="#000000" fill-rule="nonzero" fill-opacity="1" /><path clip-path="url(#clip290)" d="M1351.7 1539.24 Q1353.9 1535.29 1356.96 1533.41 Q1360.01 1531.54 1364.15 1531.54 Q1369.72 1531.54 1372.74 1535.45 Q1375.77 1539.33 1375.77 1546.53 L1375.77 1568.04 L1369.88 1568.04 L1369.88 1546.72 Q1369.88 1541.59 1368.06 1539.11 Q1366.25 1536.63 1362.53 1536.63 Q1357.97 1536.63 1355.33 1539.65 Q1352.69 1542.68 1352.69 1547.9 L1352.69 1568.04 L1346.8 1568.04 L1346.8 1546.72 Q1346.8 1541.56 1344.99 1539.11 Q1343.17 1536.63 1339.39 1536.63 Q1334.9 1536.63 1332.26 1539.68 Q1329.62 1542.71 1329.62 1547.9 L1329.62 1568.04 L1323.73 1568.04 L1323.73 1532.4 L1329.62 1532.4 L1329.62 1537.93 Q1331.62 1534.66 1334.42 1533.1 Q1337.22 1531.54 1341.07 1531.54 Q1344.96 1531.54 1347.66 1533.51 Q1350.4 1535.48 1351.7 1539.24 Z" fill="#000000" fill-rule="nonzero" fill-opacity="1" /><path clip-path="url(#clip290)" d="M1386.52 1518.58 L1391.62 1518.58 Q1396.39 1526.09 1398.75 1533.29 Q1401.13 1540.48 1401.13 1547.58 Q1401.13 1554.71 1398.75 1561.93 Q1396.39 1569.16 1391.62 1576.64 L1386.52 1576.64 Q1390.76 1569.35 1392.83 1562.16 Q1394.93 1554.93 1394.93 1547.58 Q1394.93 1540.23 1392.83 1533.06 Q1390.76 1525.9 1386.52 1518.58 Z" fill="#000000" fill-rule="nonzero" fill-opacity="1" /><polyline clip-path="url(#clip290)" style="stroke:#000000; stroke-linecap:round; stroke-linejoin:round; stroke-width:4; stroke-opacity:1; fill:none" points="257.204,1423.18 257.204,123.472 "/>
<polyline clip-path="url(#clip290)" style="stroke:#000000; stroke-linecap:round; stroke-linejoin:round; stroke-width:4; stroke-opacity:1; fill:none" points="257.204,1336 276.102,1336 "/>
<polyline clip-path="url(#clip290)" style="stroke:#000000; stroke-linecap:round; stroke-linejoin:round; stroke-width:4; stroke-opacity:1; fill:none" points="257.204,1141.48 276.102,1141.48 "/>
<polyline clip-path="url(#clip290)" style="stroke:#000000; stroke-linecap:round; stroke-linejoin:round; stroke-width:4; stroke-opacity:1; fill:none" points="257.204,946.962 276.102,946.962 "/>
<polyline clip-path="url(#clip290)" style="stroke:#000000; stroke-linecap:round; stroke-linejoin:round; stroke-width:4; stroke-opacity:1; fill:none" points="257.204,752.443 276.102,752.443 "/>
<polyline clip-path="url(#clip290)" style="stroke:#000000; stroke-linecap:round; stroke-linejoin:round; stroke-width:4; stroke-opacity:1; fill:none" points="257.204,557.924 276.102,557.924 "/>
<polyline clip-path="url(#clip290)" style="stroke:#000000; stroke-linecap:round; stroke-linejoin:round; stroke-width:4; stroke-opacity:1; fill:none" points="257.204,363.406 276.102,363.406 "/>
<polyline clip-path="url(#clip290)" style="stroke:#000000; stroke-linecap:round; stroke-linejoin:round; stroke-width:4; stroke-opacity:1; fill:none" points="257.204,168.887 276.102,168.887 "/>
<path clip-path="url(#clip290)" d="M115.256 1336.45 L144.931 1336.45 L144.931 1340.39 L115.256 1340.39 L115.256 1336.45 Z" fill="#000000" fill-rule="nonzero" fill-opacity="1" /><path clip-path="url(#clip290)" d="M155.834 1349.34 L163.473 1349.34 L163.473 1322.98 L155.163 1324.64 L155.163 1320.39 L163.427 1318.72 L168.102 1318.72 L168.102 1349.34 L175.741 1349.34 L175.741 1353.28 L155.834 1353.28 L155.834 1349.34 Z" fill="#000000" fill-rule="nonzero" fill-opacity="1" /><path clip-path="url(#clip290)" d="M185.186 1347.4 L190.07 1347.4 L190.07 1353.28 L185.186 1353.28 L185.186 1347.4 Z" fill="#000000" fill-rule="nonzero" fill-opacity="1" /><path clip-path="url(#clip290)" d="M200.301 1318.72 L218.658 1318.72 L218.658 1322.65 L204.584 1322.65 L204.584 1331.13 Q205.602 1330.78 206.621 1330.62 Q207.639 1330.43 208.658 1330.43 Q214.445 1330.43 217.824 1333.6 Q221.204 1336.77 221.204 1342.19 Q221.204 1347.77 217.732 1350.87 Q214.26 1353.95 207.94 1353.95 Q205.764 1353.95 203.496 1353.58 Q201.25 1353.21 198.843 1352.47 L198.843 1347.77 Q200.926 1348.9 203.149 1349.46 Q205.371 1350.01 207.848 1350.01 Q211.852 1350.01 214.19 1347.91 Q216.528 1345.8 216.528 1342.19 Q216.528 1338.58 214.19 1336.47 Q211.852 1334.37 207.848 1334.37 Q205.973 1334.37 204.098 1334.78 Q202.246 1335.2 200.301 1336.08 L200.301 1318.72 Z" fill="#000000" fill-rule="nonzero" fill-opacity="1" /><path clip-path="url(#clip290)" d="M114.26 1141.93 L143.936 1141.93 L143.936 1145.87 L114.26 1145.87 L114.26 1141.93 Z" fill="#000000" fill-rule="nonzero" fill-opacity="1" /><path clip-path="url(#clip290)" d="M154.839 1154.83 L162.477 1154.83 L162.477 1128.46 L154.167 1130.13 L154.167 1125.87 L162.431 1124.2 L167.107 1124.2 L167.107 1154.83 L174.746 1154.83 L174.746 1158.76 L154.839 1158.76 L154.839 1154.83 Z" fill="#000000" fill-rule="nonzero" fill-opacity="1" /><path clip-path="url(#clip290)" d="M184.19 1152.88 L189.075 1152.88 L189.075 1158.76 L184.19 1158.76 L184.19 1152.88 Z" fill="#000000" fill-rule="nonzero" fill-opacity="1" /><path clip-path="url(#clip290)" d="M209.26 1127.28 Q205.649 1127.28 203.82 1130.84 Q202.014 1134.39 202.014 1141.51 Q202.014 1148.62 203.82 1152.19 Q205.649 1155.73 209.26 1155.73 Q212.894 1155.73 214.699 1152.19 Q216.528 1148.62 216.528 1141.51 Q216.528 1134.39 214.699 1130.84 Q212.894 1127.28 209.26 1127.28 M209.26 1123.58 Q215.07 1123.58 218.125 1128.18 Q221.204 1132.76 221.204 1141.51 Q221.204 1150.24 218.125 1154.85 Q215.07 1159.43 209.26 1159.43 Q203.449 1159.43 200.371 1154.85 Q197.315 1150.24 197.315 1141.51 Q197.315 1132.76 200.371 1128.18 Q203.449 1123.58 209.26 1123.58 Z" fill="#000000" fill-rule="nonzero" fill-opacity="1" /><path clip-path="url(#clip290)" d="M115.256 947.413 L144.931 947.413 L144.931 951.348 L115.256 951.348 L115.256 947.413 Z" fill="#000000" fill-rule="nonzero" fill-opacity="1" /><path clip-path="url(#clip290)" d="M165.024 932.76 Q161.413 932.76 159.584 936.325 Q157.778 939.867 157.778 946.996 Q157.778 954.103 159.584 957.668 Q161.413 961.209 165.024 961.209 Q168.658 961.209 170.464 957.668 Q172.292 954.103 172.292 946.996 Q172.292 939.867 170.464 936.325 Q168.658 932.76 165.024 932.76 M165.024 929.057 Q170.834 929.057 173.889 933.663 Q176.968 938.246 176.968 946.996 Q176.968 955.723 173.889 960.33 Q170.834 964.913 165.024 964.913 Q159.214 964.913 156.135 960.33 Q153.079 955.723 153.079 946.996 Q153.079 938.246 156.135 933.663 Q159.214 929.057 165.024 929.057 Z" fill="#000000" fill-rule="nonzero" fill-opacity="1" /><path clip-path="url(#clip290)" d="M185.186 958.362 L190.07 958.362 L190.07 964.242 L185.186 964.242 L185.186 958.362 Z" fill="#000000" fill-rule="nonzero" fill-opacity="1" /><path clip-path="url(#clip290)" d="M200.301 929.682 L218.658 929.682 L218.658 933.617 L204.584 933.617 L204.584 942.089 Q205.602 941.742 206.621 941.58 Q207.639 941.394 208.658 941.394 Q214.445 941.394 217.824 944.566 Q221.204 947.737 221.204 953.154 Q221.204 958.732 217.732 961.834 Q214.26 964.913 207.94 964.913 Q205.764 964.913 203.496 964.542 Q201.25 964.172 198.843 963.431 L198.843 958.732 Q200.926 959.867 203.149 960.422 Q205.371 960.978 207.848 960.978 Q211.852 960.978 214.19 958.871 Q216.528 956.765 216.528 953.154 Q216.528 949.543 214.19 947.436 Q211.852 945.33 207.848 945.33 Q205.973 945.33 204.098 945.746 Q202.246 946.163 200.301 947.043 L200.301 929.682 Z" fill="#000000" fill-rule="nonzero" fill-opacity="1" /><path clip-path="url(#clip290)" d="M164.028 738.242 Q160.417 738.242 158.589 741.806 Q156.783 745.348 156.783 752.478 Q156.783 759.584 158.589 763.149 Q160.417 766.691 164.028 766.691 Q167.663 766.691 169.468 763.149 Q171.297 759.584 171.297 752.478 Q171.297 745.348 169.468 741.806 Q167.663 738.242 164.028 738.242 M164.028 734.538 Q169.839 734.538 172.894 739.144 Q175.973 743.728 175.973 752.478 Q175.973 761.204 172.894 765.811 Q169.839 770.394 164.028 770.394 Q158.218 770.394 155.14 765.811 Q152.084 761.204 152.084 752.478 Q152.084 743.728 155.14 739.144 Q158.218 734.538 164.028 734.538 Z" fill="#000000" fill-rule="nonzero" fill-opacity="1" /><path clip-path="url(#clip290)" d="M184.19 763.843 L189.075 763.843 L189.075 769.723 L184.19 769.723 L184.19 763.843 Z" fill="#000000" fill-rule="nonzero" fill-opacity="1" /><path clip-path="url(#clip290)" d="M209.26 738.242 Q205.649 738.242 203.82 741.806 Q202.014 745.348 202.014 752.478 Q202.014 759.584 203.82 763.149 Q205.649 766.691 209.26 766.691 Q212.894 766.691 214.699 763.149 Q216.528 759.584 216.528 752.478 Q216.528 745.348 214.699 741.806 Q212.894 738.242 209.26 738.242 M209.26 734.538 Q215.07 734.538 218.125 739.144 Q221.204 743.728 221.204 752.478 Q221.204 761.204 218.125 765.811 Q215.07 770.394 209.26 770.394 Q203.449 770.394 200.371 765.811 Q197.315 761.204 197.315 752.478 Q197.315 743.728 200.371 739.144 Q203.449 734.538 209.26 734.538 Z" fill="#000000" fill-rule="nonzero" fill-opacity="1" /><path clip-path="url(#clip290)" d="M165.024 543.723 Q161.413 543.723 159.584 547.288 Q157.778 550.829 157.778 557.959 Q157.778 565.065 159.584 568.63 Q161.413 572.172 165.024 572.172 Q168.658 572.172 170.464 568.63 Q172.292 565.065 172.292 557.959 Q172.292 550.829 170.464 547.288 Q168.658 543.723 165.024 543.723 M165.024 540.019 Q170.834 540.019 173.889 544.626 Q176.968 549.209 176.968 557.959 Q176.968 566.686 173.889 571.292 Q170.834 575.876 165.024 575.876 Q159.214 575.876 156.135 571.292 Q153.079 566.686 153.079 557.959 Q153.079 549.209 156.135 544.626 Q159.214 540.019 165.024 540.019 Z" fill="#000000" fill-rule="nonzero" fill-opacity="1" /><path clip-path="url(#clip290)" d="M185.186 569.325 L190.07 569.325 L190.07 575.204 L185.186 575.204 L185.186 569.325 Z" fill="#000000" fill-rule="nonzero" fill-opacity="1" /><path clip-path="url(#clip290)" d="M200.301 540.644 L218.658 540.644 L218.658 544.579 L204.584 544.579 L204.584 553.052 Q205.602 552.704 206.621 552.542 Q207.639 552.357 208.658 552.357 Q214.445 552.357 217.824 555.529 Q221.204 558.7 221.204 564.116 Q221.204 569.695 217.732 572.797 Q214.26 575.876 207.94 575.876 Q205.764 575.876 203.496 575.505 Q201.25 575.135 198.843 574.394 L198.843 569.695 Q200.926 570.829 203.149 571.385 Q205.371 571.94 207.848 571.94 Q211.852 571.94 214.19 569.834 Q216.528 567.728 216.528 564.116 Q216.528 560.505 214.19 558.399 Q211.852 556.292 207.848 556.292 Q205.973 556.292 204.098 556.709 Q202.246 557.126 200.301 558.005 L200.301 540.644 Z" fill="#000000" fill-rule="nonzero" fill-opacity="1" /><path clip-path="url(#clip290)" d="M154.839 376.751 L162.477 376.751 L162.477 350.385 L154.167 352.052 L154.167 347.792 L162.431 346.126 L167.107 346.126 L167.107 376.751 L174.746 376.751 L174.746 380.686 L154.839 380.686 L154.839 376.751 Z" fill="#000000" fill-rule="nonzero" fill-opacity="1" /><path clip-path="url(#clip290)" d="M184.19 374.806 L189.075 374.806 L189.075 380.686 L184.19 380.686 L184.19 374.806 Z" fill="#000000" fill-rule="nonzero" fill-opacity="1" /><path clip-path="url(#clip290)" d="M209.26 349.204 Q205.649 349.204 203.82 352.769 Q202.014 356.311 202.014 363.44 Q202.014 370.547 203.82 374.112 Q205.649 377.653 209.26 377.653 Q212.894 377.653 214.699 374.112 Q216.528 370.547 216.528 363.44 Q216.528 356.311 214.699 352.769 Q212.894 349.204 209.26 349.204 M209.26 345.501 Q215.07 345.501 218.125 350.107 Q221.204 354.69 221.204 363.44 Q221.204 372.167 218.125 376.774 Q215.07 381.357 209.26 381.357 Q203.449 381.357 200.371 376.774 Q197.315 372.167 197.315 363.44 Q197.315 354.69 200.371 350.107 Q203.449 345.501 209.26 345.501 Z" fill="#000000" fill-rule="nonzero" fill-opacity="1" /><path clip-path="url(#clip290)" d="M155.834 182.232 L163.473 182.232 L163.473 155.866 L155.163 157.533 L155.163 153.274 L163.427 151.607 L168.102 151.607 L168.102 182.232 L175.741 182.232 L175.741 186.167 L155.834 186.167 L155.834 182.232 Z" fill="#000000" fill-rule="nonzero" fill-opacity="1" /><path clip-path="url(#clip290)" d="M185.186 180.287 L190.07 180.287 L190.07 186.167 L185.186 186.167 L185.186 180.287 Z" fill="#000000" fill-rule="nonzero" fill-opacity="1" /><path clip-path="url(#clip290)" d="M200.301 151.607 L218.658 151.607 L218.658 155.542 L204.584 155.542 L204.584 164.014 Q205.602 163.667 206.621 163.505 Q207.639 163.32 208.658 163.32 Q214.445 163.32 217.824 166.491 Q221.204 169.663 221.204 175.079 Q221.204 180.658 217.732 183.76 Q214.26 186.838 207.94 186.838 Q205.764 186.838 203.496 186.468 Q201.25 186.098 198.843 185.357 L198.843 180.658 Q200.926 181.792 203.149 182.348 Q205.371 182.903 207.848 182.903 Q211.852 182.903 214.19 180.797 Q216.528 178.69 216.528 175.079 Q216.528 171.468 214.19 169.362 Q211.852 167.255 207.848 167.255 Q205.973 167.255 204.098 167.672 Q202.246 168.088 200.301 168.968 L200.301 151.607 Z" fill="#000000" fill-rule="nonzero" fill-opacity="1" /><path clip-path="url(#clip290)" d="M28.3562 897.41 L28.3562 891.203 L58.275 880.063 L28.3562 868.923 L28.3562 862.716 L64.0042 876.084 L64.0042 884.042 L28.3562 897.41 Z" fill="#000000" fill-rule="nonzero" fill-opacity="1" /><path clip-path="url(#clip290)" d="M60.503 855.81 L60.503 849.317 L41.0558 849.317 L42.3608 856.414 L38.6686 856.414 L37.4273 849.094 L37.4273 844.733 L60.503 844.733 L60.503 838.208 L64.0042 838.208 L64.0042 855.81 L60.503 855.81 Z" fill="#000000" fill-rule="nonzero" fill-opacity="1" /><path clip-path="url(#clip290)" d="M14.5426 793.712 Q21.8632 797.977 29.0246 800.046 Q36.186 802.115 43.5384 802.115 Q50.8908 802.115 58.1159 800.046 Q65.3091 797.945 72.5979 793.712 L72.5979 798.805 Q65.1182 803.579 57.8931 805.966 Q50.668 808.321 43.5384 808.321 Q36.4406 808.321 29.2474 805.966 Q22.0542 803.611 14.5426 798.805 L14.5426 793.712 Z" fill="#000000" fill-rule="nonzero" fill-opacity="1" /><path clip-path="url(#clip290)" d="M35.1993 754.595 Q31.2526 752.399 29.3747 749.343 Q27.4968 746.288 27.4968 742.15 Q27.4968 736.58 31.4117 733.556 Q35.2948 730.533 42.4881 730.533 L64.0042 730.533 L64.0042 736.421 L42.679 736.421 Q37.5546 736.421 35.072 738.235 Q32.5894 740.049 32.5894 743.773 Q32.5894 748.325 35.6131 750.966 Q38.6368 753.608 43.8567 753.608 L64.0042 753.608 L64.0042 759.496 L42.679 759.496 Q37.5228 759.496 35.072 761.311 Q32.5894 763.125 32.5894 766.913 Q32.5894 771.4 35.6449 774.042 Q38.6686 776.684 43.8567 776.684 L64.0042 776.684 L64.0042 782.572 L28.3562 782.572 L28.3562 776.684 L33.8944 776.684 Q30.616 774.679 29.0564 771.878 Q27.4968 769.077 27.4968 765.226 Q27.4968 761.343 29.4702 758.637 Q31.4436 755.9 35.1993 754.595 Z" fill="#000000" fill-rule="nonzero" fill-opacity="1" /><path clip-path="url(#clip290)" d="M16.4842 708.444 L16.4842 703.033 L70.0516 719.584 L70.0516 724.994 L16.4842 708.444 Z" fill="#000000" fill-rule="nonzero" fill-opacity="1" /><path clip-path="url(#clip290)" d="M29.4065 674.164 L34.9447 674.164 Q33.6716 676.647 33.035 679.32 Q32.3984 681.994 32.3984 684.859 Q32.3984 689.219 33.7352 691.415 Q35.072 693.58 37.7456 693.58 Q39.7826 693.58 40.9603 692.02 Q42.1061 690.46 43.1565 685.75 L43.6021 683.745 Q44.9389 677.506 47.3897 674.896 Q49.8086 672.254 54.1691 672.254 Q59.1344 672.254 62.0308 676.201 Q64.9272 680.116 64.9272 686.991 Q64.9272 689.856 64.3543 692.975 Q63.8132 696.062 62.6992 699.5 L56.6518 699.5 Q58.3387 696.253 59.198 693.102 Q60.0256 689.951 60.0256 686.864 Q60.0256 682.726 58.6251 680.498 Q57.1929 678.27 54.6147 678.27 Q52.2276 678.27 50.9545 679.893 Q49.6813 681.485 48.5037 686.927 L48.0262 688.964 Q46.8804 694.407 44.5251 696.826 Q42.138 699.245 38.0002 699.245 Q32.9713 699.245 30.2341 695.68 Q27.4968 692.115 27.4968 685.559 Q27.4968 682.312 27.9743 679.448 Q28.4517 676.583 29.4065 674.164 Z" fill="#000000" fill-rule="nonzero" fill-opacity="1" /><path clip-path="url(#clip290)" d="M14.5426 663.852 L14.5426 658.759 Q22.0542 653.985 29.2474 651.63 Q36.4406 649.242 43.5384 649.242 Q50.668 649.242 57.8931 651.63 Q65.1182 653.985 72.5979 658.759 L72.5979 663.852 Q65.3091 659.619 58.1159 657.55 Q50.8908 655.449 43.5384 655.449 Q36.186 655.449 29.0246 657.55 Q21.8632 659.619 14.5426 663.852 Z" fill="#000000" fill-rule="nonzero" fill-opacity="1" /><path clip-path="url(#clip290)" d="M743.018 12.096 L755.212 12.096 L770.645 53.2532 L786.16 12.096 L798.354 12.096 L798.354 72.576 L790.373 72.576 L790.373 19.4686 L774.777 60.9499 L766.554 60.9499 L750.958 19.4686 L750.958 72.576 L743.018 72.576 L743.018 12.096 Z" fill="#000000" fill-rule="nonzero" fill-opacity="1" /><path clip-path="url(#clip290)" d="M834.893 49.7694 Q825.859 49.7694 822.375 51.8354 Q818.892 53.9013 818.892 58.8839 Q818.892 62.8538 821.484 65.2034 Q824.117 67.5124 828.614 67.5124 Q834.812 67.5124 838.539 63.1374 Q842.306 58.7219 842.306 51.4303 L842.306 49.7694 L834.893 49.7694 M849.76 46.6907 L849.76 72.576 L842.306 72.576 L842.306 65.6895 Q839.754 69.8214 835.946 71.8063 Q832.138 73.7508 826.629 73.7508 Q819.661 73.7508 815.529 69.8619 Q811.438 65.9325 811.438 59.3701 Q811.438 51.7138 816.542 47.825 Q821.687 43.9361 831.855 43.9361 L842.306 43.9361 L842.306 43.2069 Q842.306 38.0623 838.903 35.2672 Q835.541 32.4315 829.424 32.4315 Q825.535 32.4315 821.849 33.3632 Q818.163 34.295 814.76 36.1584 L814.76 29.2718 Q818.851 27.692 822.7 26.9223 Q826.548 26.1121 830.194 26.1121 Q840.037 26.1121 844.899 31.2163 Q849.76 36.3204 849.76 46.6907 Z" fill="#000000" fill-rule="nonzero" fill-opacity="1" /><path clip-path="url(#clip290)" d="M894.036 28.5427 L894.036 35.5912 Q890.876 33.9709 887.474 33.1607 Q884.071 32.3505 880.425 32.3505 Q874.875 32.3505 872.08 34.0519 Q869.325 35.7533 869.325 39.156 Q869.325 41.7486 871.31 43.2475 Q873.295 44.7058 879.291 46.0426 L881.843 46.6097 Q889.783 48.3111 893.104 51.4303 Q896.467 54.509 896.467 60.0587 Q896.467 66.3781 891.443 70.0644 Q886.461 73.7508 877.711 73.7508 Q874.065 73.7508 870.095 73.0216 Q866.166 72.3329 861.791 70.9151 L861.791 63.2184 Q865.923 65.3654 869.933 66.4591 Q873.944 67.5124 877.873 67.5124 Q883.139 67.5124 885.975 65.73 Q888.81 63.9071 888.81 60.6258 Q888.81 57.5877 886.744 55.9673 Q884.719 54.3469 877.792 52.8481 L875.199 52.2405 Q868.272 50.7821 865.194 47.7845 Q862.115 44.7463 862.115 39.4801 Q862.115 33.0797 866.652 29.5959 Q871.189 26.1121 879.534 26.1121 Q883.666 26.1121 887.311 26.7198 Q890.957 27.3274 894.036 28.5427 Z" fill="#000000" fill-rule="nonzero" fill-opacity="1" /><path clip-path="url(#clip290)" d="M928.955 49.7694 Q919.921 49.7694 916.437 51.8354 Q912.954 53.9013 912.954 58.8839 Q912.954 62.8538 915.546 65.2034 Q918.179 67.5124 922.676 67.5124 Q928.874 67.5124 932.601 63.1374 Q936.368 58.7219 936.368 51.4303 L936.368 49.7694 L928.955 49.7694 M943.822 46.6907 L943.822 72.576 L936.368 72.576 L936.368 65.6895 Q933.816 69.8214 930.008 71.8063 Q926.2 73.7508 920.691 73.7508 Q913.723 73.7508 909.591 69.8619 Q905.5 65.9325 905.5 59.3701 Q905.5 51.7138 910.604 47.825 Q915.749 43.9361 925.917 43.9361 L936.368 43.9361 L936.368 43.2069 Q936.368 38.0623 932.965 35.2672 Q929.603 32.4315 923.486 32.4315 Q919.597 32.4315 915.911 33.3632 Q912.225 34.295 908.822 36.1584 L908.822 29.2718 Q912.913 27.692 916.762 26.9223 Q920.61 26.1121 924.256 26.1121 Q934.099 26.1121 938.961 31.2163 Q943.822 36.3204 943.822 46.6907 Z" fill="#000000" fill-rule="nonzero" fill-opacity="1" /><path clip-path="url(#clip290)" d="M1020.87 35.9153 Q1023.66 30.8922 1027.55 28.5022 Q1031.44 26.1121 1036.71 26.1121 Q1043.8 26.1121 1047.65 31.0947 Q1051.49 36.0368 1051.49 45.1919 L1051.49 72.576 L1044 72.576 L1044 45.4349 Q1044 38.913 1041.69 35.7533 Q1039.38 32.5936 1034.64 32.5936 Q1028.85 32.5936 1025.49 36.4419 Q1022.13 40.2903 1022.13 46.9338 L1022.13 72.576 L1014.63 72.576 L1014.63 45.4349 Q1014.63 38.8725 1012.32 35.7533 Q1010.01 32.5936 1005.19 32.5936 Q999.481 32.5936 996.119 36.4824 Q992.757 40.3308 992.757 46.9338 L992.757 72.576 L985.262 72.576 L985.262 27.2059 L992.757 27.2059 L992.757 34.2544 Q995.309 30.082 998.873 28.0971 Q1002.44 26.1121 1007.34 26.1121 Q1012.28 26.1121 1015.73 28.6237 Q1019.21 31.1352 1020.87 35.9153 Z" fill="#000000" fill-rule="nonzero" fill-opacity="1" /><path clip-path="url(#clip290)" d="M1064.86 68.12 L1073.13 68.12 L1073.13 43.369 L1064.09 45.0299 L1064.09 40.3308 L1073.41 38.7509 L1078.96 38.7509 L1078.96 68.12 L1087.26 68.12 L1087.26 72.576 L1064.86 72.576 L1064.86 68.12 Z" fill="#000000" fill-rule="nonzero" fill-opacity="1" /><path clip-path="url(#clip290)" d="M1143.9 9.62495 Q1138.47 18.942 1135.83 28.0566 Q1133.2 37.1711 1133.2 46.5287 Q1133.2 55.8863 1135.83 65.0818 Q1138.51 74.2369 1143.9 83.5134 L1137.41 83.5134 Q1131.34 73.9938 1128.3 64.7983 Q1125.3 55.6027 1125.3 46.5287 Q1125.3 37.4952 1128.3 28.3401 Q1131.3 19.1851 1137.41 9.62495 L1143.9 9.62495 Z" fill="#000000" fill-rule="nonzero" fill-opacity="1" /><path clip-path="url(#clip290)" d="M1197.17 48.0275 L1197.17 51.6733 L1162.89 51.6733 Q1163.38 59.3701 1167.51 63.421 Q1171.68 67.4314 1179.1 67.4314 Q1183.39 67.4314 1187.4 66.3781 Q1191.45 65.3249 1195.42 63.2184 L1195.42 70.267 Q1191.41 71.9684 1187.2 72.8596 Q1182.99 73.7508 1178.65 73.7508 Q1167.8 73.7508 1161.44 67.4314 Q1155.12 61.1119 1155.12 50.3365 Q1155.12 39.1965 1161.11 32.6746 Q1167.15 26.1121 1177.36 26.1121 Q1186.51 26.1121 1191.82 32.0264 Q1197.17 37.9003 1197.17 48.0275 M1189.71 45.84 Q1189.63 39.7232 1186.27 36.0774 Q1182.95 32.4315 1177.44 32.4315 Q1171.2 32.4315 1167.43 35.9558 Q1163.7 39.4801 1163.14 45.8805 L1189.71 45.84 Z" fill="#000000" fill-rule="nonzero" fill-opacity="1" /><path clip-path="url(#clip290)" d="M1238.32 28.5427 L1238.32 35.5912 Q1235.16 33.9709 1231.76 33.1607 Q1228.36 32.3505 1224.71 32.3505 Q1219.16 32.3505 1216.37 34.0519 Q1213.61 35.7533 1213.61 39.156 Q1213.61 41.7486 1215.6 43.2475 Q1217.58 44.7058 1223.58 46.0426 L1226.13 46.6097 Q1234.07 48.3111 1237.39 51.4303 Q1240.75 54.509 1240.75 60.0587 Q1240.75 66.3781 1235.73 70.0644 Q1230.75 73.7508 1222 73.7508 Q1218.35 73.7508 1214.38 73.0216 Q1210.45 72.3329 1206.08 70.9151 L1206.08 63.2184 Q1210.21 65.3654 1214.22 66.4591 Q1218.23 67.5124 1222.16 67.5124 Q1227.43 67.5124 1230.26 65.73 Q1233.1 63.9071 1233.1 60.6258 Q1233.1 57.5877 1231.03 55.9673 Q1229.01 54.3469 1222.08 52.8481 L1219.49 52.2405 Q1212.56 50.7821 1209.48 47.7845 Q1206.4 44.7463 1206.4 39.4801 Q1206.4 33.0797 1210.94 29.5959 Q1215.48 26.1121 1223.82 26.1121 Q1227.95 26.1121 1231.6 26.7198 Q1235.24 27.3274 1238.32 28.5427 Z" fill="#000000" fill-rule="nonzero" fill-opacity="1" /><path clip-path="url(#clip290)" d="M1259.83 65.7705 L1259.83 89.8329 L1252.34 89.8329 L1252.34 27.2059 L1259.83 27.2059 L1259.83 34.0924 Q1262.18 30.0415 1265.75 28.0971 Q1269.35 26.1121 1274.33 26.1121 Q1282.6 26.1121 1287.74 32.6746 Q1292.93 39.2371 1292.93 49.9314 Q1292.93 60.6258 1287.74 67.1883 Q1282.6 73.7508 1274.33 73.7508 Q1269.35 73.7508 1265.75 71.8063 Q1262.18 69.8214 1259.83 65.7705 M1285.19 49.9314 Q1285.19 41.7081 1281.79 37.0496 Q1278.43 32.3505 1272.51 32.3505 Q1266.6 32.3505 1263.19 37.0496 Q1259.83 41.7081 1259.83 49.9314 Q1259.83 58.1548 1263.19 62.8538 Q1266.6 67.5124 1272.51 67.5124 Q1278.43 67.5124 1281.79 62.8538 Q1285.19 58.1548 1285.19 49.9314 Z" fill="#000000" fill-rule="nonzero" fill-opacity="1" /><path clip-path="url(#clip290)" d="M1325.9 49.7694 Q1316.87 49.7694 1313.39 51.8354 Q1309.9 53.9013 1309.9 58.8839 Q1309.9 62.8538 1312.49 65.2034 Q1315.13 67.5124 1319.62 67.5124 Q1325.82 67.5124 1329.55 63.1374 Q1333.32 58.7219 1333.32 51.4303 L1333.32 49.7694 L1325.9 49.7694 M1340.77 46.6907 L1340.77 72.576 L1333.32 72.576 L1333.32 65.6895 Q1330.76 69.8214 1326.96 71.8063 Q1323.15 73.7508 1317.64 73.7508 Q1310.67 73.7508 1306.54 69.8619 Q1302.45 65.9325 1302.45 59.3701 Q1302.45 51.7138 1307.55 47.825 Q1312.7 43.9361 1322.86 43.9361 L1333.32 43.9361 L1333.32 43.2069 Q1333.32 38.0623 1329.91 35.2672 Q1326.55 32.4315 1320.43 32.4315 Q1316.55 32.4315 1312.86 33.3632 Q1309.17 34.295 1305.77 36.1584 L1305.77 29.2718 Q1309.86 27.692 1313.71 26.9223 Q1317.56 26.1121 1321.2 26.1121 Q1331.05 26.1121 1335.91 31.2163 Q1340.77 36.3204 1340.77 46.6907 Z" fill="#000000" fill-rule="nonzero" fill-opacity="1" /><path clip-path="url(#clip290)" d="M1388.77 28.9478 L1388.77 35.9153 Q1385.61 34.1734 1382.41 33.3227 Q1379.25 32.4315 1376.01 32.4315 Q1368.76 32.4315 1364.75 37.0496 Q1360.74 41.6271 1360.74 49.9314 Q1360.74 58.2358 1364.75 62.8538 Q1368.76 67.4314 1376.01 67.4314 Q1379.25 67.4314 1382.41 66.5807 Q1385.61 65.6895 1388.77 63.9476 L1388.77 70.8341 Q1385.65 72.2924 1382.29 73.0216 Q1378.97 73.7508 1375.2 73.7508 Q1364.95 73.7508 1358.92 67.3098 Q1352.88 60.8689 1352.88 49.9314 Q1352.88 38.832 1358.96 32.472 Q1365.08 26.1121 1375.69 26.1121 Q1379.13 26.1121 1382.41 26.8413 Q1385.69 27.5299 1388.77 28.9478 Z" fill="#000000" fill-rule="nonzero" fill-opacity="1" /><path clip-path="url(#clip290)" d="M1401.74 27.2059 L1409.19 27.2059 L1409.19 72.576 L1401.74 72.576 L1401.74 27.2059 M1401.74 9.54393 L1409.19 9.54393 L1409.19 18.9825 L1401.74 18.9825 L1401.74 9.54393 Z" fill="#000000" fill-rule="nonzero" fill-opacity="1" /><path clip-path="url(#clip290)" d="M1442.37 32.4315 Q1436.37 32.4315 1432.89 37.1306 Q1429.4 41.7891 1429.4 49.9314 Q1429.4 58.0738 1432.85 62.7728 Q1436.33 67.4314 1442.37 67.4314 Q1448.32 67.4314 1451.8 62.7323 Q1455.29 58.0333 1455.29 49.9314 Q1455.29 41.8701 1451.8 37.1711 Q1448.32 32.4315 1442.37 32.4315 M1442.37 26.1121 Q1452.09 26.1121 1457.64 32.4315 Q1463.19 38.7509 1463.19 49.9314 Q1463.19 61.0714 1457.64 67.4314 Q1452.09 73.7508 1442.37 73.7508 Q1432.6 73.7508 1427.05 67.4314 Q1421.54 61.0714 1421.54 49.9314 Q1421.54 38.7509 1427.05 32.4315 Q1432.6 26.1121 1442.37 26.1121 Z" fill="#000000" fill-rule="nonzero" fill-opacity="1" /><path clip-path="url(#clip290)" d="M1531.77 34.0924 L1531.77 9.54393 L1539.22 9.54393 L1539.22 72.576 L1531.77 72.576 L1531.77 65.7705 Q1529.42 69.8214 1525.82 71.8063 Q1522.25 73.7508 1517.23 73.7508 Q1509 73.7508 1503.82 67.1883 Q1498.67 60.6258 1498.67 49.9314 Q1498.67 39.2371 1503.82 32.6746 Q1509 26.1121 1517.23 26.1121 Q1522.25 26.1121 1525.82 28.0971 Q1529.42 30.0415 1531.77 34.0924 M1506.37 49.9314 Q1506.37 58.1548 1509.73 62.8538 Q1513.14 67.5124 1519.05 67.5124 Q1524.96 67.5124 1528.37 62.8538 Q1531.77 58.1548 1531.77 49.9314 Q1531.77 41.7081 1528.37 37.0496 Q1524.96 32.3505 1519.05 32.3505 Q1513.14 32.3505 1509.73 37.0496 Q1506.37 41.7081 1506.37 49.9314 Z" fill="#000000" fill-rule="nonzero" fill-opacity="1" /><path clip-path="url(#clip290)" d="M1593.38 48.0275 L1593.38 51.6733 L1559.11 51.6733 Q1559.6 59.3701 1563.73 63.421 Q1567.9 67.4314 1575.32 67.4314 Q1579.61 67.4314 1583.62 66.3781 Q1587.67 65.3249 1591.64 63.2184 L1591.64 70.267 Q1587.63 71.9684 1583.42 72.8596 Q1579.21 73.7508 1574.87 73.7508 Q1564.02 73.7508 1557.66 67.4314 Q1551.34 61.1119 1551.34 50.3365 Q1551.34 39.1965 1557.33 32.6746 Q1563.37 26.1121 1573.58 26.1121 Q1582.73 26.1121 1588.04 32.0264 Q1593.38 37.9003 1593.38 48.0275 M1585.93 45.84 Q1585.85 39.7232 1582.49 36.0774 Q1579.17 32.4315 1573.66 32.4315 Q1567.42 32.4315 1563.65 35.9558 Q1559.92 39.4801 1559.36 45.8805 L1585.93 45.84 Z" fill="#000000" fill-rule="nonzero" fill-opacity="1" /><path clip-path="url(#clip290)" d="M1654.96 9.54393 L1654.96 15.7418 L1647.83 15.7418 Q1643.82 15.7418 1642.24 17.3622 Q1640.7 18.9825 1640.7 23.1955 L1640.7 27.2059 L1652.97 27.2059 L1652.97 32.9987 L1640.7 32.9987 L1640.7 72.576 L1633.2 72.576 L1633.2 32.9987 L1626.07 32.9987 L1626.07 27.2059 L1633.2 27.2059 L1633.2 24.0462 Q1633.2 16.471 1636.73 13.0277 Q1640.25 9.54393 1647.91 9.54393 L1654.96 9.54393 Z" fill="#000000" fill-rule="nonzero" fill-opacity="1" /><path clip-path="url(#clip290)" d="M1681.82 49.7694 Q1672.78 49.7694 1669.3 51.8354 Q1665.81 53.9013 1665.81 58.8839 Q1665.81 62.8538 1668.41 65.2034 Q1671.04 67.5124 1675.54 67.5124 Q1681.73 67.5124 1685.46 63.1374 Q1689.23 58.7219 1689.23 51.4303 L1689.23 49.7694 L1681.82 49.7694 M1696.68 46.6907 L1696.68 72.576 L1689.23 72.576 L1689.23 65.6895 Q1686.68 69.8214 1682.87 71.8063 Q1679.06 73.7508 1673.55 73.7508 Q1666.58 73.7508 1662.45 69.8619 Q1658.36 65.9325 1658.36 59.3701 Q1658.36 51.7138 1663.46 47.825 Q1668.61 43.9361 1678.78 43.9361 L1689.23 43.9361 L1689.23 43.2069 Q1689.23 38.0623 1685.83 35.2672 Q1682.46 32.4315 1676.35 32.4315 Q1672.46 32.4315 1668.77 33.3632 Q1665.09 34.295 1661.68 36.1584 L1661.68 29.2718 Q1665.77 27.692 1669.62 26.9223 Q1673.47 26.1121 1677.12 26.1121 Q1686.96 26.1121 1691.82 31.2163 Q1696.68 36.3204 1696.68 46.6907 Z" fill="#000000" fill-rule="nonzero" fill-opacity="1" /><path clip-path="url(#clip290)" d="M1740.96 28.5427 L1740.96 35.5912 Q1737.8 33.9709 1734.4 33.1607 Q1730.99 32.3505 1727.35 32.3505 Q1721.8 32.3505 1719 34.0519 Q1716.25 35.7533 1716.25 39.156 Q1716.25 41.7486 1718.23 43.2475 Q1720.22 44.7058 1726.21 46.0426 L1728.77 46.6097 Q1736.71 48.3111 1740.03 51.4303 Q1743.39 54.509 1743.39 60.0587 Q1743.39 66.3781 1738.37 70.0644 Q1733.38 73.7508 1724.63 73.7508 Q1720.99 73.7508 1717.02 73.0216 Q1713.09 72.3329 1708.71 70.9151 L1708.71 63.2184 Q1712.85 65.3654 1716.86 66.4591 Q1720.87 67.5124 1724.8 67.5124 Q1730.06 67.5124 1732.9 65.73 Q1735.73 63.9071 1735.73 60.6258 Q1735.73 57.5877 1733.67 55.9673 Q1731.64 54.3469 1724.71 52.8481 L1722.12 52.2405 Q1715.19 50.7821 1712.12 47.7845 Q1709.04 44.7463 1709.04 39.4801 Q1709.04 33.0797 1713.57 29.5959 Q1718.11 26.1121 1726.46 26.1121 Q1730.59 26.1121 1734.23 26.7198 Q1737.88 27.3274 1740.96 28.5427 Z" fill="#000000" fill-rule="nonzero" fill-opacity="1" /><path clip-path="url(#clip290)" d="M1794.07 48.0275 L1794.07 51.6733 L1759.8 51.6733 Q1760.28 59.3701 1764.41 63.421 Q1768.59 67.4314 1776 67.4314 Q1780.29 67.4314 1784.3 66.3781 Q1788.35 65.3249 1792.32 63.2184 L1792.32 70.267 Q1788.31 71.9684 1784.1 72.8596 Q1779.89 73.7508 1775.55 73.7508 Q1764.7 73.7508 1758.34 67.4314 Q1752.02 61.1119 1752.02 50.3365 Q1752.02 39.1965 1758.01 32.6746 Q1764.05 26.1121 1774.26 26.1121 Q1783.41 26.1121 1788.72 32.0264 Q1794.07 37.9003 1794.07 48.0275 M1786.61 45.84 Q1786.53 39.7232 1783.17 36.0774 Q1779.85 32.4315 1774.34 32.4315 Q1768.1 32.4315 1764.33 35.9558 Q1760.61 39.4801 1760.04 45.8805 L1786.61 45.84 Z" fill="#000000" fill-rule="nonzero" fill-opacity="1" /><path clip-path="url(#clip290)" d="M1835.22 28.5427 L1835.22 35.5912 Q1832.06 33.9709 1828.66 33.1607 Q1825.26 32.3505 1821.61 32.3505 Q1816.06 32.3505 1813.27 34.0519 Q1810.51 35.7533 1810.51 39.156 Q1810.51 41.7486 1812.5 43.2475 Q1814.48 44.7058 1820.48 46.0426 L1823.03 46.6097 Q1830.97 48.3111 1834.29 51.4303 Q1837.65 54.509 1837.65 60.0587 Q1837.65 66.3781 1832.63 70.0644 Q1827.65 73.7508 1818.9 73.7508 Q1815.25 73.7508 1811.28 73.0216 Q1807.35 72.3329 1802.98 70.9151 L1802.98 63.2184 Q1807.11 65.3654 1811.12 66.4591 Q1815.13 67.5124 1819.06 67.5124 Q1824.33 67.5124 1827.16 65.73 Q1830 63.9071 1830 60.6258 Q1830 57.5877 1827.93 55.9673 Q1825.91 54.3469 1818.98 52.8481 L1816.39 52.2405 Q1809.46 50.7821 1806.38 47.7845 Q1803.3 44.7463 1803.3 39.4801 Q1803.3 33.0797 1807.84 29.5959 Q1812.38 26.1121 1820.72 26.1121 Q1824.85 26.1121 1828.5 26.7198 Q1832.14 27.3274 1835.22 28.5427 Z" fill="#000000" fill-rule="nonzero" fill-opacity="1" /><path clip-path="url(#clip290)" d="M1848.35 9.62495 L1854.83 9.62495 Q1860.91 19.1851 1863.9 28.3401 Q1866.94 37.4952 1866.94 46.5287 Q1866.94 55.6027 1863.9 64.7983 Q1860.91 73.9938 1854.83 83.5134 L1848.35 83.5134 Q1853.74 74.2369 1856.37 65.0818 Q1859.04 55.8863 1859.04 46.5287 Q1859.04 37.1711 1856.37 28.0566 Q1853.74 18.942 1848.35 9.62495 Z" fill="#000000" fill-rule="nonzero" fill-opacity="1" /><polyline clip-path="url(#clip292)" style="stroke:#009af9; stroke-linecap:round; stroke-linejoin:round; stroke-width:12; stroke-opacity:1; fill:none" points="316.512,752.443 316.512,752.449 316.514,752.493 316.522,752.611 316.542,752.841 316.586,753.221 316.666,753.788 316.797,754.579 316.998,755.632 317.291,756.983 317.699,758.671 318.25,760.731 318.973,763.203 319.901,766.121 321.07,769.524 322.518,773.446 324.286,777.924 326.418,782.993 328.96,788.687 331.96,795.039 335.471,802.081 339.546,809.845 344.241,818.358 349.614,827.649 355.726,837.741 362.639,848.657 370.415,860.414 379.12,873.028 388.82,886.509 399.581,900.864 411.469,916.092 424.551,932.187 438.892,949.136 454.558,966.92 471.609,985.508 490.107,1004.86 510.108,1024.93 531.664,1045.66 554.823,1066.96 579.625,1088.76 606.104,1110.96 634.287,1133.43 664.189,1156.05 695.816,1178.67 729.163,1201.12 764.208,1223.24 800.92,1244.81 839.25,1265.64 879.132,1285.52 920.486,1304.21 963.213,1321.5 1007.2,1337.16 1052.31,1350.99 1098.39,1362.77 1145.29,1372.33 1192.83,1379.53 1240.83,1384.24 1289.08,1386.4 1337.41,1385.95 1385.6,1382.92 1433.46,1377.34 1480.8,1369.32 1527.44,1358.98 1573.21,1346.48 1617.95,1332 1661.52,1315.76 1703.79,1297.96 1744.65,1278.84 1784.01,1258.61 1821.79,1237.5 1857.93,1215.72 1892.4,1193.47 1925.16,1170.94 1956.2,1148.3 1985.51,1125.72 2013.11,1103.33 2039.01,1081.25 2063.25,1059.61 2085.85,1038.49 2106.87,1017.99 2126.35,998.155 2144.35,979.058 2160.92,960.742 2176.12,943.241 2190.02,926.582 2202.69,910.782 2214.19,895.853 2224.58,881.798 2233.93,868.614 2242.31,856.295 2249.78,844.827 2256.41,834.196 2262.26,824.381 2267.4,815.359 2271.88,807.105 2275.75,799.592 2279.08,792.789 2281.92,786.666 2284.32,781.19 2286.32,776.327 2287.97,772.043 2289.32,768.303 2290.4,765.07 2291.26,762.309 2291.92,759.982 2292.42,758.053 2292.78,756.485 2293.04,755.24 2293.21,754.281 2293.33,753.571 2293.39,753.072 2293.43,752.748 2293.44,752.56 2293.45,752.471 2293.45,752.445 2293.45,752.443 2293.45,752.428 2293.44,752.363 2293.43,752.21 2293.41,751.933 2293.35,751.494 2293.26,750.855 2293.1,749.979 2292.87,748.83 2292.54,747.37 2292.09,745.563 2291.49,743.372 2290.7,740.762 2289.69,737.696 2288.44,734.142 2286.89,730.064 2285.01,725.43 2282.76,720.208 2280.08,714.369 2276.94,707.883 2273.27,700.725 2269.03,692.871 2264.17,684.298 2258.63,674.989 2252.34,664.927 2245.27,654.102 2237.33,642.506 2228.49,630.136 2218.67,616.994 2207.82,603.087 2195.88,588.429 2182.8,573.039 2168.51,556.943 2152.98,540.176 2136.14,522.778 2117.95,504.798 2098.37,486.294 2077.36,467.332 2054.9,447.987 2030.94,428.344 2005.48,408.495 1978.5,388.542 1950.01,368.598 1919.99,348.781 1888.47,329.218 1855.48,310.045 1821.05,291.401 1785.21,273.431 1748.04,256.285 1709.6,240.109 1669.97,225.054 1629.23,211.263 1587.5,198.875 1544.88,188.019 1501.5,178.813 1457.48,171.358 1412.96,165.74 1368.08,162.025 1323,160.256 1277.85,160.455 1232.8,162.619 1187.99,166.722 1143.56,172.717 1099.65,180.532 1056.41,190.081 1013.96,201.256 972.425,213.938 931.905,227.995 892.505,243.288 854.313,259.671 817.407,276.996 781.852,295.113 747.704,313.876 715.006,333.139 683.791,352.763 654.081,372.616 625.889,392.571 599.219,412.512 574.064,432.327 550.412,451.918 528.242,471.192 507.526,490.067 488.231,508.47 470.319,526.337 453.746,543.612 438.467,560.246 424.429,576.202 411.581,591.446 399.867,605.954 389.23,619.707 379.612,632.694 370.955,644.908 363.199,656.348 356.286,667.019 350.157,676.927 344.754,686.087 340.022,694.513 335.905,702.225 332.349,709.245 329.302,715.598 326.716,721.311 324.541,726.411 322.732,730.93 321.247,734.9 320.045,738.353 319.087,741.324 318.338,743.847 317.766,745.957 317.34,747.691 317.033,749.086 316.821,750.177 316.681,751.001 316.595,751.597 316.547,752.001 316.524,752.25 316.515,752.382 316.512,752.434 316.512,752.443 316.512,752.447 316.514,752.483 316.52,752.589 316.538,752.801 316.578,753.158 316.652,753.696 316.775,754.453 316.965,755.467 317.243,756.774 317.634,758.412 318.163,760.418 318.86,762.83 319.757,765.683 320.89,769.015 322.297,772.863 324.017,777.26 326.095,782.244 328.576,787.848 331.509,794.106 334.945,801.049 338.937,808.71 343.542,817.116 348.816,826.296 354.821,836.275 361.617,847.073 369.268,858.711 377.839,871.204 387.395,884.564 398.003,898.795 409.729,913.9 422.639,929.874 436.8,946.705 452.275,964.373 469.129,982.85 487.42,1002.1 507.207,1022.07 528.541,1042.71 551.472,1063.94 576.041,1085.68 602.283,1107.82 630.225,1130.26 659.885,1152.87 691.271,1175.5 724.376,1197.99 759.185,1220.16 795.666,1241.82 833.772,1262.77 873.44,1282.79 914.593,1301.67 957.134,1319.17 1000.95,1335.07 1045.91,1349.16 1091.87,1361.24 1138.66,1371.13 1186.12,1378.67 1234.07,1383.73 1282.3,1386.25 1330.62,1386.17 1378.84,1383.5 1426.76,1378.27 1474.19,1370.59 1520.94,1360.56 1566.84,1348.36 1611.73,1334.15 1655.47,1318.14 1697.93,1300.55 1739,1281.59 1778.57,1261.51 1816.58,1240.51 1852.96,1218.81 1887.66,1196.62 1920.66,1174.11 1951.94,1151.48 1981.5,1128.88 2009.34,1106.45 2035.47,1084.33 2059.94,1062.62 2082.77,1041.42 2104.01,1020.83 2123.7,1000.9 2141.91,981.694 2158.67,963.266 2174.07,945.648 2188.15,928.87 2200.98,912.949 2212.64,897.897 2223.18,883.719 2232.67,870.413 2241.19,857.973 2248.78,846.387 2255.53,835.639 2261.49,825.711 2266.72,816.579 2271.28,808.219 2275.24,800.603 2278.64,793.702 2281.55,787.486 2284,781.921 2286.06,776.974 2287.76,772.611 2289.15,768.797 2290.26,765.495 2291.15,762.669 2291.83,760.284 2292.35,758.301 2292.74,756.684 2293.01,755.396 2293.19,754.4 2293.31,753.657 2293.38,753.131 2293.42,752.784 2293.44,752.579 2293.45,752.479 2293.45,752.446 2293.45,752.443 2293.45,752.432 2293.45,752.376 2293.44,752.239 2293.41,751.981 2293.36,751.567 2293.27,750.958 2293.13,750.118 2292.91,749.009 2292.6,747.595 2292.16,745.839 2291.58,743.704 2290.82,741.155 2289.85,738.156 2288.63,734.672 2287.13,730.669 2285.3,726.115 2283.1,720.978 2280.48,715.227 2277.41,708.834 2273.82,701.772 2269.67,694.017 2264.89,685.546 2259.45,676.341 2253.27,666.386 2246.31,655.669 2238.5,644.181 2229.79,631.92 2220.11,618.886 2209.41,605.086 2197.62,590.532 2184.7,575.243 2170.59,559.245 2155.23,542.57 2138.58,525.258 2120.59,507.356 2101.2,488.922 2080.4,470.02 2058.14,450.724 2034.4,431.117 2009.15,411.291 1982.39,391.347 1954.1,371.394 1924.3,351.551 1892.99,331.945 1860.2,312.709 1825.97,293.982 1790.33,275.909 1753.34,258.638 1715.07,242.317 1675.6,227.096 1635.02,213.119 1593.42,200.526 1550.92,189.447 1507.63,180.002 1463.69,172.296 1419.23,166.416 1374.4,162.43 1329.34,160.386 1284.19,160.308 1239.12,162.197 1194.26,166.031 1149.77,171.763 1105.78,179.328 1062.44,188.639 1019.87,199.592 978.2,212.07 937.53,225.943 897.967,241.071 859.601,257.31 822.51,274.511 786.762,292.526 752.413,311.207 719.509,330.408 688.084,349.99 658.162,369.819 629.757,389.767 602.873,409.716 577.506,429.556 553.644,449.183 531.267,468.507 510.349,487.443 490.856,505.917 472.753,523.862 455.995,541.223 440.536,557.95 426.328,574.003 413.316,589.349 401.446,603.962 390.661,617.822 380.903,630.917 372.115,643.24 364.236,654.788 357.208,665.566 350.972,675.581 345.471,684.845 340.648,693.373 336.448,701.184 332.816,708.3 329.701,714.745 327.053,720.546 324.823,725.731 322.966,730.33 321.438,734.375 320.198,737.898 319.208,740.934 318.432,743.518 317.837,745.684 317.392,747.469 317.07,748.909 316.846,750.04 316.697,750.9 316.604,751.526 316.552,751.954 316.526,752.223 316.515,752.369 316.512,752.43 316.512,752.443 316.512,752.445 316.513,752.475 316.519,752.568 316.535,752.763 316.571,753.097 316.639,753.608 316.754,754.332 316.933,755.307 317.198,756.571 317.571,758.16 318.079,760.113 318.75,762.465 319.618,765.254 320.716,768.517 322.081,772.29 323.755,776.608 325.78,781.508 328.202,787.022 331.068,793.186 334.43,800.032 338.341,807.59 342.856,815.89 348.033,824.96 353.931,834.824 360.612,845.506 368.14,857.026 376.578,869.398 385.991,882.635 396.447,896.744 408.012,911.726 420.752,927.579 434.733,944.29 450.02,961.842 466.676,980.207 484.762,999.35 504.335,1019.22 "/>
</svg>
