<?xml version="1.0" encoding="utf-8"?>
<svg xmlns="http://www.w3.org/2000/svg" xmlns:xlink="http://www.w3.org/1999/xlink" width="600" height="400" viewBox="0 0 2400 1600">
<defs>
  <clipPath id="clip450">
    <rect x="0" y="0" width="2400" height="1600"/>
  </clipPath>
</defs>
<path clip-path="url(#clip450)" d="M0 1600 L2400 1600 L2400 0 L0 0  Z" fill="#ffffff" fill-rule="evenodd" fill-opacity="1"/>
<defs>
  <clipPath id="clip451">
    <rect x="480" y="0" width="1681" height="1600"/>
  </clipPath>
</defs>
<path clip-path="url(#clip450)" d="M320.676 1423.18 L2352.76 1423.18 L2352.76 123.472 L320.676 123.472  Z" fill="#ffffff" fill-rule="evenodd" fill-opacity="1"/>
<defs>
  <clipPath id="clip452">
    <rect x="320" y="123" width="2033" height="1301"/>
  </clipPath>
</defs>
<polyline clip-path="url(#clip452)" style="stroke:#000000; stroke-linecap:round; stroke-linejoin:round; stroke-width:2; stroke-opacity:0.1; fill:none" points="378.188,1423.18 378.188,123.472 "/>
<polyline clip-path="url(#clip452)" style="stroke:#000000; stroke-linecap:round; stroke-linejoin:round; stroke-width:2; stroke-opacity:0.1; fill:none" points="617.82,1423.18 617.82,123.472 "/>
<polyline clip-path="url(#clip452)" style="stroke:#000000; stroke-linecap:round; stroke-linejoin:round; stroke-width:2; stroke-opacity:0.1; fill:none" points="857.452,1423.18 857.452,123.472 "/>
<polyline clip-path="url(#clip452)" style="stroke:#000000; stroke-linecap:round; stroke-linejoin:round; stroke-width:2; stroke-opacity:0.1; fill:none" points="1097.08,1423.18 1097.08,123.472 "/>
<polyline clip-path="url(#clip452)" style="stroke:#000000; stroke-linecap:round; stroke-linejoin:round; stroke-width:2; stroke-opacity:0.1; fill:none" points="1336.72,1423.18 1336.72,123.472 "/>
<polyline clip-path="url(#clip452)" style="stroke:#000000; stroke-linecap:round; stroke-linejoin:round; stroke-width:2; stroke-opacity:0.1; fill:none" points="1576.35,1423.18 1576.35,123.472 "/>
<polyline clip-path="url(#clip452)" style="stroke:#000000; stroke-linecap:round; stroke-linejoin:round; stroke-width:2; stroke-opacity:0.1; fill:none" points="1815.98,1423.18 1815.98,123.472 "/>
<polyline clip-path="url(#clip452)" style="stroke:#000000; stroke-linecap:round; stroke-linejoin:round; stroke-width:2; stroke-opacity:0.1; fill:none" points="2055.61,1423.18 2055.61,123.472 "/>
<polyline clip-path="url(#clip452)" style="stroke:#000000; stroke-linecap:round; stroke-linejoin:round; stroke-width:2; stroke-opacity:0.1; fill:none" points="2295.24,1423.18 2295.24,123.472 "/>
<polyline clip-path="url(#clip452)" style="stroke:#000000; stroke-linecap:round; stroke-linejoin:round; stroke-width:2; stroke-opacity:0.1; fill:none" points="320.676,1386.4 2352.76,1386.4 "/>
<polyline clip-path="url(#clip452)" style="stroke:#000000; stroke-linecap:round; stroke-linejoin:round; stroke-width:2; stroke-opacity:0.1; fill:none" points="320.676,1233.13 2352.76,1233.13 "/>
<polyline clip-path="url(#clip452)" style="stroke:#000000; stroke-linecap:round; stroke-linejoin:round; stroke-width:2; stroke-opacity:0.1; fill:none" points="320.676,1079.86 2352.76,1079.86 "/>
<polyline clip-path="url(#clip452)" style="stroke:#000000; stroke-linecap:round; stroke-linejoin:round; stroke-width:2; stroke-opacity:0.1; fill:none" points="320.676,926.593 2352.76,926.593 "/>
<polyline clip-path="url(#clip452)" style="stroke:#000000; stroke-linecap:round; stroke-linejoin:round; stroke-width:2; stroke-opacity:0.1; fill:none" points="320.676,773.326 2352.76,773.326 "/>
<polyline clip-path="url(#clip452)" style="stroke:#000000; stroke-linecap:round; stroke-linejoin:round; stroke-width:2; stroke-opacity:0.1; fill:none" points="320.676,620.059 2352.76,620.059 "/>
<polyline clip-path="url(#clip452)" style="stroke:#000000; stroke-linecap:round; stroke-linejoin:round; stroke-width:2; stroke-opacity:0.1; fill:none" points="320.676,466.791 2352.76,466.791 "/>
<polyline clip-path="url(#clip452)" style="stroke:#000000; stroke-linecap:round; stroke-linejoin:round; stroke-width:2; stroke-opacity:0.1; fill:none" points="320.676,313.524 2352.76,313.524 "/>
<polyline clip-path="url(#clip452)" style="stroke:#000000; stroke-linecap:round; stroke-linejoin:round; stroke-width:2; stroke-opacity:0.1; fill:none" points="320.676,160.256 2352.76,160.256 "/>
<polyline clip-path="url(#clip450)" style="stroke:#000000; stroke-linecap:round; stroke-linejoin:round; stroke-width:4; stroke-opacity:1; fill:none" points="320.676,1423.18 2352.76,1423.18 "/>
<polyline clip-path="url(#clip450)" style="stroke:#000000; stroke-linecap:round; stroke-linejoin:round; stroke-width:4; stroke-opacity:1; fill:none" points="378.188,1423.18 378.188,1404.28 "/>
<polyline clip-path="url(#clip450)" style="stroke:#000000; stroke-linecap:round; stroke-linejoin:round; stroke-width:4; stroke-opacity:1; fill:none" points="617.82,1423.18 617.82,1404.28 "/>
<polyline clip-path="url(#clip450)" style="stroke:#000000; stroke-linecap:round; stroke-linejoin:round; stroke-width:4; stroke-opacity:1; fill:none" points="857.452,1423.18 857.452,1404.28 "/>
<polyline clip-path="url(#clip450)" style="stroke:#000000; stroke-linecap:round; stroke-linejoin:round; stroke-width:4; stroke-opacity:1; fill:none" points="1097.08,1423.18 1097.08,1404.28 "/>
<polyline clip-path="url(#clip450)" style="stroke:#000000; stroke-linecap:round; stroke-linejoin:round; stroke-width:4; stroke-opacity:1; fill:none" points="1336.72,1423.18 1336.72,1404.28 "/>
<polyline clip-path="url(#clip450)" style="stroke:#000000; stroke-linecap:round; stroke-linejoin:round; stroke-width:4; stroke-opacity:1; fill:none" points="1576.35,1423.18 1576.35,1404.28 "/>
<polyline clip-path="url(#clip450)" style="stroke:#000000; stroke-linecap:round; stroke-linejoin:round; stroke-width:4; stroke-opacity:1; fill:none" points="1815.98,1423.18 1815.98,1404.28 "/>
<polyline clip-path="url(#clip450)" style="stroke:#000000; stroke-linecap:round; stroke-linejoin:round; stroke-width:4; stroke-opacity:1; fill:none" points="2055.61,1423.18 2055.61,1404.28 "/>
<polyline clip-path="url(#clip450)" style="stroke:#000000; stroke-linecap:round; stroke-linejoin:round; stroke-width:4; stroke-opacity:1; fill:none" points="2295.24,1423.18 2295.24,1404.28 "/>
<path clip-path="url(#clip450)" d="M350.595 1466.2 L363.072 1466.2 L363.072 1470 L350.595 1470 L350.595 1466.2 Z" fill="#000000" fill-rule="nonzero" fill-opacity="1" /><path clip-path="url(#clip450)" d="M380.271 1455.16 L405.109 1455.16 L405.109 1459.42 L401.845 1459.42 L401.845 1475.35 Q401.845 1477.01 402.4 1477.75 Q402.979 1478.47 404.252 1478.47 Q404.6 1478.47 405.109 1478.43 Q405.618 1478.36 405.78 1478.33 L405.78 1481.41 Q404.97 1481.71 404.113 1481.85 Q403.257 1481.99 402.4 1481.99 Q399.623 1481.99 398.558 1480.49 Q397.493 1478.96 397.493 1474.88 L397.493 1459.42 L387.933 1459.42 L387.933 1481.09 L383.581 1481.09 L383.581 1459.42 L380.271 1459.42 L380.271 1455.16 Z" fill="#000000" fill-rule="nonzero" fill-opacity="1" /><path clip-path="url(#clip450)" d="M532.612 1466.2 L545.089 1466.2 L545.089 1470 L532.612 1470 L532.612 1466.2 Z" fill="#000000" fill-rule="nonzero" fill-opacity="1" /><path clip-path="url(#clip450)" d="M577.912 1462.45 Q581.269 1463.17 583.144 1465.44 Q585.042 1467.71 585.042 1471.04 Q585.042 1476.16 581.524 1478.96 Q578.005 1481.76 571.524 1481.76 Q569.348 1481.76 567.033 1481.32 Q564.741 1480.9 562.288 1480.05 L562.288 1475.53 Q564.232 1476.67 566.547 1477.24 Q568.862 1477.82 571.385 1477.82 Q575.783 1477.82 578.075 1476.09 Q580.389 1474.35 580.389 1471.04 Q580.389 1467.99 578.237 1466.27 Q576.107 1464.54 572.288 1464.54 L568.26 1464.54 L568.26 1460.69 L572.473 1460.69 Q575.922 1460.69 577.75 1459.33 Q579.579 1457.94 579.579 1455.35 Q579.579 1452.68 577.681 1451.27 Q575.806 1449.84 572.288 1449.84 Q570.366 1449.84 568.167 1450.25 Q565.968 1450.67 563.329 1451.55 L563.329 1447.38 Q565.991 1446.64 568.306 1446.27 Q570.644 1445.9 572.704 1445.9 Q578.028 1445.9 581.13 1448.33 Q584.232 1450.74 584.232 1454.86 Q584.232 1457.73 582.588 1459.72 Q580.945 1461.69 577.912 1462.45 Z" fill="#000000" fill-rule="nonzero" fill-opacity="1" /><path clip-path="url(#clip450)" d="M603.908 1455.16 L628.746 1455.16 L628.746 1459.42 L625.482 1459.42 L625.482 1475.35 Q625.482 1477.01 626.037 1477.75 Q626.616 1478.47 627.889 1478.47 Q628.236 1478.47 628.746 1478.43 Q629.255 1478.36 629.417 1478.33 L629.417 1481.41 Q628.607 1481.71 627.75 1481.85 Q626.894 1481.99 626.037 1481.99 Q623.259 1481.99 622.195 1480.49 Q621.13 1478.96 621.13 1474.88 L621.13 1459.42 L611.57 1459.42 L611.57 1481.09 L607.218 1481.09 L607.218 1459.42 L603.908 1459.42 L603.908 1455.16 Z" fill="#000000" fill-rule="nonzero" fill-opacity="1" /><path clip-path="url(#clip450)" d="M656.523 1446.53 L660.458 1446.53 L648.421 1485.49 L644.486 1485.49 L656.523 1446.53 Z" fill="#000000" fill-rule="nonzero" fill-opacity="1" /><path clip-path="url(#clip450)" d="M693.444 1450.6 L681.639 1469.05 L693.444 1469.05 L693.444 1450.6 M692.217 1446.53 L698.097 1446.53 L698.097 1469.05 L703.028 1469.05 L703.028 1472.94 L698.097 1472.94 L698.097 1481.09 L693.444 1481.09 L693.444 1472.94 L677.843 1472.94 L677.843 1468.43 L692.217 1446.53 Z" fill="#000000" fill-rule="nonzero" fill-opacity="1" /><path clip-path="url(#clip450)" d="M794.096 1466.2 L806.572 1466.2 L806.572 1470 L794.096 1470 L794.096 1466.2 Z" fill="#000000" fill-rule="nonzero" fill-opacity="1" /><path clip-path="url(#clip450)" d="M823.771 1455.16 L848.609 1455.16 L848.609 1459.42 L845.345 1459.42 L845.345 1475.35 Q845.345 1477.01 845.901 1477.75 Q846.48 1478.47 847.753 1478.47 Q848.1 1478.47 848.609 1478.43 Q849.118 1478.36 849.281 1478.33 L849.281 1481.41 Q848.47 1481.71 847.614 1481.85 Q846.757 1481.99 845.901 1481.99 Q843.123 1481.99 842.058 1480.49 Q840.994 1478.96 840.994 1474.88 L840.994 1459.42 L831.433 1459.42 L831.433 1481.09 L827.082 1481.09 L827.082 1459.42 L823.771 1459.42 L823.771 1455.16 Z" fill="#000000" fill-rule="nonzero" fill-opacity="1" /><path clip-path="url(#clip450)" d="M876.387 1446.53 L880.322 1446.53 L868.285 1485.49 L864.35 1485.49 L876.387 1446.53 Z" fill="#000000" fill-rule="nonzero" fill-opacity="1" /><path clip-path="url(#clip450)" d="M904.489 1477.15 L920.808 1477.15 L920.808 1481.09 L898.864 1481.09 L898.864 1477.15 Q901.526 1474.4 906.109 1469.77 Q910.715 1465.11 911.896 1463.77 Q914.141 1461.25 915.021 1459.51 Q915.924 1457.75 915.924 1456.06 Q915.924 1453.31 913.979 1451.57 Q912.058 1449.84 908.956 1449.84 Q906.757 1449.84 904.303 1450.6 Q901.873 1451.36 899.095 1452.92 L899.095 1448.19 Q901.919 1447.06 904.373 1446.48 Q906.826 1445.9 908.864 1445.9 Q914.234 1445.9 917.428 1448.59 Q920.623 1451.27 920.623 1455.76 Q920.623 1457.89 919.813 1459.81 Q919.026 1461.71 916.919 1464.3 Q916.34 1464.98 913.238 1468.19 Q910.137 1471.39 904.489 1477.15 Z" fill="#000000" fill-rule="nonzero" fill-opacity="1" /><path clip-path="url(#clip450)" d="M1032.69 1466.2 L1045.16 1466.2 L1045.16 1470 L1032.69 1470 L1032.69 1466.2 Z" fill="#000000" fill-rule="nonzero" fill-opacity="1" /><path clip-path="url(#clip450)" d="M1062.36 1455.16 L1087.2 1455.16 L1087.2 1459.42 L1083.94 1459.42 L1083.94 1475.35 Q1083.94 1477.01 1084.49 1477.75 Q1085.07 1478.47 1086.34 1478.47 Q1086.69 1478.47 1087.2 1478.43 Q1087.71 1478.36 1087.87 1478.33 L1087.87 1481.41 Q1087.06 1481.71 1086.2 1481.85 Q1085.35 1481.99 1084.49 1481.99 Q1081.71 1481.99 1080.65 1480.49 Q1079.58 1478.96 1079.58 1474.88 L1079.58 1459.42 L1070.02 1459.42 L1070.02 1481.09 L1065.67 1481.09 L1065.67 1459.42 L1062.36 1459.42 L1062.36 1455.16 Z" fill="#000000" fill-rule="nonzero" fill-opacity="1" /><path clip-path="url(#clip450)" d="M1114.98 1446.53 L1118.91 1446.53 L1106.88 1485.49 L1102.94 1485.49 L1114.98 1446.53 Z" fill="#000000" fill-rule="nonzero" fill-opacity="1" /><path clip-path="url(#clip450)" d="M1151.9 1450.6 L1140.09 1469.05 L1151.9 1469.05 L1151.9 1450.6 M1150.67 1446.53 L1156.55 1446.53 L1156.55 1469.05 L1161.48 1469.05 L1161.48 1472.94 L1156.55 1472.94 L1156.55 1481.09 L1151.9 1481.09 L1151.9 1472.94 L1136.3 1472.94 L1136.3 1468.43 L1150.67 1446.53 Z" fill="#000000" fill-rule="nonzero" fill-opacity="1" /><path clip-path="url(#clip450)" d="M1336.72 1454.1 Q1333.1 1454.1 1331.28 1457.66 Q1329.47 1461.2 1329.47 1468.33 Q1329.47 1475.44 1331.28 1479.01 Q1333.1 1482.55 1336.72 1482.55 Q1340.35 1482.55 1342.16 1479.01 Q1343.98 1475.44 1343.98 1468.33 Q1343.98 1461.2 1342.16 1457.66 Q1340.35 1454.1 1336.72 1454.1 M1336.72 1450.39 Q1342.53 1450.39 1345.58 1455 Q1348.66 1459.58 1348.66 1468.33 Q1348.66 1477.06 1345.58 1481.67 Q1342.53 1486.25 1336.72 1486.25 Q1330.91 1486.25 1327.83 1481.67 Q1324.77 1477.06 1324.77 1468.33 Q1324.77 1459.58 1327.83 1455 Q1330.91 1450.39 1336.72 1450.39 Z" fill="#000000" fill-rule="nonzero" fill-opacity="1" /><path clip-path="url(#clip450)" d="M1526.79 1455.16 L1551.63 1455.16 L1551.63 1459.42 L1548.36 1459.42 L1548.36 1475.35 Q1548.36 1477.01 1548.92 1477.75 Q1549.5 1478.47 1550.77 1478.47 Q1551.12 1478.47 1551.63 1478.43 Q1552.14 1478.36 1552.3 1478.33 L1552.3 1481.41 Q1551.49 1481.71 1550.63 1481.85 Q1549.77 1481.99 1548.92 1481.99 Q1546.14 1481.99 1545.08 1480.49 Q1544.01 1478.96 1544.01 1474.88 L1544.01 1459.42 L1534.45 1459.42 L1534.45 1481.09 L1530.1 1481.09 L1530.1 1459.42 L1526.79 1459.42 L1526.79 1455.16 Z" fill="#000000" fill-rule="nonzero" fill-opacity="1" /><path clip-path="url(#clip450)" d="M1579.4 1446.53 L1583.34 1446.53 L1571.3 1485.49 L1567.37 1485.49 L1579.4 1446.53 Z" fill="#000000" fill-rule="nonzero" fill-opacity="1" /><path clip-path="url(#clip450)" d="M1616.32 1450.6 L1604.52 1469.05 L1616.32 1469.05 L1616.32 1450.6 M1615.1 1446.53 L1620.98 1446.53 L1620.98 1469.05 L1625.91 1469.05 L1625.91 1472.94 L1620.98 1472.94 L1620.98 1481.09 L1616.32 1481.09 L1616.32 1472.94 L1600.72 1472.94 L1600.72 1468.43 L1615.1 1446.53 Z" fill="#000000" fill-rule="nonzero" fill-opacity="1" /><path clip-path="url(#clip450)" d="M1767.46 1455.16 L1792.3 1455.16 L1792.3 1459.42 L1789.04 1459.42 L1789.04 1475.35 Q1789.04 1477.01 1789.59 1477.75 Q1790.17 1478.47 1791.44 1478.47 Q1791.79 1478.47 1792.3 1478.43 Q1792.81 1478.36 1792.97 1478.33 L1792.97 1481.41 Q1792.16 1481.71 1791.3 1481.85 Q1790.45 1481.99 1789.59 1481.99 Q1786.81 1481.99 1785.75 1480.49 Q1784.68 1478.96 1784.68 1474.88 L1784.68 1459.42 L1775.12 1459.42 L1775.12 1481.09 L1770.77 1481.09 L1770.77 1459.42 L1767.46 1459.42 L1767.46 1455.16 Z" fill="#000000" fill-rule="nonzero" fill-opacity="1" /><path clip-path="url(#clip450)" d="M1820.08 1446.53 L1824.01 1446.53 L1811.98 1485.49 L1808.04 1485.49 L1820.08 1446.53 Z" fill="#000000" fill-rule="nonzero" fill-opacity="1" /><path clip-path="url(#clip450)" d="M1848.18 1477.15 L1864.5 1477.15 L1864.5 1481.09 L1842.55 1481.09 L1842.55 1477.15 Q1845.22 1474.4 1849.8 1469.77 Q1854.41 1465.11 1855.59 1463.77 Q1857.83 1461.25 1858.71 1459.51 Q1859.61 1457.75 1859.61 1456.06 Q1859.61 1453.31 1857.67 1451.57 Q1855.75 1449.84 1852.65 1449.84 Q1850.45 1449.84 1847.99 1450.6 Q1845.56 1451.36 1842.79 1452.92 L1842.79 1448.19 Q1845.61 1447.06 1848.06 1446.48 Q1850.52 1445.9 1852.55 1445.9 Q1857.92 1445.9 1861.12 1448.59 Q1864.31 1451.27 1864.31 1455.76 Q1864.31 1457.89 1863.5 1459.81 Q1862.72 1461.71 1860.61 1464.3 Q1860.03 1464.98 1856.93 1468.19 Q1853.83 1471.39 1848.18 1477.15 Z" fill="#000000" fill-rule="nonzero" fill-opacity="1" /><path clip-path="url(#clip450)" d="M2000.87 1462.45 Q2004.22 1463.17 2006.1 1465.44 Q2008 1467.71 2008 1471.04 Q2008 1476.16 2004.48 1478.96 Q2000.96 1481.76 1994.48 1481.76 Q1992.3 1481.76 1989.99 1481.32 Q1987.7 1480.9 1985.24 1480.05 L1985.24 1475.53 Q1987.19 1476.67 1989.5 1477.24 Q1991.82 1477.82 1994.34 1477.82 Q1998.74 1477.82 2001.03 1476.09 Q2003.34 1474.35 2003.34 1471.04 Q2003.34 1467.99 2001.19 1466.27 Q1999.06 1464.54 1995.24 1464.54 L1991.21 1464.54 L1991.21 1460.69 L1995.43 1460.69 Q1998.88 1460.69 2000.71 1459.33 Q2002.53 1457.94 2002.53 1455.35 Q2002.53 1452.68 2000.64 1451.27 Q1998.76 1449.84 1995.24 1449.84 Q1993.32 1449.84 1991.12 1450.25 Q1988.92 1450.67 1986.28 1451.55 L1986.28 1447.38 Q1988.95 1446.64 1991.26 1446.27 Q1993.6 1445.9 1995.66 1445.9 Q2000.98 1445.9 2004.08 1448.33 Q2007.19 1450.74 2007.19 1454.86 Q2007.19 1457.73 2005.54 1459.72 Q2003.9 1461.69 2000.87 1462.45 Z" fill="#000000" fill-rule="nonzero" fill-opacity="1" /><path clip-path="url(#clip450)" d="M2026.86 1455.16 L2051.7 1455.16 L2051.7 1459.42 L2048.44 1459.42 L2048.44 1475.35 Q2048.44 1477.01 2048.99 1477.75 Q2049.57 1478.47 2050.84 1478.47 Q2051.19 1478.47 2051.7 1478.43 Q2052.21 1478.36 2052.37 1478.33 L2052.37 1481.41 Q2051.56 1481.71 2050.7 1481.85 Q2049.85 1481.99 2048.99 1481.99 Q2046.21 1481.99 2045.15 1480.49 Q2044.08 1478.96 2044.08 1474.88 L2044.08 1459.42 L2034.52 1459.42 L2034.52 1481.09 L2030.17 1481.09 L2030.17 1459.42 L2026.86 1459.42 L2026.86 1455.16 Z" fill="#000000" fill-rule="nonzero" fill-opacity="1" /><path clip-path="url(#clip450)" d="M2079.48 1446.53 L2083.41 1446.53 L2071.38 1485.49 L2067.44 1485.49 L2079.48 1446.53 Z" fill="#000000" fill-rule="nonzero" fill-opacity="1" /><path clip-path="url(#clip450)" d="M2116.4 1450.6 L2104.59 1469.05 L2116.4 1469.05 L2116.4 1450.6 M2115.17 1446.53 L2121.05 1446.53 L2121.05 1469.05 L2125.98 1469.05 L2125.98 1472.94 L2121.05 1472.94 L2121.05 1481.09 L2116.4 1481.09 L2116.4 1472.94 L2100.8 1472.94 L2100.8 1468.43 L2115.17 1446.53 Z" fill="#000000" fill-rule="nonzero" fill-opacity="1" /><path clip-path="url(#clip450)" d="M2282.49 1455.16 L2307.33 1455.16 L2307.33 1459.42 L2304.06 1459.42 L2304.06 1475.35 Q2304.06 1477.01 2304.62 1477.75 Q2305.2 1478.47 2306.47 1478.47 Q2306.82 1478.47 2307.33 1478.43 Q2307.84 1478.36 2308 1478.33 L2308 1481.41 Q2307.19 1481.71 2306.33 1481.85 Q2305.48 1481.99 2304.62 1481.99 Q2301.84 1481.99 2300.78 1480.49 Q2299.71 1478.96 2299.71 1474.88 L2299.71 1459.42 L2290.15 1459.42 L2290.15 1481.09 L2285.8 1481.09 L2285.8 1459.42 L2282.49 1459.42 L2282.49 1455.16 Z" fill="#000000" fill-rule="nonzero" fill-opacity="1" /><path clip-path="url(#clip450)" d="M1159.08 1550.12 Q1151.98 1550.12 1149.25 1551.75 Q1146.51 1553.37 1146.51 1557.29 Q1146.51 1560.4 1148.55 1562.25 Q1150.61 1564.07 1154.15 1564.07 Q1159.02 1564.07 1161.95 1560.63 Q1164.91 1557.16 1164.91 1551.43 L1164.91 1550.12 L1159.08 1550.12 M1170.76 1547.71 L1170.76 1568.04 L1164.91 1568.04 L1164.91 1562.63 Q1162.9 1565.88 1159.91 1567.44 Q1156.92 1568.97 1152.59 1568.97 Q1147.11 1568.97 1143.87 1565.91 Q1140.65 1562.82 1140.65 1557.67 Q1140.65 1551.65 1144.66 1548.6 Q1148.7 1545.54 1156.69 1545.54 L1164.91 1545.54 L1164.91 1544.97 Q1164.91 1540.93 1162.23 1538.73 Q1159.59 1536.5 1154.78 1536.5 Q1151.73 1536.5 1148.83 1537.23 Q1145.94 1537.97 1143.26 1539.43 L1143.26 1534.02 Q1146.48 1532.78 1149.5 1532.17 Q1152.52 1531.54 1155.39 1531.54 Q1163.12 1531.54 1166.94 1535.55 Q1170.76 1539.56 1170.76 1547.71 M1160.07 1515.91 L1166.4 1515.91 L1156.03 1527.88 L1151.16 1527.88 L1160.07 1515.91 Z" fill="#000000" fill-rule="nonzero" fill-opacity="1" /><path clip-path="url(#clip450)" d="M1212.46 1546.53 L1212.46 1568.04 L1206.6 1568.04 L1206.6 1546.72 Q1206.6 1541.66 1204.63 1539.14 Q1202.65 1536.63 1198.71 1536.63 Q1193.96 1536.63 1191.23 1539.65 Q1188.49 1542.68 1188.49 1547.9 L1188.49 1568.04 L1182.6 1568.04 L1182.6 1532.4 L1188.49 1532.4 L1188.49 1537.93 Q1190.59 1534.72 1193.42 1533.13 Q1196.29 1531.54 1200.01 1531.54 Q1206.16 1531.54 1209.31 1535.36 Q1212.46 1539.14 1212.46 1546.53 Z" fill="#000000" fill-rule="nonzero" fill-opacity="1" /><path clip-path="url(#clip450)" d="M1247.6 1549.81 Q1247.6 1543.44 1244.95 1539.94 Q1242.34 1536.44 1237.6 1536.44 Q1232.89 1536.44 1230.25 1539.94 Q1227.64 1543.44 1227.64 1549.81 Q1227.64 1556.14 1230.25 1559.64 Q1232.89 1563.14 1237.6 1563.14 Q1242.34 1563.14 1244.95 1559.64 Q1247.6 1556.14 1247.6 1549.81 M1253.45 1563.62 Q1253.45 1572.72 1249.41 1577.15 Q1245.37 1581.6 1237.03 1581.6 Q1233.94 1581.6 1231.2 1581.13 Q1228.47 1580.68 1225.89 1579.72 L1225.89 1574.03 Q1228.47 1575.43 1230.98 1576.1 Q1233.5 1576.76 1236.11 1576.76 Q1241.87 1576.76 1244.73 1573.74 Q1247.6 1570.75 1247.6 1564.67 L1247.6 1561.77 Q1245.78 1564.92 1242.95 1566.48 Q1240.12 1568.04 1236.17 1568.04 Q1229.61 1568.04 1225.6 1563.05 Q1221.59 1558.05 1221.59 1549.81 Q1221.59 1541.53 1225.6 1536.53 Q1229.61 1531.54 1236.17 1531.54 Q1240.12 1531.54 1242.95 1533.1 Q1245.78 1534.66 1247.6 1537.81 L1247.6 1532.4 L1253.45 1532.4 L1253.45 1563.62 Z" fill="#000000" fill-rule="nonzero" fill-opacity="1" /><path clip-path="url(#clip450)" d="M1264.91 1553.98 L1264.91 1532.4 L1270.77 1532.4 L1270.77 1553.75 Q1270.77 1558.81 1272.74 1561.36 Q1274.71 1563.87 1278.66 1563.87 Q1283.4 1563.87 1286.14 1560.85 Q1288.91 1557.83 1288.91 1552.61 L1288.91 1532.4 L1294.77 1532.4 L1294.77 1568.04 L1288.91 1568.04 L1288.91 1562.57 Q1286.78 1565.82 1283.94 1567.41 Q1281.14 1568.97 1277.42 1568.97 Q1271.28 1568.97 1268.09 1565.15 Q1264.91 1561.33 1264.91 1553.98 M1279.65 1531.54 L1279.65 1531.54 Z" fill="#000000" fill-rule="nonzero" fill-opacity="1" /><path clip-path="url(#clip450)" d="M1306.83 1518.52 L1312.69 1518.52 L1312.69 1568.04 L1306.83 1568.04 L1306.83 1518.52 Z" fill="#000000" fill-rule="nonzero" fill-opacity="1" /><path clip-path="url(#clip450)" d="M1338.75 1536.5 Q1334.04 1536.5 1331.31 1540.19 Q1328.57 1543.85 1328.57 1550.25 Q1328.57 1556.65 1331.27 1560.34 Q1334.01 1564 1338.75 1564 Q1343.43 1564 1346.17 1560.31 Q1348.91 1556.62 1348.91 1550.25 Q1348.91 1543.92 1346.17 1540.23 Q1343.43 1536.5 1338.75 1536.5 M1338.75 1531.54 Q1346.39 1531.54 1350.75 1536.5 Q1355.11 1541.47 1355.11 1550.25 Q1355.11 1559 1350.75 1564 Q1346.39 1568.97 1338.75 1568.97 Q1331.08 1568.97 1326.72 1564 Q1322.39 1559 1322.39 1550.25 Q1322.39 1541.47 1326.72 1536.5 Q1331.08 1531.54 1338.75 1531.54 Z" fill="#000000" fill-rule="nonzero" fill-opacity="1" /><path clip-path="url(#clip450)" d="M1399.61 1518.58 Q1395.34 1525.9 1393.28 1533.06 Q1391.21 1540.23 1391.21 1547.58 Q1391.21 1554.93 1393.28 1562.16 Q1395.38 1569.35 1399.61 1576.64 L1394.52 1576.64 Q1389.74 1569.16 1387.36 1561.93 Q1385 1554.71 1385 1547.58 Q1385 1540.48 1387.36 1533.29 Q1389.71 1526.09 1394.52 1518.58 L1399.61 1518.58 Z" fill="#000000" fill-rule="nonzero" fill-opacity="1" /><path clip-path="url(#clip450)" d="M1431.63 1537.87 Q1430.64 1537.3 1429.46 1537.04 Q1428.32 1536.76 1426.92 1536.76 Q1421.95 1536.76 1419.28 1540 Q1416.64 1543.22 1416.64 1549.27 L1416.64 1568.04 L1410.75 1568.04 L1410.75 1532.4 L1416.64 1532.4 L1416.64 1537.93 Q1418.48 1534.69 1421.44 1533.13 Q1424.4 1531.54 1428.64 1531.54 Q1429.24 1531.54 1429.97 1531.63 Q1430.71 1531.7 1431.6 1531.85 L1431.63 1537.87 Z" fill="#000000" fill-rule="nonzero" fill-opacity="1" /><path clip-path="url(#clip450)" d="M1453.97 1550.12 Q1446.87 1550.12 1444.14 1551.75 Q1441.4 1553.37 1441.4 1557.29 Q1441.4 1560.4 1443.44 1562.25 Q1445.51 1564.07 1449.04 1564.07 Q1453.91 1564.07 1456.84 1560.63 Q1459.8 1557.16 1459.8 1551.43 L1459.8 1550.12 L1453.97 1550.12 M1465.65 1547.71 L1465.65 1568.04 L1459.8 1568.04 L1459.8 1562.63 Q1457.79 1565.88 1454.8 1567.44 Q1451.81 1568.97 1447.48 1568.97 Q1442 1568.97 1438.76 1565.91 Q1435.54 1562.82 1435.54 1557.67 Q1435.54 1551.65 1439.55 1548.6 Q1443.6 1545.54 1451.59 1545.54 L1459.8 1545.54 L1459.8 1544.97 Q1459.8 1540.93 1457.12 1538.73 Q1454.48 1536.5 1449.68 1536.5 Q1446.62 1536.5 1443.72 1537.23 Q1440.83 1537.97 1438.15 1539.43 L1438.15 1534.02 Q1441.37 1532.78 1444.39 1532.17 Q1447.42 1531.54 1450.28 1531.54 Q1458.01 1531.54 1461.83 1535.55 Q1465.65 1539.56 1465.65 1547.71 Z" fill="#000000" fill-rule="nonzero" fill-opacity="1" /><path clip-path="url(#clip450)" d="M1501.17 1537.81 L1501.17 1518.52 L1507.03 1518.52 L1507.03 1568.04 L1501.17 1568.04 L1501.17 1562.7 Q1499.33 1565.88 1496.5 1567.44 Q1493.69 1568.97 1489.75 1568.97 Q1483.29 1568.97 1479.21 1563.81 Q1475.17 1558.65 1475.17 1550.25 Q1475.17 1541.85 1479.21 1536.69 Q1483.29 1531.54 1489.75 1531.54 Q1493.69 1531.54 1496.5 1533.1 Q1499.33 1534.62 1501.17 1537.81 M1481.22 1550.25 Q1481.22 1556.71 1483.86 1560.4 Q1486.53 1564.07 1491.18 1564.07 Q1495.83 1564.07 1498.5 1560.4 Q1501.17 1556.71 1501.17 1550.25 Q1501.17 1543.79 1498.5 1540.13 Q1495.83 1536.44 1491.18 1536.44 Q1486.53 1536.44 1483.86 1540.13 Q1481.22 1543.79 1481.22 1550.25 Z" fill="#000000" fill-rule="nonzero" fill-opacity="1" /><path clip-path="url(#clip450)" d="M1518.17 1518.58 L1523.26 1518.58 Q1528.04 1526.09 1530.39 1533.29 Q1532.78 1540.48 1532.78 1547.58 Q1532.78 1554.71 1530.39 1561.93 Q1528.04 1569.16 1523.26 1576.64 L1518.17 1576.64 Q1522.4 1569.35 1524.47 1562.16 Q1526.57 1554.93 1526.57 1547.58 Q1526.57 1540.23 1524.47 1533.06 Q1522.4 1525.9 1518.17 1518.58 Z" fill="#000000" fill-rule="nonzero" fill-opacity="1" /><polyline clip-path="url(#clip450)" style="stroke:#000000; stroke-linecap:round; stroke-linejoin:round; stroke-width:4; stroke-opacity:1; fill:none" points="320.676,1423.18 320.676,123.472 "/>
<polyline clip-path="url(#clip450)" style="stroke:#000000; stroke-linecap:round; stroke-linejoin:round; stroke-width:4; stroke-opacity:1; fill:none" points="320.676,1386.4 339.574,1386.4 "/>
<polyline clip-path="url(#clip450)" style="stroke:#000000; stroke-linecap:round; stroke-linejoin:round; stroke-width:4; stroke-opacity:1; fill:none" points="320.676,1233.13 339.574,1233.13 "/>
<polyline clip-path="url(#clip450)" style="stroke:#000000; stroke-linecap:round; stroke-linejoin:round; stroke-width:4; stroke-opacity:1; fill:none" points="320.676,1079.86 339.574,1079.86 "/>
<polyline clip-path="url(#clip450)" style="stroke:#000000; stroke-linecap:round; stroke-linejoin:round; stroke-width:4; stroke-opacity:1; fill:none" points="320.676,926.593 339.574,926.593 "/>
<polyline clip-path="url(#clip450)" style="stroke:#000000; stroke-linecap:round; stroke-linejoin:round; stroke-width:4; stroke-opacity:1; fill:none" points="320.676,773.326 339.574,773.326 "/>
<polyline clip-path="url(#clip450)" style="stroke:#000000; stroke-linecap:round; stroke-linejoin:round; stroke-width:4; stroke-opacity:1; fill:none" points="320.676,620.059 339.574,620.059 "/>
<polyline clip-path="url(#clip450)" style="stroke:#000000; stroke-linecap:round; stroke-linejoin:round; stroke-width:4; stroke-opacity:1; fill:none" points="320.676,466.791 339.574,466.791 "/>
<polyline clip-path="url(#clip450)" style="stroke:#000000; stroke-linecap:round; stroke-linejoin:round; stroke-width:4; stroke-opacity:1; fill:none" points="320.676,313.524 339.574,313.524 "/>
<polyline clip-path="url(#clip450)" style="stroke:#000000; stroke-linecap:round; stroke-linejoin:round; stroke-width:4; stroke-opacity:1; fill:none" points="320.676,160.256 339.574,160.256 "/>
<path clip-path="url(#clip450)" d="M229.491 1385.16 L241.968 1385.16 L241.968 1388.96 L229.491 1388.96 L229.491 1385.16 Z" fill="#000000" fill-rule="nonzero" fill-opacity="1" /><path clip-path="url(#clip450)" d="M259.167 1374.12 L284.005 1374.12 L284.005 1378.38 L280.741 1378.38 L280.741 1394.31 Q280.741 1395.97 281.296 1396.71 Q281.875 1397.43 283.148 1397.43 Q283.495 1397.43 284.005 1397.38 Q284.514 1397.32 284.676 1397.29 L284.676 1400.37 Q283.866 1400.67 283.009 1400.81 Q282.153 1400.95 281.296 1400.95 Q278.519 1400.95 277.454 1399.45 Q276.389 1397.92 276.389 1393.84 L276.389 1378.38 L266.829 1378.38 L266.829 1400.05 L262.477 1400.05 L262.477 1378.38 L259.167 1378.38 L259.167 1374.12 Z" fill="#000000" fill-rule="nonzero" fill-opacity="1" /><path clip-path="url(#clip450)" d="M114.26 1231.9 L126.737 1231.9 L126.737 1235.69 L114.26 1235.69 L114.26 1231.9 Z" fill="#000000" fill-rule="nonzero" fill-opacity="1" /><path clip-path="url(#clip450)" d="M159.561 1228.15 Q162.917 1228.86 164.792 1231.13 Q166.69 1233.4 166.69 1236.73 Q166.69 1241.85 163.172 1244.65 Q159.653 1247.45 153.172 1247.45 Q150.996 1247.45 148.681 1247.01 Q146.39 1246.59 143.936 1245.74 L143.936 1241.22 Q145.88 1242.36 148.195 1242.94 Q150.51 1243.52 153.033 1243.52 Q157.431 1243.52 159.723 1241.78 Q162.038 1240.04 162.038 1236.73 Q162.038 1233.68 159.885 1231.96 Q157.755 1230.23 153.936 1230.23 L149.908 1230.23 L149.908 1226.39 L154.121 1226.39 Q157.57 1226.39 159.399 1225.02 Q161.227 1223.63 161.227 1221.04 Q161.227 1218.38 159.329 1216.96 Q157.454 1215.53 153.936 1215.53 Q152.015 1215.53 149.816 1215.95 Q147.616 1216.36 144.978 1217.24 L144.978 1213.08 Q147.64 1212.34 149.954 1211.96 Q152.292 1211.59 154.353 1211.59 Q159.677 1211.59 162.778 1214.02 Q165.88 1216.43 165.88 1220.55 Q165.88 1223.42 164.237 1225.41 Q162.593 1227.38 159.561 1228.15 Z" fill="#000000" fill-rule="nonzero" fill-opacity="1" /><path clip-path="url(#clip450)" d="M185.556 1220.85 L210.394 1220.85 L210.394 1225.11 L207.13 1225.11 L207.13 1241.04 Q207.13 1242.71 207.686 1243.45 Q208.264 1244.16 209.537 1244.16 Q209.885 1244.16 210.394 1244.12 Q210.903 1244.05 211.065 1244.02 L211.065 1247.1 Q210.255 1247.4 209.399 1247.54 Q208.542 1247.68 207.686 1247.68 Q204.908 1247.68 203.843 1246.18 Q202.778 1244.65 202.778 1240.58 L202.778 1225.11 L193.218 1225.11 L193.218 1246.78 L188.866 1246.78 L188.866 1225.11 L185.556 1225.11 L185.556 1220.85 Z" fill="#000000" fill-rule="nonzero" fill-opacity="1" /><path clip-path="url(#clip450)" d="M238.172 1212.22 L242.107 1212.22 L230.07 1251.18 L226.135 1251.18 L238.172 1212.22 Z" fill="#000000" fill-rule="nonzero" fill-opacity="1" /><path clip-path="url(#clip450)" d="M275.093 1216.29 L263.287 1234.74 L275.093 1234.74 L275.093 1216.29 M273.866 1212.22 L279.745 1212.22 L279.745 1234.74 L284.676 1234.74 L284.676 1238.63 L279.745 1238.63 L279.745 1246.78 L275.093 1246.78 L275.093 1238.63 L259.491 1238.63 L259.491 1234.12 L273.866 1212.22 Z" fill="#000000" fill-rule="nonzero" fill-opacity="1" /><path clip-path="url(#clip450)" d="M157.964 1078.63 L170.44 1078.63 L170.44 1082.42 L157.964 1082.42 L157.964 1078.63 Z" fill="#000000" fill-rule="nonzero" fill-opacity="1" /><path clip-path="url(#clip450)" d="M187.639 1067.59 L212.477 1067.59 L212.477 1071.85 L209.213 1071.85 L209.213 1087.77 Q209.213 1089.44 209.769 1090.18 Q210.348 1090.9 211.621 1090.9 Q211.968 1090.9 212.477 1090.85 Q212.986 1090.78 213.149 1090.76 L213.149 1093.84 Q212.338 1094.14 211.482 1094.28 Q210.625 1094.41 209.769 1094.41 Q206.991 1094.41 205.926 1092.91 Q204.862 1091.38 204.862 1087.31 L204.862 1071.85 L195.301 1071.85 L195.301 1093.51 L190.95 1093.51 L190.95 1071.85 L187.639 1071.85 L187.639 1067.59 Z" fill="#000000" fill-rule="nonzero" fill-opacity="1" /><path clip-path="url(#clip450)" d="M240.255 1058.95 L244.19 1058.95 L232.153 1097.91 L228.218 1097.91 L240.255 1058.95 Z" fill="#000000" fill-rule="nonzero" fill-opacity="1" /><path clip-path="url(#clip450)" d="M268.357 1089.58 L284.676 1089.58 L284.676 1093.51 L262.732 1093.51 L262.732 1089.58 Q265.394 1086.82 269.977 1082.19 Q274.583 1077.54 275.764 1076.2 Q278.009 1073.67 278.889 1071.94 Q279.792 1070.18 279.792 1068.49 Q279.792 1065.73 277.847 1064 Q275.926 1062.26 272.824 1062.26 Q270.625 1062.26 268.171 1063.03 Q265.741 1063.79 262.963 1065.34 L262.963 1060.62 Q265.787 1059.48 268.241 1058.91 Q270.695 1058.33 272.732 1058.33 Q278.102 1058.33 281.296 1061.01 Q284.491 1063.7 284.491 1068.19 Q284.491 1070.32 283.681 1072.24 Q282.894 1074.14 280.787 1076.73 Q280.208 1077.4 277.107 1080.62 Q274.005 1083.81 268.357 1089.58 Z" fill="#000000" fill-rule="nonzero" fill-opacity="1" /><path clip-path="url(#clip450)" d="M155.88 925.36 L168.357 925.36 L168.357 929.157 L155.88 929.157 L155.88 925.36 Z" fill="#000000" fill-rule="nonzero" fill-opacity="1" /><path clip-path="url(#clip450)" d="M185.556 914.319 L210.394 914.319 L210.394 918.578 L207.13 918.578 L207.13 934.504 Q207.13 936.171 207.686 936.911 Q208.264 937.629 209.537 937.629 Q209.885 937.629 210.394 937.583 Q210.903 937.513 211.065 937.49 L211.065 940.569 Q210.255 940.87 209.399 941.008 Q208.542 941.147 207.686 941.147 Q204.908 941.147 203.843 939.643 Q202.778 938.115 202.778 934.041 L202.778 918.578 L193.218 918.578 L193.218 940.245 L188.866 940.245 L188.866 918.578 L185.556 918.578 L185.556 914.319 Z" fill="#000000" fill-rule="nonzero" fill-opacity="1" /><path clip-path="url(#clip450)" d="M238.172 905.685 L242.107 905.685 L230.07 944.643 L226.135 944.643 L238.172 905.685 Z" fill="#000000" fill-rule="nonzero" fill-opacity="1" /><path clip-path="url(#clip450)" d="M275.093 909.759 L263.287 928.208 L275.093 928.208 L275.093 909.759 M273.866 905.685 L279.745 905.685 L279.745 928.208 L284.676 928.208 L284.676 932.096 L279.745 932.096 L279.745 940.245 L275.093 940.245 L275.093 932.096 L259.491 932.096 L259.491 927.583 L273.866 905.685 Z" fill="#000000" fill-rule="nonzero" fill-opacity="1" /><path clip-path="url(#clip450)" d="M272.732 759.125 Q269.12 759.125 267.292 762.689 Q265.486 766.231 265.486 773.361 Q265.486 780.467 267.292 784.032 Q269.12 787.574 272.732 787.574 Q276.366 787.574 278.171 784.032 Q280 780.467 280 773.361 Q280 766.231 278.171 762.689 Q276.366 759.125 272.732 759.125 M272.732 755.421 Q278.542 755.421 281.597 760.027 Q284.676 764.611 284.676 773.361 Q284.676 782.088 281.597 786.694 Q278.542 791.277 272.732 791.277 Q266.921 791.277 263.843 786.694 Q260.787 782.088 260.787 773.361 Q260.787 764.611 263.843 760.027 Q266.921 755.421 272.732 755.421 Z" fill="#000000" fill-rule="nonzero" fill-opacity="1" /><path clip-path="url(#clip450)" d="M185.556 607.784 L210.394 607.784 L210.394 612.043 L207.13 612.043 L207.13 627.969 Q207.13 629.636 207.686 630.376 Q208.264 631.094 209.537 631.094 Q209.885 631.094 210.394 631.048 Q210.903 630.978 211.065 630.955 L211.065 634.034 Q210.255 634.335 209.399 634.474 Q208.542 634.613 207.686 634.613 Q204.908 634.613 203.843 633.108 Q202.778 631.58 202.778 627.506 L202.778 612.043 L193.218 612.043 L193.218 633.71 L188.866 633.71 L188.866 612.043 L185.556 612.043 L185.556 607.784 Z" fill="#000000" fill-rule="nonzero" fill-opacity="1" /><path clip-path="url(#clip450)" d="M238.172 599.15 L242.107 599.15 L230.07 638.108 L226.135 638.108 L238.172 599.15 Z" fill="#000000" fill-rule="nonzero" fill-opacity="1" /><path clip-path="url(#clip450)" d="M275.093 603.224 L263.287 621.673 L275.093 621.673 L275.093 603.224 M273.866 599.15 L279.745 599.15 L279.745 621.673 L284.676 621.673 L284.676 625.562 L279.745 625.562 L279.745 633.71 L275.093 633.71 L275.093 625.562 L259.491 625.562 L259.491 621.048 L273.866 599.15 Z" fill="#000000" fill-rule="nonzero" fill-opacity="1" /><path clip-path="url(#clip450)" d="M187.639 454.517 L212.477 454.517 L212.477 458.776 L209.213 458.776 L209.213 474.702 Q209.213 476.368 209.769 477.109 Q210.348 477.827 211.621 477.827 Q211.968 477.827 212.477 477.78 Q212.986 477.711 213.149 477.688 L213.149 480.766 Q212.338 481.067 211.482 481.206 Q210.625 481.345 209.769 481.345 Q206.991 481.345 205.926 479.84 Q204.862 478.313 204.862 474.239 L204.862 458.776 L195.301 458.776 L195.301 480.442 L190.95 480.442 L190.95 458.776 L187.639 458.776 L187.639 454.517 Z" fill="#000000" fill-rule="nonzero" fill-opacity="1" /><path clip-path="url(#clip450)" d="M240.255 445.882 L244.19 445.882 L232.153 484.84 L228.218 484.84 L240.255 445.882 Z" fill="#000000" fill-rule="nonzero" fill-opacity="1" /><path clip-path="url(#clip450)" d="M268.357 476.507 L284.676 476.507 L284.676 480.442 L262.732 480.442 L262.732 476.507 Q265.394 473.753 269.977 469.123 Q274.583 464.47 275.764 463.128 Q278.009 460.604 278.889 458.868 Q279.792 457.109 279.792 455.419 Q279.792 452.665 277.847 450.929 Q275.926 449.193 272.824 449.193 Q270.625 449.193 268.171 449.956 Q265.741 450.72 262.963 452.271 L262.963 447.549 Q265.787 446.415 268.241 445.836 Q270.695 445.257 272.732 445.257 Q278.102 445.257 281.296 447.943 Q284.491 450.628 284.491 455.118 Q284.491 457.248 283.681 459.169 Q282.894 461.067 280.787 463.66 Q280.208 464.331 277.107 467.549 Q274.005 470.743 268.357 476.507 Z" fill="#000000" fill-rule="nonzero" fill-opacity="1" /><path clip-path="url(#clip450)" d="M159.561 308.541 Q162.917 309.258 164.792 311.527 Q166.69 313.795 166.69 317.129 Q166.69 322.244 163.172 325.045 Q159.653 327.846 153.172 327.846 Q150.996 327.846 148.681 327.406 Q146.39 326.99 143.936 326.133 L143.936 321.619 Q145.88 322.754 148.195 323.332 Q150.51 323.911 153.033 323.911 Q157.431 323.911 159.723 322.175 Q162.038 320.439 162.038 317.129 Q162.038 314.073 159.885 312.36 Q157.755 310.624 153.936 310.624 L149.908 310.624 L149.908 306.782 L154.121 306.782 Q157.57 306.782 159.399 305.416 Q161.227 304.027 161.227 301.434 Q161.227 298.772 159.329 297.36 Q157.454 295.925 153.936 295.925 Q152.015 295.925 149.816 296.342 Q147.616 296.758 144.978 297.638 L144.978 293.471 Q147.64 292.731 149.954 292.36 Q152.292 291.99 154.353 291.99 Q159.677 291.99 162.778 294.42 Q165.88 296.828 165.88 300.948 Q165.88 303.819 164.237 305.809 Q162.593 307.777 159.561 308.541 Z" fill="#000000" fill-rule="nonzero" fill-opacity="1" /><path clip-path="url(#clip450)" d="M185.556 301.249 L210.394 301.249 L210.394 305.508 L207.13 305.508 L207.13 321.434 Q207.13 323.101 207.686 323.842 Q208.264 324.559 209.537 324.559 Q209.885 324.559 210.394 324.513 Q210.903 324.443 211.065 324.42 L211.065 327.499 Q210.255 327.8 209.399 327.939 Q208.542 328.078 207.686 328.078 Q204.908 328.078 203.843 326.573 Q202.778 325.045 202.778 320.971 L202.778 305.508 L193.218 305.508 L193.218 327.175 L188.866 327.175 L188.866 305.508 L185.556 305.508 L185.556 301.249 Z" fill="#000000" fill-rule="nonzero" fill-opacity="1" /><path clip-path="url(#clip450)" d="M238.172 292.615 L242.107 292.615 L230.07 331.573 L226.135 331.573 L238.172 292.615 Z" fill="#000000" fill-rule="nonzero" fill-opacity="1" /><path clip-path="url(#clip450)" d="M275.093 296.689 L263.287 315.138 L275.093 315.138 L275.093 296.689 M273.866 292.615 L279.745 292.615 L279.745 315.138 L284.676 315.138 L284.676 319.027 L279.745 319.027 L279.745 327.175 L275.093 327.175 L275.093 319.027 L259.491 319.027 L259.491 314.513 L273.866 292.615 Z" fill="#000000" fill-rule="nonzero" fill-opacity="1" /><path clip-path="url(#clip450)" d="M259.167 147.982 L284.005 147.982 L284.005 152.241 L280.741 152.241 L280.741 168.167 Q280.741 169.833 281.296 170.574 Q281.875 171.292 283.148 171.292 Q283.495 171.292 284.005 171.245 Q284.514 171.176 284.676 171.153 L284.676 174.232 Q283.866 174.533 283.009 174.671 Q282.153 174.81 281.296 174.81 Q278.519 174.81 277.454 173.306 Q276.389 171.778 276.389 167.704 L276.389 152.241 L266.829 152.241 L266.829 173.908 L262.477 173.908 L262.477 152.241 L259.167 152.241 L259.167 147.982 Z" fill="#000000" fill-rule="nonzero" fill-opacity="1" /><path clip-path="url(#clip450)" d="M28.3562 1178.79 L28.3562 1172.58 L58.275 1161.44 L28.3562 1150.3 L28.3562 1144.1 L64.0042 1157.46 L64.0042 1165.42 L28.3562 1178.79 Z" fill="#000000" fill-rule="nonzero" fill-opacity="1" /><path clip-path="url(#clip450)" d="M44.7161 1105.52 L47.5806 1105.52 L47.5806 1132.45 Q53.6281 1132.07 56.8109 1128.82 Q59.9619 1125.54 59.9619 1119.72 Q59.9619 1116.34 59.1344 1113.19 Q58.3069 1110.01 56.6518 1106.89 L62.1899 1106.89 Q63.5267 1110.04 64.227 1113.35 Q64.9272 1116.66 64.9272 1120.07 Q64.9272 1128.6 59.9619 1133.59 Q54.9967 1138.56 46.5303 1138.56 Q37.7774 1138.56 32.6531 1133.85 Q27.4968 1129.11 27.4968 1121.08 Q27.4968 1113.89 32.1438 1109.72 Q36.7589 1105.52 44.7161 1105.52 M42.9973 1111.38 Q38.1912 1111.44 35.3266 1114.08 Q32.4621 1116.69 32.4621 1121.02 Q32.4621 1125.92 35.2312 1128.88 Q38.0002 1131.81 43.0292 1132.26 L42.9973 1111.38 Z" fill="#000000" fill-rule="nonzero" fill-opacity="1" /><path clip-path="url(#clip450)" d="M14.479 1095.91 L14.479 1090.05 L64.0042 1090.05 L64.0042 1095.91 L14.479 1095.91 Z" fill="#000000" fill-rule="nonzero" fill-opacity="1" /><path clip-path="url(#clip450)" d="M32.4621 1063.98 Q32.4621 1068.69 36.1542 1071.43 Q39.8145 1074.17 46.212 1074.17 Q52.6095 1074.17 56.3017 1071.46 Q59.9619 1068.73 59.9619 1063.98 Q59.9619 1059.31 56.2698 1056.57 Q52.5777 1053.83 46.212 1053.83 Q39.8781 1053.83 36.186 1056.57 Q32.4621 1059.31 32.4621 1063.98 M27.4968 1063.98 Q27.4968 1056.35 32.4621 1051.98 Q37.4273 1047.62 46.212 1047.62 Q54.9649 1047.62 59.9619 1051.98 Q64.9272 1056.35 64.9272 1063.98 Q64.9272 1071.65 59.9619 1076.02 Q54.9649 1080.34 46.212 1080.34 Q37.4273 1080.34 32.4621 1076.02 Q27.4968 1071.65 27.4968 1063.98 Z" fill="#000000" fill-rule="nonzero" fill-opacity="1" /><path clip-path="url(#clip450)" d="M29.7248 1012.26 L35.1993 1012.26 Q33.8307 1014.75 33.1623 1017.26 Q32.4621 1019.74 32.4621 1022.29 Q32.4621 1027.99 36.0905 1031.14 Q39.6872 1034.29 46.212 1034.29 Q52.7369 1034.29 56.3653 1031.14 Q59.9619 1027.99 59.9619 1022.29 Q59.9619 1019.74 59.2935 1017.26 Q58.5933 1014.75 57.2247 1012.26 L62.6355 1012.26 Q63.7814 1014.71 64.3543 1017.36 Q64.9272 1019.97 64.9272 1022.93 Q64.9272 1030.98 59.8664 1035.72 Q54.8057 1040.46 46.212 1040.46 Q37.491 1040.46 32.4939 1035.69 Q27.4968 1030.88 27.4968 1022.54 Q27.4968 1019.84 28.0697 1017.26 Q28.6108 1014.68 29.7248 1012.26 Z" fill="#000000" fill-rule="nonzero" fill-opacity="1" /><path clip-path="url(#clip450)" d="M28.3562 1002.08 L28.3562 996.221 L64.0042 996.221 L64.0042 1002.08 L28.3562 1002.08 M14.479 1002.08 L14.479 996.221 L21.895 996.221 L21.895 1002.08 L14.479 1002.08 Z" fill="#000000" fill-rule="nonzero" fill-opacity="1" /><path clip-path="url(#clip450)" d="M33.7671 960.51 L14.479 960.51 L14.479 954.653 L64.0042 954.653 L64.0042 960.51 L58.657 960.51 Q61.8398 962.356 63.3994 965.188 Q64.9272 967.989 64.9272 971.936 Q64.9272 978.397 59.771 982.471 Q54.6147 986.513 46.212 986.513 Q37.8093 986.513 32.6531 982.471 Q27.4968 978.397 27.4968 971.936 Q27.4968 967.989 29.0564 965.188 Q30.5842 962.356 33.7671 960.51 M46.212 980.466 Q52.6732 980.466 56.3653 977.824 Q60.0256 975.151 60.0256 970.504 Q60.0256 965.857 56.3653 963.183 Q52.6732 960.51 46.212 960.51 Q39.7508 960.51 36.0905 963.183 Q32.3984 965.857 32.3984 970.504 Q32.3984 975.151 36.0905 977.824 Q39.7508 980.466 46.212 980.466 Z" fill="#000000" fill-rule="nonzero" fill-opacity="1" /><path clip-path="url(#clip450)" d="M46.0847 926.389 Q46.0847 933.487 47.7079 936.224 Q49.3312 938.962 53.2461 938.962 Q56.3653 938.962 58.2114 936.925 Q60.0256 934.856 60.0256 931.323 Q60.0256 926.453 56.5881 923.525 Q53.1188 920.565 47.3897 920.565 L46.0847 920.565 L46.0847 926.389 M43.6657 914.708 L64.0042 914.708 L64.0042 920.565 L58.5933 920.565 Q61.8398 922.57 63.3994 925.562 Q64.9272 928.554 64.9272 932.882 Q64.9272 938.357 61.8716 941.603 Q58.7843 944.818 53.6281 944.818 Q47.6125 944.818 44.5569 940.808 Q41.5014 936.766 41.5014 928.777 L41.5014 920.565 L40.9285 920.565 Q36.8862 920.565 34.6901 923.238 Q32.4621 925.88 32.4621 930.686 Q32.4621 933.742 33.1941 936.638 Q33.9262 939.535 35.3903 942.208 L29.9795 942.208 Q28.7381 938.993 28.1334 935.97 Q27.4968 932.946 27.4968 930.082 Q27.4968 922.347 31.5072 918.528 Q35.5176 914.708 43.6657 914.708 Z" fill="#000000" fill-rule="nonzero" fill-opacity="1" /><path clip-path="url(#clip450)" d="M33.7671 879.188 L14.479 879.188 L14.479 873.331 L64.0042 873.331 L64.0042 879.188 L58.657 879.188 Q61.8398 881.034 63.3994 883.866 Q64.9272 886.667 64.9272 890.614 Q64.9272 897.075 59.771 901.149 Q54.6147 905.192 46.212 905.192 Q37.8093 905.192 32.6531 901.149 Q27.4968 897.075 27.4968 890.614 Q27.4968 886.667 29.0564 883.866 Q30.5842 881.034 33.7671 879.188 M46.212 899.144 Q52.6732 899.144 56.3653 896.502 Q60.0256 893.829 60.0256 889.182 Q60.0256 884.535 56.3653 881.861 Q52.6732 879.188 46.212 879.188 Q39.7508 879.188 36.0905 881.861 Q32.3984 884.535 32.3984 889.182 Q32.3984 893.829 36.0905 896.502 Q39.7508 899.144 46.212 899.144 Z" fill="#000000" fill-rule="nonzero" fill-opacity="1" /><path clip-path="url(#clip450)" d="M46.0847 824.347 Q46.0847 831.445 47.7079 834.182 Q49.3312 836.919 53.2461 836.919 Q56.3653 836.919 58.2114 834.882 Q60.0256 832.814 60.0256 829.281 Q60.0256 824.411 56.5881 821.483 Q53.1188 818.523 47.3897 818.523 L46.0847 818.523 L46.0847 824.347 M43.6657 812.666 L64.0042 812.666 L64.0042 818.523 L58.5933 818.523 Q61.8398 820.528 63.3994 823.52 Q64.9272 826.511 64.9272 830.84 Q64.9272 836.315 61.8716 839.561 Q58.7843 842.776 53.6281 842.776 Q47.6125 842.776 44.5569 838.765 Q41.5014 834.723 41.5014 826.734 L41.5014 818.523 L40.9285 818.523 Q36.8862 818.523 34.6901 821.196 Q32.4621 823.838 32.4621 828.644 Q32.4621 831.7 33.1941 834.596 Q33.9262 837.492 35.3903 840.166 L29.9795 840.166 Q28.7381 836.951 28.1334 833.928 Q27.4968 830.904 27.4968 828.039 Q27.4968 820.305 31.5072 816.485 Q35.5176 812.666 43.6657 812.666 Z" fill="#000000" fill-rule="nonzero" fill-opacity="1" /><path clip-path="url(#clip450)" d="M42.4881 770.971 L64.0042 770.971 L64.0042 776.827 L42.679 776.827 Q37.6183 776.827 35.1038 778.8 Q32.5894 780.774 32.5894 784.721 Q32.5894 789.463 35.6131 792.2 Q38.6368 794.938 43.8567 794.938 L64.0042 794.938 L64.0042 800.826 L28.3562 800.826 L28.3562 794.938 L33.8944 794.938 Q30.6797 792.837 29.0883 790.004 Q27.4968 787.14 27.4968 783.416 Q27.4968 777.273 31.3163 774.122 Q35.1038 770.971 42.4881 770.971 Z" fill="#000000" fill-rule="nonzero" fill-opacity="1" /><path clip-path="url(#clip450)" d="M45.7664 735.832 Q39.4007 735.832 35.8996 738.474 Q32.3984 741.084 32.3984 745.826 Q32.3984 750.537 35.8996 753.179 Q39.4007 755.788 45.7664 755.788 Q52.1003 755.788 55.6014 753.179 Q59.1026 750.537 59.1026 745.826 Q59.1026 741.084 55.6014 738.474 Q52.1003 735.832 45.7664 735.832 M59.58 729.976 Q68.683 729.976 73.1071 734.018 Q77.5631 738.06 77.5631 746.399 Q77.5631 749.486 77.0857 752.224 Q76.6401 754.961 75.6852 757.539 L69.9879 757.539 Q71.3884 754.961 72.0568 752.446 Q72.7252 749.932 72.7252 747.322 Q72.7252 741.561 69.7015 738.697 Q66.7096 735.832 60.6303 735.832 L57.7339 735.832 Q60.885 737.646 62.4446 740.479 Q64.0042 743.312 64.0042 747.258 Q64.0042 753.815 59.0071 757.825 Q54.01 761.836 45.7664 761.836 Q37.491 761.836 32.4939 757.825 Q27.4968 753.815 27.4968 747.258 Q27.4968 743.312 29.0564 740.479 Q30.616 737.646 33.7671 735.832 L28.3562 735.832 L28.3562 729.976 L59.58 729.976 Z" fill="#000000" fill-rule="nonzero" fill-opacity="1" /><path clip-path="url(#clip450)" d="M49.9359 718.517 L28.3562 718.517 L28.3562 712.661 L49.7131 712.661 Q54.7739 712.661 57.3202 710.687 Q59.8346 708.714 59.8346 704.767 Q59.8346 700.025 56.8109 697.288 Q53.7872 694.519 48.5673 694.519 L28.3562 694.519 L28.3562 688.662 L64.0042 688.662 L64.0042 694.519 L58.5296 694.519 Q61.7762 696.651 63.3676 699.484 Q64.9272 702.285 64.9272 706.009 Q64.9272 712.152 61.1078 715.334 Q57.2883 718.517 49.9359 718.517 M27.4968 703.781 L27.4968 703.781 Z" fill="#000000" fill-rule="nonzero" fill-opacity="1" /><path clip-path="url(#clip450)" d="M14.479 676.599 L14.479 670.743 L64.0042 670.743 L64.0042 676.599 L14.479 676.599 Z" fill="#000000" fill-rule="nonzero" fill-opacity="1" /><path clip-path="url(#clip450)" d="M46.0847 642.288 Q46.0847 649.386 47.7079 652.123 Q49.3312 654.86 53.2461 654.86 Q56.3653 654.86 58.2114 652.823 Q60.0256 650.754 60.0256 647.221 Q60.0256 642.352 56.5881 639.423 Q53.1188 636.463 47.3897 636.463 L46.0847 636.463 L46.0847 642.288 M43.6657 630.607 L64.0042 630.607 L64.0042 636.463 L58.5933 636.463 Q61.8398 638.468 63.3994 641.46 Q64.9272 644.452 64.9272 648.781 Q64.9272 654.255 61.8716 657.502 Q58.7843 660.717 53.6281 660.717 Q47.6125 660.717 44.5569 656.706 Q41.5014 652.664 41.5014 644.675 L41.5014 636.463 L40.9285 636.463 Q36.8862 636.463 34.6901 639.137 Q32.4621 641.779 32.4621 646.585 Q32.4621 649.64 33.1941 652.537 Q33.9262 655.433 35.3903 658.107 L29.9795 658.107 Q28.7381 654.892 28.1334 651.868 Q27.4968 648.845 27.4968 645.98 Q27.4968 638.246 31.5072 634.426 Q35.5176 630.607 43.6657 630.607 Z" fill="#000000" fill-rule="nonzero" fill-opacity="1" /><path clip-path="url(#clip450)" d="M33.8307 597.887 Q33.2578 598.874 33.0032 600.051 Q32.7167 601.197 32.7167 602.598 Q32.7167 607.563 35.9632 610.237 Q39.1779 612.878 45.2253 612.878 L64.0042 612.878 L64.0042 618.767 L28.3562 618.767 L28.3562 612.878 L33.8944 612.878 Q30.6479 611.032 29.0883 608.072 Q27.4968 605.112 27.4968 600.879 Q27.4968 600.274 27.5923 599.542 Q27.656 598.81 27.8151 597.919 L33.8307 597.887 Z" fill="#000000" fill-rule="nonzero" fill-opacity="1" /><path clip-path="url(#clip450)" d="M14.5426 556.956 Q21.8632 561.221 29.0246 563.289 Q36.186 565.358 43.5384 565.358 Q50.8908 565.358 58.1159 563.289 Q65.3091 561.189 72.5979 556.956 L72.5979 562.048 Q65.1182 566.822 57.8931 569.21 Q50.668 571.565 43.5384 571.565 Q36.4406 571.565 29.2474 569.21 Q22.0542 566.854 14.5426 562.048 L14.5426 556.956 Z" fill="#000000" fill-rule="nonzero" fill-opacity="1" /><path clip-path="url(#clip450)" d="M33.8307 524.936 Q33.2578 525.923 33.0032 527.1 Q32.7167 528.246 32.7167 529.647 Q32.7167 534.612 35.9632 537.286 Q39.1779 539.927 45.2253 539.927 L64.0042 539.927 L64.0042 545.816 L28.3562 545.816 L28.3562 539.927 L33.8944 539.927 Q30.6479 538.081 29.0883 535.121 Q27.4968 532.161 27.4968 527.928 Q27.4968 527.323 27.5923 526.591 Q27.656 525.859 27.8151 524.968 L33.8307 524.936 Z" fill="#000000" fill-rule="nonzero" fill-opacity="1" /><path clip-path="url(#clip450)" d="M46.0847 502.592 Q46.0847 509.69 47.7079 512.427 Q49.3312 515.165 53.2461 515.165 Q56.3653 515.165 58.2114 513.128 Q60.0256 511.059 60.0256 507.526 Q60.0256 502.656 56.5881 499.728 Q53.1188 496.768 47.3897 496.768 L46.0847 496.768 L46.0847 502.592 M43.6657 490.911 L64.0042 490.911 L64.0042 496.768 L58.5933 496.768 Q61.8398 498.773 63.3994 501.765 Q64.9272 504.757 64.9272 509.086 Q64.9272 514.56 61.8716 517.807 Q58.7843 521.021 53.6281 521.021 Q47.6125 521.021 44.5569 517.011 Q41.5014 512.969 41.5014 504.98 L41.5014 496.768 L40.9285 496.768 Q36.8862 496.768 34.6901 499.441 Q32.4621 502.083 32.4621 506.889 Q32.4621 509.945 33.1941 512.841 Q33.9262 515.738 35.3903 518.411 L29.9795 518.411 Q28.7381 515.197 28.1334 512.173 Q27.4968 509.149 27.4968 506.285 Q27.4968 498.55 31.5072 494.731 Q35.5176 490.911 43.6657 490.911 Z" fill="#000000" fill-rule="nonzero" fill-opacity="1" /><path clip-path="url(#clip450)" d="M33.7671 455.391 L14.479 455.391 L14.479 449.534 L64.0042 449.534 L64.0042 455.391 L58.657 455.391 Q61.8398 457.237 63.3994 460.07 Q64.9272 462.87 64.9272 466.817 Q64.9272 473.278 59.771 477.352 Q54.6147 481.395 46.212 481.395 Q37.8093 481.395 32.6531 477.352 Q27.4968 473.278 27.4968 466.817 Q27.4968 462.87 29.0564 460.07 Q30.5842 457.237 33.7671 455.391 M46.212 475.347 Q52.6732 475.347 56.3653 472.705 Q60.0256 470.032 60.0256 465.385 Q60.0256 460.738 56.3653 458.064 Q52.6732 455.391 46.212 455.391 Q39.7508 455.391 36.0905 458.064 Q32.3984 460.738 32.3984 465.385 Q32.3984 470.032 36.0905 472.705 Q39.7508 475.347 46.212 475.347 Z" fill="#000000" fill-rule="nonzero" fill-opacity="1" /><path clip-path="url(#clip450)" d="M16.4842 427.063 L16.4842 421.653 L70.0516 438.203 L70.0516 443.614 L16.4842 427.063 Z" fill="#000000" fill-rule="nonzero" fill-opacity="1" /><path clip-path="url(#clip450)" d="M29.4065 392.784 L34.9447 392.784 Q33.6716 395.267 33.035 397.94 Q32.3984 400.614 32.3984 403.478 Q32.3984 407.839 33.7352 410.035 Q35.072 412.199 37.7456 412.199 Q39.7826 412.199 40.9603 410.64 Q42.1061 409.08 43.1565 404.37 L43.6021 402.364 Q44.9389 396.126 47.3897 393.516 Q49.8086 390.874 54.1691 390.874 Q59.1344 390.874 62.0308 394.821 Q64.9272 398.736 64.9272 405.611 Q64.9272 408.476 64.3543 411.595 Q63.8132 414.682 62.6992 418.12 L56.6518 418.12 Q58.3387 414.873 59.198 411.722 Q60.0256 408.571 60.0256 405.484 Q60.0256 401.346 58.6251 399.118 Q57.1929 396.89 54.6147 396.89 Q52.2276 396.89 50.9545 398.513 Q49.6813 400.105 48.5037 405.547 L48.0262 407.584 Q46.8804 413.027 44.5251 415.446 Q42.138 417.865 38.0002 417.865 Q32.9713 417.865 30.2341 414.3 Q27.4968 410.735 27.4968 404.179 Q27.4968 400.932 27.9743 398.068 Q28.4517 395.203 29.4065 392.784 Z" fill="#000000" fill-rule="nonzero" fill-opacity="1" /><path clip-path="url(#clip450)" d="M14.5426 382.472 L14.5426 377.379 Q22.0542 372.605 29.2474 370.249 Q36.4406 367.862 43.5384 367.862 Q50.668 367.862 57.8931 370.249 Q65.1182 372.605 72.5979 377.379 L72.5979 382.472 Q65.3091 378.238 58.1159 376.17 Q50.8908 374.069 43.5384 374.069 Q36.186 374.069 29.0246 376.17 Q21.8632 378.238 14.5426 382.472 Z" fill="#000000" fill-rule="nonzero" fill-opacity="1" /><path clip-path="url(#clip450)" d="M774.754 12.096 L786.947 12.096 L802.381 53.2532 L817.896 12.096 L830.09 12.096 L830.09 72.576 L822.109 72.576 L822.109 19.4686 L806.513 60.9499 L798.29 60.9499 L782.694 19.4686 L782.694 72.576 L774.754 72.576 L774.754 12.096 Z" fill="#000000" fill-rule="nonzero" fill-opacity="1" /><path clip-path="url(#clip450)" d="M866.629 49.7694 Q857.595 49.7694 854.111 51.8354 Q850.628 53.9013 850.628 58.8839 Q850.628 62.8538 853.22 65.2034 Q855.853 67.5124 860.35 67.5124 Q866.548 67.5124 870.275 63.1374 Q874.042 58.7219 874.042 51.4303 L874.042 49.7694 L866.629 49.7694 M881.496 46.6907 L881.496 72.576 L874.042 72.576 L874.042 65.6895 Q871.49 69.8214 867.682 71.8063 Q863.874 73.7508 858.365 73.7508 Q851.397 73.7508 847.265 69.8619 Q843.174 65.9325 843.174 59.3701 Q843.174 51.7138 848.278 47.825 Q853.423 43.9361 863.591 43.9361 L874.042 43.9361 L874.042 43.2069 Q874.042 38.0623 870.639 35.2672 Q867.277 32.4315 861.16 32.4315 Q857.271 32.4315 853.585 33.3632 Q849.898 34.295 846.496 36.1584 L846.496 29.2718 Q850.587 27.692 854.436 26.9223 Q858.284 26.1121 861.93 26.1121 Q871.773 26.1121 876.634 31.2163 Q881.496 36.3204 881.496 46.6907 Z" fill="#000000" fill-rule="nonzero" fill-opacity="1" /><path clip-path="url(#clip450)" d="M925.772 28.5427 L925.772 35.5912 Q922.612 33.9709 919.209 33.1607 Q915.807 32.3505 912.161 32.3505 Q906.611 32.3505 903.816 34.0519 Q901.061 35.7533 901.061 39.156 Q901.061 41.7486 903.046 43.2475 Q905.031 44.7058 911.027 46.0426 L913.579 46.6097 Q921.518 48.3111 924.84 51.4303 Q928.202 54.509 928.202 60.0587 Q928.202 66.3781 923.179 70.0644 Q918.197 73.7508 909.447 73.7508 Q905.801 73.7508 901.831 73.0216 Q897.902 72.3329 893.527 70.9151 L893.527 63.2184 Q897.659 65.3654 901.669 66.4591 Q905.679 67.5124 909.609 67.5124 Q914.875 67.5124 917.711 65.73 Q920.546 63.9071 920.546 60.6258 Q920.546 57.5877 918.48 55.9673 Q916.455 54.3469 909.528 52.8481 L906.935 52.2405 Q900.008 50.7821 896.929 47.7845 Q893.851 44.7463 893.851 39.4801 Q893.851 33.0797 898.388 29.5959 Q902.925 26.1121 911.27 26.1121 Q915.402 26.1121 919.047 26.7198 Q922.693 27.3274 925.772 28.5427 Z" fill="#000000" fill-rule="nonzero" fill-opacity="1" /><path clip-path="url(#clip450)" d="M960.691 49.7694 Q951.657 49.7694 948.173 51.8354 Q944.69 53.9013 944.69 58.8839 Q944.69 62.8538 947.282 65.2034 Q949.915 67.5124 954.412 67.5124 Q960.61 67.5124 964.337 63.1374 Q968.104 58.7219 968.104 51.4303 L968.104 49.7694 L960.691 49.7694 M975.558 46.6907 L975.558 72.576 L968.104 72.576 L968.104 65.6895 Q965.552 69.8214 961.744 71.8063 Q957.936 73.7508 952.427 73.7508 Q945.459 73.7508 941.327 69.8619 Q937.236 65.9325 937.236 59.3701 Q937.236 51.7138 942.34 47.825 Q947.485 43.9361 957.653 43.9361 L968.104 43.9361 L968.104 43.2069 Q968.104 38.0623 964.701 35.2672 Q961.339 32.4315 955.222 32.4315 Q951.333 32.4315 947.647 33.3632 Q943.96 34.295 940.558 36.1584 L940.558 29.2718 Q944.649 27.692 948.498 26.9223 Q952.346 26.1121 955.992 26.1121 Q965.835 26.1121 970.696 31.2163 Q975.558 36.3204 975.558 46.6907 Z" fill="#000000" fill-rule="nonzero" fill-opacity="1" /><path clip-path="url(#clip450)" d="M1052.61 35.9153 Q1055.4 30.8922 1059.29 28.5022 Q1063.18 26.1121 1068.44 26.1121 Q1075.53 26.1121 1079.38 31.0947 Q1083.23 36.0368 1083.23 45.1919 L1083.23 72.576 L1075.74 72.576 L1075.74 45.4349 Q1075.74 38.913 1073.43 35.7533 Q1071.12 32.5936 1066.38 32.5936 Q1060.59 32.5936 1057.22 36.4419 Q1053.86 40.2903 1053.86 46.9338 L1053.86 72.576 L1046.37 72.576 L1046.37 45.4349 Q1046.37 38.8725 1044.06 35.7533 Q1041.75 32.5936 1036.93 32.5936 Q1031.22 32.5936 1027.85 36.4824 Q1024.49 40.3308 1024.49 46.9338 L1024.49 72.576 L1017 72.576 L1017 27.2059 L1024.49 27.2059 L1024.49 34.2544 Q1027.04 30.082 1030.61 28.0971 Q1034.17 26.1121 1039.08 26.1121 Q1044.02 26.1121 1047.46 28.6237 Q1050.94 31.1352 1052.61 35.9153 Z" fill="#000000" fill-rule="nonzero" fill-opacity="1" /><path clip-path="url(#clip450)" d="M1101.14 67.958 L1118.31 67.958 L1118.31 72.576 L1094.09 72.576 L1094.09 68.12 Q1095.46 66.8642 1098.02 64.5957 Q1111.95 52.2405 1111.95 48.4326 Q1111.95 45.759 1109.85 44.1387 Q1107.74 42.4778 1104.3 42.4778 Q1102.19 42.4778 1099.72 43.2069 Q1097.25 43.8956 1094.33 45.3134 L1094.33 40.3308 Q1097.45 39.1965 1100.12 38.6294 Q1102.84 38.0623 1105.15 38.0623 Q1111.02 38.0623 1114.54 40.7359 Q1118.07 43.4095 1118.07 47.7845 Q1118.07 53.4152 1104.66 64.9198 Q1102.39 66.8642 1101.14 67.958 Z" fill="#000000" fill-rule="nonzero" fill-opacity="1" /><path clip-path="url(#clip450)" d="M1175.63 9.62495 Q1170.2 18.942 1167.57 28.0566 Q1164.94 37.1711 1164.94 46.5287 Q1164.94 55.8863 1167.57 65.0818 Q1170.24 74.2369 1175.63 83.5134 L1169.15 83.5134 Q1163.07 73.9938 1160.04 64.7983 Q1157.04 55.6027 1157.04 46.5287 Q1157.04 37.4952 1160.04 28.3401 Q1163.03 19.1851 1169.15 9.62495 L1175.63 9.62495 Z" fill="#000000" fill-rule="nonzero" fill-opacity="1" /><path clip-path="url(#clip450)" d="M1228.9 48.0275 L1228.9 51.6733 L1194.63 51.6733 Q1195.12 59.3701 1199.25 63.421 Q1203.42 67.4314 1210.83 67.4314 Q1215.13 67.4314 1219.14 66.3781 Q1223.19 65.3249 1227.16 63.2184 L1227.16 70.267 Q1223.15 71.9684 1218.94 72.8596 Q1214.72 73.7508 1210.39 73.7508 Q1199.53 73.7508 1193.17 67.4314 Q1186.85 61.1119 1186.85 50.3365 Q1186.85 39.1965 1192.85 32.6746 Q1198.88 26.1121 1209.09 26.1121 Q1218.25 26.1121 1223.55 32.0264 Q1228.9 37.9003 1228.9 48.0275 M1221.45 45.84 Q1221.37 39.7232 1218 36.0774 Q1214.68 32.4315 1209.17 32.4315 Q1202.93 32.4315 1199.17 35.9558 Q1195.44 39.4801 1194.87 45.8805 L1221.45 45.84 Z" fill="#000000" fill-rule="nonzero" fill-opacity="1" /><path clip-path="url(#clip450)" d="M1270.06 28.5427 L1270.06 35.5912 Q1266.9 33.9709 1263.5 33.1607 Q1260.09 32.3505 1256.45 32.3505 Q1250.9 32.3505 1248.1 34.0519 Q1245.35 35.7533 1245.35 39.156 Q1245.35 41.7486 1247.33 43.2475 Q1249.32 44.7058 1255.31 46.0426 L1257.87 46.6097 Q1265.8 48.3111 1269.13 51.4303 Q1272.49 54.509 1272.49 60.0587 Q1272.49 66.3781 1267.47 70.0644 Q1262.48 73.7508 1253.73 73.7508 Q1250.09 73.7508 1246.12 73.0216 Q1242.19 72.3329 1237.81 70.9151 L1237.81 63.2184 Q1241.95 65.3654 1245.96 66.4591 Q1249.97 67.5124 1253.9 67.5124 Q1259.16 67.5124 1262 65.73 Q1264.83 63.9071 1264.83 60.6258 Q1264.83 57.5877 1262.77 55.9673 Q1260.74 54.3469 1253.81 52.8481 L1251.22 52.2405 Q1244.29 50.7821 1241.22 47.7845 Q1238.14 44.7463 1238.14 39.4801 Q1238.14 33.0797 1242.67 29.5959 Q1247.21 26.1121 1255.56 26.1121 Q1259.69 26.1121 1263.33 26.7198 Q1266.98 27.3274 1270.06 28.5427 Z" fill="#000000" fill-rule="nonzero" fill-opacity="1" /><path clip-path="url(#clip450)" d="M1291.57 65.7705 L1291.57 89.8329 L1284.07 89.8329 L1284.07 27.2059 L1291.57 27.2059 L1291.57 34.0924 Q1293.92 30.0415 1297.48 28.0971 Q1301.09 26.1121 1306.07 26.1121 Q1314.33 26.1121 1319.48 32.6746 Q1324.66 39.2371 1324.66 49.9314 Q1324.66 60.6258 1319.48 67.1883 Q1314.33 73.7508 1306.07 73.7508 Q1301.09 73.7508 1297.48 71.8063 Q1293.92 69.8214 1291.57 65.7705 M1316.93 49.9314 Q1316.93 41.7081 1313.52 37.0496 Q1310.16 32.3505 1304.25 32.3505 Q1298.33 32.3505 1294.93 37.0496 Q1291.57 41.7081 1291.57 49.9314 Q1291.57 58.1548 1294.93 62.8538 Q1298.33 67.5124 1304.25 67.5124 Q1310.16 67.5124 1313.52 62.8538 Q1316.93 58.1548 1316.93 49.9314 Z" fill="#000000" fill-rule="nonzero" fill-opacity="1" /><path clip-path="url(#clip450)" d="M1357.64 49.7694 Q1348.61 49.7694 1345.12 51.8354 Q1341.64 53.9013 1341.64 58.8839 Q1341.64 62.8538 1344.23 65.2034 Q1346.86 67.5124 1351.36 67.5124 Q1357.56 67.5124 1361.28 63.1374 Q1365.05 58.7219 1365.05 51.4303 L1365.05 49.7694 L1357.64 49.7694 M1372.51 46.6907 L1372.51 72.576 L1365.05 72.576 L1365.05 65.6895 Q1362.5 69.8214 1358.69 71.8063 Q1354.88 73.7508 1349.37 73.7508 Q1342.41 73.7508 1338.28 69.8619 Q1334.18 65.9325 1334.18 59.3701 Q1334.18 51.7138 1339.29 47.825 Q1344.43 43.9361 1354.6 43.9361 L1365.05 43.9361 L1365.05 43.2069 Q1365.05 38.0623 1361.65 35.2672 Q1358.29 32.4315 1352.17 32.4315 Q1348.28 32.4315 1344.59 33.3632 Q1340.91 34.295 1337.51 36.1584 L1337.51 29.2718 Q1341.6 27.692 1345.45 26.9223 Q1349.29 26.1121 1352.94 26.1121 Q1362.78 26.1121 1367.64 31.2163 Q1372.51 36.3204 1372.51 46.6907 Z" fill="#000000" fill-rule="nonzero" fill-opacity="1" /><path clip-path="url(#clip450)" d="M1420.51 28.9478 L1420.51 35.9153 Q1417.35 34.1734 1414.15 33.3227 Q1410.99 32.4315 1407.75 32.4315 Q1400.5 32.4315 1396.49 37.0496 Q1392.48 41.6271 1392.48 49.9314 Q1392.48 58.2358 1396.49 62.8538 Q1400.5 67.4314 1407.75 67.4314 Q1410.99 67.4314 1414.15 66.5807 Q1417.35 65.6895 1420.51 63.9476 L1420.51 70.8341 Q1417.39 72.2924 1414.03 73.0216 Q1410.71 73.7508 1406.94 73.7508 Q1396.69 73.7508 1390.65 67.3098 Q1384.62 60.8689 1384.62 49.9314 Q1384.62 38.832 1390.69 32.472 Q1396.81 26.1121 1407.42 26.1121 Q1410.87 26.1121 1414.15 26.8413 Q1417.43 27.5299 1420.51 28.9478 Z" fill="#000000" fill-rule="nonzero" fill-opacity="1" /><path clip-path="url(#clip450)" d="M1433.47 27.2059 L1440.93 27.2059 L1440.93 72.576 L1433.47 72.576 L1433.47 27.2059 M1433.47 9.54393 L1440.93 9.54393 L1440.93 18.9825 L1433.47 18.9825 L1433.47 9.54393 Z" fill="#000000" fill-rule="nonzero" fill-opacity="1" /><path clip-path="url(#clip450)" d="M1474.1 32.4315 Q1468.11 32.4315 1464.62 37.1306 Q1461.14 41.7891 1461.14 49.9314 Q1461.14 58.0738 1464.58 62.7728 Q1468.07 67.4314 1474.1 67.4314 Q1480.06 67.4314 1483.54 62.7323 Q1487.02 58.0333 1487.02 49.9314 Q1487.02 41.8701 1483.54 37.1711 Q1480.06 32.4315 1474.1 32.4315 M1474.1 26.1121 Q1483.82 26.1121 1489.37 32.4315 Q1494.92 38.7509 1494.92 49.9314 Q1494.92 61.0714 1489.37 67.4314 Q1483.82 73.7508 1474.1 73.7508 Q1464.34 73.7508 1458.79 67.4314 Q1453.28 61.0714 1453.28 49.9314 Q1453.28 38.7509 1458.79 32.4315 Q1464.34 26.1121 1474.1 26.1121 Z" fill="#000000" fill-rule="nonzero" fill-opacity="1" /><path clip-path="url(#clip450)" d="M1563.51 34.0924 L1563.51 9.54393 L1570.96 9.54393 L1570.96 72.576 L1563.51 72.576 L1563.51 65.7705 Q1561.16 69.8214 1557.55 71.8063 Q1553.99 73.7508 1548.96 73.7508 Q1540.74 73.7508 1535.55 67.1883 Q1530.41 60.6258 1530.41 49.9314 Q1530.41 39.2371 1535.55 32.6746 Q1540.74 26.1121 1548.96 26.1121 Q1553.99 26.1121 1557.55 28.0971 Q1561.16 30.0415 1563.51 34.0924 M1538.11 49.9314 Q1538.11 58.1548 1541.47 62.8538 Q1544.87 67.5124 1550.79 67.5124 Q1556.7 67.5124 1560.1 62.8538 Q1563.51 58.1548 1563.51 49.9314 Q1563.51 41.7081 1560.1 37.0496 Q1556.7 32.3505 1550.79 32.3505 Q1544.87 32.3505 1541.47 37.0496 Q1538.11 41.7081 1538.11 49.9314 Z" fill="#000000" fill-rule="nonzero" fill-opacity="1" /><path clip-path="url(#clip450)" d="M1625.12 48.0275 L1625.12 51.6733 L1590.85 51.6733 Q1591.34 59.3701 1595.47 63.421 Q1599.64 67.4314 1607.05 67.4314 Q1611.35 67.4314 1615.36 66.3781 Q1619.41 65.3249 1623.38 63.2184 L1623.38 70.267 Q1619.37 71.9684 1615.15 72.8596 Q1610.94 73.7508 1606.61 73.7508 Q1595.75 73.7508 1589.39 67.4314 Q1583.07 61.1119 1583.07 50.3365 Q1583.07 39.1965 1589.07 32.6746 Q1595.1 26.1121 1605.31 26.1121 Q1614.47 26.1121 1619.77 32.0264 Q1625.12 37.9003 1625.12 48.0275 M1617.67 45.84 Q1617.59 39.7232 1614.22 36.0774 Q1610.9 32.4315 1605.39 32.4315 Q1599.15 32.4315 1595.39 35.9558 Q1591.66 39.4801 1591.09 45.8805 L1617.67 45.84 Z" fill="#000000" fill-rule="nonzero" fill-opacity="1" /><path clip-path="url(#clip450)" d="M1686.69 9.54393 L1686.69 15.7418 L1679.56 15.7418 Q1675.55 15.7418 1673.97 17.3622 Q1672.43 18.9825 1672.43 23.1955 L1672.43 27.2059 L1684.71 27.2059 L1684.71 32.9987 L1672.43 32.9987 L1672.43 72.576 L1664.94 72.576 L1664.94 32.9987 L1657.81 32.9987 L1657.81 27.2059 L1664.94 27.2059 L1664.94 24.0462 Q1664.94 16.471 1668.46 13.0277 Q1671.99 9.54393 1679.65 9.54393 L1686.69 9.54393 Z" fill="#000000" fill-rule="nonzero" fill-opacity="1" /><path clip-path="url(#clip450)" d="M1713.55 49.7694 Q1704.52 49.7694 1701.03 51.8354 Q1697.55 53.9013 1697.55 58.8839 Q1697.55 62.8538 1700.14 65.2034 Q1702.78 67.5124 1707.27 67.5124 Q1713.47 67.5124 1717.2 63.1374 Q1720.96 58.7219 1720.96 51.4303 L1720.96 49.7694 L1713.55 49.7694 M1728.42 46.6907 L1728.42 72.576 L1720.96 72.576 L1720.96 65.6895 Q1718.41 69.8214 1714.6 71.8063 Q1710.8 73.7508 1705.29 73.7508 Q1698.32 73.7508 1694.19 69.8619 Q1690.1 65.9325 1690.1 59.3701 Q1690.1 51.7138 1695.2 47.825 Q1700.35 43.9361 1710.51 43.9361 L1720.96 43.9361 L1720.96 43.2069 Q1720.96 38.0623 1717.56 35.2672 Q1714.2 32.4315 1708.08 32.4315 Q1704.19 32.4315 1700.51 33.3632 Q1696.82 34.295 1693.42 36.1584 L1693.42 29.2718 Q1697.51 27.692 1701.36 26.9223 Q1705.21 26.1121 1708.85 26.1121 Q1718.7 26.1121 1723.56 31.2163 Q1728.42 36.3204 1728.42 46.6907 Z" fill="#000000" fill-rule="nonzero" fill-opacity="1" /><path clip-path="url(#clip450)" d="M1772.69 28.5427 L1772.69 35.5912 Q1769.53 33.9709 1766.13 33.1607 Q1762.73 32.3505 1759.08 32.3505 Q1753.53 32.3505 1750.74 34.0519 Q1747.98 35.7533 1747.98 39.156 Q1747.98 41.7486 1749.97 43.2475 Q1751.95 44.7058 1757.95 46.0426 L1760.5 46.6097 Q1768.44 48.3111 1771.76 51.4303 Q1775.13 54.509 1775.13 60.0587 Q1775.13 66.3781 1770.1 70.0644 Q1765.12 73.7508 1756.37 73.7508 Q1752.72 73.7508 1748.75 73.0216 Q1744.82 72.3329 1740.45 70.9151 L1740.45 63.2184 Q1744.58 65.3654 1748.59 66.4591 Q1752.6 67.5124 1756.53 67.5124 Q1761.8 67.5124 1764.63 65.73 Q1767.47 63.9071 1767.47 60.6258 Q1767.47 57.5877 1765.4 55.9673 Q1763.38 54.3469 1756.45 52.8481 L1753.86 52.2405 Q1746.93 50.7821 1743.85 47.7845 Q1740.77 44.7463 1740.77 39.4801 Q1740.77 33.0797 1745.31 29.5959 Q1749.85 26.1121 1758.19 26.1121 Q1762.32 26.1121 1765.97 26.7198 Q1769.62 27.3274 1772.69 28.5427 Z" fill="#000000" fill-rule="nonzero" fill-opacity="1" /><path clip-path="url(#clip450)" d="M1825.8 48.0275 L1825.8 51.6733 L1791.53 51.6733 Q1792.02 59.3701 1796.15 63.421 Q1800.32 67.4314 1807.73 67.4314 Q1812.03 67.4314 1816.04 66.3781 Q1820.09 65.3249 1824.06 63.2184 L1824.06 70.267 Q1820.05 71.9684 1815.84 72.8596 Q1811.62 73.7508 1807.29 73.7508 Q1796.43 73.7508 1790.07 67.4314 Q1783.75 61.1119 1783.75 50.3365 Q1783.75 39.1965 1789.75 32.6746 Q1795.78 26.1121 1805.99 26.1121 Q1815.15 26.1121 1820.45 32.0264 Q1825.8 37.9003 1825.8 48.0275 M1818.35 45.84 Q1818.27 39.7232 1814.9 36.0774 Q1811.58 32.4315 1806.07 32.4315 Q1799.84 32.4315 1796.07 35.9558 Q1792.34 39.4801 1791.77 45.8805 L1818.35 45.84 Z" fill="#000000" fill-rule="nonzero" fill-opacity="1" /><path clip-path="url(#clip450)" d="M1866.96 28.5427 L1866.96 35.5912 Q1863.8 33.9709 1860.4 33.1607 Q1856.99 32.3505 1853.35 32.3505 Q1847.8 32.3505 1845 34.0519 Q1842.25 35.7533 1842.25 39.156 Q1842.25 41.7486 1844.23 43.2475 Q1846.22 44.7058 1852.21 46.0426 L1854.77 46.6097 Q1862.71 48.3111 1866.03 51.4303 Q1869.39 54.509 1869.39 60.0587 Q1869.39 66.3781 1864.37 70.0644 Q1859.38 73.7508 1850.63 73.7508 Q1846.99 73.7508 1843.02 73.0216 Q1839.09 72.3329 1834.71 70.9151 L1834.71 63.2184 Q1838.85 65.3654 1842.86 66.4591 Q1846.87 67.5124 1850.8 67.5124 Q1856.06 67.5124 1858.9 65.73 Q1861.73 63.9071 1861.73 60.6258 Q1861.73 57.5877 1859.67 55.9673 Q1857.64 54.3469 1850.71 52.8481 L1848.12 52.2405 Q1841.2 50.7821 1838.12 47.7845 Q1835.04 44.7463 1835.04 39.4801 Q1835.04 33.0797 1839.57 29.5959 Q1844.11 26.1121 1852.46 26.1121 Q1856.59 26.1121 1860.23 26.7198 Q1863.88 27.3274 1866.96 28.5427 Z" fill="#000000" fill-rule="nonzero" fill-opacity="1" /><path clip-path="url(#clip450)" d="M1880.08 9.62495 L1886.57 9.62495 Q1892.64 19.1851 1895.64 28.3401 Q1898.68 37.4952 1898.68 46.5287 Q1898.68 55.6027 1895.64 64.7983 Q1892.64 73.9938 1886.57 83.5134 L1880.08 83.5134 Q1885.47 74.2369 1888.1 65.0818 Q1890.78 55.8863 1890.78 46.5287 Q1890.78 37.1711 1888.1 28.0566 Q1885.47 18.942 1880.08 9.62495 Z" fill="#000000" fill-rule="nonzero" fill-opacity="1" /><polyline clip-path="url(#clip452)" style="stroke:#009af9; stroke-linecap:round; stroke-linejoin:round; stroke-width:12; stroke-opacity:1; fill:none" points="1815.98,773.326 1815.83,767.239 1815.38,761.151 1814.63,755.063 1813.59,748.976 1812.24,742.887 1810.6,736.798 1808.65,730.709 1806.41,724.618 1803.87,718.525 1801.03,712.431 1797.89,706.335 1794.45,700.237 1790.71,694.136 1786.67,688.032 1782.33,681.926 1777.69,675.815 1772.75,669.702 1767.51,663.585 1761.97,657.464 1756.13,651.34 1749.98,645.212 1743.54,639.081 1736.8,632.948 1729.75,626.813 1722.4,620.677 1714.75,614.541 1706.8,608.406 1698.55,602.275 1690,596.15 1681.15,590.033 1672,583.928 1662.54,577.839 1652.79,571.771 1642.74,565.728 1632.4,559.719 1621.76,553.75 1610.83,547.832 1599.61,541.973 1588.1,536.188 1576.31,530.488 1564.25,524.892 1551.91,519.416 1539.31,514.08 1526.45,508.908 1513.34,503.923 1499.98,499.153 1486.41,494.627 1472.61,490.376 1458.61,486.432 1444.43,482.828 1430.08,479.596 1415.58,476.768 1400.96,474.375 1386.22,472.443 1371.41,470.996 1356.53,470.051 1341.62,469.62 1326.7,469.709 1311.8,470.317 1296.95,471.435 1282.16,473.051 1267.46,475.143 1252.87,477.688 1238.42,480.658 1224.13,484.021 1210.01,487.745 1196.08,491.798 1182.35,496.147 1168.85,500.76 1155.58,505.606 1142.56,510.658 1129.78,515.889 1117.27,521.275 1105.02,526.794 1093.05,532.428 1081.36,538.159 1069.95,543.971 1058.83,549.851 1048,555.788 1037.46,561.771 1027.22,567.793 1017.27,573.845 1007.62,579.921 998.27,586.016 989.22,592.125 980.47,598.245 972.021,604.373 963.872,610.505 956.026,616.64 948.48,622.777 941.236,628.913 934.293,635.047 927.652,641.18 921.312,647.309 915.272,653.436 909.534,659.559 904.096,665.678 898.959,671.794 894.122,677.907 889.585,684.016 885.348,690.122 881.411,696.224 877.774,702.324 874.436,708.422 871.398,714.517 868.659,720.611 866.219,726.702 864.079,732.793 862.238,738.882 860.695,744.971 859.452,751.059 858.508,757.147 857.863,763.234 857.516,769.322 857.469,775.409 857.721,781.497 858.272,787.584 859.122,793.671 860.271,799.758 861.718,805.844 863.465,811.929 865.511,818.013 867.855,824.095 870.498,830.174 873.439,836.25 876.679,842.321 880.217,848.387 884.053,854.447 888.186,860.499 892.617,866.542 897.343,872.575 902.366,878.596 907.684,884.602 913.297,890.593 919.204,896.565 925.404,902.517 931.895,908.446 938.677,914.349 945.748,920.224 953.107,926.067 960.753,931.875 968.682,937.644 976.894,943.371 985.386,949.051 994.156,954.679 1003.2,960.251 1012.52,965.761 1022.1,971.204 1031.96,976.574 1042.07,981.864 1052.44,987.066 1063.06,992.174 1073.94,997.178 1085.05,1002.07 1096.41,1006.84 1107.99,1011.48 1119.8,1015.97 1131.83,1020.31 1144.06,1024.48 1156.49,1028.47 1169.12,1032.26 1181.93,1035.84 1194.91,1039.19 1208.04,1042.3 1221.33,1045.16 1234.74,1047.74 1248.28,1050.03 1261.92,1052.02 1275.65,1053.69 1289.46,1055.04 1303.32,1056.05 1317.22,1056.72 1331.15,1057.03 1345.09,1057 1359.02,1056.61 1372.91,1055.88 1386.77,1054.8 1400.56,1053.38 1414.27,1051.64 1427.89,1049.59 1441.41,1047.24 1454.8,1044.6 1468.05,1041.7 1481.16,1038.53 1494.1,1035.13 1506.87,1031.51 1519.46,1027.68 1531.86,1023.65 1544.05,1019.45 1556.03,1015.08 1567.8,1010.55 1579.33,1005.89 1590.64,1001.09 1601.71,996.177 1612.53,991.152 1623.1,986.024 1633.42,980.803 1643.49,975.497 1653.28,970.112 1662.82,964.655 1672.08,959.131 1681.07,953.548 1689.78,947.909 1698.22,942.219 1706.37,936.484 1714.24,930.706 1721.83,924.891 1729.13,919.041 1736.15,913.16 1742.87,907.252 1749.3,901.318 1755.44,895.362 1761.29,889.385 1766.84,883.391 1772.1,877.382 1777.07,871.359 1781.73,865.324 1786.1,859.279 1790.18,853.225 1793.95,847.164 1797.43,841.096 1800.61,835.024 1803.49,828.948 1806.07,822.868 1808.36,816.786 1810.34,810.702 1812.03,804.616 1813.42,798.53 1814.51,792.443 1815.3,786.356 1815.79,780.268 1815.98,774.181 1815.87,768.093 1815.46,762.006 1814.76,755.918 1813.75,749.831 1812.45,743.742 1810.85,737.654 1808.95,731.564 1806.74,725.473 1804.24,719.381 1801.44,713.287 1798.35,707.192 1794.95,701.094 1791.25,694.993 1787.25,688.89 1782.96,682.783 1778.36,676.674 1773.46,670.561 1768.26,664.444 1762.76,658.324 1756.97,652.2 1750.87,646.073 1744.46,639.942 1737.76,633.809 1730.76,627.675 1723.45,621.538 1715.85,615.402 1707.94,609.268 1699.73,603.136 1691.22,597.01 1682.41,590.892 1673.3,584.785 1663.89,578.693 1654.18,572.622 1644.17,566.575 1633.87,560.561 1623.27,554.586 1612.38,548.66 1601.2,542.792 1589.74,536.995 1577.99,531.283 1565.96,525.671 1553.66,520.177 1541.09,514.82 1528.27,509.623 1515.19,504.611 1501.87,499.809 1488.33,495.247 1474.56,490.956 1460.59,486.966 1446.43,483.312 1432.11,480.026 1417.63,477.139 1403.02,474.684 1388.3,472.686 1373.49,471.169 1358.62,470.153 1343.72,469.649 1328.8,469.665 1313.9,470.2 1299.03,471.248 1284.23,472.795 1269.51,474.821 1254.91,477.304 1240.44,480.216 1226.12,483.526 1211.98,487.202 1198.02,491.211 1184.27,495.52 1170.73,500.097 1157.43,504.912 1144.37,509.937 1131.56,515.144 1119.01,520.51 1106.73,526.012 1094.72,531.631 1082.98,537.349 1071.54,543.15 1060.37,549.021 1049.5,554.951 1038.92,560.929 1028.64,566.945 1018.65,572.993 1008.96,579.066 999.565,585.159 990.473,591.267 981.681,597.385 973.189,603.512 964.999,609.644 957.109,615.779 949.522,621.915 942.235,628.051 935.25,634.186 928.567,640.318 922.184,646.449 916.102,652.576 910.322,658.699 904.842,664.819 899.662,670.936 894.783,677.049 890.204,683.158 885.925,689.264 881.946,695.367 878.267,701.468 874.887,707.566 871.807,713.661 869.026,719.755 866.544,725.847 864.361,731.937 862.478,738.027 860.894,744.116 859.609,750.204 858.622,756.292 857.935,762.379 857.547,768.467 857.458,774.554 857.668,780.642 858.177,786.729 858.984,792.816 860.091,798.903 861.497,804.99 863.202,811.075 865.205,817.159 867.508,823.241 870.109,829.32 873.008,835.397 876.206,841.469 879.702,847.536 883.496,853.596 887.588,859.65 891.976,865.694 896.662,871.728 901.643,877.751 906.92,883.759 912.491,889.752 918.357,895.727 924.515,901.682 930.966,907.615 937.707,913.522 944.738,919.401 952.057,925.249 959.662,931.062 967.551,936.837 975.724,942.569 984.177,948.256 992.908,953.892 1001.91,959.472 1011.19,964.991 1020.74,970.444 1030.56,975.825 1040.63,981.126 1050.97,986.341 1061.56,991.463 1072.4,996.482 1083.48,1001.39 1094.8,1006.18 1106.35,1010.84 1118.13,1015.35 1130.12,1019.71 1142.33,1023.9 1154.74,1027.92 1167.34,1031.74 1180.12,1035.35 1193.07,1038.74 1206.19,1041.88 1219.45,1044.77 1232.85,1047.39 1246.37,1049.73 1260,1051.76 1273.72,1053.48 1287.51,1054.87 1301.37,1055.93 1315.27,1056.64 1329.2,1057.01 1343.13,1057.02 1357.06,1056.69 1370.96,1056 1384.82,1054.97 1398.63,1053.6 1412.35,1051.91 1425.99,1049.9 1439.52,1047.59 1452.93,1044.99 1466.2,1042.12 1479.33,1038.99 1492.29,1035.63 1505.09,1032.03 1517.71,1028.23 1530.13,1024.23 1542.35,1020.05 1554.36,1015.7 1566.16,1011.2 1577.73,1006.55 1589.07,1001.77 1600.17,996.875 1611.03,991.864 1621.64,986.75 1631.99,981.542 1642.09,976.247 1651.92,970.872 1661.49,965.425 1670.79,959.911 1679.82,954.335 1688.57,948.704 1697.05,943.021 1705.24,937.292 1713.16,931.52 1720.78,925.71 1728.13,919.865 1735.18,913.988 1741.94,908.083 1748.42,902.153 1754.6,896.199 1760.49,890.226 1766.08,884.234 1771.38,878.227 1776.39,872.205 1781.1,866.172 1785.51,860.128 1789.62,854.076 1793.44,848.015 1796.96,841.949 1800.18,835.877 1803.1,829.801 1805.73,823.722 1808.06,817.64 1810.08,811.556 1811.81,805.471 1813.24,799.385 1814.37,793.298 1815.2,787.211 1815.73,781.123 1815.97,775.036 1815.9,768.948 1815.54,762.861 1814.87,756.773 1813.91,750.686 1812.65,744.597 1811.09,738.509 1809.23,732.419 1807.07,726.329 1804.61,720.237 1801.86,714.143 1798.8,708.048 1795.44,701.95 1791.79,695.85 1787.83,689.747 1783.58,683.641 1779.02,677.532 1774.17,671.419 1769.01,665.303 1763.55,659.183 1757.8,653.06 1751.74,646.933 1745.38,640.803 1738.72,634.671 1731.76,628.536 1724.5,622.4 1716.93,616.264 1709.07,610.129 1700.9,603.997 1692.43,597.87 1683.67,591.75 1674.6,585.642 1665.23,579.548 1655.56,573.473 1645.6,567.423 1635.33,561.403 1624.78,555.422 "/>
</svg>
