<?xml version="1.0" encoding="utf-8"?>
<svg xmlns="http://www.w3.org/2000/svg" xmlns:xlink="http://www.w3.org/1999/xlink" width="600" height="400" viewBox="0 0 2400 1600">
<defs>
  <clipPath id="clip370">
    <rect x="0" y="0" width="2400" height="1600"/>
  </clipPath>
</defs>
<path clip-path="url(#clip370)" d="M0 1600 L2400 1600 L2400 0 L0 0  Z" fill="#ffffff" fill-rule="evenodd" fill-opacity="1"/>
<defs>
  <clipPath id="clip371">
    <rect x="480" y="0" width="1681" height="1600"/>
  </clipPath>
</defs>
<path clip-path="url(#clip370)" d="M305.607 1423.18 L2094.39 1423.18 L2094.39 123.472 L305.607 123.472  Z" fill="#ffffff" fill-rule="evenodd" fill-opacity="1"/>
<defs>
  <clipPath id="clip372">
    <rect x="305" y="123" width="1790" height="1301"/>
  </clipPath>
</defs>
<polyline clip-path="url(#clip372)" style="stroke:#000000; stroke-linecap:round; stroke-linejoin:round; stroke-width:2; stroke-opacity:0.1; fill:none" points="356.233,1423.18 356.233,123.472 "/>
<polyline clip-path="url(#clip372)" style="stroke:#000000; stroke-linecap:round; stroke-linejoin:round; stroke-width:2; stroke-opacity:0.1; fill:none" points="693.74,1423.18 693.74,123.472 "/>
<polyline clip-path="url(#clip372)" style="stroke:#000000; stroke-linecap:round; stroke-linejoin:round; stroke-width:2; stroke-opacity:0.1; fill:none" points="1031.25,1423.18 1031.25,123.472 "/>
<polyline clip-path="url(#clip372)" style="stroke:#000000; stroke-linecap:round; stroke-linejoin:round; stroke-width:2; stroke-opacity:0.1; fill:none" points="1368.75,1423.18 1368.75,123.472 "/>
<polyline clip-path="url(#clip372)" style="stroke:#000000; stroke-linecap:round; stroke-linejoin:round; stroke-width:2; stroke-opacity:0.1; fill:none" points="1706.26,1423.18 1706.26,123.472 "/>
<polyline clip-path="url(#clip372)" style="stroke:#000000; stroke-linecap:round; stroke-linejoin:round; stroke-width:2; stroke-opacity:0.1; fill:none" points="2043.77,1423.18 2043.77,123.472 "/>
<polyline clip-path="url(#clip370)" style="stroke:#000000; stroke-linecap:round; stroke-linejoin:round; stroke-width:4; stroke-opacity:1; fill:none" points="305.607,1423.18 2094.39,1423.18 "/>
<polyline clip-path="url(#clip370)" style="stroke:#000000; stroke-linecap:round; stroke-linejoin:round; stroke-width:4; stroke-opacity:1; fill:none" points="356.233,1423.18 356.233,1404.28 "/>
<polyline clip-path="url(#clip370)" style="stroke:#000000; stroke-linecap:round; stroke-linejoin:round; stroke-width:4; stroke-opacity:1; fill:none" points="693.74,1423.18 693.74,1404.28 "/>
<polyline clip-path="url(#clip370)" style="stroke:#000000; stroke-linecap:round; stroke-linejoin:round; stroke-width:4; stroke-opacity:1; fill:none" points="1031.25,1423.18 1031.25,1404.28 "/>
<polyline clip-path="url(#clip370)" style="stroke:#000000; stroke-linecap:round; stroke-linejoin:round; stroke-width:4; stroke-opacity:1; fill:none" points="1368.75,1423.18 1368.75,1404.28 "/>
<polyline clip-path="url(#clip370)" style="stroke:#000000; stroke-linecap:round; stroke-linejoin:round; stroke-width:4; stroke-opacity:1; fill:none" points="1706.26,1423.18 1706.26,1404.28 "/>
<polyline clip-path="url(#clip370)" style="stroke:#000000; stroke-linecap:round; stroke-linejoin:round; stroke-width:4; stroke-opacity:1; fill:none" points="2043.77,1423.18 2043.77,1404.28 "/>
<path clip-path="url(#clip370)" d="M356.233 1454.1 Q352.622 1454.1 350.793 1457.66 Q348.987 1461.2 348.987 1468.33 Q348.987 1475.44 350.793 1479.01 Q352.622 1482.55 356.233 1482.55 Q359.867 1482.55 361.672 1479.01 Q363.501 1475.44 363.501 1468.33 Q363.501 1461.2 361.672 1457.66 Q359.867 1454.1 356.233 1454.1 M356.233 1450.39 Q362.043 1450.39 365.098 1455 Q368.177 1459.58 368.177 1468.33 Q368.177 1477.06 365.098 1481.67 Q362.043 1486.25 356.233 1486.25 Q350.422 1486.25 347.344 1481.67 Q344.288 1477.06 344.288 1468.33 Q344.288 1459.58 347.344 1455 Q350.422 1450.39 356.233 1450.39 Z" fill="#000000" fill-rule="nonzero" fill-opacity="1" /><path clip-path="url(#clip370)" d="M684.122 1481.64 L691.76 1481.64 L691.76 1455.28 L683.45 1456.95 L683.45 1452.69 L691.714 1451.02 L696.39 1451.02 L696.39 1481.64 L704.029 1481.64 L704.029 1485.58 L684.122 1485.58 L684.122 1481.64 Z" fill="#000000" fill-rule="nonzero" fill-opacity="1" /><path clip-path="url(#clip370)" d="M1025.9 1481.64 L1042.22 1481.64 L1042.22 1485.58 L1020.27 1485.58 L1020.27 1481.64 Q1022.94 1478.89 1027.52 1474.26 Q1032.13 1469.61 1033.31 1468.27 Q1035.55 1465.74 1036.43 1464.01 Q1037.33 1462.25 1037.33 1460.56 Q1037.33 1457.8 1035.39 1456.07 Q1033.47 1454.33 1030.37 1454.33 Q1028.17 1454.33 1025.71 1455.09 Q1023.28 1455.86 1020.51 1457.41 L1020.51 1452.69 Q1023.33 1451.55 1025.78 1450.97 Q1028.24 1450.39 1030.27 1450.39 Q1035.64 1450.39 1038.84 1453.08 Q1042.03 1455.77 1042.03 1460.26 Q1042.03 1462.39 1041.22 1464.31 Q1040.44 1466.2 1038.33 1468.8 Q1037.75 1469.47 1034.65 1472.69 Q1031.55 1475.88 1025.9 1481.64 Z" fill="#000000" fill-rule="nonzero" fill-opacity="1" /><path clip-path="url(#clip370)" d="M1373 1466.95 Q1376.36 1467.66 1378.23 1469.93 Q1380.13 1472.2 1380.13 1475.53 Q1380.13 1480.65 1376.61 1483.45 Q1373.09 1486.25 1366.61 1486.25 Q1364.44 1486.25 1362.12 1485.81 Q1359.83 1485.39 1357.38 1484.54 L1357.38 1480.02 Q1359.32 1481.16 1361.64 1481.74 Q1363.95 1482.32 1366.47 1482.32 Q1370.87 1482.32 1373.16 1480.58 Q1375.48 1478.84 1375.48 1475.53 Q1375.48 1472.48 1373.33 1470.77 Q1371.2 1469.03 1367.38 1469.03 L1363.35 1469.03 L1363.35 1465.19 L1367.56 1465.19 Q1371.01 1465.19 1372.84 1463.82 Q1374.67 1462.43 1374.67 1459.84 Q1374.67 1457.18 1372.77 1455.77 Q1370.89 1454.33 1367.38 1454.33 Q1365.45 1454.33 1363.26 1454.75 Q1361.06 1455.16 1358.42 1456.04 L1358.42 1451.88 Q1361.08 1451.14 1363.39 1450.77 Q1365.73 1450.39 1367.79 1450.39 Q1373.12 1450.39 1376.22 1452.83 Q1379.32 1455.23 1379.32 1459.35 Q1379.32 1462.22 1377.68 1464.21 Q1376.03 1466.18 1373 1466.95 Z" fill="#000000" fill-rule="nonzero" fill-opacity="1" /><path clip-path="url(#clip370)" d="M1709.27 1455.09 L1697.46 1473.54 L1709.27 1473.54 L1709.27 1455.09 M1708.04 1451.02 L1713.92 1451.02 L1713.92 1473.54 L1718.85 1473.54 L1718.85 1477.43 L1713.92 1477.43 L1713.92 1485.58 L1709.27 1485.58 L1709.27 1477.43 L1693.67 1477.43 L1693.67 1472.92 L1708.04 1451.02 Z" fill="#000000" fill-rule="nonzero" fill-opacity="1" /><path clip-path="url(#clip370)" d="M2034.05 1451.02 L2052.4 1451.02 L2052.4 1454.96 L2038.33 1454.96 L2038.33 1463.43 Q2039.35 1463.08 2040.36 1462.92 Q2041.38 1462.73 2042.4 1462.73 Q2048.19 1462.73 2051.57 1465.9 Q2054.95 1469.08 2054.95 1474.49 Q2054.95 1480.07 2051.48 1483.17 Q2048 1486.25 2041.68 1486.25 Q2039.51 1486.25 2037.24 1485.88 Q2034.99 1485.51 2032.59 1484.77 L2032.59 1480.07 Q2034.67 1481.2 2036.89 1481.76 Q2039.11 1482.32 2041.59 1482.32 Q2045.6 1482.32 2047.93 1480.21 Q2050.27 1478.1 2050.27 1474.49 Q2050.27 1470.88 2047.93 1468.77 Q2045.6 1466.67 2041.59 1466.67 Q2039.72 1466.67 2037.84 1467.08 Q2035.99 1467.5 2034.05 1468.38 L2034.05 1451.02 Z" fill="#000000" fill-rule="nonzero" fill-opacity="1" /><path clip-path="url(#clip370)" d="M1046.83 1522.27 L1046.83 1532.4 L1058.89 1532.4 L1058.89 1536.95 L1046.83 1536.95 L1046.83 1556.3 Q1046.83 1560.66 1048 1561.9 Q1049.21 1563.14 1052.87 1563.14 L1058.89 1563.14 L1058.89 1568.04 L1052.87 1568.04 Q1046.09 1568.04 1043.52 1565.53 Q1040.94 1562.98 1040.94 1556.3 L1040.94 1536.95 L1036.64 1536.95 L1036.64 1532.4 L1040.94 1532.4 L1040.94 1522.27 L1046.83 1522.27 Z" fill="#000000" fill-rule="nonzero" fill-opacity="1" /><path clip-path="url(#clip370)" d="M1066.59 1532.4 L1072.45 1532.4 L1072.45 1568.04 L1066.59 1568.04 L1066.59 1532.4 M1066.59 1518.52 L1072.45 1518.52 L1072.45 1525.93 L1066.59 1525.93 L1066.59 1518.52 Z" fill="#000000" fill-rule="nonzero" fill-opacity="1" /><path clip-path="url(#clip370)" d="M1115.19 1548.76 L1115.19 1551.62 L1088.27 1551.62 Q1088.65 1557.67 1091.89 1560.85 Q1095.17 1564 1101 1564 Q1104.37 1564 1107.52 1563.17 Q1110.71 1562.35 1113.82 1560.69 L1113.82 1566.23 Q1110.67 1567.57 1107.36 1568.27 Q1104.05 1568.97 1100.65 1568.97 Q1092.12 1568.97 1087.12 1564 Q1082.15 1559.04 1082.15 1550.57 Q1082.15 1541.82 1086.87 1536.69 Q1091.61 1531.54 1099.63 1531.54 Q1106.82 1531.54 1110.99 1536.18 Q1115.19 1540.8 1115.19 1548.76 M1109.34 1547.04 Q1109.27 1542.23 1106.63 1539.37 Q1104.02 1536.5 1099.69 1536.5 Q1094.79 1536.5 1091.83 1539.27 Q1088.9 1542.04 1088.46 1547.07 L1109.34 1547.04 Z" fill="#000000" fill-rule="nonzero" fill-opacity="1" /><path clip-path="url(#clip370)" d="M1152.56 1539.24 Q1154.76 1535.29 1157.81 1533.41 Q1160.87 1531.54 1165 1531.54 Q1170.57 1531.54 1173.6 1535.45 Q1176.62 1539.33 1176.62 1546.53 L1176.62 1568.04 L1170.73 1568.04 L1170.73 1546.72 Q1170.73 1541.59 1168.92 1539.11 Q1167.11 1536.63 1163.38 1536.63 Q1158.83 1536.63 1156.19 1539.65 Q1153.55 1542.68 1153.55 1547.9 L1153.55 1568.04 L1147.66 1568.04 L1147.66 1546.72 Q1147.66 1541.56 1145.84 1539.11 Q1144.03 1536.63 1140.24 1536.63 Q1135.75 1536.63 1133.11 1539.68 Q1130.47 1542.71 1130.47 1547.9 L1130.47 1568.04 L1124.58 1568.04 L1124.58 1532.4 L1130.47 1532.4 L1130.47 1537.93 Q1132.48 1534.66 1135.28 1533.1 Q1138.08 1531.54 1141.93 1531.54 Q1145.81 1531.54 1148.52 1533.51 Q1151.25 1535.48 1152.56 1539.24 Z" fill="#000000" fill-rule="nonzero" fill-opacity="1" /><path clip-path="url(#clip370)" d="M1193.97 1562.7 L1193.97 1581.6 L1188.08 1581.6 L1188.08 1532.4 L1193.97 1532.4 L1193.97 1537.81 Q1195.81 1534.62 1198.62 1533.1 Q1201.45 1531.54 1205.36 1531.54 Q1211.86 1531.54 1215.9 1536.69 Q1219.97 1541.85 1219.97 1550.25 Q1219.97 1558.65 1215.9 1563.81 Q1211.86 1568.97 1205.36 1568.97 Q1201.45 1568.97 1198.62 1567.44 Q1195.81 1565.88 1193.97 1562.7 M1213.89 1550.25 Q1213.89 1543.79 1211.22 1540.13 Q1208.58 1536.44 1203.93 1536.44 Q1199.28 1536.44 1196.61 1540.13 Q1193.97 1543.79 1193.97 1550.25 Q1193.97 1556.71 1196.61 1560.4 Q1199.28 1564.07 1203.93 1564.07 Q1208.58 1564.07 1211.22 1560.4 Q1213.89 1556.71 1213.89 1550.25 Z" fill="#000000" fill-rule="nonzero" fill-opacity="1" /><path clip-path="url(#clip370)" d="M1243.49 1536.5 Q1238.78 1536.5 1236.05 1540.19 Q1233.31 1543.85 1233.31 1550.25 Q1233.31 1556.65 1236.01 1560.34 Q1238.75 1564 1243.49 1564 Q1248.17 1564 1250.91 1560.31 Q1253.65 1556.62 1253.65 1550.25 Q1253.65 1543.92 1250.91 1540.23 Q1248.17 1536.5 1243.49 1536.5 M1243.49 1531.54 Q1251.13 1531.54 1255.49 1536.5 Q1259.85 1541.47 1259.85 1550.25 Q1259.85 1559 1255.49 1564 Q1251.13 1568.97 1243.49 1568.97 Q1235.82 1568.97 1231.46 1564 Q1227.13 1559 1227.13 1550.25 Q1227.13 1541.47 1231.46 1536.5 Q1235.82 1531.54 1243.49 1531.54 Z" fill="#000000" fill-rule="nonzero" fill-opacity="1" /><path clip-path="url(#clip370)" d="M1304.35 1518.58 Q1300.08 1525.9 1298.02 1533.06 Q1295.95 1540.23 1295.95 1547.58 Q1295.95 1554.93 1298.02 1562.16 Q1300.12 1569.35 1304.35 1576.64 L1299.26 1576.64 Q1294.48 1569.16 1292.1 1561.93 Q1289.74 1554.71 1289.74 1547.58 Q1289.74 1540.48 1292.1 1533.29 Q1294.45 1526.09 1299.26 1518.58 L1304.35 1518.58 Z" fill="#000000" fill-rule="nonzero" fill-opacity="1" /><path clip-path="url(#clip370)" d="M1338.44 1533.45 L1338.44 1538.98 Q1335.96 1537.71 1333.28 1537.07 Q1330.61 1536.44 1327.74 1536.44 Q1323.38 1536.44 1321.19 1537.77 Q1319.02 1539.11 1319.02 1541.79 Q1319.02 1543.82 1320.58 1545 Q1322.14 1546.15 1326.85 1547.2 L1328.86 1547.64 Q1335.1 1548.98 1337.71 1551.43 Q1340.35 1553.85 1340.35 1558.21 Q1340.35 1563.17 1336.4 1566.07 Q1332.49 1568.97 1325.61 1568.97 Q1322.75 1568.97 1319.63 1568.39 Q1316.54 1567.85 1313.1 1566.74 L1313.1 1560.69 Q1316.35 1562.38 1319.5 1563.24 Q1322.65 1564.07 1325.74 1564.07 Q1329.88 1564.07 1332.1 1562.66 Q1334.33 1561.23 1334.33 1558.65 Q1334.33 1556.27 1332.71 1554.99 Q1331.12 1553.72 1325.67 1552.54 L1323.64 1552.07 Q1318.2 1550.92 1315.78 1548.56 Q1313.36 1546.18 1313.36 1542.04 Q1313.36 1537.01 1316.92 1534.27 Q1320.49 1531.54 1327.04 1531.54 Q1330.29 1531.54 1333.15 1532.01 Q1336.02 1532.49 1338.44 1533.45 Z" fill="#000000" fill-rule="nonzero" fill-opacity="1" /><path clip-path="url(#clip370)" d="M1348.75 1518.58 L1353.84 1518.58 Q1358.62 1526.09 1360.97 1533.29 Q1363.36 1540.48 1363.36 1547.58 Q1363.36 1554.71 1360.97 1561.93 Q1358.62 1569.16 1353.84 1576.64 L1348.75 1576.64 Q1352.98 1569.35 1355.05 1562.16 Q1357.15 1554.93 1357.15 1547.58 Q1357.15 1540.23 1355.05 1533.06 Q1352.98 1525.9 1348.75 1518.58 Z" fill="#000000" fill-rule="nonzero" fill-opacity="1" /><polyline clip-path="url(#clip370)" style="stroke:#000000; stroke-linecap:round; stroke-linejoin:round; stroke-width:4; stroke-opacity:1; fill:none" points="305.607,1423.18 305.607,123.472 "/>
<polyline clip-path="url(#clip370)" style="stroke:#000000; stroke-linecap:round; stroke-linejoin:round; stroke-width:4; stroke-opacity:1; fill:none" points="305.607,1187.04 324.504,1187.04 "/>
<polyline clip-path="url(#clip370)" style="stroke:#000000; stroke-linecap:round; stroke-linejoin:round; stroke-width:4; stroke-opacity:1; fill:none" points="305.607,1083.61 324.504,1083.61 "/>
<polyline clip-path="url(#clip370)" style="stroke:#000000; stroke-linecap:round; stroke-linejoin:round; stroke-width:4; stroke-opacity:1; fill:none" points="305.607,980.186 324.504,980.186 "/>
<polyline clip-path="url(#clip370)" style="stroke:#000000; stroke-linecap:round; stroke-linejoin:round; stroke-width:4; stroke-opacity:1; fill:none" points="305.607,876.758 324.504,876.758 "/>
<polyline clip-path="url(#clip370)" style="stroke:#000000; stroke-linecap:round; stroke-linejoin:round; stroke-width:4; stroke-opacity:1; fill:none" points="305.607,773.33 324.504,773.33 "/>
<polyline clip-path="url(#clip370)" style="stroke:#000000; stroke-linecap:round; stroke-linejoin:round; stroke-width:4; stroke-opacity:1; fill:none" points="305.607,669.902 324.504,669.902 "/>
<polyline clip-path="url(#clip370)" style="stroke:#000000; stroke-linecap:round; stroke-linejoin:round; stroke-width:4; stroke-opacity:1; fill:none" points="305.607,566.474 324.504,566.474 "/>
<polyline clip-path="url(#clip370)" style="stroke:#000000; stroke-linecap:round; stroke-linejoin:round; stroke-width:4; stroke-opacity:1; fill:none" points="305.607,463.046 324.504,463.046 "/>
<polyline clip-path="url(#clip370)" style="stroke:#000000; stroke-linecap:round; stroke-linejoin:round; stroke-width:4; stroke-opacity:1; fill:none" points="305.607,359.618 324.504,359.618 "/>
<path clip-path="url(#clip370)" d="M214.422 1185.81 L226.898 1185.81 L226.898 1189.61 L214.422 1189.61 L214.422 1185.81 Z" fill="#000000" fill-rule="nonzero" fill-opacity="1" /><path clip-path="url(#clip370)" d="M244.097 1174.77 L268.935 1174.77 L268.935 1179.03 L265.671 1179.03 L265.671 1194.95 Q265.671 1196.62 266.227 1197.36 Q266.806 1198.08 268.079 1198.08 Q268.426 1198.08 268.935 1198.03 Q269.445 1197.96 269.607 1197.94 L269.607 1201.02 Q268.796 1201.32 267.94 1201.46 Q267.083 1201.6 266.227 1201.6 Q263.449 1201.6 262.384 1200.09 Q261.32 1198.56 261.32 1194.49 L261.32 1179.03 L251.759 1179.03 L251.759 1200.69 L247.408 1200.69 L247.408 1179.03 L244.097 1179.03 L244.097 1174.77 Z" fill="#000000" fill-rule="nonzero" fill-opacity="1" /><path clip-path="url(#clip370)" d="M114.26 1082.38 L126.737 1082.38 L126.737 1086.18 L114.26 1086.18 L114.26 1082.38 Z" fill="#000000" fill-rule="nonzero" fill-opacity="1" /><path clip-path="url(#clip370)" d="M159.561 1078.63 Q162.917 1079.35 164.792 1081.62 Q166.69 1083.89 166.69 1087.22 Q166.69 1092.34 163.172 1095.14 Q159.653 1097.94 153.172 1097.94 Q150.996 1097.94 148.681 1097.5 Q146.39 1097.08 143.936 1096.22 L143.936 1091.71 Q145.88 1092.84 148.195 1093.42 Q150.51 1094 153.033 1094 Q157.431 1094 159.723 1092.27 Q162.038 1090.53 162.038 1087.22 Q162.038 1084.16 159.885 1082.45 Q157.755 1080.71 153.936 1080.71 L149.908 1080.71 L149.908 1076.87 L154.121 1076.87 Q157.57 1076.87 159.399 1075.51 Q161.227 1074.12 161.227 1071.53 Q161.227 1068.86 159.329 1067.45 Q157.454 1066.02 153.936 1066.02 Q152.015 1066.02 149.816 1066.43 Q147.616 1066.85 144.978 1067.73 L144.978 1063.56 Q147.64 1062.82 149.954 1062.45 Q152.292 1062.08 154.353 1062.08 Q159.677 1062.08 162.778 1064.51 Q165.88 1066.92 165.88 1071.04 Q165.88 1073.91 164.237 1075.9 Q162.593 1077.87 159.561 1078.63 Z" fill="#000000" fill-rule="nonzero" fill-opacity="1" /><path clip-path="url(#clip370)" d="M185.556 1071.34 L210.394 1071.34 L210.394 1075.6 L207.13 1075.6 L207.13 1091.52 Q207.13 1093.19 207.686 1093.93 Q208.264 1094.65 209.537 1094.65 Q209.885 1094.65 210.394 1094.6 Q210.903 1094.53 211.065 1094.51 L211.065 1097.59 Q210.255 1097.89 209.399 1098.03 Q208.542 1098.17 207.686 1098.17 Q204.908 1098.17 203.843 1096.66 Q202.778 1095.14 202.778 1091.06 L202.778 1075.6 L193.218 1075.6 L193.218 1097.27 L188.866 1097.27 L188.866 1075.6 L185.556 1075.6 L185.556 1071.34 Z" fill="#000000" fill-rule="nonzero" fill-opacity="1" /><path clip-path="url(#clip370)" d="M238.172 1062.71 L242.107 1062.71 L230.07 1101.66 L226.135 1101.66 L238.172 1062.71 Z" fill="#000000" fill-rule="nonzero" fill-opacity="1" /><path clip-path="url(#clip370)" d="M260.023 1066.78 L248.218 1085.23 L260.023 1085.23 L260.023 1066.78 M258.796 1062.71 L264.676 1062.71 L264.676 1085.23 L269.607 1085.23 L269.607 1089.12 L264.676 1089.12 L264.676 1097.27 L260.023 1097.27 L260.023 1089.12 L244.421 1089.12 L244.421 1084.6 L258.796 1062.71 Z" fill="#000000" fill-rule="nonzero" fill-opacity="1" /><path clip-path="url(#clip370)" d="M157.964 978.953 L170.44 978.953 L170.44 982.75 L157.964 982.75 L157.964 978.953 Z" fill="#000000" fill-rule="nonzero" fill-opacity="1" /><path clip-path="url(#clip370)" d="M187.639 967.912 L212.477 967.912 L212.477 972.171 L209.213 972.171 L209.213 988.097 Q209.213 989.763 209.769 990.504 Q210.348 991.222 211.621 991.222 Q211.968 991.222 212.477 991.176 Q212.986 991.106 213.149 991.083 L213.149 994.162 Q212.338 994.463 211.482 994.601 Q210.625 994.74 209.769 994.74 Q206.991 994.74 205.926 993.236 Q204.862 991.708 204.862 987.634 L204.862 972.171 L195.301 972.171 L195.301 993.838 L190.95 993.838 L190.95 972.171 L187.639 972.171 L187.639 967.912 Z" fill="#000000" fill-rule="nonzero" fill-opacity="1" /><path clip-path="url(#clip370)" d="M240.255 959.278 L244.19 959.278 L232.153 998.236 L228.218 998.236 L240.255 959.278 Z" fill="#000000" fill-rule="nonzero" fill-opacity="1" /><path clip-path="url(#clip370)" d="M253.287 989.902 L269.607 989.902 L269.607 993.838 L247.662 993.838 L247.662 989.902 Q250.324 987.148 254.908 982.518 Q259.514 977.865 260.695 976.523 Q262.94 974 263.82 972.264 Q264.722 970.504 264.722 968.815 Q264.722 966.06 262.778 964.324 Q260.857 962.588 257.755 962.588 Q255.556 962.588 253.102 963.352 Q250.671 964.115 247.894 965.666 L247.894 960.944 Q250.718 959.81 253.171 959.231 Q255.625 958.653 257.662 958.653 Q263.033 958.653 266.227 961.338 Q269.421 964.023 269.421 968.514 Q269.421 970.643 268.611 972.564 Q267.824 974.463 265.718 977.055 Q265.139 977.727 262.037 980.944 Q258.935 984.139 253.287 989.902 Z" fill="#000000" fill-rule="nonzero" fill-opacity="1" /><path clip-path="url(#clip370)" d="M155.88 875.525 L168.357 875.525 L168.357 879.322 L155.88 879.322 L155.88 875.525 Z" fill="#000000" fill-rule="nonzero" fill-opacity="1" /><path clip-path="url(#clip370)" d="M185.556 864.484 L210.394 864.484 L210.394 868.743 L207.13 868.743 L207.13 884.669 Q207.13 886.335 207.686 887.076 Q208.264 887.794 209.537 887.794 Q209.885 887.794 210.394 887.747 Q210.903 887.678 211.065 887.655 L211.065 890.733 Q210.255 891.034 209.399 891.173 Q208.542 891.312 207.686 891.312 Q204.908 891.312 203.843 889.808 Q202.778 888.28 202.778 884.206 L202.778 868.743 L193.218 868.743 L193.218 890.409 L188.866 890.409 L188.866 868.743 L185.556 868.743 L185.556 864.484 Z" fill="#000000" fill-rule="nonzero" fill-opacity="1" /><path clip-path="url(#clip370)" d="M238.172 855.849 L242.107 855.849 L230.07 894.808 L226.135 894.808 L238.172 855.849 Z" fill="#000000" fill-rule="nonzero" fill-opacity="1" /><path clip-path="url(#clip370)" d="M260.023 859.923 L248.218 878.372 L260.023 878.372 L260.023 859.923 M258.796 855.849 L264.676 855.849 L264.676 878.372 L269.607 878.372 L269.607 882.261 L264.676 882.261 L264.676 890.409 L260.023 890.409 L260.023 882.261 L244.421 882.261 L244.421 877.747 L258.796 855.849 Z" fill="#000000" fill-rule="nonzero" fill-opacity="1" /><path clip-path="url(#clip370)" d="M257.662 759.129 Q254.051 759.129 252.222 762.694 Q250.417 766.235 250.417 773.365 Q250.417 780.471 252.222 784.036 Q254.051 787.578 257.662 787.578 Q261.296 787.578 263.102 784.036 Q264.931 780.471 264.931 773.365 Q264.931 766.235 263.102 762.694 Q261.296 759.129 257.662 759.129 M257.662 755.425 Q263.472 755.425 266.528 760.032 Q269.607 764.615 269.607 773.365 Q269.607 782.092 266.528 786.698 Q263.472 791.281 257.662 791.281 Q251.852 791.281 248.773 786.698 Q245.718 782.092 245.718 773.365 Q245.718 764.615 248.773 760.032 Q251.852 755.425 257.662 755.425 Z" fill="#000000" fill-rule="nonzero" fill-opacity="1" /><path clip-path="url(#clip370)" d="M185.556 657.627 L210.394 657.627 L210.394 661.887 L207.13 661.887 L207.13 677.812 Q207.13 679.479 207.686 680.22 Q208.264 680.937 209.537 680.937 Q209.885 680.937 210.394 680.891 Q210.903 680.822 211.065 680.799 L211.065 683.877 Q210.255 684.178 209.399 684.317 Q208.542 684.456 207.686 684.456 Q204.908 684.456 203.843 682.951 Q202.778 681.424 202.778 677.35 L202.778 661.887 L193.218 661.887 L193.218 683.553 L188.866 683.553 L188.866 661.887 L185.556 661.887 L185.556 657.627 Z" fill="#000000" fill-rule="nonzero" fill-opacity="1" /><path clip-path="url(#clip370)" d="M238.172 648.993 L242.107 648.993 L230.07 687.951 L226.135 687.951 L238.172 648.993 Z" fill="#000000" fill-rule="nonzero" fill-opacity="1" /><path clip-path="url(#clip370)" d="M260.023 653.067 L248.218 671.516 L260.023 671.516 L260.023 653.067 M258.796 648.993 L264.676 648.993 L264.676 671.516 L269.607 671.516 L269.607 675.405 L264.676 675.405 L264.676 683.553 L260.023 683.553 L260.023 675.405 L244.421 675.405 L244.421 670.891 L258.796 648.993 Z" fill="#000000" fill-rule="nonzero" fill-opacity="1" /><path clip-path="url(#clip370)" d="M187.639 554.199 L212.477 554.199 L212.477 558.459 L209.213 558.459 L209.213 574.384 Q209.213 576.051 209.769 576.792 Q210.348 577.509 211.621 577.509 Q211.968 577.509 212.477 577.463 Q212.986 577.394 213.149 577.37 L213.149 580.449 Q212.338 580.75 211.482 580.889 Q210.625 581.028 209.769 581.028 Q206.991 581.028 205.926 579.523 Q204.862 577.995 204.862 573.921 L204.862 558.459 L195.301 558.459 L195.301 580.125 L190.95 580.125 L190.95 558.459 L187.639 558.459 L187.639 554.199 Z" fill="#000000" fill-rule="nonzero" fill-opacity="1" /><path clip-path="url(#clip370)" d="M240.255 545.565 L244.19 545.565 L232.153 584.523 L228.218 584.523 L240.255 545.565 Z" fill="#000000" fill-rule="nonzero" fill-opacity="1" /><path clip-path="url(#clip370)" d="M253.287 576.19 L269.607 576.19 L269.607 580.125 L247.662 580.125 L247.662 576.19 Q250.324 573.435 254.908 568.806 Q259.514 564.153 260.695 562.81 Q262.94 560.287 263.82 558.551 Q264.722 556.792 264.722 555.102 Q264.722 552.347 262.778 550.611 Q260.857 548.875 257.755 548.875 Q255.556 548.875 253.102 549.639 Q250.671 550.403 247.894 551.954 L247.894 547.232 Q250.718 546.097 253.171 545.519 Q255.625 544.94 257.662 544.94 Q263.033 544.94 266.227 547.625 Q269.421 550.31 269.421 554.801 Q269.421 556.931 268.611 558.852 Q267.824 560.75 265.718 563.343 Q265.139 564.014 262.037 567.232 Q258.935 570.426 253.287 576.19 Z" fill="#000000" fill-rule="nonzero" fill-opacity="1" /><path clip-path="url(#clip370)" d="M159.561 458.063 Q162.917 458.78 164.792 461.049 Q166.69 463.317 166.69 466.651 Q166.69 471.766 163.172 474.567 Q159.653 477.368 153.172 477.368 Q150.996 477.368 148.681 476.928 Q146.39 476.512 143.936 475.655 L143.936 471.141 Q145.88 472.276 148.195 472.854 Q150.51 473.433 153.033 473.433 Q157.431 473.433 159.723 471.697 Q162.038 469.961 162.038 466.651 Q162.038 463.595 159.885 461.882 Q157.755 460.146 153.936 460.146 L149.908 460.146 L149.908 456.304 L154.121 456.304 Q157.57 456.304 159.399 454.938 Q161.227 453.549 161.227 450.956 Q161.227 448.294 159.329 446.882 Q157.454 445.447 153.936 445.447 Q152.015 445.447 149.816 445.864 Q147.616 446.28 144.978 447.16 L144.978 442.993 Q147.64 442.253 149.954 441.882 Q152.292 441.512 154.353 441.512 Q159.677 441.512 162.778 443.943 Q165.88 446.35 165.88 450.47 Q165.88 453.341 164.237 455.331 Q162.593 457.299 159.561 458.063 Z" fill="#000000" fill-rule="nonzero" fill-opacity="1" /><path clip-path="url(#clip370)" d="M185.556 450.771 L210.394 450.771 L210.394 455.03 L207.13 455.03 L207.13 470.956 Q207.13 472.623 207.686 473.364 Q208.264 474.081 209.537 474.081 Q209.885 474.081 210.394 474.035 Q210.903 473.966 211.065 473.942 L211.065 477.021 Q210.255 477.322 209.399 477.461 Q208.542 477.6 207.686 477.6 Q204.908 477.6 203.843 476.095 Q202.778 474.567 202.778 470.493 L202.778 455.03 L193.218 455.03 L193.218 476.697 L188.866 476.697 L188.866 455.03 L185.556 455.03 L185.556 450.771 Z" fill="#000000" fill-rule="nonzero" fill-opacity="1" /><path clip-path="url(#clip370)" d="M238.172 442.137 L242.107 442.137 L230.07 481.095 L226.135 481.095 L238.172 442.137 Z" fill="#000000" fill-rule="nonzero" fill-opacity="1" /><path clip-path="url(#clip370)" d="M260.023 446.211 L248.218 464.66 L260.023 464.66 L260.023 446.211 M258.796 442.137 L264.676 442.137 L264.676 464.66 L269.607 464.66 L269.607 468.549 L264.676 468.549 L264.676 476.697 L260.023 476.697 L260.023 468.549 L244.421 468.549 L244.421 464.035 L258.796 442.137 Z" fill="#000000" fill-rule="nonzero" fill-opacity="1" /><path clip-path="url(#clip370)" d="M244.097 347.343 L268.935 347.343 L268.935 351.602 L265.671 351.602 L265.671 367.528 Q265.671 369.195 266.227 369.936 Q266.806 370.653 268.079 370.653 Q268.426 370.653 268.935 370.607 Q269.445 370.537 269.607 370.514 L269.607 373.593 Q268.796 373.894 267.94 374.033 Q267.083 374.172 266.227 374.172 Q263.449 374.172 262.384 372.667 Q261.32 371.139 261.32 367.065 L261.32 351.602 L251.759 351.602 L251.759 373.269 L247.408 373.269 L247.408 351.602 L244.097 351.602 L244.097 347.343 Z" fill="#000000" fill-rule="nonzero" fill-opacity="1" /><path clip-path="url(#clip370)" d="M46.0847 981.262 Q46.0847 988.36 47.7079 991.097 Q49.3312 993.834 53.2461 993.834 Q56.3653 993.834 58.2114 991.797 Q60.0256 989.728 60.0256 986.195 Q60.0256 981.325 56.5881 978.397 Q53.1188 975.437 47.3897 975.437 L46.0847 975.437 L46.0847 981.262 M43.6657 969.581 L64.0042 969.581 L64.0042 975.437 L58.5933 975.437 Q61.8398 977.442 63.3994 980.434 Q64.9272 983.426 64.9272 987.755 Q64.9272 993.229 61.8716 996.476 Q58.7843 999.691 53.6281 999.691 Q47.6125 999.691 44.5569 995.68 Q41.5014 991.638 41.5014 983.649 L41.5014 975.437 L40.9285 975.437 Q36.8862 975.437 34.6901 978.111 Q32.4621 980.753 32.4621 985.559 Q32.4621 988.614 33.1941 991.511 Q33.9262 994.407 35.3903 997.081 L29.9795 997.081 Q28.7381 993.866 28.1334 990.842 Q27.4968 987.818 27.4968 984.954 Q27.4968 977.22 31.5072 973.4 Q35.5176 969.581 43.6657 969.581 M11.869 980.275 L11.869 973.941 L23.8365 984.317 L23.8365 989.187 L11.869 980.275 Z" fill="#0000ff" fill-rule="nonzero" fill-opacity="1" /><path clip-path="url(#clip370)" d="M42.4881 927.885 L64.0042 927.885 L64.0042 933.742 L42.679 933.742 Q37.6183 933.742 35.1038 935.715 Q32.5894 937.689 32.5894 941.635 Q32.5894 946.378 35.6131 949.115 Q38.6368 951.852 43.8567 951.852 L64.0042 951.852 L64.0042 957.741 L28.3562 957.741 L28.3562 951.852 L33.8944 951.852 Q30.6797 949.752 29.0883 946.919 Q27.4968 944.054 27.4968 940.33 Q27.4968 934.187 31.3163 931.036 Q35.1038 927.885 42.4881 927.885 Z" fill="#0000ff" fill-rule="nonzero" fill-opacity="1" /><path clip-path="url(#clip370)" d="M45.7664 892.747 Q39.4007 892.747 35.8996 895.388 Q32.3984 897.998 32.3984 902.741 Q32.3984 907.451 35.8996 910.093 Q39.4007 912.703 45.7664 912.703 Q52.1003 912.703 55.6014 910.093 Q59.1026 907.451 59.1026 902.741 Q59.1026 897.998 55.6014 895.388 Q52.1003 892.747 45.7664 892.747 M59.58 886.89 Q68.683 886.89 73.1071 890.932 Q77.5631 894.975 77.5631 903.314 Q77.5631 906.401 77.0857 909.138 Q76.6401 911.876 75.6852 914.454 L69.9879 914.454 Q71.3884 911.876 72.0568 909.361 Q72.7252 906.847 72.7252 904.237 Q72.7252 898.476 69.7015 895.611 Q66.7096 892.747 60.6303 892.747 L57.7339 892.747 Q60.885 894.561 62.4446 897.394 Q64.0042 900.226 64.0042 904.173 Q64.0042 910.73 59.0071 914.74 Q54.01 918.751 45.7664 918.751 Q37.491 918.751 32.4939 914.74 Q27.4968 910.73 27.4968 904.173 Q27.4968 900.226 29.0564 897.394 Q30.616 894.561 33.7671 892.747 L28.3562 892.747 L28.3562 886.89 L59.58 886.89 Z" fill="#0000ff" fill-rule="nonzero" fill-opacity="1" /><path clip-path="url(#clip370)" d="M49.9359 875.432 L28.3562 875.432 L28.3562 869.575 L49.7131 869.575 Q54.7739 869.575 57.3202 867.602 Q59.8346 865.629 59.8346 861.682 Q59.8346 856.94 56.8109 854.202 Q53.7872 851.433 48.5673 851.433 L28.3562 851.433 L28.3562 845.577 L64.0042 845.577 L64.0042 851.433 L58.5296 851.433 Q61.7762 853.566 63.3676 856.398 Q64.9272 859.199 64.9272 862.923 Q64.9272 869.066 61.1078 872.249 Q57.2883 875.432 49.9359 875.432 M27.4968 860.695 L27.4968 860.695 Z" fill="#0000ff" fill-rule="nonzero" fill-opacity="1" /><path clip-path="url(#clip370)" d="M14.479 833.514 L14.479 827.657 L64.0042 827.657 L64.0042 833.514 L14.479 833.514 Z" fill="#0000ff" fill-rule="nonzero" fill-opacity="1" /><path clip-path="url(#clip370)" d="M32.4621 801.59 Q32.4621 806.3 36.1542 809.038 Q39.8145 811.775 46.212 811.775 Q52.6095 811.775 56.3017 809.069 Q59.9619 806.332 59.9619 801.59 Q59.9619 796.911 56.2698 794.174 Q52.5777 791.436 46.212 791.436 Q39.8781 791.436 36.186 794.174 Q32.4621 796.911 32.4621 801.59 M27.4968 801.59 Q27.4968 793.951 32.4621 789.59 Q37.4273 785.23 46.212 785.23 Q54.9649 785.23 59.9619 789.59 Q64.9272 793.951 64.9272 801.59 Q64.9272 809.26 59.9619 813.621 Q54.9649 817.95 46.212 817.95 Q37.4273 817.95 32.4621 813.621 Q27.4968 809.26 27.4968 801.59 Z" fill="#0000ff" fill-rule="nonzero" fill-opacity="1" /><path clip-path="url(#clip370)" d="M41.4059 730.867 L41.4059 751.141 Q50.9226 750.664 54.9649 748.468 Q59.9301 745.731 59.9301 740.988 Q59.9301 736.214 54.933 733.572 Q50.5407 731.249 41.4059 730.867 M35.995 730.962 Q26.9557 731.853 23.7729 733.572 Q18.744 736.309 18.744 740.988 Q18.744 745.858 23.7092 748.436 Q27.7196 750.473 35.995 751.078 L35.995 730.962 M13.9697 740.988 Q13.9697 733.349 20.7174 728.989 Q27.4332 724.628 39.337 724.628 Q51.2091 724.628 57.9567 728.989 Q64.7362 733.349 64.7362 740.988 Q64.7362 748.659 57.9567 752.988 Q51.2091 757.348 39.337 757.348 Q27.4332 757.348 20.7174 752.988 Q13.9697 748.659 13.9697 740.988 Z" fill="#0000ff" fill-rule="nonzero" fill-opacity="1" /><path clip-path="url(#clip370)" d="M14.5426 680.132 Q21.8632 684.397 29.0246 686.466 Q36.186 688.535 43.5384 688.535 Q50.8908 688.535 58.1159 686.466 Q65.3091 684.365 72.5979 680.132 L72.5979 685.225 Q65.1182 689.999 57.8931 692.386 Q50.668 694.741 43.5384 694.741 Q36.4406 694.741 29.2474 692.386 Q22.0542 690.031 14.5426 685.225 L14.5426 680.132 Z" fill="#0000ff" fill-rule="nonzero" fill-opacity="1" /><path clip-path="url(#clip370)" d="M33.8307 648.113 Q33.2578 649.099 33.0032 650.277 Q32.7167 651.423 32.7167 652.823 Q32.7167 657.788 35.9632 660.462 Q39.1779 663.104 45.2253 663.104 L64.0042 663.104 L64.0042 668.992 L28.3562 668.992 L28.3562 663.104 L33.8944 663.104 Q30.6479 661.258 29.0883 658.298 Q27.4968 655.338 27.4968 651.104 Q27.4968 650.5 27.5923 649.768 Q27.656 649.036 27.8151 648.144 L33.8307 648.113 Z" fill="#0000ff" fill-rule="nonzero" fill-opacity="1" /><path clip-path="url(#clip370)" d="M46.0847 625.769 Q46.0847 632.867 47.7079 635.604 Q49.3312 638.341 53.2461 638.341 Q56.3653 638.341 58.2114 636.304 Q60.0256 634.235 60.0256 630.702 Q60.0256 625.833 56.5881 622.904 Q53.1188 619.944 47.3897 619.944 L46.0847 619.944 L46.0847 625.769 M43.6657 614.088 L64.0042 614.088 L64.0042 619.944 L58.5933 619.944 Q61.8398 621.949 63.3994 624.941 Q64.9272 627.933 64.9272 632.262 Q64.9272 637.736 61.8716 640.983 Q58.7843 644.198 53.6281 644.198 Q47.6125 644.198 44.5569 640.187 Q41.5014 636.145 41.5014 628.156 L41.5014 619.944 L40.9285 619.944 Q36.8862 619.944 34.6901 622.618 Q32.4621 625.26 32.4621 630.066 Q32.4621 633.121 33.1941 636.018 Q33.9262 638.914 35.3903 641.588 L29.9795 641.588 Q28.7381 638.373 28.1334 635.349 Q27.4968 632.326 27.4968 629.461 Q27.4968 621.727 31.5072 617.907 Q35.5176 614.088 43.6657 614.088 Z" fill="#0000ff" fill-rule="nonzero" fill-opacity="1" /><path clip-path="url(#clip370)" d="M33.7671 578.567 L14.479 578.567 L14.479 572.711 L64.0042 572.711 L64.0042 578.567 L58.657 578.567 Q61.8398 580.413 63.3994 583.246 Q64.9272 586.047 64.9272 589.994 Q64.9272 596.455 59.771 600.529 Q54.6147 604.571 46.212 604.571 Q37.8093 604.571 32.6531 600.529 Q27.4968 596.455 27.4968 589.994 Q27.4968 586.047 29.0564 583.246 Q30.5842 580.413 33.7671 578.567 M46.212 598.524 Q52.6732 598.524 56.3653 595.882 Q60.0256 593.208 60.0256 588.561 Q60.0256 583.914 56.3653 581.241 Q52.6732 578.567 46.212 578.567 Q39.7508 578.567 36.0905 581.241 Q32.3984 583.914 32.3984 588.561 Q32.3984 593.208 36.0905 595.882 Q39.7508 598.524 46.212 598.524 Z" fill="#0000ff" fill-rule="nonzero" fill-opacity="1" /><path clip-path="url(#clip370)" d="M14.5426 561.571 L14.5426 556.478 Q22.0542 551.704 29.2474 549.349 Q36.4406 546.961 43.5384 546.961 Q50.668 546.961 57.8931 549.349 Q65.1182 551.704 72.5979 556.478 L72.5979 561.571 Q65.3091 557.338 58.1159 555.269 Q50.8908 553.168 43.5384 553.168 Q36.186 553.168 29.0246 555.269 Q21.8632 557.338 14.5426 561.571 Z" fill="#0000ff" fill-rule="nonzero" fill-opacity="1" /><path clip-path="url(#clip370)" d="M620.802 63.9476 L620.802 47.7034 L607.434 47.7034 L607.434 40.9789 L628.904 40.9789 L628.904 66.9452 Q624.164 70.3075 618.452 72.0494 Q612.74 73.7508 606.259 73.7508 Q592.081 73.7508 584.06 65.4869 Q576.08 57.1826 576.08 42.3968 Q576.08 27.5705 584.06 19.3066 Q592.081 11.0023 606.259 11.0023 Q612.173 11.0023 617.48 12.4606 Q622.827 13.9189 627.324 16.7545 L627.324 25.464 Q622.787 21.6156 617.683 19.6712 Q612.578 17.7268 606.948 17.7268 Q595.848 17.7268 590.258 23.9246 Q584.708 30.1225 584.708 42.3968 Q584.708 54.6305 590.258 60.8284 Q595.848 67.0263 606.948 67.0263 Q611.282 67.0263 614.685 66.2971 Q618.088 65.5274 620.802 63.9476 Z" fill="#000000" fill-rule="nonzero" fill-opacity="1" /><path clip-path="url(#clip370)" d="M669.818 34.1734 Q668.562 33.4443 667.063 33.1202 Q665.605 32.7556 663.822 32.7556 Q657.503 32.7556 654.1 36.8875 Q650.738 40.9789 650.738 48.6757 L650.738 72.576 L643.244 72.576 L643.244 27.2059 L650.738 27.2059 L650.738 34.2544 Q653.087 30.1225 656.855 28.1376 Q660.622 26.1121 666.01 26.1121 Q666.779 26.1121 667.711 26.2337 Q668.643 26.3147 669.777 26.5172 L669.818 34.1734 Z" fill="#000000" fill-rule="nonzero" fill-opacity="1" /><path clip-path="url(#clip370)" d="M698.255 49.7694 Q689.221 49.7694 685.738 51.8354 Q682.254 53.9013 682.254 58.8839 Q682.254 62.8538 684.847 65.2034 Q687.48 67.5124 691.976 67.5124 Q698.174 67.5124 701.901 63.1374 Q705.668 58.7219 705.668 51.4303 L705.668 49.7694 L698.255 49.7694 M713.122 46.6907 L713.122 72.576 L705.668 72.576 L705.668 65.6895 Q703.116 69.8214 699.308 71.8063 Q695.5 73.7508 689.991 73.7508 Q683.024 73.7508 678.892 69.8619 Q674.8 65.9325 674.8 59.3701 Q674.8 51.7138 679.904 47.825 Q685.049 43.9361 695.217 43.9361 L705.668 43.9361 L705.668 43.2069 Q705.668 38.0623 702.265 35.2672 Q698.903 32.4315 692.786 32.4315 Q688.897 32.4315 685.211 33.3632 Q681.525 34.295 678.122 36.1584 L678.122 29.2718 Q682.213 27.692 686.062 26.9223 Q689.91 26.1121 693.556 26.1121 Q703.4 26.1121 708.261 31.2163 Q713.122 36.3204 713.122 46.6907 M699.511 6.22219 L707.572 6.22219 L694.366 21.4536 L688.168 21.4536 L699.511 6.22219 Z" fill="#000000" fill-rule="nonzero" fill-opacity="1" /><path clip-path="url(#clip370)" d="M751.443 9.54393 L751.443 15.7418 L744.314 15.7418 Q740.303 15.7418 738.724 17.3622 Q737.184 18.9825 737.184 23.1955 L737.184 27.2059 L749.458 27.2059 L749.458 32.9987 L737.184 32.9987 L737.184 72.576 L729.69 72.576 L729.69 32.9987 L722.56 32.9987 L722.56 27.2059 L729.69 27.2059 L729.69 24.0462 Q729.69 16.471 733.214 13.0277 Q736.739 9.54393 744.395 9.54393 L751.443 9.54393 Z" fill="#000000" fill-rule="nonzero" fill-opacity="1" /><path clip-path="url(#clip370)" d="M757.682 27.2059 L765.135 27.2059 L765.135 72.576 L757.682 72.576 L757.682 27.2059 M757.682 9.54393 L765.135 9.54393 L765.135 18.9825 L757.682 18.9825 L757.682 9.54393 Z" fill="#000000" fill-rule="nonzero" fill-opacity="1" /><path clip-path="url(#clip370)" d="M813.382 28.9478 L813.382 35.9153 Q810.222 34.1734 807.022 33.3227 Q803.862 32.4315 800.621 32.4315 Q793.37 32.4315 789.36 37.0496 Q785.349 41.6271 785.349 49.9314 Q785.349 58.2358 789.36 62.8538 Q793.37 67.4314 800.621 67.4314 Q803.862 67.4314 807.022 66.5807 Q810.222 65.6895 813.382 63.9476 L813.382 70.8341 Q810.263 72.2924 806.9 73.0216 Q803.579 73.7508 799.811 73.7508 Q789.562 73.7508 783.527 67.3098 Q777.491 60.8689 777.491 49.9314 Q777.491 38.832 783.567 32.472 Q789.684 26.1121 800.297 26.1121 Q803.741 26.1121 807.022 26.8413 Q810.303 27.5299 813.382 28.9478 Z" fill="#000000" fill-rule="nonzero" fill-opacity="1" /><path clip-path="url(#clip370)" d="M846.964 49.7694 Q837.93 49.7694 834.446 51.8354 Q830.963 53.9013 830.963 58.8839 Q830.963 62.8538 833.555 65.2034 Q836.188 67.5124 840.685 67.5124 Q846.883 67.5124 850.61 63.1374 Q854.377 58.7219 854.377 51.4303 L854.377 49.7694 L846.964 49.7694 M861.831 46.6907 L861.831 72.576 L854.377 72.576 L854.377 65.6895 Q851.825 69.8214 848.017 71.8063 Q844.209 73.7508 838.7 73.7508 Q831.732 73.7508 827.6 69.8619 Q823.509 65.9325 823.509 59.3701 Q823.509 51.7138 828.613 47.825 Q833.758 43.9361 843.926 43.9361 L854.377 43.9361 L854.377 43.2069 Q854.377 38.0623 850.974 35.2672 Q847.612 32.4315 841.495 32.4315 Q837.606 32.4315 833.92 33.3632 Q830.233 34.295 826.831 36.1584 L826.831 29.2718 Q830.922 27.692 834.77 26.9223 Q838.619 26.1121 842.265 26.1121 Q852.108 26.1121 856.969 31.2163 Q861.831 36.3204 861.831 46.6907 Z" fill="#000000" fill-rule="nonzero" fill-opacity="1" /><path clip-path="url(#clip370)" d="M936.205 28.9478 L936.205 35.9153 Q933.045 34.1734 929.845 33.3227 Q926.685 32.4315 923.445 32.4315 Q916.194 32.4315 912.183 37.0496 Q908.173 41.6271 908.173 49.9314 Q908.173 58.2358 912.183 62.8538 Q916.194 67.4314 923.445 67.4314 Q926.685 67.4314 929.845 66.5807 Q933.045 65.6895 936.205 63.9476 L936.205 70.8341 Q933.086 72.2924 929.724 73.0216 Q926.402 73.7508 922.635 73.7508 Q912.386 73.7508 906.35 67.3098 Q900.314 60.8689 900.314 49.9314 Q900.314 38.832 906.39 32.472 Q912.507 26.1121 923.121 26.1121 Q926.564 26.1121 929.845 26.8413 Q933.126 27.5299 936.205 28.9478 Z" fill="#000000" fill-rule="nonzero" fill-opacity="1" /><path clip-path="url(#clip370)" d="M966.749 32.4315 Q960.754 32.4315 957.27 37.1306 Q953.786 41.7891 953.786 49.9314 Q953.786 58.0738 957.229 62.7728 Q960.713 67.4314 966.749 67.4314 Q972.704 67.4314 976.188 62.7323 Q979.671 58.0333 979.671 49.9314 Q979.671 41.8701 976.188 37.1711 Q972.704 32.4315 966.749 32.4315 M966.749 26.1121 Q976.471 26.1121 982.021 32.4315 Q987.571 38.7509 987.571 49.9314 Q987.571 61.0714 982.021 67.4314 Q976.471 73.7508 966.749 73.7508 Q956.986 73.7508 951.437 67.4314 Q945.927 61.0714 945.927 49.9314 Q945.927 38.7509 951.437 32.4315 Q956.986 26.1121 966.749 26.1121 Z" fill="#000000" fill-rule="nonzero" fill-opacity="1" /><path clip-path="url(#clip370)" d="M1035.25 35.9153 Q1038.04 30.8922 1041.93 28.5022 Q1045.82 26.1121 1051.09 26.1121 Q1058.18 26.1121 1062.03 31.0947 Q1065.87 36.0368 1065.87 45.1919 L1065.87 72.576 L1058.38 72.576 L1058.38 45.4349 Q1058.38 38.913 1056.07 35.7533 Q1053.76 32.5936 1049.02 32.5936 Q1043.23 32.5936 1039.87 36.4419 Q1036.51 40.2903 1036.51 46.9338 L1036.51 72.576 L1029.01 72.576 L1029.01 45.4349 Q1029.01 38.8725 1026.7 35.7533 Q1024.39 32.5936 1019.57 32.5936 Q1013.86 32.5936 1010.5 36.4824 Q1007.14 40.3308 1007.14 46.9338 L1007.14 72.576 L999.642 72.576 L999.642 27.2059 L1007.14 27.2059 L1007.14 34.2544 Q1009.69 30.082 1013.25 28.0971 Q1016.82 26.1121 1021.72 26.1121 Q1026.66 26.1121 1030.11 28.6237 Q1033.59 31.1352 1035.25 35.9153 Z" fill="#000000" fill-rule="nonzero" fill-opacity="1" /><path clip-path="url(#clip370)" d="M1113.31 49.9314 Q1113.31 41.7081 1109.91 37.0496 Q1106.55 32.3505 1100.63 32.3505 Q1094.72 32.3505 1091.31 37.0496 Q1087.95 41.7081 1087.95 49.9314 Q1087.95 58.1548 1091.31 62.8538 Q1094.72 67.5124 1100.63 67.5124 Q1106.55 67.5124 1109.91 62.8538 Q1113.31 58.1548 1113.31 49.9314 M1087.95 34.0924 Q1090.3 30.0415 1093.87 28.0971 Q1097.47 26.1121 1102.45 26.1121 Q1110.72 26.1121 1115.86 32.6746 Q1121.05 39.2371 1121.05 49.9314 Q1121.05 60.6258 1115.86 67.1883 Q1110.72 73.7508 1102.45 73.7508 Q1097.47 73.7508 1093.87 71.8063 Q1090.3 69.8214 1087.95 65.7705 L1087.95 72.576 L1080.46 72.576 L1080.46 9.54393 L1087.95 9.54393 L1087.95 34.0924 Z" fill="#000000" fill-rule="nonzero" fill-opacity="1" /><path clip-path="url(#clip370)" d="M1133.4 27.2059 L1140.86 27.2059 L1140.86 72.576 L1133.4 72.576 L1133.4 27.2059 M1133.4 9.54393 L1140.86 9.54393 L1140.86 18.9825 L1133.4 18.9825 L1133.4 9.54393 Z" fill="#000000" fill-rule="nonzero" fill-opacity="1" /><path clip-path="url(#clip370)" d="M1194.17 45.1919 L1194.17 72.576 L1186.71 72.576 L1186.71 45.4349 Q1186.71 38.994 1184.2 35.7938 Q1181.69 32.5936 1176.67 32.5936 Q1170.63 32.5936 1167.15 36.4419 Q1163.66 40.2903 1163.66 46.9338 L1163.66 72.576 L1156.17 72.576 L1156.17 27.2059 L1163.66 27.2059 L1163.66 34.2544 Q1166.34 30.163 1169.94 28.1376 Q1173.59 26.1121 1178.33 26.1121 Q1186.15 26.1121 1190.16 30.9732 Q1194.17 35.7938 1194.17 45.1919 Z" fill="#000000" fill-rule="nonzero" fill-opacity="1" /><path clip-path="url(#clip370)" d="M1229.65 49.7694 Q1220.62 49.7694 1217.14 51.8354 Q1213.65 53.9013 1213.65 58.8839 Q1213.65 62.8538 1216.24 65.2034 Q1218.88 67.5124 1223.37 67.5124 Q1229.57 67.5124 1233.3 63.1374 Q1237.07 58.7219 1237.07 51.4303 L1237.07 49.7694 L1229.65 49.7694 M1244.52 46.6907 L1244.52 72.576 L1237.07 72.576 L1237.07 65.6895 Q1234.51 69.8214 1230.71 71.8063 Q1226.9 73.7508 1221.39 73.7508 Q1214.42 73.7508 1210.29 69.8619 Q1206.2 65.9325 1206.2 59.3701 Q1206.2 51.7138 1211.3 47.825 Q1216.45 43.9361 1226.61 43.9361 L1237.07 43.9361 L1237.07 43.2069 Q1237.07 38.0623 1233.66 35.2672 Q1230.3 32.4315 1224.18 32.4315 Q1220.3 32.4315 1216.61 33.3632 Q1212.92 34.295 1209.52 36.1584 L1209.52 29.2718 Q1213.61 27.692 1217.46 26.9223 Q1221.31 26.1121 1224.95 26.1121 Q1234.8 26.1121 1239.66 31.2163 Q1244.52 36.3204 1244.52 46.6907 Z" fill="#000000" fill-rule="nonzero" fill-opacity="1" /><path clip-path="url(#clip370)" d="M1289.73 34.0924 L1289.73 9.54393 L1297.18 9.54393 L1297.18 72.576 L1289.73 72.576 L1289.73 65.7705 Q1287.38 69.8214 1283.77 71.8063 Q1280.21 73.7508 1275.18 73.7508 Q1266.96 73.7508 1261.78 67.1883 Q1256.63 60.6258 1256.63 49.9314 Q1256.63 39.2371 1261.78 32.6746 Q1266.96 26.1121 1275.18 26.1121 Q1280.21 26.1121 1283.77 28.0971 Q1287.38 30.0415 1289.73 34.0924 M1264.33 49.9314 Q1264.33 58.1548 1267.69 62.8538 Q1271.09 67.5124 1277.01 67.5124 Q1282.92 67.5124 1286.32 62.8538 Q1289.73 58.1548 1289.73 49.9314 Q1289.73 41.7081 1286.32 37.0496 Q1282.92 32.3505 1277.01 32.3505 Q1271.09 32.3505 1267.69 37.0496 Q1264.33 41.7081 1264.33 49.9314 Z" fill="#000000" fill-rule="nonzero" fill-opacity="1" /><path clip-path="url(#clip370)" d="M1333.15 49.7694 Q1324.12 49.7694 1320.64 51.8354 Q1317.15 53.9013 1317.15 58.8839 Q1317.15 62.8538 1319.74 65.2034 Q1322.38 67.5124 1326.87 67.5124 Q1333.07 67.5124 1336.8 63.1374 Q1340.57 58.7219 1340.57 51.4303 L1340.57 49.7694 L1333.15 49.7694 M1348.02 46.6907 L1348.02 72.576 L1340.57 72.576 L1340.57 65.6895 Q1338.01 69.8214 1334.21 71.8063 Q1330.4 73.7508 1324.89 73.7508 Q1317.92 73.7508 1313.79 69.8619 Q1309.7 65.9325 1309.7 59.3701 Q1309.7 51.7138 1314.8 47.825 Q1319.95 43.9361 1330.12 43.9361 L1340.57 43.9361 L1340.57 43.2069 Q1340.57 38.0623 1337.16 35.2672 Q1333.8 32.4315 1327.68 32.4315 Q1323.8 32.4315 1320.11 33.3632 Q1316.42 34.295 1313.02 36.1584 L1313.02 29.2718 Q1317.11 27.692 1320.96 26.9223 Q1324.81 26.1121 1328.45 26.1121 Q1338.3 26.1121 1343.16 31.2163 Q1348.02 36.3204 1348.02 46.6907 Z" fill="#000000" fill-rule="nonzero" fill-opacity="1" /><path clip-path="url(#clip370)" d="M1420.21 43.8146 L1394.4 43.8146 Q1395.01 55.9268 1397.81 61.0714 Q1401.29 67.3908 1407.33 67.3908 Q1413.4 67.3908 1416.76 61.0309 Q1419.72 55.4407 1420.21 43.8146 M1420.09 36.928 Q1418.95 25.4235 1416.76 21.3726 Q1413.28 14.9721 1407.33 14.9721 Q1401.13 14.9721 1397.85 21.2916 Q1395.25 26.3957 1394.48 36.928 L1420.09 36.928 M1407.33 8.89579 Q1417.05 8.89579 1422.6 17.4837 Q1428.15 26.0311 1428.15 41.1815 Q1428.15 56.2914 1422.6 64.8793 Q1417.05 73.5077 1407.33 73.5077 Q1397.56 73.5077 1392.05 64.8793 Q1386.5 56.2914 1386.5 41.1815 Q1386.5 26.0311 1392.05 17.4837 Q1397.56 8.89579 1407.33 8.89579 Z" fill="#000000" fill-rule="nonzero" fill-opacity="1" /><path clip-path="url(#clip370)" d="M1485.75 76.7889 Q1482.59 84.8907 1479.59 87.3618 Q1476.6 89.8329 1471.57 89.8329 L1465.62 89.8329 L1465.62 83.5945 L1469.99 83.5945 Q1473.07 83.5945 1474.77 82.1361 Q1476.47 80.6778 1478.54 75.2496 L1479.88 71.8468 L1461.53 27.2059 L1469.43 27.2059 L1483.6 62.6918 L1497.78 27.2059 L1505.68 27.2059 L1485.75 76.7889 Z" fill="#000000" fill-rule="nonzero" fill-opacity="1" /><path clip-path="url(#clip370)" d="M1556.8 73.7508 Q1539.99 73.7508 1539.99 49.6884 Q1539.99 40.1688 1546.27 27.2059 L1554.29 27.2059 Q1548.5 40.1688 1548.5 49.8909 Q1548.5 67.4314 1557.49 67.4314 Q1565.72 67.4314 1565.72 45.6375 L1572.6 45.6375 Q1572.6 67.4314 1580.83 67.4314 Q1589.82 67.4314 1589.82 49.8909 Q1589.82 40.1688 1584.03 27.2059 L1592.05 27.2059 Q1598.33 40.1688 1598.33 49.6884 Q1598.33 73.7508 1581.51 73.7508 Q1570.5 73.7508 1569.16 61.6386 Q1567.5 73.7508 1556.8 73.7508 Z" fill="#000000" fill-rule="nonzero" fill-opacity="1" /><path clip-path="url(#clip370)" d="M1668.04 34.0924 L1668.04 9.54393 L1675.5 9.54393 L1675.5 72.576 L1668.04 72.576 L1668.04 65.7705 Q1665.69 69.8214 1662.09 71.8063 Q1658.52 73.7508 1653.5 73.7508 Q1645.28 73.7508 1640.09 67.1883 Q1634.95 60.6258 1634.95 49.9314 Q1634.95 39.2371 1640.09 32.6746 Q1645.28 26.1121 1653.5 26.1121 Q1658.52 26.1121 1662.09 28.0971 Q1665.69 30.0415 1668.04 34.0924 M1642.64 49.9314 Q1642.64 58.1548 1646 62.8538 Q1649.41 67.5124 1655.32 67.5124 Q1661.24 67.5124 1664.64 62.8538 Q1668.04 58.1548 1668.04 49.9314 Q1668.04 41.7081 1664.64 37.0496 Q1661.24 32.3505 1655.32 32.3505 Q1649.41 32.3505 1646 37.0496 Q1642.64 41.7081 1642.64 49.9314 Z" fill="#000000" fill-rule="nonzero" fill-opacity="1" /><path clip-path="url(#clip370)" d="M1729.66 48.0275 L1729.66 51.6733 L1695.39 51.6733 Q1695.87 59.3701 1700 63.421 Q1704.18 67.4314 1711.59 67.4314 Q1715.88 67.4314 1719.89 66.3781 Q1723.94 65.3249 1727.91 63.2184 L1727.91 70.267 Q1723.9 71.9684 1719.69 72.8596 Q1715.48 73.7508 1711.14 73.7508 Q1700.29 73.7508 1693.93 67.4314 Q1687.61 61.1119 1687.61 50.3365 Q1687.61 39.1965 1693.6 32.6746 Q1699.64 26.1121 1709.85 26.1121 Q1719 26.1121 1724.31 32.0264 Q1729.66 37.9003 1729.66 48.0275 M1722.2 45.84 Q1722.12 39.7232 1718.76 36.0774 Q1715.44 32.4315 1709.93 32.4315 Q1703.69 32.4315 1699.92 35.9558 Q1696.2 39.4801 1695.63 45.8805 L1722.2 45.84 Z" fill="#000000" fill-rule="nonzero" fill-opacity="1" /><path clip-path="url(#clip370)" d="M1768.58 12.096 L1780.78 12.096 L1796.21 53.2532 L1811.73 12.096 L1823.92 12.096 L1823.92 72.576 L1815.94 72.576 L1815.94 19.4686 L1800.34 60.9499 L1792.12 60.9499 L1776.52 19.4686 L1776.52 72.576 L1768.58 72.576 L1768.58 12.096 Z" fill="#000000" fill-rule="nonzero" fill-opacity="1" /><polyline clip-path="url(#clip372)" style="stroke:#0000ff; stroke-linecap:round; stroke-linejoin:round; stroke-width:8; stroke-opacity:1; fill:none" points="356.233,566.474 359.608,566.538 362.983,566.732 366.358,567.055 369.733,567.506 373.108,568.087 376.483,568.797 379.858,569.636 383.233,570.604 386.608,571.701 389.983,572.928 393.358,574.283 396.733,575.768 400.108,577.382 403.484,579.126 406.859,580.999 410.234,583.001 413.609,585.133 416.984,587.395 420.359,589.786 423.734,592.307 427.109,594.958 430.484,597.739 433.859,600.651 437.234,603.692 440.609,606.863 443.984,610.164 447.359,613.595 450.735,617.157 454.11,620.848 457.485,624.669 460.86,628.619 464.235,632.699 467.61,636.908 470.985,641.245 474.36,645.71 477.735,650.302 481.11,655.02 484.485,659.862 487.86,664.828 491.235,669.916 494.61,675.124 497.986,680.449 501.361,685.889 504.736,691.44 508.111,697.099 511.486,702.861 514.861,708.722 518.236,714.676 521.611,720.717 524.986,726.838 528.361,733.032 531.736,739.29 535.111,745.603 538.486,751.962 541.861,758.357 545.236,764.777 548.612,771.212 551.987,777.651 555.362,784.082 558.737,790.495 562.112,796.879 565.487,803.223 568.862,809.519 572.237,815.756 575.612,821.925 578.987,828.02 582.362,834.032 585.737,839.954 589.112,845.782 592.487,851.51 595.863,857.132 599.238,862.646 602.613,868.046 605.988,873.332 609.363,878.499 612.738,883.545 616.113,888.469 619.488,893.269 622.863,897.944 626.238,902.493 629.613,906.914 632.988,911.207 636.363,915.372 639.738,919.407 643.114,923.314 646.489,927.09 649.864,930.737 653.239,934.254 656.614,937.641 659.989,940.897 663.364,944.024 666.739,947.021 670.114,949.887 673.489,952.624 676.864,955.23 680.239,957.707 683.614,960.054 686.989,962.271 690.364,964.359 693.74,966.317 697.115,968.146 700.49,969.845 703.865,971.415 707.24,972.856 710.615,974.167 713.99,975.349 717.365,976.402 720.74,977.326 724.115,978.121 727.49,978.786 730.865,979.323 734.24,979.731 737.615,980.009 740.991,980.158 744.366,980.179 747.741,980.07 751.116,979.832 754.491,979.466 757.866,978.97 761.241,978.345 764.616,977.591 767.991,976.708 771.366,975.696 774.741,974.555 778.116,973.286 781.491,971.887 784.866,970.36 788.242,968.705 791.617,966.921 794.992,965.009 798.367,962.969 801.742,960.801 805.117,958.505 808.492,956.083 811.867,953.533 815.242,950.857 818.617,948.056 821.992,945.129 825.367,942.076 828.742,938.9 832.117,935.6 835.492,932.178 838.868,928.634 842.243,924.968 845.618,921.183 848.993,917.279 852.368,913.258 855.743,909.12 859.118,904.868 862.493,900.503 865.868,896.027 869.243,891.441 872.618,886.748 875.993,881.951 879.368,877.05 882.743,872.051 886.119,866.954 889.494,861.763 892.869,856.483 896.244,851.116 899.619,845.666 902.994,840.138 906.369,834.537 909.744,828.867 913.119,823.134 916.494,817.343 919.869,811.501 923.244,805.613 926.619,799.687 929.994,793.728 933.369,787.744 936.745,781.743 940.12,775.731 943.495,769.716 946.87,763.705 950.245,757.707 953.62,751.728 956.995,745.775 960.37,739.856 963.745,733.976 967.12,728.144 970.495,722.364 973.87,716.644 977.245,710.987 980.62,705.4 983.996,699.888 987.371,694.455 990.746,689.105 994.121,683.842 997.496,678.67 1000.87,673.593 1004.25,668.613 1007.62,663.733 1011,658.956 1014.37,654.285 1017.75,649.721 1021.12,645.267 1024.5,640.925 1027.87,636.696 1031.25,632.581 1034.62,628.584 1038,624.704 1041.37,620.943 1044.75,617.302 1048.12,613.782 1051.5,610.384 1054.87,607.109 1058.25,603.958 1061.62,600.931 1065,598.029 1068.37,595.253 1071.75,592.602 1075.12,590.078 1078.5,587.682 1081.87,585.412 1085.25,583.27 1088.62,581.255 1092,579.369 1095.37,577.611 1098.75,575.981 1102.12,574.48 1105.5,573.108 1108.87,571.864 1112.25,570.749 1115.62,569.764 1119,568.907 1122.37,568.179 1125.75,567.58 1129.12,567.11 1132.5,566.77 1135.87,566.558 1139.25,566.475 1142.62,566.522 1146,566.697 1149.37,567.002 1152.75,567.435 1156.12,567.998 1159.5,568.689 1162.87,569.51 1166.25,570.46 1169.62,571.539 1173,572.747 1176.37,574.085 1179.75,575.552 1183.12,577.148 1186.5,578.873 1189.87,580.728 1193.25,582.712 1196.62,584.826 1200,587.069 1203.38,589.443 1206.75,591.945 1210.13,594.578 1213.5,597.341 1216.88,600.234 1220.25,603.257 1223.63,606.409 1227,609.692 1230.38,613.105 1233.75,616.649 1237.13,620.322 1240.5,624.124 1243.88,628.057 1247.25,632.118 1250.63,636.309 1254,640.628 1257.38,645.075 1260.75,649.649 1264.13,654.349 1267.5,659.175 1270.88,664.124 1274.25,669.195 1277.63,674.386 1281,679.694 1284.38,685.118 1287.75,690.654 1291.13,696.298 1294.5,702.046 1297.88,707.893 1301.25,713.835 1304.63,719.864 1308,725.974 1311.38,732.158 1314.75,738.407 1318.13,744.713 1321.5,751.067 1324.88,757.457 1328.25,763.875 1331.63,770.308 1335,776.747 1338.38,783.18 1341.75,789.596 1345.13,795.984 1348.5,802.335 1351.88,808.638 1355.25,814.883 1358.63,821.063 1362,827.168 1365.38,833.192 1368.75,839.128 1372.13,844.97 1375.5,850.711 1378.88,856.349 1382.25,861.878 1385.63,867.295 1389,872.596 1392.38,877.78 1395.75,882.844 1399.13,887.785 1402.5,892.603 1405.88,897.295 1409.25,901.862 1412.63,906.301 1416,910.612 1419.38,914.795 1422.75,918.848 1426.13,922.773 1429.5,926.568 1432.88,930.233 1436.25,933.768 1439.63,937.173 1443.01,940.448 1446.38,943.593 1449.76,946.608 1453.13,949.492 1456.51,952.247 1459.88,954.872 1463.26,957.367 1466.63,959.732 1470.01,961.968 1473.38,964.074 1476.76,966.05 1480.13,967.897 1483.51,969.614 1486.88,971.202 1490.26,972.661 1493.63,973.991 1497.01,975.191 1500.38,976.262 1503.76,977.204 1507.13,978.017 1510.51,978.701 1513.88,979.255 1517.26,979.681 1520.63,979.978 1524.01,980.145 1527.38,980.184 1530.76,980.093 1534.13,979.874 1537.51,979.525 1540.88,979.047 1544.26,978.44 1547.63,977.705 1551.01,976.84 1554.38,975.846 1557.76,974.723 1561.13,973.472 1564.51,972.092 1567.88,970.583 1571.26,968.945 1574.63,967.179 1578.01,965.285 1581.38,963.263 1584.76,961.113 1588.13,958.835 1591.51,956.431 1594.88,953.899 1598.26,951.241 1601.63,948.457 1605.01,945.547 1608.38,942.513 1611.76,939.354 1615.13,936.071 1618.51,932.666 1621.88,929.139 1625.26,925.49 1628.63,921.722 1632.01,917.835 1635.38,913.83 1638.76,909.709 1642.13,905.472 1645.51,901.123 1648.88,896.662 1652.26,892.092 1655.63,887.414 1659.01,882.631 1662.38,877.745 1665.76,872.759 1669.13,867.675 1672.51,862.498 1675.88,857.23 1679.26,851.875 1682.63,846.436 1686.01,840.919 1689.39,835.328 1692.76,829.668 1696.14,823.943 1699.51,818.16 1702.89,812.324 1706.26,806.443 1709.64,800.521 1713.01,794.566 1716.39,788.586 1719.76,782.586 1723.14,776.575 1726.51,770.561 1729.89,764.549 1733.26,758.548 1736.64,752.566 1740.01,746.609 1743.39,740.685 1746.76,734.799 1750.14,728.96 1753.51,723.173 1756.89,717.443 1760.26,711.778 1763.64,706.181 1767.01,700.658 1770.39,695.213 1773.76,689.851 1777.14,684.576 1780.51,679.391 1783.89,674.3 1787.26,669.306 1790.64,664.412 1794.01,659.621 1797.39,654.935 1800.76,650.356 1804.14,645.886 1807.51,641.528 1810.89,637.283 1814.26,633.152 1817.64,629.138 1821.01,625.241 1824.39,621.464 1827.76,617.806 1831.14,614.269 1834.51,610.854 1837.89,607.562 1841.26,604.393 1844.64,601.349 1848.01,598.429 1851.39,595.635 1854.76,592.967 1858.14,590.425 1861.51,588.01 1864.89,585.723 1868.26,583.563 1871.64,581.53 1875.01,579.626 1878.39,577.85 1881.76,576.202 1885.14,574.683 1888.51,573.293 1891.89,572.031 1895.26,570.898 1898.64,569.894 1902.01,569.019 1905.39,568.273 1908.76,567.656 1912.14,567.168 1915.51,566.81 1918.89,566.58 1922.26,566.479 1925.64,566.507 1929.02,566.665 1932.39,566.951 1935.77,567.366 1939.14,567.911 1942.52,568.585 1945.89,569.387 1949.27,570.319 1952.64,571.38 1956.02,572.57 1959.39,573.889 1962.77,575.338 1966.14,576.916 1969.52,578.623 1972.89,580.459 1976.27,582.426 1979.64,584.521 1983.02,586.746 1986.39,589.101 1989.77,591.586 1993.14,594.201 1996.52,596.945 1999.89,599.82 2003.27,602.824 2006.64,605.959 2010.02,609.224 2013.39,612.618 2016.77,616.143 2020.14,619.798 2023.52,623.582 2026.89,627.497 2030.27,631.54 2033.64,635.713 2037.02,640.014 2040.39,644.443 2043.77,648.999 "/>
<polyline clip-path="url(#clip370)" style="stroke:#000000; stroke-linecap:round; stroke-linejoin:round; stroke-width:4; stroke-opacity:1; fill:none" points="2094.39,1423.18 2094.39,123.472 "/>
<polyline clip-path="url(#clip370)" style="stroke:#000000; stroke-linecap:round; stroke-linejoin:round; stroke-width:4; stroke-opacity:1; fill:none" points="2094.39,1201.54 2075.5,1201.54 "/>
<polyline clip-path="url(#clip370)" style="stroke:#000000; stroke-linecap:round; stroke-linejoin:round; stroke-width:4; stroke-opacity:1; fill:none" points="2094.39,1099.7 2075.5,1099.7 "/>
<polyline clip-path="url(#clip370)" style="stroke:#000000; stroke-linecap:round; stroke-linejoin:round; stroke-width:4; stroke-opacity:1; fill:none" points="2094.39,997.867 2075.5,997.867 "/>
<polyline clip-path="url(#clip370)" style="stroke:#000000; stroke-linecap:round; stroke-linejoin:round; stroke-width:4; stroke-opacity:1; fill:none" points="2094.39,896.032 2075.5,896.032 "/>
<polyline clip-path="url(#clip370)" style="stroke:#000000; stroke-linecap:round; stroke-linejoin:round; stroke-width:4; stroke-opacity:1; fill:none" points="2094.39,794.198 2075.5,794.198 "/>
<polyline clip-path="url(#clip370)" style="stroke:#000000; stroke-linecap:round; stroke-linejoin:round; stroke-width:4; stroke-opacity:1; fill:none" points="2094.39,692.363 2075.5,692.363 "/>
<polyline clip-path="url(#clip370)" style="stroke:#000000; stroke-linecap:round; stroke-linejoin:round; stroke-width:4; stroke-opacity:1; fill:none" points="2094.39,590.528 2075.5,590.528 "/>
<polyline clip-path="url(#clip370)" style="stroke:#000000; stroke-linecap:round; stroke-linejoin:round; stroke-width:4; stroke-opacity:1; fill:none" points="2094.39,488.694 2075.5,488.694 "/>
<polyline clip-path="url(#clip370)" style="stroke:#000000; stroke-linecap:round; stroke-linejoin:round; stroke-width:4; stroke-opacity:1; fill:none" points="2094.39,386.859 2075.5,386.859 "/>
<path clip-path="url(#clip370)" d="M2130.39 1200.3 L2142.87 1200.3 L2142.87 1204.1 L2130.39 1204.1 L2130.39 1200.3 Z" fill="#000000" fill-rule="nonzero" fill-opacity="1" /><path clip-path="url(#clip370)" d="M2160.07 1189.26 L2184.91 1189.26 L2184.91 1193.52 L2181.64 1193.52 L2181.64 1209.45 Q2181.64 1211.11 2182.2 1211.85 Q2182.78 1212.57 2184.05 1212.57 Q2184.4 1212.57 2184.91 1212.53 Q2185.42 1212.46 2185.58 1212.43 L2185.58 1215.51 Q2184.77 1215.81 2183.91 1215.95 Q2183.06 1216.09 2182.2 1216.09 Q2179.42 1216.09 2178.36 1214.59 Q2177.29 1213.06 2177.29 1208.98 L2177.29 1193.52 L2167.73 1193.52 L2167.73 1215.19 L2163.38 1215.19 L2163.38 1193.52 L2160.07 1193.52 L2160.07 1189.26 Z" fill="#000000" fill-rule="nonzero" fill-opacity="1" /><path clip-path="url(#clip370)" d="M2130.39 1098.47 L2142.87 1098.47 L2142.87 1102.27 L2130.39 1102.27 L2130.39 1098.47 Z" fill="#000000" fill-rule="nonzero" fill-opacity="1" /><path clip-path="url(#clip370)" d="M2175.69 1094.72 Q2179.05 1095.44 2180.93 1097.71 Q2182.82 1099.97 2182.82 1103.31 Q2182.82 1108.42 2179.31 1111.22 Q2175.79 1114.02 2169.31 1114.02 Q2167.13 1114.02 2164.81 1113.58 Q2162.52 1113.17 2160.07 1112.31 L2160.07 1107.8 Q2162.01 1108.93 2164.33 1109.51 Q2166.64 1110.09 2169.17 1110.09 Q2173.56 1110.09 2175.86 1108.35 Q2178.17 1106.62 2178.17 1103.31 Q2178.17 1100.25 2176.02 1098.54 Q2173.89 1096.8 2170.07 1096.8 L2166.04 1096.8 L2166.04 1092.96 L2170.25 1092.96 Q2173.7 1092.96 2175.53 1091.59 Q2177.36 1090.21 2177.36 1087.61 Q2177.36 1084.95 2175.46 1083.54 Q2173.59 1082.1 2170.07 1082.1 Q2168.15 1082.1 2165.95 1082.52 Q2163.75 1082.94 2161.11 1083.82 L2161.11 1079.65 Q2163.77 1078.91 2166.09 1078.54 Q2168.43 1078.17 2170.49 1078.17 Q2175.81 1078.17 2178.91 1080.6 Q2182.01 1083.01 2182.01 1087.13 Q2182.01 1090 2180.37 1091.99 Q2178.73 1093.96 2175.69 1094.72 Z" fill="#000000" fill-rule="nonzero" fill-opacity="1" /><path clip-path="url(#clip370)" d="M2201.69 1087.43 L2226.53 1087.43 L2226.53 1091.69 L2223.26 1091.69 L2223.26 1107.61 Q2223.26 1109.28 2223.82 1110.02 Q2224.4 1110.74 2225.67 1110.74 Q2226.02 1110.74 2226.53 1110.69 Q2227.04 1110.62 2227.2 1110.6 L2227.2 1113.68 Q2226.39 1113.98 2225.53 1114.12 Q2224.68 1114.26 2223.82 1114.26 Q2221.04 1114.26 2219.98 1112.75 Q2218.91 1111.22 2218.91 1107.15 L2218.91 1091.69 L2209.35 1091.69 L2209.35 1113.35 L2205 1113.35 L2205 1091.69 L2201.69 1091.69 L2201.69 1087.43 Z" fill="#000000" fill-rule="nonzero" fill-opacity="1" /><path clip-path="url(#clip370)" d="M2254.3 1078.79 L2258.24 1078.79 L2246.2 1117.75 L2242.27 1117.75 L2254.3 1078.79 Z" fill="#000000" fill-rule="nonzero" fill-opacity="1" /><path clip-path="url(#clip370)" d="M2276.16 1082.87 L2264.35 1101.32 L2276.16 1101.32 L2276.16 1082.87 M2274.93 1078.79 L2280.81 1078.79 L2280.81 1101.32 L2285.74 1101.32 L2285.74 1105.21 L2280.81 1105.21 L2280.81 1113.35 L2276.16 1113.35 L2276.16 1105.21 L2260.55 1105.21 L2260.55 1100.69 L2274.93 1078.79 Z" fill="#000000" fill-rule="nonzero" fill-opacity="1" /><path clip-path="url(#clip370)" d="M2130.39 996.634 L2142.87 996.634 L2142.87 1000.43 L2130.39 1000.43 L2130.39 996.634 Z" fill="#000000" fill-rule="nonzero" fill-opacity="1" /><path clip-path="url(#clip370)" d="M2160.07 985.593 L2184.91 985.593 L2184.91 989.852 L2181.64 989.852 L2181.64 1005.78 Q2181.64 1007.44 2182.2 1008.19 Q2182.78 1008.9 2184.05 1008.9 Q2184.4 1008.9 2184.91 1008.86 Q2185.42 1008.79 2185.58 1008.76 L2185.58 1011.84 Q2184.77 1012.14 2183.91 1012.28 Q2183.06 1012.42 2182.2 1012.42 Q2179.42 1012.42 2178.36 1010.92 Q2177.29 1009.39 2177.29 1005.31 L2177.29 989.852 L2167.73 989.852 L2167.73 1011.52 L2163.38 1011.52 L2163.38 989.852 L2160.07 989.852 L2160.07 985.593 Z" fill="#000000" fill-rule="nonzero" fill-opacity="1" /><path clip-path="url(#clip370)" d="M2212.68 976.958 L2216.62 976.958 L2204.58 1015.92 L2200.65 1015.92 L2212.68 976.958 Z" fill="#000000" fill-rule="nonzero" fill-opacity="1" /><path clip-path="url(#clip370)" d="M2225.72 1007.58 L2242.04 1007.58 L2242.04 1011.52 L2220.09 1011.52 L2220.09 1007.58 Q2222.75 1004.83 2227.34 1000.2 Q2231.94 995.546 2233.12 994.204 Q2235.37 991.681 2236.25 989.944 Q2237.15 988.185 2237.15 986.495 Q2237.15 983.741 2235.21 982.005 Q2233.29 980.269 2230.18 980.269 Q2227.99 980.269 2225.53 981.032 Q2223.1 981.796 2220.32 983.347 L2220.32 978.625 Q2223.15 977.491 2225.6 976.912 Q2228.05 976.333 2230.09 976.333 Q2235.46 976.333 2238.66 979.019 Q2241.85 981.704 2241.85 986.194 Q2241.85 988.324 2241.04 990.245 Q2240.25 992.143 2238.15 994.736 Q2237.57 995.407 2234.47 998.625 Q2231.37 1001.82 2225.72 1007.58 Z" fill="#000000" fill-rule="nonzero" fill-opacity="1" /><path clip-path="url(#clip370)" d="M2130.39 894.799 L2142.87 894.799 L2142.87 898.596 L2130.39 898.596 L2130.39 894.799 Z" fill="#000000" fill-rule="nonzero" fill-opacity="1" /><path clip-path="url(#clip370)" d="M2160.07 883.758 L2184.91 883.758 L2184.91 888.017 L2181.64 888.017 L2181.64 903.943 Q2181.64 905.61 2182.2 906.35 Q2182.78 907.068 2184.05 907.068 Q2184.4 907.068 2184.91 907.022 Q2185.42 906.952 2185.58 906.929 L2185.58 910.008 Q2184.77 910.309 2183.91 910.448 Q2183.06 910.586 2182.2 910.586 Q2179.42 910.586 2178.36 909.082 Q2177.29 907.554 2177.29 903.48 L2177.29 888.017 L2167.73 888.017 L2167.73 909.684 L2163.38 909.684 L2163.38 888.017 L2160.07 888.017 L2160.07 883.758 Z" fill="#000000" fill-rule="nonzero" fill-opacity="1" /><path clip-path="url(#clip370)" d="M2212.68 875.124 L2216.62 875.124 L2204.58 914.082 L2200.65 914.082 L2212.68 875.124 Z" fill="#000000" fill-rule="nonzero" fill-opacity="1" /><path clip-path="url(#clip370)" d="M2234.54 879.198 L2222.73 897.647 L2234.54 897.647 L2234.54 879.198 M2233.31 875.124 L2239.19 875.124 L2239.19 897.647 L2244.12 897.647 L2244.12 901.536 L2239.19 901.536 L2239.19 909.684 L2234.54 909.684 L2234.54 901.536 L2218.93 901.536 L2218.93 897.022 L2233.31 875.124 Z" fill="#000000" fill-rule="nonzero" fill-opacity="1" /><path clip-path="url(#clip370)" d="M2142.34 779.996 Q2138.73 779.996 2136.9 783.561 Q2135.09 787.103 2135.09 794.232 Q2135.09 801.339 2136.9 804.904 Q2138.73 808.445 2142.34 808.445 Q2145.97 808.445 2147.78 804.904 Q2149.61 801.339 2149.61 794.232 Q2149.61 787.103 2147.78 783.561 Q2145.97 779.996 2142.34 779.996 M2142.34 776.293 Q2148.15 776.293 2151.2 780.899 Q2154.28 785.483 2154.28 794.232 Q2154.28 802.959 2151.2 807.566 Q2148.15 812.149 2142.34 812.149 Q2136.53 812.149 2133.45 807.566 Q2130.39 802.959 2130.39 794.232 Q2130.39 785.483 2133.45 780.899 Q2136.53 776.293 2142.34 776.293 Z" fill="#000000" fill-rule="nonzero" fill-opacity="1" /><path clip-path="url(#clip370)" d="M2130.39 680.088 L2155.23 680.088 L2155.23 684.348 L2151.97 684.348 L2151.97 700.274 Q2151.97 701.94 2152.52 702.681 Q2153.1 703.398 2154.37 703.398 Q2154.72 703.398 2155.23 703.352 Q2155.74 703.283 2155.9 703.26 L2155.9 706.338 Q2155.09 706.639 2154.24 706.778 Q2153.38 706.917 2152.52 706.917 Q2149.75 706.917 2148.68 705.412 Q2147.62 703.885 2147.62 699.811 L2147.62 684.348 L2138.06 684.348 L2138.06 706.014 L2133.7 706.014 L2133.7 684.348 L2130.39 684.348 L2130.39 680.088 Z" fill="#000000" fill-rule="nonzero" fill-opacity="1" /><path clip-path="url(#clip370)" d="M2183.01 671.454 L2186.94 671.454 L2174.91 710.412 L2170.97 710.412 L2183.01 671.454 Z" fill="#000000" fill-rule="nonzero" fill-opacity="1" /><path clip-path="url(#clip370)" d="M2204.86 675.528 L2193.06 693.977 L2204.86 693.977 L2204.86 675.528 M2203.63 671.454 L2209.51 671.454 L2209.51 693.977 L2214.44 693.977 L2214.44 697.866 L2209.51 697.866 L2209.51 706.014 L2204.86 706.014 L2204.86 697.866 L2189.26 697.866 L2189.26 693.352 L2203.63 671.454 Z" fill="#000000" fill-rule="nonzero" fill-opacity="1" /><path clip-path="url(#clip370)" d="M2130.39 578.254 L2155.23 578.254 L2155.23 582.513 L2151.97 582.513 L2151.97 598.439 Q2151.97 600.105 2152.52 600.846 Q2153.1 601.564 2154.37 601.564 Q2154.72 601.564 2155.23 601.517 Q2155.74 601.448 2155.9 601.425 L2155.9 604.504 Q2155.09 604.804 2154.24 604.943 Q2153.38 605.082 2152.52 605.082 Q2149.75 605.082 2148.68 603.578 Q2147.62 602.05 2147.62 597.976 L2147.62 582.513 L2138.06 582.513 L2138.06 604.179 L2133.7 604.179 L2133.7 582.513 L2130.39 582.513 L2130.39 578.254 Z" fill="#000000" fill-rule="nonzero" fill-opacity="1" /><path clip-path="url(#clip370)" d="M2183.01 569.619 L2186.94 569.619 L2174.91 608.578 L2170.97 608.578 L2183.01 569.619 Z" fill="#000000" fill-rule="nonzero" fill-opacity="1" /><path clip-path="url(#clip370)" d="M2196.04 600.244 L2212.36 600.244 L2212.36 604.179 L2190.42 604.179 L2190.42 600.244 Q2193.08 597.49 2197.66 592.86 Q2202.27 588.207 2203.45 586.865 Q2205.69 584.342 2206.57 582.606 Q2207.48 580.846 2207.48 579.156 Q2207.48 576.402 2205.53 574.666 Q2203.61 572.93 2200.51 572.93 Q2198.31 572.93 2195.86 573.694 Q2193.43 574.457 2190.65 576.008 L2190.65 571.286 Q2193.47 570.152 2195.93 569.573 Q2198.38 568.994 2200.42 568.994 Q2205.79 568.994 2208.98 571.68 Q2212.18 574.365 2212.18 578.856 Q2212.18 580.985 2211.37 582.906 Q2210.58 584.805 2208.47 587.397 Q2207.89 588.068 2204.79 591.286 Q2201.69 594.48 2196.04 600.244 Z" fill="#000000" fill-rule="nonzero" fill-opacity="1" /><path clip-path="url(#clip370)" d="M2146.02 483.711 Q2149.37 484.428 2151.25 486.697 Q2153.15 488.965 2153.15 492.299 Q2153.15 497.414 2149.63 500.215 Q2146.11 503.016 2139.63 503.016 Q2137.45 503.016 2135.14 502.576 Q2132.85 502.16 2130.39 501.303 L2130.39 496.789 Q2132.34 497.923 2134.65 498.502 Q2136.97 499.081 2139.49 499.081 Q2143.89 499.081 2146.18 497.345 Q2148.5 495.609 2148.5 492.299 Q2148.5 489.243 2146.34 487.53 Q2144.21 485.794 2140.39 485.794 L2136.37 485.794 L2136.37 481.951 L2140.58 481.951 Q2144.03 481.951 2145.86 480.586 Q2147.69 479.197 2147.69 476.604 Q2147.69 473.942 2145.79 472.53 Q2143.91 471.095 2140.39 471.095 Q2138.47 471.095 2136.27 471.512 Q2134.07 471.928 2131.44 472.808 L2131.44 468.641 Q2134.1 467.9 2136.41 467.53 Q2138.75 467.16 2140.81 467.16 Q2146.13 467.16 2149.24 469.59 Q2152.34 471.998 2152.34 476.118 Q2152.34 478.988 2150.69 480.979 Q2149.05 482.947 2146.02 483.711 Z" fill="#000000" fill-rule="nonzero" fill-opacity="1" /><path clip-path="url(#clip370)" d="M2172.01 476.419 L2196.85 476.419 L2196.85 480.678 L2193.59 480.678 L2193.59 496.604 Q2193.59 498.271 2194.14 499.011 Q2194.72 499.729 2195.99 499.729 Q2196.34 499.729 2196.85 499.683 Q2197.36 499.613 2197.52 499.59 L2197.52 502.669 Q2196.71 502.97 2195.86 503.109 Q2195 503.248 2194.14 503.248 Q2191.37 503.248 2190.3 501.743 Q2189.24 500.215 2189.24 496.141 L2189.24 480.678 L2179.68 480.678 L2179.68 502.345 L2175.32 502.345 L2175.32 480.678 L2172.01 480.678 L2172.01 476.419 Z" fill="#000000" fill-rule="nonzero" fill-opacity="1" /><path clip-path="url(#clip370)" d="M2224.63 467.785 L2228.56 467.785 L2216.53 506.743 L2212.59 506.743 L2224.63 467.785 Z" fill="#000000" fill-rule="nonzero" fill-opacity="1" /><path clip-path="url(#clip370)" d="M2246.48 471.859 L2234.68 490.308 L2246.48 490.308 L2246.48 471.859 M2245.25 467.785 L2251.13 467.785 L2251.13 490.308 L2256.06 490.308 L2256.06 494.197 L2251.13 494.197 L2251.13 502.345 L2246.48 502.345 L2246.48 494.197 L2230.88 494.197 L2230.88 489.683 L2245.25 467.785 Z" fill="#000000" fill-rule="nonzero" fill-opacity="1" /><path clip-path="url(#clip370)" d="M2130.39 374.584 L2155.23 374.584 L2155.23 378.843 L2151.97 378.843 L2151.97 394.769 Q2151.97 396.436 2152.52 397.177 Q2153.1 397.894 2154.37 397.894 Q2154.72 397.894 2155.23 397.848 Q2155.74 397.779 2155.9 397.755 L2155.9 400.834 Q2155.09 401.135 2154.24 401.274 Q2153.38 401.413 2152.52 401.413 Q2149.75 401.413 2148.68 399.908 Q2147.62 398.38 2147.62 394.306 L2147.62 378.843 L2138.06 378.843 L2138.06 400.51 L2133.7 400.51 L2133.7 378.843 L2130.39 378.843 L2130.39 374.584 Z" fill="#000000" fill-rule="nonzero" fill-opacity="1" /><path clip-path="url(#clip370)" d="M2343.12 1178.79 L2343.12 1172.58 L2373.03 1161.44 L2343.12 1150.3 L2343.12 1144.1 L2378.76 1157.46 L2378.76 1165.42 L2343.12 1178.79 Z" fill="#ff0000" fill-rule="nonzero" fill-opacity="1" /><path clip-path="url(#clip370)" d="M2359.48 1105.52 L2362.34 1105.52 L2362.34 1132.45 Q2368.39 1132.07 2371.57 1128.82 Q2374.72 1125.54 2374.72 1119.72 Q2374.72 1116.34 2373.89 1113.19 Q2373.07 1110.01 2371.41 1106.89 L2376.95 1106.89 Q2378.29 1110.04 2378.99 1113.35 Q2379.69 1116.66 2379.69 1120.07 Q2379.69 1128.6 2374.72 1133.59 Q2369.76 1138.56 2361.29 1138.56 Q2352.54 1138.56 2347.41 1133.85 Q2342.26 1129.11 2342.26 1121.08 Q2342.26 1113.89 2346.9 1109.72 Q2351.52 1105.52 2359.48 1105.52 M2357.76 1111.38 Q2352.95 1111.44 2350.09 1114.08 Q2347.22 1116.69 2347.22 1121.02 Q2347.22 1125.92 2349.99 1128.88 Q2352.76 1131.81 2357.79 1132.26 L2357.76 1111.38 Z" fill="#ff0000" fill-rule="nonzero" fill-opacity="1" /><path clip-path="url(#clip370)" d="M2329.24 1095.91 L2329.24 1090.05 L2378.76 1090.05 L2378.76 1095.91 L2329.24 1095.91 Z" fill="#ff0000" fill-rule="nonzero" fill-opacity="1" /><path clip-path="url(#clip370)" d="M2347.22 1063.98 Q2347.22 1068.69 2350.91 1071.43 Q2354.57 1074.17 2360.97 1074.17 Q2367.37 1074.17 2371.06 1071.46 Q2374.72 1068.73 2374.72 1063.98 Q2374.72 1059.31 2371.03 1056.57 Q2367.34 1053.83 2360.97 1053.83 Q2354.64 1053.83 2350.95 1056.57 Q2347.22 1059.31 2347.22 1063.98 M2342.26 1063.98 Q2342.26 1056.35 2347.22 1051.98 Q2352.19 1047.62 2360.97 1047.62 Q2369.72 1047.62 2374.72 1051.98 Q2379.69 1056.35 2379.69 1063.98 Q2379.69 1071.65 2374.72 1076.02 Q2369.72 1080.34 2360.97 1080.34 Q2352.19 1080.34 2347.22 1076.02 Q2342.26 1071.65 2342.26 1063.98 Z" fill="#ff0000" fill-rule="nonzero" fill-opacity="1" /><path clip-path="url(#clip370)" d="M2344.48 1012.26 L2349.96 1012.26 Q2348.59 1014.75 2347.92 1017.26 Q2347.22 1019.74 2347.22 1022.29 Q2347.22 1027.99 2350.85 1031.14 Q2354.45 1034.29 2360.97 1034.29 Q2367.5 1034.29 2371.12 1031.14 Q2374.72 1027.99 2374.72 1022.29 Q2374.72 1019.74 2374.05 1017.26 Q2373.35 1014.75 2371.98 1012.26 L2377.4 1012.26 Q2378.54 1014.71 2379.11 1017.36 Q2379.69 1019.97 2379.69 1022.93 Q2379.69 1030.98 2374.63 1035.72 Q2369.57 1040.46 2360.97 1040.46 Q2352.25 1040.46 2347.25 1035.69 Q2342.26 1030.88 2342.26 1022.54 Q2342.26 1019.84 2342.83 1017.26 Q2343.37 1014.68 2344.48 1012.26 Z" fill="#ff0000" fill-rule="nonzero" fill-opacity="1" /><path clip-path="url(#clip370)" d="M2343.12 1002.08 L2343.12 996.221 L2378.76 996.221 L2378.76 1002.08 L2343.12 1002.08 M2329.24 1002.08 L2329.24 996.221 L2336.65 996.221 L2336.65 1002.08 L2329.24 1002.08 Z" fill="#ff0000" fill-rule="nonzero" fill-opacity="1" /><path clip-path="url(#clip370)" d="M2348.53 960.51 L2329.24 960.51 L2329.24 954.653 L2378.76 954.653 L2378.76 960.51 L2373.42 960.51 Q2376.6 962.356 2378.16 965.188 Q2379.69 967.989 2379.69 971.936 Q2379.69 978.397 2374.53 982.471 Q2369.37 986.513 2360.97 986.513 Q2352.57 986.513 2347.41 982.471 Q2342.26 978.397 2342.26 971.936 Q2342.26 967.989 2343.82 965.188 Q2345.34 962.356 2348.53 960.51 M2360.97 980.466 Q2367.43 980.466 2371.12 977.824 Q2374.79 975.151 2374.79 970.504 Q2374.79 965.857 2371.12 963.183 Q2367.43 960.51 2360.97 960.51 Q2354.51 960.51 2350.85 963.183 Q2347.16 965.857 2347.16 970.504 Q2347.16 975.151 2350.85 977.824 Q2354.51 980.466 2360.97 980.466 Z" fill="#ff0000" fill-rule="nonzero" fill-opacity="1" /><path clip-path="url(#clip370)" d="M2360.84 926.389 Q2360.84 933.487 2362.47 936.224 Q2364.09 938.962 2368.01 938.962 Q2371.12 938.962 2372.97 936.925 Q2374.79 934.856 2374.79 931.323 Q2374.79 926.453 2371.35 923.525 Q2367.88 920.565 2362.15 920.565 L2360.84 920.565 L2360.84 926.389 M2358.43 914.708 L2378.76 914.708 L2378.76 920.565 L2373.35 920.565 Q2376.6 922.57 2378.16 925.562 Q2379.69 928.554 2379.69 932.882 Q2379.69 938.357 2376.63 941.603 Q2373.54 944.818 2368.39 944.818 Q2362.37 944.818 2359.32 940.808 Q2356.26 936.766 2356.26 928.777 L2356.26 920.565 L2355.69 920.565 Q2351.65 920.565 2349.45 923.238 Q2347.22 925.88 2347.22 930.686 Q2347.22 933.742 2347.95 936.638 Q2348.69 939.535 2350.15 942.208 L2344.74 942.208 Q2343.5 938.993 2342.89 935.97 Q2342.26 932.946 2342.26 930.082 Q2342.26 922.347 2346.27 918.528 Q2350.28 914.708 2358.43 914.708 Z" fill="#ff0000" fill-rule="nonzero" fill-opacity="1" /><path clip-path="url(#clip370)" d="M2348.53 879.188 L2329.24 879.188 L2329.24 873.331 L2378.76 873.331 L2378.76 879.188 L2373.42 879.188 Q2376.6 881.034 2378.16 883.866 Q2379.69 886.667 2379.69 890.614 Q2379.69 897.075 2374.53 901.149 Q2369.37 905.192 2360.97 905.192 Q2352.57 905.192 2347.41 901.149 Q2342.26 897.075 2342.26 890.614 Q2342.26 886.667 2343.82 883.866 Q2345.34 881.034 2348.53 879.188 M2360.97 899.144 Q2367.43 899.144 2371.12 896.502 Q2374.79 893.829 2374.79 889.182 Q2374.79 884.535 2371.12 881.861 Q2367.43 879.188 2360.97 879.188 Q2354.51 879.188 2350.85 881.861 Q2347.16 884.535 2347.16 889.182 Q2347.16 893.829 2350.85 896.502 Q2354.51 899.144 2360.97 899.144 Z" fill="#ff0000" fill-rule="nonzero" fill-opacity="1" /><path clip-path="url(#clip370)" d="M2360.84 824.347 Q2360.84 831.445 2362.47 834.182 Q2364.09 836.919 2368.01 836.919 Q2371.12 836.919 2372.97 834.882 Q2374.79 832.814 2374.79 829.281 Q2374.79 824.411 2371.35 821.483 Q2367.88 818.523 2362.15 818.523 L2360.84 818.523 L2360.84 824.347 M2358.43 812.666 L2378.76 812.666 L2378.76 818.523 L2373.35 818.523 Q2376.6 820.528 2378.16 823.52 Q2379.69 826.511 2379.69 830.84 Q2379.69 836.315 2376.63 839.561 Q2373.54 842.776 2368.39 842.776 Q2362.37 842.776 2359.32 838.765 Q2356.26 834.723 2356.26 826.734 L2356.26 818.523 L2355.69 818.523 Q2351.65 818.523 2349.45 821.196 Q2347.22 823.838 2347.22 828.644 Q2347.22 831.7 2347.95 834.596 Q2348.69 837.492 2350.15 840.166 L2344.74 840.166 Q2343.5 836.951 2342.89 833.928 Q2342.26 830.904 2342.26 828.039 Q2342.26 820.305 2346.27 816.485 Q2350.28 812.666 2358.43 812.666 Z" fill="#ff0000" fill-rule="nonzero" fill-opacity="1" /><path clip-path="url(#clip370)" d="M2357.25 770.971 L2378.76 770.971 L2378.76 776.827 L2357.44 776.827 Q2352.38 776.827 2349.86 778.8 Q2347.35 780.774 2347.35 784.721 Q2347.35 789.463 2350.37 792.2 Q2353.4 794.938 2358.62 794.938 L2378.76 794.938 L2378.76 800.826 L2343.12 800.826 L2343.12 794.938 L2348.65 794.938 Q2345.44 792.837 2343.85 790.004 Q2342.26 787.14 2342.26 783.416 Q2342.26 777.273 2346.08 774.122 Q2349.86 770.971 2357.25 770.971 Z" fill="#ff0000" fill-rule="nonzero" fill-opacity="1" /><path clip-path="url(#clip370)" d="M2360.53 735.832 Q2354.16 735.832 2350.66 738.474 Q2347.16 741.084 2347.16 745.826 Q2347.16 750.537 2350.66 753.179 Q2354.16 755.788 2360.53 755.788 Q2366.86 755.788 2370.36 753.179 Q2373.86 750.537 2373.86 745.826 Q2373.86 741.084 2370.36 738.474 Q2366.86 735.832 2360.53 735.832 M2374.34 729.976 Q2383.44 729.976 2387.87 734.018 Q2392.32 738.06 2392.32 746.399 Q2392.32 749.486 2391.85 752.224 Q2391.4 754.961 2390.44 757.539 L2384.75 757.539 Q2386.15 754.961 2386.82 752.446 Q2387.48 749.932 2387.48 747.322 Q2387.48 741.561 2384.46 738.697 Q2381.47 735.832 2375.39 735.832 L2372.49 735.832 Q2375.64 737.646 2377.2 740.479 Q2378.76 743.312 2378.76 747.258 Q2378.76 753.815 2373.77 757.825 Q2368.77 761.836 2360.53 761.836 Q2352.25 761.836 2347.25 757.825 Q2342.26 753.815 2342.26 747.258 Q2342.26 743.312 2343.82 740.479 Q2345.38 737.646 2348.53 735.832 L2343.12 735.832 L2343.12 729.976 L2374.34 729.976 Z" fill="#ff0000" fill-rule="nonzero" fill-opacity="1" /><path clip-path="url(#clip370)" d="M2364.7 718.517 L2343.12 718.517 L2343.12 712.661 L2364.47 712.661 Q2369.53 712.661 2372.08 710.687 Q2374.59 708.714 2374.59 704.767 Q2374.59 700.025 2371.57 697.288 Q2368.55 694.519 2363.33 694.519 L2343.12 694.519 L2343.12 688.662 L2378.76 688.662 L2378.76 694.519 L2373.29 694.519 Q2376.54 696.651 2378.13 699.484 Q2379.69 702.285 2379.69 706.009 Q2379.69 712.152 2375.87 715.334 Q2372.05 718.517 2364.7 718.517 M2342.26 703.781 L2342.26 703.781 Z" fill="#ff0000" fill-rule="nonzero" fill-opacity="1" /><path clip-path="url(#clip370)" d="M2329.24 676.599 L2329.24 670.743 L2378.76 670.743 L2378.76 676.599 L2329.24 676.599 Z" fill="#ff0000" fill-rule="nonzero" fill-opacity="1" /><path clip-path="url(#clip370)" d="M2360.84 642.288 Q2360.84 649.386 2362.47 652.123 Q2364.09 654.86 2368.01 654.86 Q2371.12 654.86 2372.97 652.823 Q2374.79 650.754 2374.79 647.221 Q2374.79 642.352 2371.35 639.423 Q2367.88 636.463 2362.15 636.463 L2360.84 636.463 L2360.84 642.288 M2358.43 630.607 L2378.76 630.607 L2378.76 636.463 L2373.35 636.463 Q2376.6 638.468 2378.16 641.46 Q2379.69 644.452 2379.69 648.781 Q2379.69 654.255 2376.63 657.502 Q2373.54 660.717 2368.39 660.717 Q2362.37 660.717 2359.32 656.706 Q2356.26 652.664 2356.26 644.675 L2356.26 636.463 L2355.69 636.463 Q2351.65 636.463 2349.45 639.137 Q2347.22 641.779 2347.22 646.585 Q2347.22 649.64 2347.95 652.537 Q2348.69 655.433 2350.15 658.107 L2344.74 658.107 Q2343.5 654.892 2342.89 651.868 Q2342.26 648.845 2342.26 645.98 Q2342.26 638.246 2346.27 634.426 Q2350.28 630.607 2358.43 630.607 Z" fill="#ff0000" fill-rule="nonzero" fill-opacity="1" /><path clip-path="url(#clip370)" d="M2348.59 597.887 Q2348.02 598.874 2347.76 600.051 Q2347.48 601.197 2347.48 602.598 Q2347.48 607.563 2350.72 610.237 Q2353.94 612.878 2359.99 612.878 L2378.76 612.878 L2378.76 618.767 L2343.12 618.767 L2343.12 612.878 L2348.65 612.878 Q2345.41 611.032 2343.85 608.072 Q2342.26 605.112 2342.26 600.879 Q2342.26 600.274 2342.35 599.542 Q2342.42 598.81 2342.57 597.919 L2348.59 597.887 Z" fill="#ff0000" fill-rule="nonzero" fill-opacity="1" /><path clip-path="url(#clip370)" d="M2329.3 556.956 Q2336.62 561.221 2343.78 563.289 Q2350.95 565.358 2358.3 565.358 Q2365.65 565.358 2372.88 563.289 Q2380.07 561.189 2387.36 556.956 L2387.36 562.048 Q2379.88 566.822 2372.65 569.21 Q2365.43 571.565 2358.3 571.565 Q2351.2 571.565 2344.01 569.21 Q2336.81 566.854 2329.3 562.048 L2329.3 556.956 Z" fill="#ff0000" fill-rule="nonzero" fill-opacity="1" /><path clip-path="url(#clip370)" d="M2348.59 524.936 Q2348.02 525.923 2347.76 527.1 Q2347.48 528.246 2347.48 529.647 Q2347.48 534.612 2350.72 537.286 Q2353.94 539.927 2359.99 539.927 L2378.76 539.927 L2378.76 545.816 L2343.12 545.816 L2343.12 539.927 L2348.65 539.927 Q2345.41 538.081 2343.85 535.121 Q2342.26 532.161 2342.26 527.928 Q2342.26 527.323 2342.35 526.591 Q2342.42 525.859 2342.57 524.968 L2348.59 524.936 Z" fill="#ff0000" fill-rule="nonzero" fill-opacity="1" /><path clip-path="url(#clip370)" d="M2360.84 502.592 Q2360.84 509.69 2362.47 512.427 Q2364.09 515.165 2368.01 515.165 Q2371.12 515.165 2372.97 513.128 Q2374.79 511.059 2374.79 507.526 Q2374.79 502.656 2371.35 499.728 Q2367.88 496.768 2362.15 496.768 L2360.84 496.768 L2360.84 502.592 M2358.43 490.911 L2378.76 490.911 L2378.76 496.768 L2373.35 496.768 Q2376.6 498.773 2378.16 501.765 Q2379.69 504.757 2379.69 509.086 Q2379.69 514.56 2376.63 517.807 Q2373.54 521.021 2368.39 521.021 Q2362.37 521.021 2359.32 517.011 Q2356.26 512.969 2356.26 504.98 L2356.26 496.768 L2355.69 496.768 Q2351.65 496.768 2349.45 499.441 Q2347.22 502.083 2347.22 506.889 Q2347.22 509.945 2347.95 512.841 Q2348.69 515.738 2350.15 518.411 L2344.74 518.411 Q2343.5 515.197 2342.89 512.173 Q2342.26 509.149 2342.26 506.285 Q2342.26 498.55 2346.27 494.731 Q2350.28 490.911 2358.43 490.911 Z" fill="#ff0000" fill-rule="nonzero" fill-opacity="1" /><path clip-path="url(#clip370)" d="M2348.53 455.391 L2329.24 455.391 L2329.24 449.534 L2378.76 449.534 L2378.76 455.391 L2373.42 455.391 Q2376.6 457.237 2378.16 460.07 Q2379.69 462.87 2379.69 466.817 Q2379.69 473.278 2374.53 477.352 Q2369.37 481.395 2360.97 481.395 Q2352.57 481.395 2347.41 477.352 Q2342.26 473.278 2342.26 466.817 Q2342.26 462.87 2343.82 460.07 Q2345.34 457.237 2348.53 455.391 M2360.97 475.347 Q2367.43 475.347 2371.12 472.705 Q2374.79 470.032 2374.79 465.385 Q2374.79 460.738 2371.12 458.064 Q2367.43 455.391 2360.97 455.391 Q2354.51 455.391 2350.85 458.064 Q2347.16 460.738 2347.16 465.385 Q2347.16 470.032 2350.85 472.705 Q2354.51 475.347 2360.97 475.347 Z" fill="#ff0000" fill-rule="nonzero" fill-opacity="1" /><path clip-path="url(#clip370)" d="M2331.24 427.063 L2331.24 421.653 L2384.81 438.203 L2384.81 443.614 L2331.24 427.063 Z" fill="#ff0000" fill-rule="nonzero" fill-opacity="1" /><path clip-path="url(#clip370)" d="M2344.17 392.784 L2349.7 392.784 Q2348.43 395.267 2347.79 397.94 Q2347.16 400.614 2347.16 403.478 Q2347.16 407.839 2348.49 410.035 Q2349.83 412.199 2352.51 412.199 Q2354.54 412.199 2355.72 410.64 Q2356.87 409.08 2357.92 404.37 L2358.36 402.364 Q2359.7 396.126 2362.15 393.516 Q2364.57 390.874 2368.93 390.874 Q2373.89 390.874 2376.79 394.821 Q2379.69 398.736 2379.69 405.611 Q2379.69 408.476 2379.11 411.595 Q2378.57 414.682 2377.46 418.12 L2371.41 418.12 Q2373.1 414.873 2373.96 411.722 Q2374.79 408.571 2374.79 405.484 Q2374.79 401.346 2373.38 399.118 Q2371.95 396.89 2369.37 396.89 Q2366.99 396.89 2365.71 398.513 Q2364.44 400.105 2363.26 405.547 L2362.79 407.584 Q2361.64 413.027 2359.28 415.446 Q2356.9 417.865 2352.76 417.865 Q2347.73 417.865 2344.99 414.3 Q2342.26 410.735 2342.26 404.179 Q2342.26 400.932 2342.73 398.068 Q2343.21 395.203 2344.17 392.784 Z" fill="#ff0000" fill-rule="nonzero" fill-opacity="1" /><path clip-path="url(#clip370)" d="M2329.3 382.472 L2329.3 377.379 Q2336.81 372.605 2344.01 370.249 Q2351.2 367.862 2358.3 367.862 Q2365.43 367.862 2372.65 370.249 Q2379.88 372.605 2387.36 377.379 L2387.36 382.472 Q2380.07 378.238 2372.88 376.17 Q2365.65 374.069 2358.3 374.069 Q2350.95 374.069 2343.78 376.17 Q2336.62 378.238 2329.3 382.472 Z" fill="#ff0000" fill-rule="nonzero" fill-opacity="1" /><polyline clip-path="url(#clip372)" style="stroke:#ff0000; stroke-linecap:round; stroke-linejoin:round; stroke-width:8; stroke-opacity:1; fill:none" points="356.233,794.198 359.608,790.153 362.983,786.108 366.358,782.064 369.733,778.019 373.108,773.973 376.483,769.928 379.858,765.882 383.233,761.835 386.608,757.787 389.983,753.738 393.358,749.688 396.733,745.636 400.108,741.582 403.484,737.527 406.859,733.469 410.234,729.409 413.609,725.347 416.984,721.283 420.359,717.216 423.734,713.147 427.109,709.076 430.484,705.002 433.859,700.927 437.234,696.851 440.609,692.774 443.984,688.697 447.359,684.621 450.735,680.547 454.11,676.478 457.485,672.414 460.86,668.357 464.235,664.311 467.61,660.279 470.985,656.265 474.36,652.272 477.735,648.306 481.11,644.374 484.485,640.481 487.86,636.637 491.235,632.85 494.61,629.132 497.986,625.493 501.361,621.948 504.736,618.511 508.111,615.2 511.486,612.031 514.861,609.023 518.236,606.199 521.611,603.578 524.986,601.183 528.361,599.036 531.736,597.157 535.111,595.567 538.486,594.284 541.861,593.322 545.236,592.694 548.612,592.408 551.987,592.467 555.362,592.871 558.737,593.614 562.112,594.687 565.487,596.078 568.862,597.769 572.237,599.742 575.612,601.976 578.987,604.451 582.362,607.144 585.737,610.033 589.112,613.098 592.487,616.318 595.863,619.674 599.238,623.15 602.613,626.729 605.988,630.396 609.363,634.139 612.738,637.947 616.113,641.808 619.488,645.715 622.863,649.66 626.238,653.636 629.613,657.636 632.988,661.657 636.363,665.695 639.738,669.744 643.114,673.804 646.489,677.87 649.864,681.941 653.239,686.016 656.614,690.092 659.989,694.169 663.364,698.246 666.739,702.322 670.114,706.396 673.489,710.469 676.864,714.54 680.239,718.608 683.614,722.674 686.989,726.738 690.364,730.799 693.74,734.858 697.115,738.915 700.49,742.969 703.865,747.022 707.24,751.074 710.615,755.124 713.99,759.172 717.365,763.22 720.74,767.266 724.115,771.312 727.49,775.358 730.865,779.403 734.24,783.448 737.615,787.493 740.991,791.537 744.366,795.582 747.741,799.627 751.116,803.671 754.491,807.716 757.866,811.76 761.241,815.804 764.616,819.847 767.991,823.889 771.366,827.93 774.741,831.969 778.116,836.006 781.491,840.04 784.866,844.07 788.242,848.097 791.617,852.118 794.992,856.133 798.367,860.141 801.742,864.141 805.117,868.132 808.492,872.113 811.867,876.081 815.242,880.036 818.617,883.975 821.992,887.897 825.367,891.801 828.742,895.683 832.117,899.542 835.492,903.375 838.868,907.18 842.243,910.954 845.618,914.693 848.993,918.395 852.368,922.057 855.743,925.673 859.118,929.241 862.493,932.756 865.868,936.212 869.243,939.606 872.618,942.931 875.993,946.181 879.368,949.351 882.743,952.432 886.119,955.418 889.494,958.3 892.869,961.071 896.244,963.72 899.619,966.239 902.994,968.618 906.369,970.846 909.744,972.913 913.119,974.809 916.494,976.524 919.869,978.047 923.244,979.369 926.619,980.482 929.994,981.377 933.369,982.048 936.745,982.49 940.12,982.7 943.495,982.677 946.87,982.419 950.245,981.931 953.62,981.214 956.995,980.274 960.37,979.119 963.745,977.756 967.12,976.193 970.495,974.441 973.87,972.51 977.245,970.409 980.62,968.149 983.996,965.742 987.371,963.196 990.746,960.521 994.121,957.727 997.496,954.823 1000.87,951.818 1004.25,948.718 1007.62,945.532 1011,942.266 1014.37,938.926 1017.75,935.52 1021.12,932.051 1024.5,928.525 1027.87,924.947 1031.25,921.321 1034.62,917.651 1038,913.941 1041.37,910.195 1044.75,906.415 1048.12,902.604 1051.5,898.765 1054.87,894.901 1058.25,891.015 1061.62,887.107 1065,883.181 1068.37,879.239 1071.75,875.281 1075.12,871.31 1078.5,867.328 1081.87,863.335 1085.25,859.333 1088.62,855.323 1092,851.307 1095.37,847.285 1098.75,843.257 1102.12,839.226 1105.5,835.191 1108.87,831.154 1112.25,827.115 1115.62,823.074 1119,819.031 1122.37,814.988 1125.75,810.944 1129.12,806.9 1132.5,802.855 1135.87,798.81 1139.25,794.766 1142.62,790.721 1146,786.676 1149.37,782.632 1152.75,778.587 1156.12,774.542 1159.5,770.496 1162.87,766.45 1166.25,762.403 1169.62,758.355 1173,754.307 1176.37,750.256 1179.75,746.205 1183.12,742.151 1186.5,738.096 1189.87,734.039 1193.25,729.98 1196.62,725.918 1200,721.854 1203.38,717.787 1206.75,713.718 1210.13,709.647 1213.5,705.574 1216.88,701.499 1220.25,697.423 1223.63,693.346 1227,689.269 1230.38,685.193 1233.75,681.119 1237.13,677.049 1240.5,672.984 1243.88,668.926 1247.25,664.879 1250.63,660.845 1254,656.827 1257.38,652.831 1260.75,648.861 1264.13,644.924 1267.5,641.025 1270.88,637.174 1274.25,633.378 1277.63,629.65 1281,625.999 1284.38,622.44 1287.75,618.987 1291.13,615.657 1294.5,612.466 1297.88,609.435 1301.25,606.584 1304.63,603.933 1308,601.505 1311.38,599.322 1314.75,597.404 1318.13,595.772 1321.5,594.445 1324.88,593.437 1328.25,592.762 1331.63,592.427 1335,592.438 1338.38,592.794 1341.75,593.49 1345.13,594.517 1348.5,595.864 1351.88,597.514 1355.25,599.448 1358.63,601.647 1362,604.09 1365.38,606.753 1368.75,609.616 1372.13,612.658 1375.5,615.857 1378.88,619.195 1382.25,622.655 1385.63,626.22 1389,629.876 1392.38,633.609 1395.75,637.408 1399.13,641.263 1402.5,645.164 1405.88,649.104 1409.25,653.076 1412.63,657.073 1416,661.092 1419.38,665.127 1422.75,669.175 1426.13,673.233 1429.5,677.298 1432.88,681.369 1436.25,685.443 1439.63,689.519 1443.01,693.596 1446.38,697.673 1449.76,701.749 1453.13,705.824 1456.51,709.897 1459.88,713.968 1463.26,718.037 1466.63,722.103 1470.01,726.167 1473.38,730.229 1476.76,734.288 1480.13,738.345 1483.51,742.4 1486.88,746.453 1490.26,750.505 1493.63,754.555 1497.01,758.604 1500.38,762.651 1503.76,766.698 1507.13,770.744 1510.51,774.79 1513.88,778.835 1517.26,782.88 1520.63,786.925 1524.01,790.969 1527.38,795.014 1530.76,799.059 1534.13,803.103 1537.51,807.148 1540.88,811.192 1544.26,815.236 1547.63,819.279 1551.01,823.321 1554.38,827.362 1557.76,831.402 1561.13,835.439 1564.51,839.473 1567.88,843.504 1571.26,847.531 1574.63,851.553 1578.01,855.57 1581.38,859.579 1584.76,863.58 1588.13,867.572 1591.51,871.554 1594.88,875.524 1598.26,879.481 1601.63,883.423 1605.01,887.348 1608.38,891.254 1611.76,895.139 1615.13,899.001 1618.51,902.838 1621.88,906.647 1625.26,910.426 1628.63,914.17 1632.01,917.878 1635.38,921.545 1638.76,925.168 1642.13,928.743 1645.51,932.265 1648.88,935.73 1652.26,939.133 1655.63,942.468 1659.01,945.73 1662.38,948.911 1665.76,952.005 1669.13,955.005 1672.51,957.902 1675.88,960.689 1679.26,963.356 1682.63,965.893 1686.01,968.292 1689.39,970.542 1692.76,972.633 1696.14,974.554 1699.51,976.295 1702.89,977.845 1706.26,979.196 1709.64,980.338 1713.01,981.264 1716.39,981.967 1719.76,982.442 1723.14,982.685 1726.51,982.694 1729.89,982.47 1733.26,982.013 1736.64,981.328 1740.01,980.42 1743.39,979.294 1746.76,977.959 1750.14,976.424 1753.51,974.698 1756.89,972.791 1760.26,970.714 1763.64,968.476 1767.01,966.088 1770.39,963.561 1773.76,960.904 1777.14,958.127 1780.51,955.238 1783.89,952.246 1787.26,949.159 1790.64,945.984 1794.01,942.729 1797.39,939.4 1800.76,936.002 1804.14,932.542 1807.51,929.024 1810.89,925.453 1814.26,921.833 1817.64,918.169 1821.01,914.465 1824.39,910.723 1827.76,906.947 1831.14,903.141 1834.51,899.306 1837.89,895.445 1841.26,891.562 1844.64,887.657 1848.01,883.734 1851.39,879.793 1854.76,875.838 1858.14,871.869 1861.51,867.888 1864.89,863.896 1868.26,859.896 1871.64,855.887 1875.01,851.871 1878.39,847.85 1881.76,843.823 1885.14,839.792 1888.51,835.758 1891.89,831.721 1895.26,827.682 1898.64,823.641 1902.01,819.599 1905.39,815.556 1908.76,811.512 1912.14,807.468 1915.51,803.423 1918.89,799.378 1922.26,795.334 1925.64,791.289 1929.02,787.244 1932.39,783.2 1935.77,779.155 1939.14,775.11 1942.52,771.064 1945.89,767.018 1949.27,762.972 1952.64,758.924 1956.02,754.875 1959.39,750.825 1962.77,746.774 1966.14,742.721 1969.52,738.666 1972.89,734.609 1976.27,730.55 1979.64,726.488 1983.02,722.425 1986.39,718.359 1989.77,714.29 1993.14,710.219 1996.52,706.146 1999.89,702.072 2003.27,697.996 2006.64,693.919 2010.02,689.842 2013.39,685.766 2016.77,681.691 2020.14,677.62 2023.52,673.554 2026.89,669.496 2030.27,665.447 2033.64,661.41 2037.02,657.39 2040.39,653.391 2043.77,649.417 "/>
</svg>
